<?xml version="1.0" encoding="UTF-8"?>
<svg viewBox="-21.28 -21.28 54.56 42.56" height="42.56mm" width="54.56mm" xmlns:svgjs="http://svgjs.com/svgjs" xmlns:xlink="http://www.w3.org/1999/xlink" version="1.1" xmlns="http://www.w3.org/2000/svg" id="SvgjsSvg1282">
  <defs id="SvgjsDefs1283">
  </defs>
  <defs id="SvgjsDefs1283">
  </defs>
  <g id="SvgjsG1284">
    <g transform="matrix(1,0,0,1,24,0)" id="SvgjsG1285">
      <g fill="none" stroke-width="0.04" stroke="blue" id="SvgjsG1286">
      </g>
      <g fill="none" stroke-width="0.1" stroke="black" id="SvgjsG1287">
        <circle cy="0" cx="0" r="2.5" id="SvgjsCircle1288">
        </circle>
        <path d="M-5.5923724228784355 3.6447258954177584  L-5.5293958385596245 3.5140319233779747 L-5.465833788171821 3.3951511232019227 L-5.40214782108556 3.2871943536305444 L-5.340039940578488 3.191280625317444 L-5.278544401176497 3.1045389217737736 L-5.221081770347034 3.0302764348900384 L-5.166296673673064 2.965218800576886 L-5.114317587834798 2.9085365649521497 L-5.0274506755474055 2.8247400163976026 L-4.962297142259251 2.7716607426641637 L-4.928970157999848 2.7488098757183876 L-4.869778865455171 2.718800129186797 L-4.790975908135451 2.6721116475487494 L-4.72455093724862 2.624027045619611 L-4.670474900913524 2.5754966685936145 L-4.628646664334111 2.52746066100913 L-4.598912281430299 2.4808794397571114 L-4.58105692458469 2.4366534764333356 L-4.576505644740562 2.415700854836494 L-4.574817022262285 2.395694379531587 L-4.575954450851982 2.376716269609802 L-4.579865054746053 2.3588852859806337 L-4.586509161001905 2.342315121465429 L-4.677218612830728 2.155542650932659 L-4.704759106859394 2.094693711840371 L-4.731550493612794 2.0335112487007607 L-4.80965301812615 1.8411258124935452 L-4.817521275295244 1.825100675080062 L-4.828155573757562 1.8102632731439312 L-4.841497969661364 1.7967191647736391 L-4.857495587243049 1.7845871108786797 L-4.876111820204736 1.77394933055024 L-4.920925681753411 1.7576255009414643 L-4.9754384609534 1.748553532913896 L-5.039124724731707 1.7474956076046668 L-5.1113737542794295 1.7552087735831918 L-5.191554558435083 1.7723972681348577 L-5.278980332588011 1.799718586070882 L-5.340888625908435 1.82362584894542 L-5.380170234622467 1.8331024103913087 L-5.463212045473095 1.8460039548976255 L-5.5836103266156565 1.8544878159241167 L-5.6605142339416075 1.8551879859045144 L-5.74551986319611 1.8523691927148216 L-5.839157651060734 1.8453809465958237 L-5.944767846770726 1.8330395098035777 L-6.057603921402212 1.8150158486394932 L-6.180445665857418 1.7901065668513318 L-6.311322630674265 1.7577955937875331 L-6.450586739768374 1.7171449797918705 L-6.591877654424239 1.6694085794533409 A6.8 6.8 0 0 1 -6.700989530063818 1.1560775640177083 L-6.59133 1.0550000000000004 L-6.48064 0.9612200000000004 L-6.37422 0.8784700000000004 L-6.27213 0.8057500000000003 L-6.17638 0.7433900000000003 L-6.08492 0.6891600000000003 L-6.00222 0.6446900000000003 L-5.92571 0.6075400000000003 L-5.85517 0.5769000000000003 L-5.74173 0.5356800000000004 L-5.66062 0.5136900000000003 L-5.62088 0.5063700000000003 L-5.5546 0.5030300000000003 L-5.46362 0.4924300000000003 L-5.38338 0.47552000000000033 L-5.31424 0.45318000000000036 L-5.25649 0.42631000000000036 L-5.21038 0.3958500000000003 L-5.17608 0.3627100000000003 L-5.1634 0.34542000000000034 L-5.15372 0.32783000000000034 L-5.14704 0.3100300000000003 L-5.14336 0.29215000000000035 L-5.14269 0.27431000000000033 L-5.14959 0.06679000000000032 L-5.15 3.153465507804435e-16 L-5.14959 -0.06678999999999968 L-5.14269 -0.27430999999999967 L-5.14336 -0.2921499999999997 L-5.14704 -0.31002999999999964 L-5.15372 -0.3278299999999997 L-5.1634 -0.34541999999999967 L-5.17608 -0.36270999999999964 L-5.21038 -0.39584999999999965 L-5.25649 -0.4263099999999997 L-5.31424 -0.4531799999999997 L-5.38338 -0.47551999999999967 L-5.46362 -0.49242999999999965 L-5.5546 -0.5030299999999996 L-5.62088 -0.5063699999999997 L-5.66062 -0.5136899999999996 L-5.74173 -0.5356799999999997 L-5.85517 -0.5768999999999996 L-5.92571 -0.6075399999999996 L-6.00222 -0.6446899999999997 L-6.08492 -0.6891599999999997 L-6.17638 -0.7433899999999997 L-6.27213 -0.8057499999999996 L-6.37422 -0.8784699999999995 L-6.48064 -0.9612199999999995 L-6.59133 -1.0549999999999995 L-6.700989530063818 -1.1560775640177074 A6.8 6.8 0 0 1 -6.591877654424239 -1.6694085794533413 L-6.450586739768374 -1.7171449797918705 L-6.311322630674265 -1.7577955937875336 L-6.180445665857418 -1.7901065668513323 L-6.057603921402212 -1.8150158486394936 L-5.944767846770726 -1.833039509803578 L-5.839157651060734 -1.8453809465958237 L-5.74551986319611 -1.8523691927148216 L-5.6605142339416075 -1.8551879859045144 L-5.5836103266156565 -1.8544878159241172 L-5.463212045473095 -1.846003954897626 L-5.380170234622467 -1.8331024103913087 L-5.340888625908435 -1.82362584894542 L-5.278980332588011 -1.7997185860708824 L-5.191554558435083 -1.7723972681348577 L-5.1113737542794295 -1.7552087735831918 L-5.039124724731707 -1.7474956076046668 L-4.9754384609534 -1.7485535329138964 L-4.920925681753411 -1.7576255009414643 L-4.876111820204737 -1.7739493305502405 L-4.857495587243049 -1.7845871108786797 L-4.841497969661364 -1.7967191647736396 L-4.828155573757562 -1.8102632731439312 L-4.817521275295244 -1.8251006750800625 L-4.80965301812615 -1.8411258124935452 L-4.731550493612794 -2.033511248700761 L-4.704759106859394 -2.0946937118403715 L-4.677218612830728 -2.1555426509326594 L-4.586509161001905 -2.342315121465429 L-4.579865054746053 -2.358885285980634 L-4.575954450851982 -2.376716269609802 L-4.574817022262285 -2.3956943795315873 L-4.576505644740562 -2.415700854836494 L-4.581056924584689 -2.436653476433336 L-4.598912281430299 -2.4808794397571114 L-4.628646664334111 -2.5274606610091306 L-4.670474900913524 -2.5754966685936145 L-4.72455093724862 -2.624027045619611 L-4.790975908135451 -2.6721116475487494 L-4.869778865455171 -2.7188001291867976 L-4.928970157999848 -2.7488098757183876 L-4.962297142259251 -2.7716607426641637 L-5.0274506755474055 -2.824740016397603 L-5.114317587834798 -2.9085365649521497 L-5.166296673673064 -2.965218800576886 L-5.221081770347034 -3.0302764348900384 L-5.278544401176497 -3.1045389217737736 L-5.340039940578488 -3.191280625317444 L-5.40214782108556 -3.287194353630545 L-5.465833788171821 -3.395151123201923 L-5.5293958385596245 -3.514031923377975 L-5.5923724228784355 -3.6447258954177584 L-5.651439439376616 -3.781667394035142 A6.8 6.8 0 0 1 -5.342970247006232 -4.206238813436082 L-5.1944784304899825 -4.192379992805319 L-5.050720241938851 -4.172872360337559 L-4.918016128501886 -4.149157445686451 L-4.795663093189995 -4.12194896814788 L-4.685251326314364 -4.092519835720957 L-4.583751897171143 -4.060838762765636 L-4.495367145636286 -4.029136923763434 L-4.416564132677284 -3.9971371151923893 L-4.346593702252104 -3.96521784098205 L-4.240055096560576 -3.9084970555740064 L-4.1694401583665615 -3.862934760813366 L-4.137409087947366 -3.8383002214874407 L-4.090577007640806 -3.791279478680038 L-4.021822169924217 -3.7307609468855083 L-3.9555645510711592 -3.6824460046427308 L-3.8926990055463433 -3.646013349155281 L-3.834088411568542 -3.621076274876824 L-3.780598607925293 -3.607191585243752 L-3.7330196086108636 -3.6038767060246095 L-3.711686058489729 -3.6060228978215014 L-3.6921369567400277 -3.6105992632767325 L-3.674439186396053 -3.617545580635731 L-3.658689356285117 -3.626774862919671 L-3.6449833350923395 -3.638214245904043 L-3.495382922093147 -3.782199928631427 L-3.446022622748119 -3.827195851208581 L-3.396113636305876 -3.8715823950288435 L-3.237279220938931 -4.005312679164639 L-3.2244698347586755 -4.017747876215152 L-3.2136448059105396 -4.032446704414604 L-3.2048866204675197 -4.049321436641981 L-3.198291887256926 -4.068285085918455 L-3.193927489313052 -4.089277430489452 L-3.19225084959484 -4.13694228629806 L-3.200468270470006 -4.1915904124705134 L-3.2191422615266516 -4.252486565534696 L-3.2488040962491382 -4.318815976514259 L-3.2899285571045502 -4.389760915864093 L-3.342928724521019 -4.46446501651343 L-3.3847965973933896 -4.51595555177131 L-3.4059480275675957 -4.55038616317433 L-3.4438794563371147 -4.625376822002632 L-3.489153202616286 -4.737260734598901 L-3.5135837181362124 -4.8101843323669105 L-3.5371710705622434 -4.891900544990418 L-3.5594605213191413 -4.983114860122177 L-3.580358462691083 -5.0873698386431805 L-3.5980852069331735 -5.200252940295179 L-3.6123552588276335 -5.324779773222583 L-3.622068903648089 -5.459235803226083 L-3.6264428487326805 -5.604245572222509 L-3.6247041279056904 -5.753372576254163 A6.8 6.8 0 0 1 -3.1702147445199813 -6.015772144095729 L-3.04019761022481 -5.942714418486164 L-2.9168024390192873 -5.866421586429937 L-2.8052169237544815 -5.790781308250334 L-2.7045085489337595 -5.716159664332707 L-2.6156122873661927 -5.644366302666668 L-2.5357737981819737 -5.574140665291266 L-2.46792460946752 -5.509230277133512 L-2.408949969647528 -5.447944924412798 L-2.3580115392050356 -5.390325678460988 L-2.2837541017614553 -5.295175507760599 L-2.2377760005543728 -5.224830597430206 L-2.218533931498632 -5.18929761587146 L-2.1948757563470345 -5.12729370673263 L-2.156680191126073 -5.044042165020471 L-2.1158023018068763 -4.972954867527829 L-2.0731902642417586 -4.914102259645518 L-2.029789644223755 -4.867482032468328 L-1.9865716891267753 -4.833041474150619 L-1.9444543932696932 -4.810661058835281 L-1.9240922906142761 -4.803944566041402 L-1.9043719219870945 -4.800173947894719 L-1.8853788824746163 -4.799321392865742 L-1.8672368094239593 -4.8013467287452 L-1.8500629197870224 -4.806222384058931 L-1.6548318887866391 -4.876911880694056 L-1.5914375210309797 -4.897941058920041 L-1.5277897593399326 -4.918190370802662 L-1.3282942938171751 -4.975755287512915 L-1.311534486952701 -4.981905358558482 L-1.2956667789806433 -4.990930470397871 L-1.2808022065130142 -5.002784030426597 L-1.2670644068969321 -5.01742586643539 L-1.2545389752188632 -5.034828166894755 L-1.2336202451759024 -5.077690228597264 L-1.2188998373001811 -5.130956102212296 L-1.2111906801324834 -5.194182902667195 L-1.2113095125495335 -5.266842389858178 L-1.2200226704876282 -5.348380642100581 L-1.2380558375631323 -5.43818334409349 L-1.255360955185878 -5.502251486754744 L-1.260679556843058 -5.542308477111138 L-1.2648301924634793 -5.626243954854144 L-1.2606825307036873 -5.746869486570802 L-1.2533402178276125 -5.823425293937909 L-1.241651358486875 -5.9076706093406814 L-1.2249135806420375 -6.000064968978145 L-1.201600480068884 -6.103806589563453 L-1.1718809729241193 -6.214140550767935 L-1.1342676880148743 -6.333705626347453 L-1.0884533498328324 -6.460488217096111 L-1.0334683608420359 -6.594740276617304 L-0.9712245433166442 -6.730267372289855 A6.8 6.8 0 0 1 -0.4493003122094238 -6.785123819467006 L-0.3602390038235488 -6.665499533345136 L-0.27854299607500865 -6.545613225461581 L-0.2073702282942277 -6.431126475021091 L-0.1457199068780416 -6.321994424874119 L-0.09371012184075378 -6.220250558423237 L-0.049337372705391735 -6.12362300730985 L-0.013755487930599553 -6.036727665801381 L0.015193527757723535 -5.956753563176361 L0.038292240832907276 -5.883397236562563 L0.06742872448690485 -5.766270009496092 L0.08081995731041391 -5.683305757655517 L0.0839458964542531 -5.6430183091824615 L0.08033945303940304 -5.576752272890139 L0.08137138554221568 -5.485162669138896 L0.08980138690029671 -5.403594655940689 L0.10479190809249844 -5.332498246225528 L0.125478192667337 -5.272255926960009 L0.15095152215898316 -5.223214585373444 L0.18032465148140714 -5.185638411089623 L0.19619451413809075 -5.171220576326456 L0.21267631875318782 -5.159754948710412 L0.22968055835611517 -5.151250935803188 L0.24707794510047493 -5.145722126305008 L0.26475018164345565 -5.143191008850415 L0.4718546117668265 -5.128361463231154 L0.5383215858284133 -5.121787761146608 L0.6047028465501205 -5.11439855110786 L0.8103647838803978 -5.085844603332516 L0.8281770885641571 -5.084646145217718 L0.8463438047981666 -5.086437016869447 L0.86474454467035 -5.091219816484343 L0.8832500203343088 -5.09900813276263 L0.90177072481946 -5.109811373266003 L0.9383145067220451 -5.140459401004444 L0.9734274510962344 -5.183132868608743 L1.0061867731784868 -5.237757828258259 L1.0356314902713395 -5.304183906234621 L1.0608362194146133 -5.382216766805115 L1.0808881510936081 -5.471590367135083 L1.0911380007695182 -5.537158153292778 L1.1025718621738707 -5.575915305063595 L1.1329197023086581 -5.65428239508966 L1.185771603708821 -5.762792295644345 L1.223617192381805 -5.829743118029101 L1.2685611535193448 -5.901950755833335 L1.3214320461186069 -5.979549335818779 L1.3849251417548878 -6.064839729806156 L1.4569521275079311 -6.153546806318297 L1.5399450705541065 -6.24747623676762 L1.633365676456775 -6.344663526537314 L1.738202195403508 -6.444944475850388 L1.8501885881098308 -6.543437797097041 A6.8 6.8 0 0 1 2.349302225847344 -6.381265945537668 L2.3820081990074184 -6.2357592247264835 L2.407879061374323 -6.093008872781585 L2.4263326635374853 -5.959471449310844 L2.4382650309006895 -5.834698915838491 L2.444395375080687 -5.72059698342613 L2.4456299327279174 -5.614275299996006 L2.4427920824342113 -5.520419999103034 L2.436709926184802 -5.435585395459485 L2.427974944556758 -5.359175963476532 L2.406952511700752 -5.240324041671224 L2.385441410329972 -5.1590857211702685 L2.371910716285674 -5.121009871623875 L2.3416632411343143 -5.061939707861042 L2.3053531104144294 -4.9778487166247345 L2.279877599992424 -4.899903838225071 L2.2646546075129685 -4.828856841807415 L2.2590497101126568 -4.765408874738864 L2.2623738439119303 -4.710246443370362 L2.273923925793347 -4.663971772020557 L2.28255750502478 -4.644345569900571 L2.292950891877348 -4.627167443991937 L2.3050261440647106 -4.6124823942946565 L2.318670678284377 -4.6003554208087305 L2.333785571487891 -4.590855183788195 L2.516953163281238 -4.493070759074307 L2.5750000000000006 -4.460030829489859 L2.632636836718763 -4.426280759074308 L2.80890442851211 -4.316545183788195 L2.824689321715624 -4.308205420808731 L2.84201385593529 -4.302452394294657 L2.860769108122653 -4.299337443991936 L2.880842494975221 -4.29892556990057 L2.902156074206654 -4.301261772020557 L2.9480061560880704 -4.314396443370363 L2.9974402898873445 -4.3390988747388635 L3.049585392487032 -4.375676841807415 L3.1035024000075766 -4.424383838225071 L3.1582668895855712 -4.485418716624734 L3.2129367588656863 -4.558909707861042 L3.2489692837143265 -4.614639871623875 L3.2751785896700287 -4.645395721170268 L3.3347774882992485 -4.704644041671225 L3.427195055443243 -4.782275963476532 L3.4890000738151983 -4.828045395459485 L3.559427917565791 -4.875729999103033 L3.6392900672720847 -4.925115299996007 L3.7319846249193147 -4.9772069834261305 L3.833864969099312 -5.028948915838491 L3.9478873364625167 -5.081001449310844 L4.072760938625679 -5.131788872781584 L4.2093218009925835 -5.180759224726484 L4.351687304216475 -5.225188381519959 A6.8 6.8 0 0 1 4.741689066314404 -4.8740292176437 L4.712384544364863 -4.727799496058517 L4.677956954217487 -4.58686793274978 L4.640500595303308 -4.457369669916289 L4.6006517938942775 -4.338530957678804 L4.559842705015836 -4.231800220002578 L4.517725604942124 -4.134168389222955 L4.476958709676762 -4.0495815631185135 L4.4368970415598 -3.974555132124587 L4.397838722906833 -3.9083044797202278 L4.330292343164435 -3.808278440192034 L4.277598372448594 -3.7428128946722863 L4.2497506251389146 -3.713532304347359 L4.198092181494399 -3.6718717810642016 L4.130718339020468 -3.609819498670258 L4.0757422640080865 -3.5489751326514294 L4.032937951553217 -3.4902622206535914 L4.002011009857163 -3.4345793356948464 L3.9826111750313626 -3.3828339000629795 L3.974341095385274 -3.335862042715762 L3.974245566908737 -3.314421021883951 L3.9767534249910117 -3.294500651710704 L3.9818117689593926 -3.2761737437255163 L3.9893441867310835 -3.259545470137656 L3.9992882342457494 -3.244718790838971 L4.126847647062671 -3.0808873024071 L4.166437521030979 -3.0270940493062373 L4.2053640010638995 -2.9728188122984944 L4.321758979358446 -2.8008758873849873 L4.332787109645576 -2.7868368403243746 L4.346273892495864 -2.7745346661933863 L4.362140703509095 -2.764060569178826 L4.380311130602469 -2.7555197214899625 L4.40073227310328 -2.7489849346562876 L4.4479607592713135 -2.742335145616334 L4.503168471666771 -2.744795265950879 L4.5656829928210225 -2.757001577631914 L4.634749550348321 -2.7795676103210796 L4.709604522593232 -2.813051021590147 L4.789439412415765 -2.857952143703342 L4.845024261545594 -2.8942084334640747 L4.881477184948835 -2.911645014991353 L4.960021951060498 -2.94152999309849 L5.076025347001888 -2.9748606716104136 L5.1511031459153385 -2.991534762599476 L5.234837258277631 -3.006451230911344 L5.327881773881885 -3.019084085536078 L5.433750062419239 -3.028969933105794 L5.547867727963599 -3.0348000712435765 L5.673204016466046 -3.035975351819169 L5.80793883463463 -3.031581302083607 L5.952611426701981 -3.0207736379273786 L6.100739751586037 -3.0034564254318656 A6.8 6.8 0 0 1 6.314194790322875 -2.5240285588537774 L6.227946791332018 -2.4023602838119893 L6.139173591771683 -2.2876158567585554 L6.052283816516761 -2.184548180661007 L5.9675440661141135 -2.0921915826200594 L5.886851806383247 -2.0112867538424988 L5.808665477813181 -1.9392262062125125 L5.737018504123161 -1.8785336855772514 L5.669904350504897 -1.8262881787455236 L5.607276232955791 -1.781651645588755 L5.504885289024056 -1.7177468992801408 L5.430119715209619 -1.679373716297776 L5.392770043133243 -1.6639512652673065 L5.328632845203939 -1.6469038654134547 L5.241844840411845 -1.6176196952150765 L5.166874063620693 -1.584396385215451 L5.103889685678826 -1.5481695535119178 L5.052988248868723 -1.509879827335475 L5.0142188531011955 -1.470498643353516 L4.987558583829727 -1.4309514608701488 L4.9787504653866606 -1.411402968613892 L4.972939163253042 -1.3921847671498684 L4.970105965376696 -1.3733848897621441 L4.970223843237818 -1.3551304956388144 L4.973277628909515 -1.3375410416088753 L5.0231726814330795 -1.1359904421712383 L5.037460143779099 -1.070745207711463 L5.050945525092516 -1.0053294856652166 L5.087342140725954 -0.8009097048942948 L5.091706644182635 -0.7835988525300519 L5.099023688385156 -0.7668746884511406 L5.109258542454614 -0.7508525112527416 L5.1223841778712025 -0.7356594801229499 L5.138381882582746 -0.7213836283458315 L5.178822538721616 -0.6960991878525624 L5.230257914693762 -0.6758916199978175 L5.292332525768412 -0.6616156941108255 L5.364606398056015 -0.6541388910135725 L5.446608748230624 -0.654281249156381 L5.537804480868053 -0.6628286902192024 L5.603330528892021 -0.6733420641001524 L5.643724028121969 -0.6744444342558789 L5.727633558098571 -0.6697986857579707 L5.847164741821323 -0.6530649438620902 L5.922533687783741 -0.6377605920458912 L6.005095680029764 -0.6173297321430972 L6.095234319501116 -0.5910258051690934 L6.195970750057277 -0.5569964640234913 L6.302593755866933 -0.5159067240375319 L6.417572182582116 -0.46600153502775477 L6.538871342667377 -0.40718578320385834 L6.666640458957492 -0.3384688462636598 L6.794918872425673 -0.2623995678415705 A6.8 6.8 0 0 1 6.794918872425672 0.26239956784156804 L6.666640458957491 0.3384688462636576 L6.538871342667377 0.4071857832038559 L6.4175721825821155 0.4660015350277523 L6.302593755866933 0.5159067240375297 L6.195970750057276 0.5569964640234891 L6.095234319501116 0.5910258051690912 L6.005095680029764 0.617329732143095 L5.922533687783741 0.637760592045889 L5.847164741821323 0.653064943862088 L5.727633558098571 0.6697986857579687 L5.643724028121969 0.6744444342558769 L5.603330528892021 0.6733420641001504 L5.537804480868053 0.6628286902192004 L5.446608748230624 0.654281249156379 L5.364606398056015 0.6541388910135705 L5.292332525768411 0.6616156941108238 L5.230257914693762 0.6758916199978156 L5.178822538721616 0.6960991878525604 L5.138381882582746 0.7213836283458295 L5.122384177871202 0.7356594801229479 L5.109258542454614 0.7508525112527396 L5.099023688385156 0.7668746884511386 L5.091706644182635 0.7835988525300499 L5.087342140725954 0.800909704894293 L5.050945525092516 1.0053294856652149 L5.037460143779099 1.0707452077114612 L5.0231726814330795 1.1359904421712366 L4.973277628909515 1.3375410416088735 L4.970223843237818 1.3551304956388124 L4.970105965376696 1.3733848897621421 L4.972939163253042 1.3921847671498664 L4.978750465386661 1.41140296861389 L4.987558583829727 1.4309514608701468 L5.0142188531011955 1.470498643353514 L5.052988248868723 1.509879827335473 L5.103889685678827 1.548169553511916 L5.166874063620693 1.5843963852154488 L5.241844840411845 1.6176196952150745 L5.328632845203939 1.6469038654134527 L5.392770043133243 1.6639512652673045 L5.430119715209619 1.679373716297774 L5.504885289024056 1.7177468992801388 L5.607276232955791 1.7816516455887528 L5.669904350504897 1.8262881787455214 L5.737018504123161 1.8785336855772492 L5.808665477813181 1.9392262062125103 L5.886851806383248 2.0112867538424966 L5.9675440661141135 2.092191582620057 L6.052283816516762 2.1845481806610048 L6.139173591771683 2.2876158567585527 L6.227946791332019 2.402360283811987 L6.314194790322876 2.524028558853775 A6.8 6.8 0 0 1 6.100739751586038 3.0034564254318634 L5.952611426701981 3.020773637927376 L5.807938834634631 3.031581302083605 L5.673204016466046 3.035975351819167 L5.5478677279636 3.034800071243574 L5.433750062419239 3.0289699331057918 L5.327881773881886 3.0190840855360754 L5.234837258277633 3.0064512309113423 L5.151103145915339 2.991534762599474 L5.076025347001889 2.974860671610412 L4.960021951060499 2.9415299930984884 L4.881477184948836 2.9116450149913513 L4.8450242615455945 2.894208433464073 L4.789439412415766 2.8579521437033404 L4.709604522593233 2.8130510215901454 L4.634749550348322 2.779567610321078 L4.565682992821024 2.7570015776319123 L4.503168471666773 2.7447952659508776 L4.447960759271314 2.742335145616332 L4.400732273103282 2.748984934656286 L4.38031113060247 2.7555197214899607 L4.362140703509096 2.7640605691788247 L4.346273892495866 2.7745346661933845 L4.332787109645576 2.786836840324373 L4.321758979358447 2.8008758873849855 L4.2053640010639 2.9728188122984927 L4.16643752103098 3.027094049306236 L4.126847647062672 3.080887302407098 L3.9992882342457508 3.244718790838969 L3.9893441867310844 3.2595454701376543 L3.981811768959395 3.2761737437255145 L3.9767534249910135 3.2945006517107025 L3.9742455669087384 3.314421021883949 L3.974341095385276 3.3358620427157604 L3.982611175031364 3.3828339000629777 L4.002011009857164 3.434579335694845 L4.032937951553219 3.4902622206535896 L4.075742264008089 3.5489751326514276 L4.1307183390204685 3.609819498670256 L4.198092181494402 3.6718717810642 L4.249750625138915 3.7135323043473574 L4.277598372448595 3.7428128946722845 L4.330292343164436 3.808278440192032 L4.397838722906834 3.908304479720226 L4.436897041559801 3.9745551321245847 L4.476958709676763 4.049581563118512 L4.517725604942125 4.134168389222953 L4.559842705015837 4.231800220002576 L4.60065179389428 4.338530957678802 L4.64050059530331 4.457369669916287 L4.67795695421749 4.586867932749779 L4.712384544364864 4.727799496058515 L4.7416890663144065 4.874029217643697 A6.8 6.8 0 0 1 4.351687304216477 5.225188381519957 L4.209321800992585 5.180759224726482 L4.072760938625681 5.131788872781582 L3.9478873364625184 5.081001449310843 L3.833864969099314 5.028948915838489 L3.731984624919316 4.977206983426129 L3.6392900672720865 4.925115299996005 L3.5594279175657926 4.875729999103032 L3.4890000738152 4.828045395459484 L3.4271950554432453 4.78227596347653 L3.3347774882992502 4.704644041671222 L3.2751785896700305 4.645395721170267 L3.2489692837143287 4.614639871623873 L3.2129367588656885 4.558909707861041 L3.158266889585573 4.485418716624733 L3.1035024000075784 4.424383838225069 L3.049585392487034 4.3756768418074135 L2.9974402898873462 4.339098874738863 L2.948006156088072 4.314396443370361 L2.9021560742066557 4.301261772020555 L2.880842494975223 4.298925569900569 L2.8607691081226547 4.299337443991935 L2.842013855935291 4.302452394294654 L2.824689321715626 4.308205420808729 L2.8089044285121116 4.316545183788193 L2.6326368367187647 4.426280759074307 L2.5750000000000024 4.460030829489858 L2.5169531632812396 4.493070759074306 L2.333785571487893 4.590855183788193 L2.318670678284379 4.600355420808729 L2.305026144064713 4.612482394294656 L2.2929508918773496 4.627167443991936 L2.2825575050247817 4.64434556990057 L2.2739239257933486 4.663971772020555 L2.262373843911932 4.710246443370362 L2.2590497101126585 4.765408874738863 L2.2646546075129703 4.828856841807413 L2.279877599992426 4.89990383822507 L2.305353110414431 4.977848716624734 L2.3416632411343166 5.0619397078610415 L2.3719107162856763 5.121009871623873 L2.3854414103299746 5.159085721170268 L2.4069525117007546 5.240324041671223 L2.42797494455676 5.35917596347653 L2.436709926184805 5.435585395459484 L2.442792082434213 5.520419999103033 L2.445629932727919 5.614275299996006 L2.4443953750806893 5.72059698342613 L2.4382650309006912 5.834698915838489 L2.426332663537487 5.959471449310843 L2.407879061374325 6.093008872781583 L2.3820081990074207 6.2357592247264835 L2.349302225847347 6.381265945537666 A6.8 6.8 0 0 1 1.850188588109833 6.543437797097039 L1.73820219540351 6.444944475850386 L1.6333656764567772 6.344663526537313 L1.5399450705541087 6.24747623676762 L1.4569521275079333 6.153546806318296 L1.38492514175489 6.064839729806154 L1.3214320461186089 5.979549335818779 L1.2685611535193468 5.901950755833335 L1.223617192381807 5.829743118029101 L1.185771603708823 5.762792295644344 L1.1329197023086603 5.654282395089659 L1.1025718621738725 5.575915305063594 L1.0911380007695202 5.537158153292778 L1.08088815109361 5.471590367135083 L1.0608362194146153 5.382216766805114 L1.0356314902713413 5.304183906234621 L1.0061867731784886 5.237757828258258 L0.9734274510962362 5.183132868608742 L0.9383145067220469 5.140459401004443 L0.9017707248194619 5.109811373266001 L0.8832500203343105 5.09900813276263 L0.8647445446703519 5.091219816484343 L0.8463438047981686 5.086437016869446 L0.828177088564159 5.084646145217717 L0.8103647838803996 5.085844603332516 L0.6047028465501223 5.114398551107859 L0.5383215858284152 5.121787761146607 L0.4718546117668283 5.128361463231153 L0.2647501816434574 5.143191008850415 L0.24707794510047687 5.1457221263050075 L0.22968055835611706 5.151250935803187 L0.21267631875318976 5.159754948710412 L0.1961945141380927 5.171220576326456 L0.18032465148140908 5.185638411089623 L0.15095152215898494 5.2232145853734435 L0.12547819266733895 5.272255926960008 L0.10479190809250039 5.332498246225527 L0.08980138690029865 5.403594655940689 L0.08137138554221773 5.485162669138895 L0.08033945303940515 5.576752272890139 L0.08394589645425521 5.6430183091824615 L0.08081995731041591 5.683305757655516 L0.06742872448690695 5.7662700094960915 L0.038292240832909386 5.883397236562562 L0.015193527757725755 5.956753563176361 L-0.013755487930597443 6.036727665801381 L-0.049337372705389626 6.12362300730985 L-0.09371012184075156 6.220250558423237 L-0.14571990687803915 6.32199442487412 L-0.20737022829422525 6.431126475021091 L-0.2785429960750062 6.54561322546158 L-0.36023900382354623 6.665499533345136 L-0.44930031220942135 6.785123819467006 A6.8 6.8 0 0 1 -0.971224543316642 6.730267372289856 L-1.0334683608420336 6.594740276617304 L-1.0884533498328302 6.4604882170961115 L-1.1342676880148723 6.333705626347454 L-1.1718809729241175 6.214140550767936 L-1.201600480068882 6.103806589563454 L-1.2249135806420355 6.000064968978145 L-1.241651358486873 5.907670609340682 L-1.2533402178276105 5.82342529393791 L-1.2606825307036853 5.746869486570802 L-1.2648301924634775 5.626243954854144 L-1.260679556843056 5.542308477111138 L-1.255360955185876 5.502251486754745 L-1.2380558375631303 5.438183344093489 L-1.2200226704876262 5.348380642100582 L-1.2113095125495317 5.266842389858179 L-1.2111906801324814 5.194182902667196 L-1.2188998373001794 5.130956102212296 L-1.2336202451759006 5.077690228597265 L-1.2545389752188614 5.034828166894756 L-1.2670644068969303 5.017425866435391 L-1.2808022065130125 5.002784030426598 L-1.2956667789806415 4.990930470397872 L-1.3115344869526993 4.981905358558483 L-1.3282942938171733 4.975755287512915 L-1.527789759339931 4.918190370802663 L-1.5914375210309781 4.897941058920042 L-1.6548318887866376 4.876911880694057 L-1.8500629197870206 4.806222384058931 L-1.8672368094239575 4.801346728745201 L-1.8853788824746145 4.7993213928657426 L-1.9043719219870932 4.80017394789472 L-1.9240922906142743 4.803944566041403 L-1.9444543932696918 4.810661058835282 L-1.986571689126774 4.83304147415062 L-2.029789644223753 4.867482032468328 L-2.073190264241757 4.914102259645519 L-2.1158023018068746 4.97295486752783 L-2.156680191126071 5.044042165020472 L-2.1948757563470327 5.1272937067326305 L-2.21853393149863 5.189297615871461 L-2.237776000554371 5.224830597430206 L-2.283754101761453 5.295175507760601 L-2.358011539205034 5.390325678460988 L-2.4089499696475256 5.447944924412799 L-2.4679246094675182 5.509230277133513 L-2.535773798181972 5.574140665291268 L-2.6156122873661904 5.644366302666669 L-2.7045085489337573 5.716159664332708 L-2.8052169237544797 5.7907813082503345 L-2.916802439019285 5.866421586429938 L-3.0401976102248076 5.942714418486166 L-3.1702147445199795 6.01577214409573 A6.8 6.8 0 0 1 -3.6247041279056886 5.753372576254165 L-3.6264428487326796 5.604245572222511 L-3.6220689036480866 5.4592358032260835 L-3.6123552588276313 5.324779773222584 L-3.598085206933172 5.20025294029518 L-3.5803584626910814 5.087369838643181 L-3.55946052131914 4.983114860122178 L-3.5371710705622426 4.89190054499042 L-3.5135837181362106 4.810184332366912 L-3.4891532026162846 4.737260734598902 L-3.4438794563371133 4.625376822002633 L-3.4059480275675944 4.5503861631743305 L-3.384796597393388 4.515955551771312 L-3.3429287245210175 4.464465016513432 L-3.2899285571045493 4.389760915864095 L-3.2488040962491374 4.31881597651426 L-3.2191422615266503 4.252486565534697 L-3.2004682704700045 4.191590412470514 L-3.1922508495948385 4.136942286298061 L-3.1939274893130505 4.089277430489454 L-3.198291887256925 4.068285085918456 L-3.204886620467518 4.049321436641982 L-3.2136448059105387 4.032446704414605 L-3.224469834758674 4.017747876215153 L-3.2372792209389303 4.00531267916464 L-3.396113636305875 3.8715823950288444 L-3.4460226227481177 3.8271958512085824 L-3.4953829220931456 3.782199928631428 L-3.6449833350923386 3.638214245904044 L-3.6586893562851155 3.626774862919672 L-3.674439186396052 3.617545580635732 L-3.692136956740027 3.6105992632767334 L-3.711686058489728 3.6060228978215028 L-3.7330196086108622 3.603876706024611 L-3.780598607925292 3.6071915852437533 L-3.8340884115685405 3.6210762748768253 L-3.892699005546342 3.646013349155282 L-3.9555645510711583 3.6824460046427325 L-4.021822169924216 3.73076094688551 L-4.090577007640805 3.79127947868004 L-4.137409087947365 3.838300221487443 L-4.16944015836656 3.862934760813367 L-4.2400550965605746 3.9084970555740073 L-4.346593702252102 3.9652178409820515 L-4.4165641326772835 3.997137115192391 L-4.495367145636285 4.029136923763436 L-4.583751897171142 4.060838762765638 L-4.685251326314362 4.092519835720959 L-4.795663093189994 4.121948968147881 L-4.918016128501885 4.149157445686452 L-5.0507202419388495 4.1728723603375615 L-5.194478430489982 4.1923799928053205 L-5.342970247006231 4.206238813436084 A6.8 6.8 0 0 1 -5.651439439376616 3.781667394035141 Z" id="SvgjsPath1289">
        </path>
      </g>
    </g>
    <g transform="matrix(1,0,0,1,0,0)" id="SvgjsG1290">
      <g fill="none" stroke-width="0.04" stroke="blue" id="SvgjsG1291">
      </g>
      <g fill="none" stroke-width="0.1" stroke="black" id="SvgjsG1292">
        <circle cy="0" cx="0" r="2.5" id="SvgjsCircle1293">
        </circle>
        <path d="M18.53937647304688 -2.23655967513408  L18.40100112196847 -2.1522417042504784 L18.26678256321461 -2.0742791780854355 L18.13895429623454 -2.003560060720513 L18.01483823986923 -1.9382430533462993 L17.896088189385694 -1.878904923866542 L17.783242619636884 -1.8254429842452886 L17.574750160043994 -1.734477698597912 L17.39030428389255 -1.6630373796545732 L17.183716885595516 -1.5915624619221194 L17.147276380556562 -1.574097958135686 L17.119103096321926 -1.5559585023711302 L17.099211823123063 -1.5375060079454947 L17.087590214528873 -1.5190603929196 L17.08423380705456 -1.5009721998405121 L17.09102988960373 -1.4217031752345233 L17.108223461955983 -1.1963235247117494 L17.1225640011245 -0.9707443706740673 L17.126866173548017 -0.8913009548837181 L17.1327073066171 -0.873855916492551 L17.146782947957604 -0.8572072282303049 L17.169048731522718 -0.8417026423850962 L17.199472359600342 -0.82766068188827 L17.237988817297918 -0.8154376795389711 L17.452513107177563 -0.773409759632862 L17.645106539462322 -0.7283345975058532 L17.86422988565381 -0.6672711218936328 L17.983417713995436 -0.630034538065263 L18.109270368635602 -0.587800695947565 L18.241268906534 -0.5403929656424183 L18.377695356467765 -0.48815233817231496 L18.521457995959302 -0.4296281509808091 L18.67022148110768 -0.3653888834997173 L18.797483440372407 -0.3074813557350924 A18.8 18.8 0 0 1 18.797483440372403 0.3074813557350906 L18.67022148110768 0.36538888349971554 L18.521457995959302 0.4296281509808073 L18.377695356467765 0.4881523381723132 L18.241268906534 0.5403929656424166 L18.109270368635602 0.5878006959475632 L17.983417713995436 0.6300345380652612 L17.86422988565381 0.6672711218936312 L17.645106539462322 0.7283345975058514 L17.452513107177563 0.7734097596328602 L17.237988817297918 0.8154376795389693 L17.199472359600342 0.8276606818882685 L17.169048731522718 0.8417026423850944 L17.146782947957604 0.8572072282303034 L17.1327073066171 0.8738559164925495 L17.126866173548017 0.8913009548837165 L17.1225640011245 0.9707443706740657 L17.108223461955983 1.1963235247117476 L17.09102988960373 1.4217031752345217 L17.08423380705456 1.5009721998405106 L17.087590214528873 1.5190603929195985 L17.099211823123063 1.5375060079454932 L17.119103096321926 1.5559585023711284 L17.147276380556562 1.5740979581356846 L17.183716885595516 1.5915624619221176 L17.39030428389255 1.6630373796545714 L17.574750160043994 1.7344776985979102 L17.783242619636884 1.8254429842452873 L17.896088189385694 1.8789049238665403 L18.01483823986923 1.9382430533462975 L18.13895429623454 2.003560060720511 L18.26678256321461 2.0742791780854337 L18.40100112196847 2.1522417042504767 L18.53937647304688 2.236559675134078 L18.65734075746429 2.311615092324277 A18.8 18.8 0 0 1 18.571754489934175 2.920593028959934 L18.437671865100896 2.9602255631398835 L18.281415757905 3.0031357829480303 L18.130907213925916 3.041082524432592 L17.98853796670362 3.073827857617004 L17.85122614866622 3.1024035733081883 L17.720720468636724 3.1267110943672893 L17.597510237206805 3.146997554654543 L17.372020991101216 3.1769706891374887 L17.17502861477079 3.1948033576896027 L16.956742904593277 3.206566254114444 L16.91690017327434 3.21330984818934 L16.884818362667897 3.2229810026298584 L16.860611446886676 3.2352359007673686 L16.84435573914774 3.2497636144865436 L16.83614357149489 3.2662259503609428 L16.820826880991255 3.3442974816128395 L16.775231352584765 3.5656854975245706 L16.72683832204018 3.7864788860005634 L16.709076262534712 3.8640306380254157 L16.70988261576063 3.8824099196891546 L16.718823990216595 3.9022934385637944 L16.73595359204238 3.9233346847552633 L16.76132817150304 3.945218571914417 L16.794983450903246 3.96758465043736 L16.989612968899507 4.0671153880240105 L17.162321259742427 4.163530359237605 L17.35612476416739 4.282626919106491 L17.460431664668153 4.351273638677955 L17.569767776338587 4.42656110632557 L17.683585573313582 4.508516069517306 L17.800327625525675 4.596337209599343 L17.922389691967073 4.692220622847181 L18.047683590166393 4.794976143740312 L18.15405415912269 4.885718582034748 A18.8 18.8 0 0 1 17.984547463406994 5.476858681001408 L17.846253938780816 5.49744481940021 L17.685546556925274 5.518190792916497 L17.53122158606627 5.534821498534896 L17.385680597010015 5.547434186770446 L17.245728117181827 5.556621694046134 L17.113109556376767 5.562529775798618 L16.988275068863782 5.56547125967077 L16.760808814529323 5.563770660055666 L16.563251726682978 5.554013742423878 L16.3454532792599 5.53528266396864 L16.305059767764288 5.536415593381188 L16.27194421057996 5.541527703744989 L16.246267322663353 5.550294386522294 L16.22814794738653 5.562418360275884 L16.21772458565208 5.57757757299135 L16.191691499026504 5.652757646154026 L16.115728446478325 5.86564545803522 L16.037077873034704 6.077555092306504 L16.008695554857162 6.151880115110865 L16.006936159086358 6.170192753547794 L16.013023265720978 6.191127166193452 L16.027057787958782 6.2143476202276995 L16.04913977531942 6.239549993810451 L16.079354767349663 6.266382316792492 L16.258238162865148 6.392031621640751 L16.41584729797105 6.511544637380333 L16.59118968246268 6.65645439240321 L16.684927698544495 6.738949761612913 L16.782721768356133 6.828721182508849 L16.88402597198852 6.925718941381969 L16.98740955817846 7.028932765584491 L17.094939333027646 7.140870804342019 L17.20471307513913 7.2600638559131685 L17.297419546504305 7.364727116968435 A18.8 18.8 0 0 1 17.047291677624134 7.926523508651595 L16.90747897935535 7.9276625655016995 L16.745448309226056 7.92584049594983 L16.59031067150284 7.920831467934352 L16.44443073041418 7.913066019591255 L16.304561604621476 7.9026864940729595 L16.172411432475542 7.890080142427857 L16.048382450181805 7.875619397247227 L15.823366559520064 7.8422781637711765 L15.629089984154886 7.805121567258859 L15.416017998523266 7.756261093059385 L15.375859920605299 7.75176130662726 L15.342355173495294 7.752214871501052 L15.31570808485957 7.7573227054098455 L15.296077715074144 7.7668069598395535 L15.28364603813785 7.780367992563927 L15.247403259809303 7.851193313029336 L15.142551217530597 8.051437301778023 L15.035173945136314 8.250338601857143 L14.996723797825624 8.319990243415589 L14.992432897695487 8.33787980394885 L14.995547257902105 8.359457645835919 L15.006213534540597 8.384405347988043 L15.024573129035128 8.41243567245988 L15.050759733244586 8.443211979255487 L15.21041524446243 8.59253423057045 L15.349857541294213 8.73281910592869 L15.503325965787385 8.90072155255644 L15.58467059359263 8.995459892879806 L15.669019171215703 9.097967968429803 L15.755838010413601 9.208120571941159 L15.843850886673275 9.324718140580046 L15.934755425176123 9.450532058250483 L16.026872390175345 9.583842683330904 L16.10411033793633 9.700389615823255 A18.8 18.8 0 0 1 15.778229750343193 10.22190757249274 L15.639619173569018 10.203577377348218 L15.479418957852879 10.179222729239443 L15.32648823091729 10.152671462622724 L15.183108724913541 10.124679023319912 L15.046045346591104 10.094934490665311 L14.916935715886526 10.064059073917884 L14.796126321871505 10.032477561640555 L14.577940473242437 9.968144643488081 L14.390725782911579 9.904311578981346 L14.18652746290594 9.826272722589964 L14.147386449873158 9.816227803537632 L14.114144644628889 9.812013994797072 L14.087046010543729 9.813363561660395 L14.066286729068354 9.820023496541923 L14.052088705380958 9.831722399198673 L14.006341659804061 9.896814432666565 L13.874641453530348 10.080517076815912 L13.740627458652725 10.262538655143702 L13.692857870589892 10.326161225480865 L13.68611898359063 10.343279508163752 L13.686199979890352 10.365080791144333 L13.693290403987477 10.391270162769535 L13.707570256992794 10.421582859748632 L13.72921878091735 10.455704124553561 L13.86653889491715 10.625792934564924 L13.985100267780249 10.784119184014653 L14.113707643959945 10.97174629210987 L14.181075602836534 11.076883629515768 L14.250336939152692 11.190133156630454 L14.32098058396608 11.311296609649423 L14.391909679772256 11.43900848367889 L14.464419628489189 11.57624945546599 L14.537086864433936 11.721082914377082 L14.597352939794426 11.847245064835725 A18.8 18.8 0 0 1 14.202062528442156 12.318333832682839 L14.067351970372304 12.280891161941895 L13.912100324043186 12.23447797079865 L13.764353130538904 12.186901255783766 L13.62626477861266 12.139226666511343 L13.494674930512254 12.090696070214655 L13.371118813350668 12.042152543231623 L13.255880425050218 11.994064962070638 L13.048771357814658 11.899992526315966 L12.872262473511855 11.810725431806402 L12.680912307158964 11.705027130794885 L12.643550194307808 11.689632592045779 L12.61121834485636 11.680833426684861 L12.584195609409992 11.678398458718828 L12.562711472045256 11.682104445995272 L12.54702344998782 11.691713512751488 L12.49266255136823 11.7498053168315 L12.336677575807867 11.913391053371802 L12.178635288418537 12.07499006697259 L12.122476040298102 12.13134522512646 L12.113420331199785 12.147359042058305 L12.110466387091773 12.168959428957773 L12.113842951607717 12.195880723727337 L12.123765122028159 12.227885791047179 L12.140454201774455 12.264687882254364 L12.25276613873652 12.45223266574841 L12.348138925369714 12.625518648937529 L12.449382056947321 12.829218470263811 L12.501462106205642 12.942708426071587 L12.55428810808709 13.0644951315251 L12.60738156032563 13.194311125260056 L12.659846321509097 13.330651538322222 L12.71255035676718 13.47664832481944 L12.764353478567543 13.630185599029115 L12.806474670922292 13.763507364702694 A18.8 18.8 0 0 1 12.349468314031675 14.174997736716824 L12.221279762447988 14.119171369375017 L12.073998482205562 14.051603015168688 L11.934310553194205 13.983926878395692 L11.804201088042536 13.9174980708048 L11.680646016876203 13.851126003720205 L11.56504829253516 13.78585921103685 L11.457623894095825 13.722201531060694 L11.265622750664445 13.60022059065998 L11.103255217046767 13.4872569486024 L10.928477617677096 13.355956500169906 L10.893621616035439 13.335511978909746 L10.862829025049448 13.32229872267332 L10.836408155049433 13.316126613759653 L10.814617326091296 13.316806520604178 L10.797744655168309 13.3241387219056 L10.735827976563051 13.374099605709763 L10.558594301835038 13.51438442435528 L10.379599835287596 13.652415532245481 L10.316144002994026 13.70040638916563 L10.304947730873542 13.715004049615306 L10.299016341519792 13.735983113472738 L10.298613325467036 13.76311233900649 L10.303984689541675 13.796186834436924 L10.315389491155994 13.834953441202774 L10.400507226980293 14.036303852297824 L10.470835104576704 14.22117675467344 L10.542743409158419 14.436984503913784 L10.578521869879832 14.55661812522655 L10.613884339288639 14.684571569327561 L10.648394195297413 14.820513383123956 L10.681373454959516 14.962828624163489 L10.713245752662404 15.11473956399054 L10.743176471477717 15.273992225102369 L10.766332939729683 15.411878649473303 A18.8 18.8 0 0 1 10.256505746200574 15.755761433626558 L10.137334245447311 15.682637966422652 L10.000889993881522 15.595229590309991 L9.871980196008629 15.50877127080071 L9.752382050373393 15.424881206069458 L9.639266615059572 15.341959524985649 L9.533877261752908 15.26123981048168 L9.436357746896867 15.18325105602155 L9.263201611128492 15.03573583122843 L9.118135727547482 14.901274350421247 L8.963332542326185 14.746927368444467 L8.931661084317872 14.721830794024282 L8.903007094554829 14.704460627915132 L8.877702342182417 14.69467151113317 L8.85602895532985 14.692312103932426 L8.838300042888449 14.69722472682098 L8.770032722017396 14.738082258575709 L8.575 14.85233567490312 L8.378537277982604 14.96411225857571 L8.309019957111552 15.00280472682098 L8.29590104467015 15.015702103932426 L8.287107657817582 15.035651511133167 L8.28293290544517 15.062460627915133 L8.283648915682127 15.095960794024283 L8.289547457673816 15.135937368444466 L8.345814272452518 15.347174350421248 L8.389728388871509 15.540035831228431 L8.430902253103135 15.763751056021551 L8.449682738247093 15.887199810481679 L8.466893384940427 16.018829524985648 L8.482147949626606 16.15825120606946 L8.494999803991373 16.30377127080071 L8.505420006118477 16.458639590309993 L8.512895754552689 16.62050796642265 L8.51663678438744 16.760275247084046 A18.8 18.8 0 0 1 7.963911960622049 17.02985715614375 L7.8560770484058 16.94085985419015 L7.733125557670339 16.83531276078665 L7.6175029735187865 16.731755071385443 L7.510743989263896 16.632036574200292 L7.410269853084072 16.53417925531755 L7.317140154695287 16.43957773641847 L7.231423629852411 16.34877586986904 L7.080482788967589 16.17859757673803 L6.955542097837149 16.02525539695749 L6.823726394678548 15.850866069873511 L6.795855929207958 15.821605918567462 L6.7698982579851705 15.800416933110634 L6.746202151461566 15.787201342483577 L6.725068054536539 15.781848544414945 L6.706827973691057 15.78424597027413 L6.633538756302039 15.815204904598573 L6.424503077082893 15.901203105820402 L6.214396023006577 15.98454956121817 L6.140170289134019 16.013190535906197 L6.125384081079833 16.024136596904487 L6.113899850001199 16.042668054929493 L6.10603461811535 16.068635253996426 L6.102081338189814 16.101909048156852 L6.102358812148497 16.14231749168296 L6.128679536334488 16.359329556965804 L6.145325153251528 16.55642578685732 L6.154963174700371 16.783694124824915 L6.156380143486035 16.908555222847717 L6.15510398180283 17.04129918508841 L6.150806342416607 17.181487049027147 L6.143280644757595 17.327379554916746 L6.132045933927318 17.48219091842911 L6.116921205040694 17.643524425724117 L6.101173981567856 17.782452151540824 A18.8 18.8 0 0 1 5.5163096875456015 17.97248608029201 L5.421910247772262 17.869347174838317 L5.314844628779047 17.747715718259023 L5.214759720430605 17.629074291594968 L5.122917839748038 17.515468269075516 L5.0370406174753155 17.404579993794847 L4.957983237650086 17.297937981458393 L4.885738077475338 17.196090357866456 L4.759950423249229 17.006561323298413 L4.657566753004286 16.837323075649795 L4.5513041746322225 16.646285693345387 L4.527777168607556 16.613431480715718 L4.505021052468962 16.588836095411015 L4.483394809553723 16.57245125737791 L4.463211353713206 16.56420925456708 L4.444815126889516 16.564044820229576 L4.367930504233759 16.58450257668237 L4.148960509534303 16.640571705633338 L3.929298618213432 16.693865788807155 L3.8518091908186776 16.711897805944268 L3.835643483872417 16.72067949820303 L3.821691936062545 16.73743231330106 L3.810289312455348 16.76205217266038 L3.8017436884642786 16.794451958317126 L3.796394693674972 16.83450576655984 L3.7922570243113523 17.053069022145582 L3.7813101537272598 17.25056374720024 L3.7592247392689058 17.47696167865767 L3.74325061201064 17.60080484099753 L3.723512480986448 17.732079340743944 L3.699746286189984 17.870304790227376 L3.67198951565177 18.01373010559844 L3.639318562731131 18.165471286018445 L3.6018877421673245 18.323129751290438 L3.5669587671795933 18.458513852107384 A18.8 18.8 0 0 1 2.961338721110348 18.565301006287296 L2.882212131497334 18.450027978809395 L2.7931162947347317 18.314679577002906 L2.710517101085506 18.183263633493386 L2.6353799217141582 18.05798129764304 L2.5657711157961822 17.936220380109237 L2.502324816506369 17.819613539802045 L2.4449571908648995 17.708702507310864 L2.3467710369056807 17.503511698377576 L2.2689371692278524 17.32167141284571 L2.190295995858448 17.117704300665626 L2.171570375690402 17.08189549659006 L2.1524587365519405 17.054372432635603 L2.133323287463927 17.035137259431288 L2.114483320717512 17.02416647308782 L2.0962890095453393 17.02144337908097 L2.0173054533478774 17.03100177070312 L1.7926631450402593 17.056050505565885 L1.5677218853276957 17.078254907807896 L1.488477007972065 17.085326994691627 L1.47124644923122 17.091773392560075 L1.4550991356985794 17.106421490241296 L1.440381059468257 17.129214812335242 L1.4274094222621376 17.160109964514714 L1.4165380708240238 17.19902953565713 L1.3820225429384263 17.414889896387805 L1.3436962532372405 17.60893910642933 L1.2903172703423342 17.830060053164612 L1.2572629652569205 17.950474813536086 L1.2194470451603359 18.07772474197319 L1.1766748769016973 18.21129737585624 L1.1292272874499512 18.349463890088952 L1.0757559953748896 18.495181417942753 L1.016747631479249 18.646096198499066 L0.963316757743642 18.775301576790977 A18.8 18.8 0 0 1 0.3487286649415463 18.796763465912093 L0.28641503455051376 18.671599974768725 L0.2170231291360959 18.52516903041967 L0.15351734953527896 18.38353643192168 L0.09654733120433834 18.249016260901225 L0.04456179786945946 18.118752638873094 L-0.0020385108383560446 17.994450590103426 L-0.04341200636814324 17.876634905801012 L-0.11208557825875143 17.65977612819728 L-0.1638546956698278 17.468873119099783 L-0.21334380304994732 17.255946264873458 L-0.22690356446487847 17.217879846991416 L-0.241998740286544 17.187964809520054 L-0.2582709457970852 17.166253691911262 L-0.2754007249268229 17.15276765591226 L-0.2930389888762344 17.14753890416343 L-0.37258415353648167 17.14601188773452 L-0.5985263684478924 17.13955268337749 L-0.824368770798734 17.130235221255187 L-0.9038266867172251 17.12620972775873 L-0.9217867240262336 17.130195359435017 L-0.9398155141910277 17.142453631140025 L-0.9575625724322165 17.162976769881062 L-0.9747077446901871 17.1917659495888 L-0.9908898542873443 17.22879375844898 L-1.0551114352054576 17.437749747940494 L-1.1200711663902112 17.624576495823135 L-1.2037047565373133 17.836116590129407 L-1.2531958750001024 17.950759212191635 L-1.3083535402993711 18.071507794207047 L-1.36929917041765 18.1978277731078 L-1.4355140654250835 18.328046232164706 L-1.5087449387770189 18.464903881523853 L-1.588182315322285 18.606137592823977 L-1.6590751166252224 18.72664941287134 A18.8 18.8 0 0 1 -2.270668998017361 18.66236830567445 L-2.3149568052515552 18.529750515849358 L-2.3632941448110194 18.37508714072676 L-2.4064704426002512 18.225994604665374 L-2.4441644432864083 18.084854880589294 L-2.477514864764494 17.948623987296937 L-2.5063621608883806 17.819046128052616 L-2.5309362382776515 17.69661894022056 L-2.5687605751378286 17.472313103379232 L-2.593457315298245 17.276063080639233 L-2.612831107506951 17.058320863383475 L-2.620961084836825 17.01873775121912 L-2.6317459869148343 16.987013002407387 L-2.644838228877 16.963248522602346 L-2.6599244087241347 16.94750972729839 L-2.6766633167062377 16.939877089512756 L-2.755221833680442 16.927294386670614 L-2.9780662469878556 16.889452964159368 L-3.2004140265071412 16.848794991474502 L-3.278538423037179 16.833750269249833 L-3.2968783672173707 16.835197558946973 L-3.3164377241212053 16.84482741136061 L-3.3368683380715756 16.862680907197863 L-3.35785333410574 16.888803765798066 L-3.3790312355055088 16.923219108195052 L-3.471708869434532 17.121203635795865 L-3.5620376748259415 17.297171551384363 L-3.6742980395248255 17.49501340594925 L-3.7392626830394238 17.601652501467836 L-3.810688512327241 17.713549503262104 L-3.8886213669395344 17.830158152478102 L-3.972314769889662 17.949894002174958 L-4.063879868867561 18.07522799456795 L-4.162200099886674 18.204031683072387 L-4.249174981018947 18.313504319378147 A18.8 18.8 0 0 1 -4.845870671777565 18.16473137449617 L-4.87127064406374 18.027240540417793 L-4.897612586436634 17.867355081191437 L-4.919619024890125 17.713704524190845 L-4.937303337084432 17.56869237124422 L-4.951369518687197 17.429145786065227 L-4.961902322421414 17.296814201983814 L-4.969198675206386 17.172158416574405 L-4.975437569343694 16.944771378465493 L-4.972581238298353 16.746994125544536 L-4.961462626507665 16.528674649840127 L-4.964004578991469 16.488345283646616 L-4.9702692914745175 16.45542830964376 L-4.97992674429072 16.430073016210184 L-4.992675689524802 16.412387799349247 L-5.00818943773595 16.40249983613931 L-5.084232254850198 16.37910635488215 L-5.299641453530348 16.31061925446188 L-5.514166863606585 16.23941213240501 L-5.589437138234896 16.213641009857117 L-5.607800023134182 16.212521787727418 L-5.628509246143362 16.219335786726244 L-5.651225757141848 16.234172141671298 L-5.675642127874481 16.25712022743562 L-5.701403617315621 16.288253247876533 L-5.820733439530372 16.47141276996096 L-5.934673171678987 16.63309683793892 L-6.0733752906250595 16.81338968610509 L-6.152548996301643 16.909949646385932 L-6.238852767056598 17.010817120100086 L-6.332255971795186 17.11544478491471 L-6.431798885799418 17.222367503134677 L-6.539915999905431 17.33373835496489 L-6.655205393939211 17.44760500338893 L-6.75656948777204 17.54390769561067 A18.8 18.8 0 0 1 -7.326752985007804 17.313538609189017 L-7.332770740777451 17.17385083354919 L-7.336604570019004 17.011855278815897 L-7.337012818844207 16.856637334193195 L-7.3343432375254105 16.710575248984256 L-7.328851397028 16.57042908746725 L-7.320864699328751 16.437919462307942 L-7.310741312301942 16.313461362390317 L-7.285273330738635 16.08741895306169 L-7.2549195237223065 15.89196397921959 L-7.213524919063495 15.677316585326395 L-7.210429370487561 15.637025930342713 L-7.21205195787317 15.603557422605197 L-7.218086650209529 15.577104827488547 L-7.228250217113289 15.557817411700194 L-7.24223684809118 15.545866581022443 L-7.314283878407764 15.512117648853243 L-7.518065167432673 15.414317894030715 L-7.720592714977766 15.313947588235772 L-7.791543817427378 15.277951670950829 L-7.809572230378664 15.274287721379954 L-7.83102823802371 15.278153240224267 L-7.855588495023374 15.289683681504217 L-7.882961003571375 15.309010336046317 L-7.912804662965174 15.336255065701557 L-8.056464054211904 15.50102459051309 L-8.191797005835975 15.645277814410225 L-8.354241200055275 15.8045124609682 L-8.446082941771603 15.889113856219762 L-8.545584849265035 15.976988531213006 L-8.65264041699425 16.067598753142846 L-8.766095352459883 16.15962721079856 L-8.88866010504933 16.25486721511758 L-9.018674685182651 16.351580538671044 L-9.13245505492953 16.432838864447362 A18.8 18.8 0 0 1 -9.66502838544287 16.125357508712266 L-9.651546795925029 15.986191655171325 L-9.632797890909966 15.825239064136772 L-9.61160000400788 15.671474872626245 L-9.588628489539746 15.527205787500426 L-9.563685519370566 15.389187835265439 L-9.53733477222383 15.259079318154496 L-9.509988685598534 15.137241339074565 L-9.453309533626344 14.916943216904372 L-9.396049052965656 14.727614830880228 L-9.32518415433274 14.520817386162584 L-9.316511356028963 14.481349654158045 L-9.313460236499342 14.44798103911912 L-9.315754709933891 14.42094601199396 L-9.323135076238431 14.400431804887402 L-9.335322356120637 14.38665071606711 L-9.401971286146729 14.343203217561705 L-9.590158294523306 14.217994369318964 L-9.77674601119596 14.090414473618718 L-9.841996958963376 14.044894381181928 L-9.85933999741558 14.038757018780592 L-9.881125172913528 14.03959881954305 L-9.90705113844875 14.047598920234066 L-9.936847010069 14.062927972207024 L-9.970191966532015 14.085754123404275 L-10.135384760170242 14.228926599565014 L-10.28947682930536 14.352941254463776 L-10.47250130733494 14.488018378145027 L-10.575223490056938 14.559014538441398 L-10.685986842841228 14.632186034120949 L-10.804611058709126 14.707015188263744 L-10.929769744370397 14.782358156107758 L-11.064396551949464 14.859613574565417 L-11.206605732269423 14.937291158415107 L-11.330587772456479 15.001923516864736 A18.8 18.8 0 0 1 -11.815185002162133 14.623314666650733 L-11.782466471161687 14.487379440249043 L-11.741499757999566 14.330602572016856 L-11.699108328126496 14.181284978702081 L-11.656281994908436 14.041616927297703 L-11.612373381609622 13.908413546791893 L-11.56817147233508 13.783238552018638 L-11.52413494658175 13.666392131450545 L-11.437347819422232 13.456126148801427 L-11.354295175240415 13.276609412271354 L-11.25533928727766 13.081686993762084 L-11.24125804539986 13.043810379246276 L-11.23359260552605 13.011191139041438 L-11.232102200743313 12.984099885958873 L-11.236555716013559 12.962758173240873 L-11.246706433259998 12.94741505949617 L-11.30666001738467 12.895114650792168 L-11.47558989905442 12.744933756937309 L-11.642606067189982 12.592627468881583 L-11.700886824798761 12.53846919811389 L-11.717206926235828 12.52997787966009 L-11.738897245925877 12.527779577646385 L-11.765684300567864 12.532093624888494 L-11.797323592511574 12.543126711732198 L-11.833520824395581 12.561089999402764 L-12.017031730601156 12.679878737520523 L-12.186883690398734 12.781241019227885 L-12.386926088961005 12.889531497467908 L-12.49852934224674 12.945540563305855 L-12.61839825765139 13.002584679739654 L-12.746282236229149 13.060176301726912 L-12.880708600635554 13.117367314591498 L-13.02477710553044 13.175134458344251 L-13.176412946102655 13.23226439667748 L-13.308183487345127 13.279012792461417 A18.8 18.8 0 0 1 -13.735372482388046 12.836645638376744 L-13.68405383889414 12.706586863672186 L-13.621666688057717 12.55703720165146 L-13.558906816176608 12.415072503640065 L-13.497059230070478 12.282723965707659 L-13.435039604854584 12.156927809215976 L-13.37384687333734 12.03912272566922 L-13.313977029338954 11.929542146278488 L-13.198771139703378 11.733400891328705 L-13.091542857248445 11.567189893371992 L-12.966422043754392 11.387936444226417 L-12.947206433658545 11.352388172416882 L-12.935075872508385 11.32115320345288 L-12.929829598542145 11.294533024838318 L-12.931269580169161 11.272779198671092 L-12.9391861626149 11.25617269625849 L-12.991277472519362 11.196037345320482 L-13.13766219949047 11.02380750612415 L-13.281856039354258 10.849739294364118 L-13.332032238150925 10.787996974401894 L-13.34701175036222 10.777316973750601 L-13.368185036843979 10.772121356408901 L-13.395311801043949 10.772665382179692 L-13.428178690482595 10.779187757408677 L-13.466523659842714 10.79193854659099 L-13.664780847566902 10.88403145899849 L-13.847086722833222 10.960768465998905 L-14.060253444185026 11.040164547817353 L-14.178565537656114 11.080096366439708 L-14.305206903591639 11.11990280478809 L-14.439861528702112 11.15913593920733 L-14.580939115578206 11.197061839080892 L-14.731645188216627 11.234216336384746 L-14.88975626988757 11.269686659936195 L-15.026750548486943 11.29764118870602 A18.8 18.8 0 0 1 -15.388216560998913 10.800125904219742 L-15.319296664033066 10.678475027322271 L-15.236703370449037 10.539063385574021 L-15.154796606077758 10.407214764230348 L-15.07513155999653 10.284761753516541 L-14.996208064322104 10.168821300134084 L-14.919215557475441 10.060679069763772 L-14.844677693644492 9.96049719288218 L-14.703295393129855 9.782298332051955 L-14.573978548949432 9.632628180681628 L-14.425128144235922 9.472532665389588 L-14.401152175915113 9.440004642961537 L-14.38479260106308 9.410761898380006 L-14.375892570668544 9.385130925730175 L-14.374290991047914 9.363388399595461 L-14.379819351420625 9.345841735194801 L-14.423034489010572 9.279041908225848 L-14.544024849082707 9.088115381599463 L-14.662589791599835 8.895673285877374 L-14.70368480894939 8.827548660747839 L-14.717032172768665 8.814887851963409 L-14.73727631210502 8.80679604607534 L-14.764214794254055 8.803559461532004 L-14.797669564570251 8.80544417453153 L-14.83741593019464 8.812734285617966 L-15.046560548792604 8.876338888529329 L-15.237771963035465 8.926957022268585 L-15.459913959419243 8.975913353244568 L-15.582632082754275 8.998990697223618 L-15.713580969085164 9.020784670443284 L-15.852385341617941 9.040895688960063 L-15.997368236208553 9.058818291341632 L-16.15177855431222 9.07463697216918 L-16.313287424725857 9.087757291437818 L-16.45283900287788 9.096373850088833 A18.8 18.8 0 0 1 -16.741546508086834 8.553394004298239 L-16.656366805048265 8.44251882115085 L-16.555174953227763 8.315958688703313 L-16.45571551836724 8.196792427466232 L-16.359783601815234 8.086618352536329 L-16.265492391751437 7.982790251307881 L-16.174198681143444 7.8864157396182035 L-16.086443592213836 7.7975824915240555 L-15.921636726479674 7.640794462941252 L-15.77274832585 7.51057831740646 L-15.603065533729959 7.372756813067164 L-15.574795872135292 7.343882160977083 L-15.554525704097141 7.317200817538171 L-15.542145146242305 7.293057928580902 L-15.537533178299572 7.271749896018154 L-15.54056571335302 7.253604595492959 L-15.574063545131752 7.1814404751413345 L-15.667304598570604 6.9755334287499755 L-15.7579329120006 6.76846311555942 L-15.789146880135226 6.6952821536001075 L-15.80060230430814 6.680886964924072 L-15.819523267354278 6.670056468286955 L-15.845749140539414 6.6631022698660685 L-15.87914063268319 6.6603126368414305 L-15.919514776775793 6.662000176112067 L-16.135476064145 6.695878478280789 L-16.331871304685926 6.719392514362926 L-16.558664834824842 6.736956215200996 L-16.683400419342902 6.742729910286278 L-16.81610805494887 6.746087223478787 L-16.956360505680234 6.7466846879936195 L-17.10242678085776 6.744255149814497 L-17.25753592322392 6.738430121536917 L-17.419298995931264 6.7289450644323185 L-17.55869166090477 6.71805594145157 A18.8 18.8 0 0 1 -17.769021295621748 6.140180019424541 L-17.66923971253962 6.0422385893485435 L-17.551418886774314 5.930993315219793 L-17.436342646190674 5.826828849814671 L-17.32601106480264 5.73107812371603 L-17.2181874114987 5.641383270529287 L-17.114369425361307 5.558652297765904 L-17.01510516431912 5.482896716587031 L-16.830081511541916 5.350571220884274 L-16.664519497823203 5.242343590339179 L-16.47730700083393 5.129478635764954 L-16.445293882772088 5.104819366271347 L-16.421507657311707 5.081218745975516 L-16.405887545472535 5.059033854582233 L-16.398354955917668 5.038575052207755 L-16.398832640806496 5.020184293192777 L-16.42196116958166 4.944060471975655 L-16.485638085342167 4.727180652261535 L-16.54656579265229 4.509512509709779 L-16.567291167187612 4.432699595103115 L-16.57663168491299 4.416850212508769 L-16.593861196645495 4.403491828420138 L-16.618864004076677 4.39295537168368 L-16.651542290635714 4.38554568966854 L-16.691758376406675 4.381597811091023 L-16.910332891740804 4.3850904099013865 L-17.108089348618943 4.381042674360885 L-17.335120134422656 4.366871887602643 L-17.459445343855723 4.355229555386804 L-17.591328725562402 4.340084862269748 L-17.730299400073665 4.321157143815461 L-17.8746060419397 4.298422753272744 L-18.027394985546223 4.271067393439586 L-18.186263726339803 4.239161575809201 L-18.322784358467892 4.208978715589316 A18.8 18.8 0 0 1 -18.45064229559953 3.607454414824005 L-18.338200967488678 3.5243530563491023 L-18.20604441613288 3.4305879032604323 L-18.077591197951794 3.3434526765210557 L-17.95500743045914 3.263988978222352 L-17.83574999867903 3.19017318136821 L-17.721428436021192 3.122696011810872 L-17.61258706879619 3.0614925937642252 L-17.410947903915964 2.9562051961973466 L-17.231934753381253 2.872072608363405 L-17.030836429825587 2.7863609915130563 L-16.99570295422525 2.7663970692471116 L-16.9688636431648 2.7463365313231134 L-16.95030800505063 2.7265414411698456 L-16.940001407171128 2.7073300763003156 L-16.937914944302324 2.689051814000603 L-16.950223999569626 2.6104499555084106 L-16.98309737891793 2.3868186814651264 L-17.013138591589634 2.1627893723530964 L-17.02297197668508 2.0838395811085046 L-17.030015785410075 2.066844494799643 L-17.045218492981355 2.0512182290108445 L-17.068511583452203 2.037304594104149 L-17.09984061874963 2.0254190841305446 L-17.13911588583454 2.01591262867074 L-17.35604932481744 1.988951544659673 L-17.55131789354429 1.957420822064599 L-17.77416703901083 1.9117913659552621 L-17.895662024575117 1.8829596111919256 L-18.02415419237271 1.8496076859899964 L-18.159138184561307 1.8115231910763412 L-18.298876428478298 1.768926447221959 L-18.44637131033274 1.720573196796114 L-18.599253519883515 1.6668676290877893 L-18.730244900351728 1.6179785066704522 A18.8 18.8 0 0 1 -18.773142530588014 1.004513813457489 L-18.65023 0.9378700000000011 L-18.50631 0.8634100000000011 L-18.36698 0.7950000000000012 L-18.23453 0.7333700000000011 L-18.10616 0.6768700000000011 L-17.98356 0.6259600000000011 L-17.86726 0.5805000000000011 L-17.65293 0.5043000000000011 L-17.46395 0.4459000000000011 L-17.25288 0.3890100000000011 L-17.21531 0.3741300000000011 L-17.18594 0.35800000000000104 L-17.16481 0.34098000000000106 L-17.15193 0.32339000000000107 L-17.14732 0.3055800000000011 L-17.14857 0.22603000000000106 L-17.15 1.0501346302688554e-15 L-17.14857 -0.22602999999999895 L-17.14732 -0.30557999999999896 L-17.15193 -0.32338999999999896 L-17.16481 -0.34097999999999895 L-17.18594 -0.35799999999999893 L-17.21531 -0.37412999999999896 L-17.25288 -0.38900999999999897 L-17.46395 -0.44589999999999896 L-17.65293 -0.5042999999999989 L-17.86726 -0.5804999999999989 L-17.98356 -0.6259599999999989 L-18.10616 -0.6768699999999989 L-18.23453 -0.7333699999999989 L-18.36698 -0.7949999999999989 L-18.50631 -0.8634099999999989 L-18.65023 -0.9378699999999989 L-18.773142530588014 -1.0045138134574867 A18.8 18.8 0 0 1 -18.730244900351728 -1.6179785066704504 L-18.599253519883515 -1.6668676290877875 L-18.44637131033274 -1.7205731967961118 L-18.298876428478298 -1.7689264472219572 L-18.159138184561307 -1.811523191076339 L-18.02415419237271 -1.8496076859899941 L-17.895662024575117 -1.8829596111919238 L-17.77416703901083 -1.91179136595526 L-17.551317893544287 -1.9574208220645968 L-17.35604932481744 -1.9889515446596713 L-17.13911588583454 -2.0159126286707383 L-17.09984061874963 -2.025419084130543 L-17.068511583452203 -2.037304594104147 L-17.045218492981355 -2.0512182290108427 L-17.030015785410075 -2.0668444947996414 L-17.02297197668508 -2.0838395811085024 L-17.013138591589634 -2.1627893723530947 L-16.98309737891793 -2.3868186814651247 L-16.950223999569626 -2.610449955508409 L-16.937914944302324 -2.689051814000601 L-16.940001407171128 -2.707330076300314 L-16.95030800505063 -2.726541441169844 L-16.9688636431648 -2.746336531323111 L-16.99570295422525 -2.76639706924711 L-17.030836429825587 -2.7863609915130545 L-17.231934753381253 -2.8720726083634034 L-17.410947903915968 -2.9562051961973443 L-17.61258706879619 -3.061492593764223 L-17.721428436021192 -3.1226960118108704 L-17.83574999867903 -3.1901731813682073 L-17.95500743045914 -3.2639889782223497 L-18.077591197951794 -3.343452676521054 L-18.20604441613288 -3.43058790326043 L-18.338200967488678 -3.5243530563491006 L-18.45064229559953 -3.6074544148240033 A18.8 18.8 0 0 1 -18.322784358467892 -4.208978715589314 L-18.1862637263398 -4.2391615758092 L-18.027394985546223 -4.2710673934395835 L-17.8746060419397 -4.298422753272742 L-17.730299400073665 -4.321157143815459 L-17.591328725562402 -4.340084862269745 L-17.459445343855723 -4.355229555386802 L-17.335120134422656 -4.366871887602641 L-17.108089348618943 -4.3810426743608835 L-16.910332891740804 -4.385090409901385 L-16.691758376406675 -4.381597811091021 L-16.651542290635714 -4.385545689668538 L-16.618864004076677 -4.392955371683678 L-16.593861196645495 -4.403491828420136 L-16.57663168491299 -4.416850212508767 L-16.567291167187612 -4.432699595103113 L-16.54656579265229 -4.5095125097097775 L-16.485638085342167 -4.727180652261533 L-16.42196116958166 -4.944060471975654 L-16.398832640806496 -5.020184293192775 L-16.398354955917668 -5.0385750522077535 L-16.405887545472535 -5.059033854582231 L-16.421507657311707 -5.081218745975514 L-16.445293882772088 -5.104819366271345 L-16.47730700083393 -5.129478635764952 L-16.664519497823203 -5.2423435903391775 L-16.830081511541916 -5.350571220884272 L-17.01510516431912 -5.482896716587029 L-17.114369425361307 -5.558652297765902 L-17.2181874114987 -5.641383270529285 L-17.32601106480264 -5.731078123716028 L-17.436342646190674 -5.826828849814669 L-17.551418886774314 -5.930993315219791 L-17.669239712539625 -6.042238589348542 L-17.769021295621748 -6.140180019424539 A18.8 18.8 0 0 1 -17.55869166090477 -6.718055941451568 L-17.419298995931264 -6.728945064432317 L-17.25753592322392 -6.738430121536915 L-17.10242678085776 -6.744255149814495 L-16.956360505680234 -6.746684687993618 L-16.81610805494887 -6.746087223478784 L-16.683400419342902 -6.742729910286276 L-16.558664834824842 -6.736956215200994 L-16.331871304685926 -6.719392514362924 L-16.135476064145 -6.695878478280787 L-15.919514776775793 -6.662000176112065 L-15.87914063268319 -6.660312636841429 L-15.845749140539414 -6.663102269866067 L-15.819523267354278 -6.670056468286953 L-15.80060230430814 -6.6808869649240705 L-15.789146880135226 -6.695282153600106 L-15.7579329120006 -6.768463115559419 L-15.667304598570604 -6.975533428749974 L-15.574063545131752 -7.181440475141333 L-15.54056571335302 -7.253604595492957 L-15.537533178299572 -7.271749896018152 L-15.542145146242305 -7.2930579285809 L-15.554525704097141 -7.317200817538169 L-15.574795872135292 -7.343882160977081 L-15.603065533729959 -7.372756813067162 L-15.77274832585 -7.510578317406458 L-15.921636726479674 -7.64079446294125 L-16.086443592213836 -7.797582491524054 L-16.174198681143444 -7.886415739618202 L-16.265492391751437 -7.982790251307878 L-16.359783601815234 -8.086618352536327 L-16.45571551836724 -8.19679242746623 L-16.555174953227763 -8.315958688703311 L-16.656366805048265 -8.442518821150848 L-16.741546508086834 -8.553394004298237 A18.8 18.8 0 0 1 -16.45283900287788 -9.09637385008883 L-16.313287424725857 -9.087757291437816 L-16.15177855431222 -9.074636972169179 L-15.997368236208553 -9.05881829134163 L-15.852385341617941 -9.04089568896006 L-15.713580969085164 -9.020784670443282 L-15.582632082754275 -8.998990697223617 L-15.459913959419243 -8.975913353244566 L-15.237771963035465 -8.926957022268583 L-15.046560548792604 -8.876338888529327 L-14.83741593019464 -8.812734285617964 L-14.797669564570251 -8.805444174531528 L-14.764214794254055 -8.803559461532002 L-14.73727631210502 -8.806796046075338 L-14.717032172768665 -8.814887851963405 L-14.70368480894939 -8.827548660747837 L-14.662589791599835 -8.895673285877372 L-14.544024849082707 -9.088115381599462 L-14.423034489010572 -9.279041908225846 L-14.379819351420625 -9.3458417351948 L-14.374290991047914 -9.363388399595458 L-14.375892570668544 -9.385130925730174 L-14.38479260106308 -9.410761898380004 L-14.401152175915113 -9.440004642961535 L-14.425128144235922 -9.472532665389586 L-14.573978548949432 -9.632628180681627 L-14.703295393129855 -9.782298332051953 L-14.844677693644492 -9.960497192882178 L-14.919215557475441 -10.06067906976377 L-14.996208064322104 -10.168821300134082 L-15.07513155999653 -10.284761753516538 L-15.154796606077758 -10.407214764230346 L-15.236703370449037 -10.53906338557402 L-15.319296664033066 -10.67847502732227 L-15.388216560998913 -10.800125904219739 A18.8 18.8 0 0 1 -15.026750548486946 -11.297641188706018 L-14.889756269887572 -11.269686659936191 L-14.731645188216628 -11.234216336384742 L-14.580939115578207 -11.19706183908089 L-14.439861528702114 -11.159135939207328 L-14.305206903591642 -11.119902804788088 L-14.178565537656116 -11.080096366439706 L-14.060253444185028 -11.040164547817351 L-13.847086722833224 -10.960768465998902 L-13.664780847566906 -10.884031458998487 L-13.466523659842716 -10.791938546590988 L-13.428178690482596 -10.779187757408675 L-13.395311801043949 -10.772665382179689 L-13.36818503684398 -10.7721213564089 L-13.347011750362222 -10.7773169737506 L-13.332032238150926 -10.787996974401892 L-13.28185603935426 -10.849739294364117 L-13.137662199490471 -11.023807506124149 L-12.991277472519364 -11.19603734532048 L-12.939186162614902 -11.256172696258488 L-12.931269580169163 -11.27277919867109 L-12.929829598542147 -11.294533024838316 L-12.935075872508389 -11.321153203452877 L-12.947206433658547 -11.35238817241688 L-12.966422043754394 -11.387936444226415 L-13.091542857248449 -11.56718989337199 L-13.19877113970338 -11.733400891328701 L-13.313977029338956 -11.929542146278486 L-13.373846873337342 -12.039122725669218 L-13.435039604854587 -12.156927809215974 L-13.49705923007048 -12.282723965707657 L-13.55890681617661 -12.415072503640063 L-13.621666688057719 -12.557037201651456 L-13.684053838894142 -12.706586863672182 L-13.73537248238805 -12.836645638376742 A18.8 18.8 0 0 1 -13.308183487345122 -13.27901279246142 L-13.17641294610265 -13.232264396677483 L-13.024777105530434 -13.175134458344255 L-12.880708600635549 -13.117367314591503 L-12.746282236229144 -13.060176301726916 L-12.618398257651384 -13.002584679739659 L-12.498529342246735 -12.945540563305858 L-12.386926088960998 -12.889531497467914 L-12.186883690398727 -12.781241019227888 L-12.017031730601149 -12.679878737520527 L-11.833520824395578 -12.56108999940277 L-11.79732359251157 -12.543126711732201 L-11.765684300567859 -12.532093624888498 L-11.738897245925871 -12.527779577646388 L-11.717206926235823 -12.529977879660093 L-11.700886824798756 -12.538469198113894 L-11.642606067189977 -12.592627468881588 L-11.475589899054414 -12.744933756937312 L-11.306660017384665 -12.895114650792173 L-11.246706433259993 -12.947415059496173 L-11.236555716013553 -12.962758173240877 L-11.232102200743308 -12.984099885958877 L-11.233592605526045 -13.011191139041442 L-11.241258045399855 -13.04381037924628 L-11.255339287277653 -13.081686993762089 L-11.354295175240408 -13.276609412271357 L-11.437347819422225 -13.456126148801431 L-11.524134946581743 -13.666392131450547 L-11.568171472335075 -13.783238552018641 L-11.612373381609617 -13.908413546791898 L-11.656281994908431 -14.041616927297706 L-11.69910832812649 -14.181284978702086 L-11.741499757999561 -14.33060257201686 L-11.782466471161682 -14.487379440249047 L-11.815185002162128 -14.623314666650737 A18.8 18.8 0 0 1 -11.330587772456486 -15.001923516864728 L-11.206605732269432 -14.937291158415102 L-11.064396551949473 -14.85961357456541 L-10.929769744370404 -14.782358156107753 L-10.804611058709135 -14.707015188263735 L-10.685986842841235 -14.632186034120943 L-10.575223490056946 -14.559014538441392 L-10.472501307334944 -14.488018378145021 L-10.289476829305366 -14.35294125446377 L-10.135384760170249 -14.228926599565009 L-9.970191966532024 -14.085754123404268 L-9.936847010069005 -14.062927972207019 L-9.907051138448757 -14.04759892023406 L-9.881125172913535 -14.039598819543045 L-9.859339997415589 -14.038757018780586 L-9.841996958963383 -14.044894381181921 L-9.776746011195968 -14.090414473618713 L-9.590158294523315 -14.217994369318959 L-9.401971286146736 -14.3432032175617 L-9.335322356120644 -14.386650716067104 L-9.32313507623844 -14.400431804887397 L-9.315754709933898 -14.420946011993955 L-9.313460236499349 -14.447981039119115 L-9.316511356028972 -14.48134965415804 L-9.32518415433275 -14.52081738616258 L-9.396049052965664 -14.727614830880222 L-9.453309533626351 -14.916943216904366 L-9.509988685598543 -15.13724133907456 L-9.537334772223836 -15.259079318154491 L-9.563685519370573 -15.389187835265433 L-9.588628489539754 -15.52720578750042 L-9.611600004007887 -15.67147487262624 L-9.632797890909975 -15.825239064136765 L-9.651546795925038 -15.98619165517132 L-9.66502838544288 -16.12535750871226 A18.8 18.8 0 0 1 -9.132455054929538 -16.432838864447355 L-9.01867468518266 -16.351580538671037 L-8.88866010504934 -16.254867215117574 L-8.766095352459892 -16.159627210798554 L-8.652640416994261 -16.067598753142843 L-8.545584849265044 -15.976988531212998 L-8.446082941771612 -15.889113856219755 L-8.354241200055284 -15.804512460968192 L-8.191797005835983 -15.64527781441022 L-8.056464054211911 -15.501024590513085 L-7.912804662965183 -15.336255065701552 L-7.882961003571383 -15.30901033604631 L-7.855588495023382 -15.289683681504211 L-7.831028238023719 -15.278153240224261 L-7.809572230378673 -15.274287721379949 L-7.791543817427387 -15.277951670950822 L-7.720592714977775 -15.313947588235767 L-7.518065167432682 -15.41431789403071 L-7.314283878407773 -15.512117648853238 L-7.2422368480911885 -15.545866581022436 L-7.228250217113298 -15.557817411700189 L-7.218086650209538 -15.577104827488542 L-7.21205195787318 -15.603557422605192 L-7.210429370487569 -15.637025930342705 L-7.213524919063504 -15.67731658532639 L-7.2549195237223145 -15.891963979219584 L-7.285273330738644 -16.087418953061682 L-7.310741312301951 -16.31346136239031 L-7.32086469932876 -16.437919462307935 L-7.328851397028009 -16.570429087467243 L-7.334343237525421 -16.710575248984252 L-7.337012818844218 -16.856637334193188 L-7.336604570019013 -17.01185527881589 L-7.332770740777462 -17.17385083354918 L-7.326752985007814 -17.31353860918901 A18.8 18.8 0 0 1 -6.756569487772042 -17.54390769561067 L-6.655205393939212 -17.44760500338893 L-6.539915999905433 -17.33373835496489 L-6.431798885799421 -17.222367503134677 L-6.332255971795188 -17.11544478491471 L-6.2388527670566 -17.010817120100086 L-6.152548996301646 -16.909949646385932 L-6.073375290625061 -16.81338968610509 L-5.9346731716789884 -16.63309683793892 L-5.820733439530374 -16.47141276996096 L-5.701403617315623 -16.288253247876533 L-5.675642127874483 -16.25712022743562 L-5.65122575714185 -16.234172141671298 L-5.628509246143364 -16.219335786726244 L-5.607800023134184 -16.212521787727418 L-5.5894371382348975 -16.213641009857117 L-5.514166863606587 -16.23941213240501 L-5.2996414535303495 -16.31061925446188 L-5.0842322548502 -16.37910635488215 L-5.008189437735952 -16.40249983613931 L-4.992675689524804 -16.412387799349247 L-4.979926744290721 -16.430073016210184 L-4.970269291474519 -16.45542830964376 L-4.964004578991472 -16.488345283646616 L-4.961462626507667 -16.528674649840127 L-4.972581238298355 -16.746994125544536 L-4.975437569343696 -16.944771378465493 L-4.969198675206388 -17.172158416574405 L-4.961902322421417 -17.296814201983814 L-4.951369518687199 -17.429145786065227 L-4.937303337084435 -17.56869237124422 L-4.919619024890127 -17.713704524190845 L-4.897612586436636 -17.867355081191437 L-4.871270644063742 -18.027240540417793 L-4.845870671777567 -18.16473137449617 A18.8 18.8 0 0 1 -4.249174981018945 -18.313504319378147 L-4.162200099886673 -18.204031683072387 L-4.063879868867559 -18.07522799456795 L-3.972314769889661 -17.949894002174958 L-3.888621366939533 -17.830158152478102 L-3.810688512327239 -17.713549503262104 L-3.7392626830394224 -17.601652501467836 L-3.6742980395248237 -17.49501340594925 L-3.56203767482594 -17.297171551384363 L-3.471708869434531 -17.121203635795865 L-3.379031235505507 -16.923219108195052 L-3.3578533341057386 -16.888803765798066 L-3.3368683380715742 -16.862680907197863 L-3.316437724121204 -16.84482741136061 L-3.2968783672173694 -16.835197558946973 L-3.2785384230371775 -16.833750269249833 L-3.20041402650714 -16.848794991474502 L-2.978066246987854 -16.889452964159368 L-2.755221833680441 -16.927294386670614 L-2.6766633167062364 -16.939877089512756 L-2.6599244087241334 -16.94750972729839 L-2.6448382288769987 -16.963248522602346 L-2.631745986914833 -16.987013002407387 L-2.6209610848368237 -17.01873775121912 L-2.612831107506949 -17.058320863383475 L-2.5934573152982434 -17.276063080639233 L-2.5687605751378273 -17.472313103379232 L-2.5309362382776506 -17.69661894022056 L-2.5063621608883793 -17.819046128052616 L-2.477514864764493 -17.948623987296937 L-2.444164443286407 -18.084854880589294 L-2.40647044260025 -18.225994604665374 L-2.3632941448110176 -18.37508714072676 L-2.314956805251554 -18.529750515849358 L-2.27066899801736 -18.66236830567445 A18.8 18.8 0 0 1 -1.6590751166252162 -18.72664941287134 L-1.588182315322279 -18.606137592823977 L-1.508744938777013 -18.464903881523856 L-1.4355140654250775 -18.328046232164706 L-1.3692991704176443 -18.1978277731078 L-1.3083535402993653 -18.071507794207047 L-1.2531958750000967 -17.950759212191635 L-1.2037047565373078 -17.836116590129407 L-1.1200711663902057 -17.624576495823135 L-1.0551114352054518 -17.437749747940494 L-0.9908898542873388 -17.22879375844898 L-0.9747077446901815 -17.1917659495888 L-0.9575625724322111 -17.162976769881062 L-0.9398155141910223 -17.142453631140025 L-0.9217867240262282 -17.130195359435017 L-0.9038266867172196 -17.12620972775873 L-0.8243687707987286 -17.130235221255187 L-0.598526368447887 -17.13955268337749 L-0.3725841535364762 -17.14601188773452 L-0.293038988876229 -17.14753890416343 L-0.27540072492681744 -17.15276765591226 L-0.25827094579707977 -17.166253691911262 L-0.24199874028653856 -17.187964809520054 L-0.22690356446487292 -17.217879846991416 L-0.21334380304994177 -17.255946264873458 L-0.16385469566982225 -17.468873119099783 L-0.11208557825874577 -17.65977612819728 L-0.04341200636813758 -17.876634905801012 L-0.0020385108383502715 -17.994450590103426 L0.044561797869465236 -18.118752638873094 L0.09654733120434411 -18.249016260901225 L0.15351734953528484 -18.38353643192168 L0.21702312913610178 -18.525169030419665 L0.28641503455051964 -18.671599974768725 L0.3487286649415523 -18.796763465912093 A18.8 18.8 0 0 1 0.9633167577436315 -18.775301576790977 L1.0167476314792383 -18.646096198499066 L1.0757559953748794 -18.495181417942753 L1.129227287449941 -18.349463890088956 L1.176674876901687 -18.21129737585624 L1.2194470451603259 -18.077724741973192 L1.2572629652569103 -17.950474813536086 L1.290317270342324 -17.830060053164612 L1.3436962532372307 -17.608939106429332 L1.3820225429384165 -17.414889896387805 L1.416538070824014 -17.199029535657125 L1.427409422262128 -17.160109964514717 L1.4403810594682473 -17.129214812335242 L1.4550991356985699 -17.106421490241296 L1.4712464492312105 -17.09177339256008 L1.4884770079720557 -17.08532699469163 L1.5677218853276862 -17.0782549078079 L1.7926631450402497 -17.05605050556589 L2.017305453347868 -17.031001770703124 L2.0962890095453295 -17.021443379080974 L2.1144833207175022 -17.024166473087824 L2.1333232874639174 -17.035137259431288 L2.152458736551931 -17.054372432635603 L2.1715703756903926 -17.081895496590064 L2.1902959958584383 -17.11770430066563 L2.2689371692278426 -17.32167141284571 L2.346771036905671 -17.50351169837758 L2.4449571908648897 -17.708702507310864 L2.502324816506359 -17.819613539802045 L2.565771115796172 -17.93622038010924 L2.635379921714148 -18.057981297643046 L2.710517101085496 -18.18326363349339 L2.793116294734721 -18.314679577002906 L2.8822121314973237 -18.450027978809402 L2.9613387211103372 -18.565301006287296 A18.8 18.8 0 0 1 3.566958767179587 -18.458513852107384 L3.6018877421673183 -18.323129751290438 L3.6393185627311246 -18.165471286018445 L3.671989515651764 -18.01373010559844 L3.6997462861899777 -17.870304790227372 L3.7235124809864417 -17.732079340743944 L3.743250612010634 -17.60080484099753 L3.7592247392688996 -17.47696167865767 L3.7813101537272544 -17.25056374720024 L3.792257024311347 -17.053069022145582 L3.7963946936749666 -16.83450576655984 L3.8017436884642732 -16.794451958317126 L3.8102893124553425 -16.76205217266038 L3.82169193606254 -16.73743231330106 L3.8356434838724107 -16.72067949820303 L3.8518091908186713 -16.711897805944268 L3.929298618213427 -16.693865788807155 L4.148960509534297 -16.640571705633338 L4.367930504233754 -16.58450257668237 L4.44481512688951 -16.564044820229576 L4.463211353713199 -16.56420925456708 L4.483394809553718 -16.57245125737791 L4.5050210524689565 -16.588836095411015 L4.5277771686075505 -16.613431480715718 L4.551304174632217 -16.646285693345387 L4.65756675300428 -16.837323075649795 L4.759950423249224 -17.006561323298413 L4.885738077475331 -17.196090357866456 L4.95798323765008 -17.297937981458393 L5.037040617475309 -17.404579993794847 L5.122917839748032 -17.51546826907552 L5.214759720430599 -17.629074291594968 L5.314844628779041 -17.747715718259023 L5.421910247772256 -17.869347174838317 L5.516309687545595 -17.97248608029201 A18.8 18.8 0 0 1 6.101173981567853 -17.782452151540827 L6.116921205040692 -17.64352442572412 L6.132045933927317 -17.482190918429115 L6.143280644757592 -17.327379554916746 L6.1508063424166055 -17.18148704902715 L6.155103981802828 -17.041299185088413 L6.156380143486033 -16.90855522284772 L6.154963174700369 -16.78369412482492 L6.145325153251526 -16.556425786857325 L6.128679536334486 -16.359329556965804 L6.102358812148495 -16.14231749168296 L6.102081338189811 -16.101909048156855 L6.106034618115348 -16.06863525399643 L6.1138998500011965 -16.042668054929496 L6.12538408107983 -16.02413659690449 L6.1401702891340175 -16.0131905359062 L6.214396023006575 -15.984549561218172 L6.424503077082891 -15.901203105820404 L6.633538756302038 -15.815204904598575 L6.706827973691055 -15.784245970274132 L6.725068054536536 -15.781848544414947 L6.7462021514615635 -15.78720134248358 L6.769898257985169 -15.800416933110636 L6.7958559292079554 -15.821605918567464 L6.8237263946785465 -15.850866069873513 L6.955542097837148 -16.02525539695749 L7.080482788967587 -16.178597576738035 L7.231423629852409 -16.348775869869044 L7.317140154695285 -16.439577736418475 L7.4102698530840705 -16.534179255317554 L7.5107439892638945 -16.632036574200296 L7.617502973518784 -16.731755071385443 L7.733125557670337 -16.835312760786653 L7.856077048405798 -16.940859854190155 L7.963911960622046 -17.029857156143752 A18.8 18.8 0 0 1 8.516636784387442 -16.760275247084046 L8.51289575455269 -16.62050796642265 L8.505420006118479 -16.458639590309993 L8.494999803991373 -16.30377127080071 L8.482147949626608 -16.15825120606946 L8.466893384940429 -16.018829524985648 L8.449682738247095 -15.887199810481679 L8.430902253103136 -15.763751056021551 L8.38972838887151 -15.540035831228431 L8.345814272452522 -15.347174350421248 L8.289547457673818 -15.135937368444466 L8.283648915682129 -15.095960794024283 L8.282932905445172 -15.062460627915133 L8.287107657817584 -15.035651511133167 L8.295901044670153 -15.015702103932426 L8.309019957111554 -15.00280472682098 L8.378537277982606 -14.96411225857571 L8.575000000000001 -14.85233567490312 L8.770032722017397 -14.738082258575709 L8.83830004288845 -14.69722472682098 L8.856028955329851 -14.692312103932426 L8.877702342182419 -14.69467151113317 L8.90300709455483 -14.704460627915132 L8.931661084317874 -14.721830794024282 L8.963332542326187 -14.746927368444467 L9.118135727547482 -14.901274350421247 L9.263201611128494 -15.03573583122843 L9.436357746896869 -15.18325105602155 L9.53387726175291 -15.26123981048168 L9.639266615059574 -15.341959524985649 L9.752382050373395 -15.424881206069458 L9.871980196008632 -15.50877127080071 L10.000889993881524 -15.595229590309991 L10.137334245447313 -15.682637966422652 L10.256505746200576 -15.755761433626558 A18.8 18.8 0 0 1 10.766332939729672 -15.411878649473309 L10.743176471477707 -15.273992225102376 L10.713245752662393 -15.114739563990545 L10.681373454959507 -14.962828624163494 L10.648394195297406 -14.820513383123963 L10.61388433928863 -14.684571569327566 L10.578521869879824 -14.556618125226557 L10.542743409158412 -14.43698450391379 L10.470835104576695 -14.221176754673447 L10.400507226980286 -14.036303852297829 L10.315389491155985 -13.834953441202781 L10.303984689541666 -13.796186834436929 L10.298613325467029 -13.763112339006495 L10.299016341519783 -13.735983113472743 L10.304947730873533 -13.715004049615311 L10.316144002994019 -13.700406389165636 L10.37959983528759 -13.652415532245488 L10.558594301835031 -13.514384424355285 L10.735827976563044 -13.37409960570977 L10.797744655168302 -13.324138721905605 L10.814617326091287 -13.316806520604183 L10.836408155049424 -13.316126613759659 L10.862829025049441 -13.322298722673326 L10.893621616035434 -13.335511978909752 L10.928477617677087 -13.355956500169913 L11.10325521704676 -13.487256948602406 L11.265622750664436 -13.600220590659987 L11.457623894095818 -13.7222015310607 L11.56504829253515 -13.785859211036858 L11.680646016876194 -13.85112600372021 L11.804201088042529 -13.917498070804807 L11.934310553194196 -13.983926878395698 L12.073998482205555 -14.051603015168693 L12.221279762447981 -14.119171369375024 L12.349468314031668 -14.17499773671683 A18.8 18.8 0 0 1 12.806474670922285 -13.763507364702695 L12.764353478567536 -13.630185599029119 L12.712550356767174 -13.476648324819443 L12.659846321509091 -13.330651538322227 L12.607381560325624 -13.19431112526006 L12.554288108087084 -13.064495131525103 L12.501462106205635 -12.94270842607159 L12.449382056947316 -12.829218470263815 L12.348138925369708 -12.625518648937533 L12.252766138736515 -12.452232665748413 L12.14045420177445 -12.264687882254368 L12.123765122028153 -12.227885791047182 L12.113842951607712 -12.19588072372734 L12.110466387091767 -12.168959428957777 L12.11342033119978 -12.147359042058309 L12.122476040298094 -12.131345225126461 L12.178635288418532 -12.074990066972596 L12.336677575807862 -11.913391053371805 L12.492662551368225 -11.749805316831505 L12.547023449987817 -11.691713512751493 L12.562711472045251 -11.682104445995275 L12.584195609409987 -11.678398458718831 L12.611218344856354 -11.680833426684865 L12.643550194307803 -11.689632592045783 L12.680912307158959 -11.705027130794889 L12.87226247351185 -11.810725431806405 L13.048771357814653 -11.89999252631597 L13.255880425050213 -11.994064962070642 L13.371118813350664 -12.042152543231627 L13.494674930512248 -12.090696070214658 L13.626264778612654 -12.139226666511346 L13.764353130538899 -12.186901255783772 L13.91210032404318 -12.234477970798654 L14.067351970372297 -12.280891161941899 L14.202062528442148 -12.318333832682844 A18.8 18.8 0 0 1 14.597352939794424 -11.847245064835729 L14.537086864433931 -11.721082914377085 L14.464419628489185 -11.576249455465993 L14.391909679772255 -11.439008483678894 L14.320980583966078 -11.311296609649428 L14.25033693915269 -11.190133156630457 L14.181075602836533 -11.076883629515773 L14.113707643959943 -10.971746292109874 L13.985100267780245 -10.784119184014656 L13.866538894917149 -10.625792934564927 L13.729218780917348 -10.455704124553565 L13.707570256992792 -10.421582859748638 L13.693290403987476 -10.391270162769539 L13.68619997989035 -10.365080791144337 L13.686118983590628 -10.343279508163755 L13.69285787058989 -10.326161225480869 L13.740627458652723 -10.262538655143706 L13.874641453530346 -10.080517076815916 L14.00634165980406 -9.896814432666568 L14.052088705380957 -9.831722399198677 L14.066286729068352 -9.820023496541927 L14.087046010543727 -9.813363561660399 L14.114144644628887 -9.812013994797075 L14.147386449873157 -9.816227803537638 L14.186527462905937 -9.826272722589968 L14.390725782911577 -9.90431157898135 L14.577940473242434 -9.968144643488085 L14.796126321871503 -10.032477561640558 L14.916935715886524 -10.064059073917889 L15.046045346591102 -10.094934490665315 L15.18310872491354 -10.124679023319917 L15.326488230917288 -10.152671462622727 L15.479418957852875 -10.179222729239447 L15.639619173569017 -10.203577377348221 L15.778229750343192 -10.221907572492743 A18.8 18.8 0 0 1 16.10411033793633 -9.700389615823257 L16.026872390175345 -9.583842683330905 L15.934755425176123 -9.450532058250484 L15.843850886673275 -9.324718140580048 L15.755838010413601 -9.20812057194116 L15.669019171215703 -9.097967968429804 L15.58467059359263 -8.995459892879808 L15.503325965787385 -8.900721552556442 L15.349857541294213 -8.732819105928693 L15.21041524446243 -8.592534230570452 L15.050759733244586 -8.443211979255489 L15.024573129035128 -8.412435672459882 L15.006213534540597 -8.384405347988046 L14.995547257902105 -8.35945764583592 L14.992432897695487 -8.337879803948852 L14.996723797825624 -8.31999024341559 L15.035173945136314 -8.250338601857147 L15.142551217530597 -8.051437301778027 L15.247403259809303 -7.85119331302934 L15.28364603813785 -7.780367992563929 L15.296077715074144 -7.766806959839555 L15.31570808485957 -7.757322705409847 L15.342355173495294 -7.752214871501056 L15.375859920605299 -7.7517613066272615 L15.416017998523266 -7.756261093059387 L15.629089984154886 -7.805121567258861 L15.823366559520064 -7.842278163771178 L16.048382450181805 -7.875619397247228 L16.172411432475542 -7.890080142427859 L16.304561604621476 -7.902686494072961 L16.44443073041418 -7.913066019591257 L16.59031067150284 -7.920831467934354 L16.745448309226056 -7.925840495949831 L16.90747897935535 -7.927662565501701 L17.047291677624134 -7.926523508651597 A18.8 18.8 0 0 1 17.297419546504308 -7.36472711696843 L17.20471307513913 -7.260063855913164 L17.09493933302765 -7.140870804342014 L16.98740955817846 -7.028932765584486 L16.884025971988525 -6.925718941381964 L16.782721768356136 -6.828721182508844 L16.684927698544495 -6.738949761612908 L16.59118968246268 -6.656454392403205 L16.41584729797105 -6.511544637380328 L16.25823816286515 -6.392031621640745 L16.079354767349667 -6.266382316792487 L16.04913977531942 -6.239549993810447 L16.027057787958785 -6.214347620227695 L16.01302326572098 -6.191127166193447 L16.006936159086358 -6.17019275354779 L16.008695554857166 -6.1518801151108615 L16.037077873034704 -6.077555092306499 L16.11572844647833 -5.865645458035215 L16.191691499026504 -5.65275764615402 L16.217724585652082 -5.577577572991345 L16.22814794738653 -5.562418360275879 L16.246267322663357 -5.55029438652229 L16.271944210579964 -5.541527703744984 L16.305059767764288 -5.536415593381183 L16.345453279259903 -5.535282663968634 L16.56325172668298 -5.554013742423873 L16.760808814529323 -5.563770660055661 L16.988275068863782 -5.565471259670765 L17.113109556376767 -5.5625297757986125 L17.24572811718183 -5.556621694046128 L17.38568059701002 -5.547434186770442 L17.53122158606627 -5.534821498534891 L17.685546556925278 -5.518190792916491 L17.846253938780816 -5.4974448194002035 L17.984547463406997 -5.476858681001403 A18.8 18.8 0 0 1 18.154054159122687 -4.885718582034759 L18.047683590166393 -4.794976143740322 L17.92238969196707 -4.6922206228471905 L17.800327625525675 -4.596337209599353 L17.68358557331358 -4.5085160695173165 L17.569767776338583 -4.426561106325581 L17.460431664668153 -4.351273638677966 L17.356124764167387 -4.282626919106502 L17.162321259742424 -4.1635303592376145 L16.989612968899504 -4.067115388024019 L16.794983450903246 -3.9675846504373697 L16.76132817150304 -3.9452185719144266 L16.735953592042378 -3.9233346847552726 L16.718823990216592 -3.902293438563804 L16.709882615760627 -3.882409919689164 L16.709076262534712 -3.8640306380254255 L16.726838322040177 -3.7864788860005727 L16.775231352584765 -3.56568549752458 L16.820826880991252 -3.344297481612849 L16.83614357149489 -3.2662259503609525 L16.844355739147737 -3.249763614486553 L16.860611446886672 -3.2352359007673783 L16.884818362667893 -3.2229810026298678 L16.91690017327434 -3.2133098481893496 L16.956742904593277 -3.206566254114454 L17.175028614770785 -3.194803357689612 L17.372020991101213 -3.1769706891374985 L17.59751023720681 -3.1469975546545528 L17.720720468636724 -3.1267110943672995 L17.851226148666218 -3.1024035733081985 L17.988537966703618 -3.0738278576170144 L18.130907213925916 -3.0410825244326025 L18.281415757904995 -3.0031357829480405 L18.437671865100896 -2.9602255631398937 L18.57175448993417 -2.920593028959945 A18.8 18.8 0 0 1 18.657340757464286 -2.3116150923242786 Z" id="SvgjsPath1294">
        </path>
      </g>
    </g>
  </g>
</svg>
