solid Sentry3Dmodels
facet normal 0.3593241859533977 4.976451261461621e-15 -0.9332127996276777
  outer loop
    vertex 203.3758494887006 506.125943376519 53.29685447640203
    vertex 203.37584948870014 392.76367198230946 53.29685447640126
    vertex 190.47174121403748 404.1011876794145 48.32825760000016
  endloop
endfacet
facet normal 0.003987777634418012 0.35909469663219035 -0.9332926103212077
  outer loop
    vertex 203.3758494887006 506.125943376519 53.29685447640203
    vertex 85.47174121403748 494.78842767941484 48.43083809999999
    vertex 74.07538775930317 507.74073302351957 53.36568702505786
  endloop
endfacet
facet normal 6.662483777643426e-16 -0.8892053820944759 0.4575082386735973
  outer loop
    vertex 204.72640789064522 390.44046160552506 75.75174517264891
    vertex 65.47174121403721 384.1011876794144 63.430838100000024
    vertex 210.47174121403748 384.10118767941447 63.43083809999999
  endloop
endfacet
facet normal -0.8892053820944821 1.4412471227832033e-15 0.45750823867358503
  outer loop
    vertex 65.4717412140375 514.7884276794148 63.43083810000016
    vertex 65.47174121403721 384.1011876794144 63.430838100000024
    vertex 71.8110151401478 509.0430943560226 75.75174517264907
  endloop
endfacet
facet normal 1.1844948119947326e-15 -0.8892053820944782 0.45750823867359264
  outer loop
    vertex 71.2170745374294 390.44046160552494 75.75174517264907
    vertex 65.47174121403721 384.1011876794144 63.430838100000024
    vertex 204.72640789064522 390.44046160552506 75.75174517264891
  endloop
endfacet
facet normal 3.1230815400864494e-16 -0.7601375407242468 -0.6497622020260138
  outer loop
    vertex 65.47174121403721 384.1011876794144 63.430838100000024
    vertex 72.51943586993171 392.70483422468044 53.36568702505746
    vertex 210.47174121403748 384.10118767941447 63.43083809999999
  endloop
endfacet
facet normal -0.0008944354649355807 0.4022442953258214 -0.9155319365609441
  outer loop
    vertex 203.3758494887006 506.125943376519 53.29685447640203
    vertex 190.47174121403748 494.78842767941484 48.32825760000016
    vertex 85.47174121403748 494.78842767941484 48.43083809999999
  endloop
endfacet
facet normal -0.9071917004292914 0.004543052484067625 0.42069297515686893
  outer loop
    vertex 71.8110151401478 509.0430943560226 75.75174517264907
    vertex 65.47174121403721 384.1011876794144 63.430838100000024
    vertex 71.2170745374294 390.44046160552494 75.75174517264907
  endloop
endfacet
facet normal 0.359324185953432 0.0 -0.9332127996276646
  outer loop
    vertex 203.3758494887006 506.125943376519 53.29685447640203
    vertex 190.47174121403748 404.1011876794145 48.32825760000016
    vertex 190.47174121403748 494.78842767941484 48.32825760000016
  endloop
endfacet
facet normal 0.003970066792336955 0.8884440372217774 0.4589677889511783
  outer loop
    vertex 71.8110151401478 509.0430943560226 75.75174517264907
    vertex 204.72640789064522 508.44915375330413 75.75174517264892
    vertex 210.4717412140376 514.7884276794148 63.430838100000145
  endloop
endfacet
facet normal -0.7565475330925957 0.010232906212811484 -0.653858637475982
  outer loop
    vertex 65.4717412140375 514.7884276794148 63.43083810000016
    vertex 74.07538775930317 507.74073302351957 53.36568702505786
    vertex 72.51943586993171 392.70483422468044 53.36568702505746
  endloop
endfacet
facet normal 3.9365946142075436e-17 0.9063077870366535 0.4226182617406916
  outer loop
    vertex 71.8110151401478 509.0430943560226 75.75174517264907
    vertex 210.4717412140376 514.7884276794148 63.430838100000145
    vertex 65.4717412140375 514.7884276794148 63.43083810000016
  endloop
endfacet
facet normal 0.9063077870366472 -6.69780759991547e-31 0.4226182617407057
  outer loop
    vertex 210.4717412140376 514.7884276794148 63.430838100000145
    vertex 204.72640789064522 508.44915375330413 75.75174517264892
    vertex 204.72640789064522 390.44046160552506 75.75174517264891
  endloop
endfacet
facet normal -0.8191520442889866 2.3627969583084726e-15 -0.5735764363510536
  outer loop
    vertex 65.4717412140375 514.7884276794148 63.43083810000016
    vertex 72.51943586993171 392.70483422468044 53.36568702505746
    vertex 65.47174121403721 384.1011876794144 63.430838100000024
  endloop
endfacet
facet normal 0.009105427359949783 0.7569480938612466 -0.6534115658544911
  outer loop
    vertex 210.4717412140376 514.7884276794148 63.430838100000145
    vertex 203.3758494887006 506.125943376519 53.29685447640203
    vertex 74.07538775930317 507.74073302351957 53.36568702505786
  endloop
endfacet
facet normal 0.9063077870366498 -6.904953187589909e-16 0.4226182617406999
  outer loop
    vertex 210.4717412140376 514.7884276794148 63.430838100000145
    vertex 204.72640789064522 390.44046160552506 75.75174517264891
    vertex 210.47174121403748 384.10118767941447 63.43083809999999
  endloop
endfacet
facet normal -3.998669715898411e-17 0.8191520442889535 -0.5735764363511007
  outer loop
    vertex 65.4717412140375 514.7884276794148 63.43083810000016
    vertex 210.4717412140376 514.7884276794148 63.430838100000145
    vertex 74.07538775930317 507.74073302351957 53.36568702505786
  endloop
endfacet
facet normal 0.8191520442890005 1.2948936392272588e-16 -0.5735764363510336
  outer loop
    vertex 210.4717412140376 514.7884276794148 63.430838100000145
    vertex 210.47174121403748 384.10118767941447 63.43083809999999
    vertex 203.37584948870014 392.76367198230946 53.29685447640126
  endloop
endfacet
facet normal 0.8191520442889975 6.77616477917693e-16 -0.573576436351038
  outer loop
    vertex 210.4717412140376 514.7884276794148 63.430838100000145
    vertex 203.37584948870014 392.76367198230946 53.29685447640126
    vertex 203.3758494887006 506.125943376519 53.29685447640203
  endloop
endfacet
facet normal -0.3645148223867331 0.0010533196606843523 -0.9311969903184079
  outer loop
    vertex 85.47174121403748 404.1011876794145 48.32825760000016
    vertex 79.97359022167478 451.43221548230616 50.5340338814284
    vertex 85.47174121403748 494.78842767941484 48.43083809999999
  endloop
endfacet
facet normal -5.164726795331102e-16 -0.7601375407242522 -0.6497622020260072
  outer loop
    vertex 210.47174121403748 384.10118767941447 63.43083809999999
    vertex 72.51943586993171 392.70483422468044 53.36568702505746
    vertex 203.37584948870014 392.76367198230946 53.29685447640126
  endloop
endfacet
facet normal -0.00029952338715509753 -0.40400200167168815 -0.9147580515803125
  outer loop
    vertex 203.37584948870014 392.76367198230946 53.29685447640126
    vertex 72.51943586993171 392.70483422468044 53.36568702505746
    vertex 85.47174121403748 404.1011876794145 48.32825760000016
  endloop
endfacet
facet normal 0.1847109809868968 0.0 0.9827928843367042
  outer loop
    vertex 204.72640789064522 390.44046160552506 75.75174517264891
    vertex 190.47174121403748 494.78842767941484 78.43083809999999
    vertex 190.47174121403748 404.1011876794145 78.43083809999999
  endloop
endfacet
facet normal 5.599939421924128e-18 -0.40139062258246716 -0.9159069647638123
  outer loop
    vertex 203.37584948870014 392.76367198230946 53.29685447640126
    vertex 85.47174121403748 404.1011876794145 48.32825760000016
    vertex 190.47174121403748 404.1011876794145 48.32825760000016
  endloop
endfacet
facet normal -0.3633924605079326 0.001204127519793551 -0.9316353738039936
  outer loop
    vertex 85.47174121403748 404.1011876794145 48.32825760000016
    vertex 72.51943586993171 392.70483422468044 53.36568702505746
    vertex 79.97359022167478 451.43221548230616 50.5340338814284
  endloop
endfacet
facet normal 0.18471098098689548 -1.880815788049576e-16 0.9827928843367044
  outer loop
    vertex 204.72640789064522 508.44915375330413 75.75174517264892
    vertex 190.47174121403748 494.78842767941484 78.43083809999999
    vertex 204.72640789064522 390.44046160552506 75.75174517264891
  endloop
endfacet
facet normal -0.39207544109740333 0.005283976500081045 -0.9199178920320135
  outer loop
    vertex 74.07538775930317 507.74073302351957 53.36568702505786
    vertex 79.97359022167478 451.43221548230616 50.5340338814284
    vertex 72.51943586993171 392.70483422468044 53.36568702505746
  endloop
endfacet
facet normal -0.39207544109740333 0.005283976500081045 -0.9199178920320135
  outer loop
    vertex 79.97359022167478 451.43221548230616 50.5340338814284
    vertex 74.07538775930317 507.74073302351957 53.36568702505786
    vertex 85.47174121403748 494.78842767941484 48.43083809999999
  endloop
endfacet
facet normal -4.132615226626147e-18 0.19245037517889768 0.9813067069441143
  outer loop
    vertex 204.72640789064522 508.44915375330413 75.75174517264892
    vertex 85.47174121403748 494.78842767941484 78.43083809999999
    vertex 190.47174121403748 494.78842767941484 78.43083809999999
  endloop
endfacet
facet normal 0.0 -0.19245037517889682 0.9813067069441145
  outer loop
    vertex 204.72640789064522 390.44046160552506 75.75174517264891
    vertex 190.47174121403748 404.1011876794145 78.43083809999999
    vertex 85.47174121403748 404.1011876794145 78.43083809999999
  endloop
endfacet
facet normal -0.19245037517888292 5.540018313094231e-18 0.981306706944117
  outer loop
    vertex 85.47174121403748 494.78842767941484 78.43083809999999
    vertex 71.8110151401478 509.0430943560226 75.75174517264907
    vertex 85.47174121403748 404.1011876794145 78.43083809999999
  endloop
endfacet
facet normal 0.0008288200578316429 0.18547804780787502 0.9826480584821258
  outer loop
    vertex 204.72640789064522 508.44915375330413 75.75174517264892
    vertex 71.8110151401478 509.0430943560226 75.75174517264907
    vertex 85.47174121403748 494.78842767941484 78.43083809999999
  endloop
endfacet
facet normal 1.3751896357812977e-15 -0.19245037517888514 0.9813067069441166
  outer loop
    vertex 204.72640789064522 390.44046160552506 75.75174517264891
    vertex 85.47174121403748 404.1011876794145 78.43083809999999
    vertex 71.2170745374294 390.44046160552494 75.75174517264907
  endloop
endfacet
facet normal -0.18557103077465664 0.0009293062667272274 0.9826304131905821
  outer loop
    vertex 85.47174121403748 404.1011876794145 78.43083809999999
    vertex 71.8110151401478 509.0430943560226 75.75174517264907
    vertex 71.2170745374294 390.44046160552494 75.75174517264907
  endloop
endfacet
facet normal 0.0 -1.0 0.0
  outer loop
    vertex 190.47174121403748 404.1011876794145 48.32825760000016
    vertex 85.47174121403748 404.1011876794145 0.0
    vertex 190.47174121403748 404.1011876794145 0.0
  endloop
endfacet
facet normal 0.0 -1.0 0.0
  outer loop
    vertex 85.47174121403748 404.1011876794145 0.0
    vertex 190.47174121403748 404.1011876794145 48.32825760000016
    vertex 85.47174121403748 404.1011876794145 48.32825760000016
  endloop
endfacet
facet normal 1.0 0.0 0.0
  outer loop
    vertex 190.47174121403748 494.78842767941484 0.0
    vertex 190.47174121403748 404.1011876794145 48.32825760000016
    vertex 190.47174121403748 404.1011876794145 0.0
  endloop
endfacet
facet normal 1.0 0.0 0.0
  outer loop
    vertex 190.47174121403748 404.1011876794145 48.32825760000016
    vertex 190.47174121403748 494.78842767941484 0.0
    vertex 190.47174121403748 494.78842767941484 48.32825760000016
  endloop
endfacet
facet normal 0.0 1.0 0.0
  outer loop
    vertex 85.47174121403748 494.78842767941484 48.43083809999999
    vertex 190.47174121403748 494.78842767941484 0.0
    vertex 85.47174121403748 494.78842767941484 0.0
  endloop
endfacet
facet normal 0.0 1.0 0.0
  outer loop
    vertex 190.47174121403748 494.78842767941484 0.0
    vertex 85.47174121403748 494.78842767941484 48.43083809999999
    vertex 190.47174121403748 494.78842767941484 48.32825760000016
  endloop
endfacet
facet normal -1.0 0.0 0.0
  outer loop
    vertex 85.47174121403748 494.78842767941484 48.43083809999999
    vertex 85.47174121403748 404.1011876794145 0.0
    vertex 85.47174121403748 404.1011876794145 48.32825760000016
  endloop
endfacet
facet normal -1.0 0.0 0.0
  outer loop
    vertex 85.47174121403748 404.1011876794145 0.0
    vertex 85.47174121403748 494.78842767941484 48.43083809999999
    vertex 85.47174121403748 494.78842767941484 0.0
  endloop
endfacet
facet normal 0.0 1.0 0.0
  outer loop
    vertex 90.7217412140375 409.7691401794142 126.86167619999998
    vertex 185.2217412140375 409.7691401794142 78.43083809999999
    vertex 90.7217412140375 409.7691401794142 78.43083809999999
  endloop
endfacet
facet normal 0.0 1.0 0.0
  outer loop
    vertex 185.2217412140375 409.7691401794142 78.43083809999999
    vertex 90.7217412140375 409.7691401794142 126.86167619999998
    vertex 185.2217412140375 409.7691401794142 126.86167619999998
  endloop
endfacet
facet normal -1.0 0.0 0.0
  outer loop
    vertex 185.2217412140375 489.1204751794146 126.86167619999998
    vertex 185.2217412140375 409.7691401794142 78.43083809999999
    vertex 185.2217412140375 409.7691401794142 126.86167619999998
  endloop
endfacet
facet normal -1.0 0.0 0.0
  outer loop
    vertex 185.2217412140375 409.7691401794142 78.43083809999999
    vertex 185.2217412140375 489.1204751794146 126.86167619999998
    vertex 185.2217412140375 489.1204751794146 78.43083809999999
  endloop
endfacet
facet normal 0.0 -1.0 0.0
  outer loop
    vertex 185.2217412140375 489.1204751794146 126.86167619999998
    vertex 90.7217412140375 489.1204751794146 78.43083809999999
    vertex 185.2217412140375 489.1204751794146 78.43083809999999
  endloop
endfacet
facet normal 0.0 -1.0 0.0
  outer loop
    vertex 90.7217412140375 489.1204751794146 78.43083809999999
    vertex 185.2217412140375 489.1204751794146 126.86167619999998
    vertex 90.7217412140375 489.1204751794146 126.86167619999998
  endloop
endfacet
facet normal 0.0 1.0 0.0
  outer loop
    vertex 90.7217412140375 409.7691401794142 48.43083809999999
    vertex 185.2217412140375 409.7691401794142 20.136774000000024
    vertex 90.7217412140375 409.7691401794142 20.136774000000024
  endloop
endfacet
facet normal 0.0 1.0 0.0
  outer loop
    vertex 185.2217412140375 409.7691401794142 20.136774000000024
    vertex 90.7217412140375 409.7691401794142 48.43083809999999
    vertex 185.2217412140375 409.7691401794142 48.43083809999999
  endloop
endfacet
facet normal 1.0 0.0 0.0
  outer loop
    vertex 90.7217412140375 489.1204751794146 78.43083809999999
    vertex 90.7217412140375 409.7691401794142 126.86167619999998
    vertex 90.7217412140375 409.7691401794142 78.43083809999999
  endloop
endfacet
facet normal 1.0 0.0 0.0
  outer loop
    vertex 90.7217412140375 409.7691401794142 126.86167619999998
    vertex 90.7217412140375 489.1204751794146 78.43083809999999
    vertex 90.7217412140375 489.1204751794146 126.86167619999998
  endloop
endfacet
facet normal -1.0 0.0 0.0
  outer loop
    vertex 185.2217412140375 489.1204751794146 48.43083809999999
    vertex 185.2217412140375 409.7691401794142 20.136774000000024
    vertex 185.2217412140375 409.7691401794142 48.43083809999999
  endloop
endfacet
facet normal -1.0 0.0 0.0
  outer loop
    vertex 185.2217412140375 409.7691401794142 20.136774000000024
    vertex 185.2217412140375 489.1204751794146 48.43083809999999
    vertex 185.2217412140375 489.1204751794146 20.136774000000024
  endloop
endfacet
facet normal 0.0 0.0 -1.0
  outer loop
    vertex 185.2217412140375 489.1204751794146 0.0
    vertex 90.7217412140375 409.7691401794142 0.0
    vertex 90.7217412140375 489.1204751794146 0.0
  endloop
endfacet
facet normal 0.0 0.0 -1.0
  outer loop
    vertex 90.7217412140375 409.7691401794142 0.0
    vertex 185.2217412140375 489.1204751794146 0.0
    vertex 185.2217412140375 409.7691401794142 0.0
  endloop
endfacet
facet normal 1.0 0.0 0.0
  outer loop
    vertex 90.7217412140375 489.1204751794146 20.136774000000024
    vertex 90.7217412140375 409.7691401794142 48.43083809999999
    vertex 90.7217412140375 409.7691401794142 20.136774000000024
  endloop
endfacet
facet normal 1.0 0.0 0.0
  outer loop
    vertex 90.7217412140375 409.7691401794142 48.43083809999999
    vertex 90.7217412140375 489.1204751794146 20.136774000000024
    vertex 90.7217412140375 409.7691401794142 78.43083809999999
  endloop
endfacet
facet normal 1.0 0.0 0.0
  outer loop
    vertex 90.7217412140375 409.7691401794142 78.43083809999999
    vertex 90.7217412140375 489.1204751794146 20.136774000000024
    vertex 90.7217412140375 489.1204751794146 78.43083809999999
  endloop
endfacet
facet normal 0.0 1.0 0.0
  outer loop
    vertex 85.47174121403748 494.78842767941484 126.86167619999998
    vertex 190.47174121403748 494.78842767941484 78.43083809999999
    vertex 85.47174121403748 494.78842767941484 78.43083809999999
  endloop
endfacet
facet normal 0.0 1.0 0.0
  outer loop
    vertex 190.47174121403748 494.78842767941484 78.43083809999999
    vertex 85.47174121403748 494.78842767941484 126.86167619999998
    vertex 190.47174121403748 494.78842767941484 126.86167619999998
  endloop
endfacet
facet normal 0.0 0.0 -1.0
  outer loop
    vertex 85.47174121403748 494.78842767941484 0.0
    vertex 90.7217412140375 489.1204751794146 0.0
    vertex 85.47174121403748 404.1011876794145 0.0
  endloop
endfacet
facet normal 0.0 0.0 -1.0
  outer loop
    vertex 90.7217412140375 489.1204751794146 0.0
    vertex 85.47174121403748 494.78842767941484 0.0
    vertex 190.47174121403748 494.78842767941484 0.0
  endloop
endfacet
facet normal 0.0 0.0 -1.0
  outer loop
    vertex 90.7217412140375 489.1204751794146 0.0
    vertex 190.47174121403748 494.78842767941484 0.0
    vertex 185.2217412140375 489.1204751794146 0.0
  endloop
endfacet
facet normal 0.0 0.0 -1.0
  outer loop
    vertex 185.2217412140375 489.1204751794146 0.0
    vertex 190.47174121403748 494.78842767941484 0.0
    vertex 185.2217412140375 409.7691401794142 0.0
  endloop
endfacet
facet normal 0.0 0.0 -1.0
  outer loop
    vertex 85.47174121403748 404.1011876794145 0.0
    vertex 90.7217412140375 409.7691401794142 0.0
    vertex 190.47174121403748 404.1011876794145 0.0
  endloop
endfacet
facet normal 0.0 0.0 -1.0
  outer loop
    vertex 90.7217412140375 409.7691401794142 0.0
    vertex 85.47174121403748 404.1011876794145 0.0
    vertex 90.7217412140375 489.1204751794146 0.0
  endloop
endfacet
facet normal 0.0 0.0 -1.0
  outer loop
    vertex 190.47174121403748 404.1011876794145 0.0
    vertex 90.7217412140375 409.7691401794142 0.0
    vertex 185.2217412140375 409.7691401794142 0.0
  endloop
endfacet
facet normal 0.0 0.0 -1.0
  outer loop
    vertex 190.47174121403748 404.1011876794145 0.0
    vertex 185.2217412140375 409.7691401794142 0.0
    vertex 190.47174121403748 494.78842767941484 0.0
  endloop
endfacet
facet normal 0.0 0.0 1.0
  outer loop
    vertex 185.2217412140375 409.7691401794142 20.136774000000024
    vertex 90.7217412140375 489.1204751794146 20.136774000000024
    vertex 90.7217412140375 409.7691401794142 20.136774000000024
  endloop
endfacet
facet normal 0.0 0.0 1.0
  outer loop
    vertex 90.7217412140375 489.1204751794146 20.136774000000024
    vertex 185.2217412140375 409.7691401794142 20.136774000000024
    vertex 185.2217412140375 489.1204751794146 20.136774000000024
  endloop
endfacet
facet normal -1.0 0.0 0.0
  outer loop
    vertex 185.2217412140375 489.1204751794146 78.43083809999999
    vertex 185.2217412140375 409.7691401794142 48.43083809999999
    vertex 185.2217412140375 409.7691401794142 78.43083809999999
  endloop
endfacet
facet normal -1.0 0.0 0.0
  outer loop
    vertex 185.2217412140375 409.7691401794142 48.43083809999999
    vertex 185.2217412140375 489.1204751794146 78.43083809999999
    vertex 185.2217412140375 489.1204751794146 48.43083809999999
  endloop
endfacet
facet normal -1.0 0.0 0.0
  outer loop
    vertex 85.47174121403748 494.78842767941484 126.86167619999998
    vertex 85.47174121403748 404.1011876794145 78.43083809999999
    vertex 85.47174121403748 404.1011876794145 126.86167619999998
  endloop
endfacet
facet normal -1.0 0.0 0.0
  outer loop
    vertex 85.47174121403748 404.1011876794145 78.43083809999999
    vertex 85.47174121403748 494.78842767941484 126.86167619999998
    vertex 85.47174121403748 494.78842767941484 78.43083809999999
  endloop
endfacet
facet normal 0.0 1.0 0.0
  outer loop
    vertex 90.7217412140375 409.7691401794142 78.43083809999999
    vertex 185.2217412140375 409.7691401794142 48.43083809999999
    vertex 90.7217412140375 409.7691401794142 48.43083809999999
  endloop
endfacet
facet normal 0.0 1.0 0.0
  outer loop
    vertex 185.2217412140375 409.7691401794142 48.43083809999999
    vertex 90.7217412140375 409.7691401794142 78.43083809999999
    vertex 185.2217412140375 409.7691401794142 78.43083809999999
  endloop
endfacet
facet normal 0.0 0.0 1.0
  outer loop
    vertex 85.47174121403748 404.1011876794145 126.86167619999998
    vertex 90.7217412140375 409.7691401794142 126.86167619999998
    vertex 85.47174121403748 494.78842767941484 126.86167619999998
  endloop
endfacet
facet normal 0.0 0.0 1.0
  outer loop
    vertex 90.7217412140375 409.7691401794142 126.86167619999998
    vertex 85.47174121403748 404.1011876794145 126.86167619999998
    vertex 190.47174121403748 404.1011876794145 126.86167619999998
  endloop
endfacet
facet normal 0.0 0.0 1.0
  outer loop
    vertex 90.7217412140375 409.7691401794142 126.86167619999998
    vertex 190.47174121403748 404.1011876794145 126.86167619999998
    vertex 185.2217412140375 409.7691401794142 126.86167619999998
  endloop
endfacet
facet normal 0.0 0.0 1.0
  outer loop
    vertex 185.2217412140375 409.7691401794142 126.86167619999998
    vertex 190.47174121403748 404.1011876794145 126.86167619999998
    vertex 185.2217412140375 489.1204751794146 126.86167619999998
  endloop
endfacet
facet normal 0.0 0.0 1.0
  outer loop
    vertex 85.47174121403748 494.78842767941484 126.86167619999998
    vertex 90.7217412140375 489.1204751794146 126.86167619999998
    vertex 190.47174121403748 494.78842767941484 126.86167619999998
  endloop
endfacet
facet normal 0.0 0.0 1.0
  outer loop
    vertex 90.7217412140375 489.1204751794146 126.86167619999998
    vertex 85.47174121403748 494.78842767941484 126.86167619999998
    vertex 90.7217412140375 409.7691401794142 126.86167619999998
  endloop
endfacet
facet normal 0.0 0.0 1.0
  outer loop
    vertex 190.47174121403748 494.78842767941484 126.86167619999998
    vertex 90.7217412140375 489.1204751794146 126.86167619999998
    vertex 185.2217412140375 489.1204751794146 126.86167619999998
  endloop
endfacet
facet normal 0.0 0.0 1.0
  outer loop
    vertex 190.47174121403748 494.78842767941484 126.86167619999998
    vertex 185.2217412140375 489.1204751794146 126.86167619999998
    vertex 190.47174121403748 404.1011876794145 126.86167619999998
  endloop
endfacet
facet normal 0.0 -1.0 0.0
  outer loop
    vertex 190.47174121403748 404.1011876794145 126.86167619999998
    vertex 85.47174121403748 404.1011876794145 78.43083809999999
    vertex 190.47174121403748 404.1011876794145 78.43083809999999
  endloop
endfacet
facet normal 0.0 -1.0 0.0
  outer loop
    vertex 85.47174121403748 404.1011876794145 78.43083809999999
    vertex 190.47174121403748 404.1011876794145 126.86167619999998
    vertex 85.47174121403748 404.1011876794145 126.86167619999998
  endloop
endfacet
facet normal 1.0 0.0 0.0
  outer loop
    vertex 190.47174121403748 494.78842767941484 78.43083809999999
    vertex 190.47174121403748 404.1011876794145 126.86167619999998
    vertex 190.47174121403748 404.1011876794145 78.43083809999999
  endloop
endfacet
facet normal 1.0 0.0 0.0
  outer loop
    vertex 190.47174121403748 404.1011876794145 126.86167619999998
    vertex 190.47174121403748 494.78842767941484 78.43083809999999
    vertex 190.47174121403748 494.78842767941484 126.86167619999998
  endloop
endfacet
facet normal 0.0 -1.0 0.0
  outer loop
    vertex 185.2217412140375 489.1204751794146 48.43083809999999
    vertex 90.7217412140375 489.1204751794146 20.136774000000024
    vertex 185.2217412140375 489.1204751794146 20.136774000000024
  endloop
endfacet
facet normal 0.0 -1.0 0.0
  outer loop
    vertex 90.7217412140375 489.1204751794146 20.136774000000024
    vertex 185.2217412140375 489.1204751794146 48.43083809999999
    vertex 90.7217412140375 489.1204751794146 78.43083809999999
  endloop
endfacet
facet normal 0.0 -1.0 0.0
  outer loop
    vertex 90.7217412140375 489.1204751794146 78.43083809999999
    vertex 185.2217412140375 489.1204751794146 48.43083809999999
    vertex 185.2217412140375 489.1204751794146 78.43083809999999
  endloop
endfacet
endsolid Sentry3Dmodels
