solid Sentry3Dmodels
facet normal 0.0 1.0 0.0
  outer loop
    vertex 86.41328424357178 702.2288771577201 121.86167619999999
    vertex 191.41328424357178 702.2288771577201 0.0
    vertex 86.41328424357178 702.2288771577201 0.0
  endloop
endfacet
facet normal 0.0 1.0 0.0
  outer loop
    vertex 191.41328424357178 702.2288771577201 0.0
    vertex 86.41328424357178 702.2288771577201 121.86167619999999
    vertex 191.41328424357178 702.2288771577201 121.86167619999999
  endloop
endfacet
facet normal 0.0 0.0 1.0
  outer loop
    vertex 86.41328424357178 611.5416371577197 121.86167619999999
    vertex 91.6632842435718 617.2095896577194 121.86167619999999
    vertex 86.41328424357178 702.2288771577201 121.86167619999999
  endloop
endfacet
facet normal 0.0 0.0 1.0
  outer loop
    vertex 91.6632842435718 617.2095896577194 121.86167619999999
    vertex 86.41328424357178 611.5416371577197 121.86167619999999
    vertex 191.41328424357178 611.5416371577197 121.86167619999999
  endloop
endfacet
facet normal 0.0 0.0 1.0
  outer loop
    vertex 91.6632842435718 617.2095896577194 121.86167619999999
    vertex 191.41328424357178 611.5416371577197 121.86167619999999
    vertex 186.16328424357178 617.2095896577194 121.86167619999999
  endloop
endfacet
facet normal 0.0 0.0 1.0
  outer loop
    vertex 186.16328424357178 617.2095896577194 121.86167619999999
    vertex 191.41328424357178 611.5416371577197 121.86167619999999
    vertex 186.16328424357178 696.5609246577199 121.86167619999999
  endloop
endfacet
facet normal 0.0 0.0 1.0
  outer loop
    vertex 86.41328424357178 702.2288771577201 121.86167619999999
    vertex 91.6632842435718 696.5609246577199 121.86167619999999
    vertex 191.41328424357178 702.2288771577201 121.86167619999999
  endloop
endfacet
facet normal 0.0 0.0 1.0
  outer loop
    vertex 91.6632842435718 696.5609246577199 121.86167619999999
    vertex 86.41328424357178 702.2288771577201 121.86167619999999
    vertex 91.6632842435718 617.2095896577194 121.86167619999999
  endloop
endfacet
facet normal 0.0 0.0 1.0
  outer loop
    vertex 191.41328424357178 702.2288771577201 121.86167619999999
    vertex 91.6632842435718 696.5609246577199 121.86167619999999
    vertex 186.16328424357178 696.5609246577199 121.86167619999999
  endloop
endfacet
facet normal 0.0 0.0 1.0
  outer loop
    vertex 191.41328424357178 702.2288771577201 121.86167619999999
    vertex 186.16328424357178 696.5609246577199 121.86167619999999
    vertex 191.41328424357178 611.5416371577197 121.86167619999999
  endloop
endfacet
facet normal 0.0 0.0 1.0
  outer loop
    vertex 186.16328424357178 617.2095896577194 11.136774000000022
    vertex 91.6632842435718 696.5609246577199 11.136774000000022
    vertex 91.6632842435718 617.2095896577194 11.136774000000022
  endloop
endfacet
facet normal 0.0 0.0 1.0
  outer loop
    vertex 91.6632842435718 696.5609246577199 11.136774000000022
    vertex 186.16328424357178 617.2095896577194 11.136774000000022
    vertex 186.16328424357178 696.5609246577199 11.136774000000022
  endloop
endfacet
facet normal 0.0 -1.0 0.0
  outer loop
    vertex 191.41328424357178 611.5416371577197 121.86167619999999
    vertex 86.41328424357178 611.5416371577197 0.0
    vertex 191.41328424357178 611.5416371577197 0.0
  endloop
endfacet
facet normal 0.0 -1.0 0.0
  outer loop
    vertex 86.41328424357178 611.5416371577197 0.0
    vertex 191.41328424357178 611.5416371577197 121.86167619999999
    vertex 86.41328424357178 611.5416371577197 121.86167619999999
  endloop
endfacet
facet normal 1.0 0.0 0.0
  outer loop
    vertex 91.6632842435718 696.5609246577199 11.136774000000022
    vertex 91.6632842435718 617.2095896577194 121.86167619999999
    vertex 91.6632842435718 617.2095896577194 11.136774000000022
  endloop
endfacet
facet normal 1.0 0.0 0.0
  outer loop
    vertex 91.6632842435718 617.2095896577194 121.86167619999999
    vertex 91.6632842435718 696.5609246577199 11.136774000000022
    vertex 91.6632842435718 696.5609246577199 121.86167619999999
  endloop
endfacet
facet normal 0.0 0.0 -1.0
  outer loop
    vertex 186.16328424357178 696.5609246577199 0.0
    vertex 91.6632842435718 617.2095896577194 0.0
    vertex 91.6632842435718 696.5609246577199 0.0
  endloop
endfacet
facet normal 0.0 0.0 -1.0
  outer loop
    vertex 91.6632842435718 617.2095896577194 0.0
    vertex 186.16328424357178 696.5609246577199 0.0
    vertex 186.16328424357178 617.2095896577194 0.0
  endloop
endfacet
facet normal 0.0 1.0 0.0
  outer loop
    vertex 91.6632842435718 617.2095896577194 121.86167619999999
    vertex 186.16328424357178 617.2095896577194 11.136774000000022
    vertex 91.6632842435718 617.2095896577194 11.136774000000022
  endloop
endfacet
facet normal 0.0 1.0 0.0
  outer loop
    vertex 186.16328424357178 617.2095896577194 11.136774000000022
    vertex 91.6632842435718 617.2095896577194 121.86167619999999
    vertex 186.16328424357178 617.2095896577194 121.86167619999999
  endloop
endfacet
facet normal 0.0 -1.0 0.0
  outer loop
    vertex 186.16328424357178 696.5609246577199 121.86167619999999
    vertex 91.6632842435718 696.5609246577199 11.136774000000022
    vertex 186.16328424357178 696.5609246577199 11.136774000000022
  endloop
endfacet
facet normal 0.0 -1.0 0.0
  outer loop
    vertex 91.6632842435718 696.5609246577199 11.136774000000022
    vertex 186.16328424357178 696.5609246577199 121.86167619999999
    vertex 91.6632842435718 696.5609246577199 121.86167619999999
  endloop
endfacet
facet normal 1.0 0.0 0.0
  outer loop
    vertex 191.41328424357178 702.2288771577201 0.0
    vertex 191.41328424357178 611.5416371577197 121.86167619999999
    vertex 191.41328424357178 611.5416371577197 0.0
  endloop
endfacet
facet normal 1.0 0.0 0.0
  outer loop
    vertex 191.41328424357178 611.5416371577197 121.86167619999999
    vertex 191.41328424357178 702.2288771577201 0.0
    vertex 191.41328424357178 702.2288771577201 121.86167619999999
  endloop
endfacet
facet normal -1.0 0.0 0.0
  outer loop
    vertex 86.41328424357178 702.2288771577201 121.86167619999999
    vertex 86.41328424357178 611.5416371577197 0.0
    vertex 86.41328424357178 611.5416371577197 121.86167619999999
  endloop
endfacet
facet normal -1.0 0.0 0.0
  outer loop
    vertex 86.41328424357178 611.5416371577197 0.0
    vertex 86.41328424357178 702.2288771577201 121.86167619999999
    vertex 86.41328424357178 702.2288771577201 0.0
  endloop
endfacet
facet normal 0.0 0.0 -1.0
  outer loop
    vertex 86.41328424357178 702.2288771577201 0.0
    vertex 91.6632842435718 696.5609246577199 0.0
    vertex 86.41328424357178 611.5416371577197 0.0
  endloop
endfacet
facet normal 0.0 0.0 -1.0
  outer loop
    vertex 91.6632842435718 696.5609246577199 0.0
    vertex 86.41328424357178 702.2288771577201 0.0
    vertex 191.41328424357178 702.2288771577201 0.0
  endloop
endfacet
facet normal 0.0 0.0 -1.0
  outer loop
    vertex 91.6632842435718 696.5609246577199 0.0
    vertex 191.41328424357178 702.2288771577201 0.0
    vertex 186.16328424357178 696.5609246577199 0.0
  endloop
endfacet
facet normal 0.0 0.0 -1.0
  outer loop
    vertex 186.16328424357178 696.5609246577199 0.0
    vertex 191.41328424357178 702.2288771577201 0.0
    vertex 186.16328424357178 617.2095896577194 0.0
  endloop
endfacet
facet normal 0.0 0.0 -1.0
  outer loop
    vertex 86.41328424357178 611.5416371577197 0.0
    vertex 91.6632842435718 617.2095896577194 0.0
    vertex 191.41328424357178 611.5416371577197 0.0
  endloop
endfacet
facet normal 0.0 0.0 -1.0
  outer loop
    vertex 91.6632842435718 617.2095896577194 0.0
    vertex 86.41328424357178 611.5416371577197 0.0
    vertex 91.6632842435718 696.5609246577199 0.0
  endloop
endfacet
facet normal 0.0 0.0 -1.0
  outer loop
    vertex 191.41328424357178 611.5416371577197 0.0
    vertex 91.6632842435718 617.2095896577194 0.0
    vertex 186.16328424357178 617.2095896577194 0.0
  endloop
endfacet
facet normal 0.0 0.0 -1.0
  outer loop
    vertex 191.41328424357178 611.5416371577197 0.0
    vertex 186.16328424357178 617.2095896577194 0.0
    vertex 191.41328424357178 702.2288771577201 0.0
  endloop
endfacet
facet normal -1.0 0.0 0.0
  outer loop
    vertex 186.16328424357178 696.5609246577199 121.86167619999999
    vertex 186.16328424357178 617.2095896577194 11.136774000000022
    vertex 186.16328424357178 617.2095896577194 121.86167619999999
  endloop
endfacet
facet normal -1.0 0.0 0.0
  outer loop
    vertex 186.16328424357178 617.2095896577194 11.136774000000022
    vertex 186.16328424357178 696.5609246577199 121.86167619999999
    vertex 186.16328424357178 696.5609246577199 11.136774000000022
  endloop
endfacet
endsolid Sentry3Dmodels
