solid Sentry3Dmodels
facet normal 0.0 0.0 1.0
  outer loop
    vertex 171.61104799999998 522.6622282206558 19.565686232845707
    vertex 176.861048 528.3301807206556 19.565686232845707
    vertex 171.61104799999998 613.3494682206563 19.565686232845707
  endloop
endfacet
facet normal 0.0 0.0 1.0
  outer loop
    vertex 176.861048 528.3301807206556 19.565686232845707
    vertex 171.61104799999998 522.6622282206558 19.565686232845707
    vertex 276.611048 522.6622282206558 19.565686232845707
  endloop
endfacet
facet normal 0.0 0.0 1.0
  outer loop
    vertex 176.861048 528.3301807206556 19.565686232845707
    vertex 276.611048 522.6622282206558 19.565686232845707
    vertex 271.361048 528.3301807206556 19.565686232845707
  endloop
endfacet
facet normal 0.0 0.0 1.0
  outer loop
    vertex 271.361048 528.3301807206556 19.565686232845707
    vertex 276.611048 522.6622282206558 19.565686232845707
    vertex 271.361048 607.681515720656 19.565686232845707
  endloop
endfacet
facet normal 0.0 0.0 1.0
  outer loop
    vertex 171.61104799999998 613.3494682206563 19.565686232845707
    vertex 176.861048 607.681515720656 19.565686232845707
    vertex 276.611048 613.3494682206563 19.565686232845707
  endloop
endfacet
facet normal 0.0 0.0 1.0
  outer loop
    vertex 176.861048 607.681515720656 19.565686232845707
    vertex 171.61104799999998 613.3494682206563 19.565686232845707
    vertex 176.861048 528.3301807206556 19.565686232845707
  endloop
endfacet
facet normal 0.0 0.0 1.0
  outer loop
    vertex 276.611048 613.3494682206563 19.565686232845707
    vertex 176.861048 607.681515720656 19.565686232845707
    vertex 271.361048 607.681515720656 19.565686232845707
  endloop
endfacet
facet normal 0.0 0.0 1.0
  outer loop
    vertex 276.611048 613.3494682206563 19.565686232845707
    vertex 271.361048 607.681515720656 19.565686232845707
    vertex 276.611048 522.6622282206558 19.565686232845707
  endloop
endfacet
facet normal 0.0 0.0 -1.0
  outer loop
    vertex 171.61104799999998 613.3494682206563 11.5656862328457
    vertex 176.861048 607.681515720656 11.5656862328457
    vertex 171.61104799999998 522.6622282206558 11.5656862328457
  endloop
endfacet
facet normal 0.0 0.0 -1.0
  outer loop
    vertex 176.861048 607.681515720656 11.5656862328457
    vertex 171.61104799999998 613.3494682206563 11.5656862328457
    vertex 276.611048 613.3494682206563 11.5656862328457
  endloop
endfacet
facet normal 0.0 0.0 -1.0
  outer loop
    vertex 176.861048 607.681515720656 11.5656862328457
    vertex 276.611048 613.3494682206563 11.5656862328457
    vertex 271.361048 607.681515720656 11.5656862328457
  endloop
endfacet
facet normal 0.0 0.0 -1.0
  outer loop
    vertex 271.361048 607.681515720656 11.5656862328457
    vertex 276.611048 613.3494682206563 11.5656862328457
    vertex 271.361048 528.3301807206556 11.5656862328457
  endloop
endfacet
facet normal 0.0 0.0 -1.0
  outer loop
    vertex 171.61104799999998 522.6622282206558 11.5656862328457
    vertex 176.861048 528.3301807206556 11.5656862328457
    vertex 276.611048 522.6622282206558 11.5656862328457
  endloop
endfacet
facet normal 0.0 0.0 -1.0
  outer loop
    vertex 176.861048 528.3301807206556 11.5656862328457
    vertex 171.61104799999998 522.6622282206558 11.5656862328457
    vertex 176.861048 607.681515720656 11.5656862328457
  endloop
endfacet
facet normal 0.0 0.0 -1.0
  outer loop
    vertex 276.611048 522.6622282206558 11.5656862328457
    vertex 176.861048 528.3301807206556 11.5656862328457
    vertex 271.361048 528.3301807206556 11.5656862328457
  endloop
endfacet
facet normal 0.0 0.0 -1.0
  outer loop
    vertex 276.611048 522.6622282206558 11.5656862328457
    vertex 271.361048 528.3301807206556 11.5656862328457
    vertex 276.611048 613.3494682206563 11.5656862328457
  endloop
endfacet
facet normal 0.0 -1.0 0.0
  outer loop
    vertex 271.361048 607.681515720656 19.565686232845707
    vertex 176.861048 607.681515720656 11.5656862328457
    vertex 271.361048 607.681515720656 11.5656862328457
  endloop
endfacet
facet normal 0.0 -1.0 0.0
  outer loop
    vertex 176.861048 607.681515720656 11.5656862328457
    vertex 271.361048 607.681515720656 19.565686232845707
    vertex 176.861048 607.681515720656 19.565686232845707
  endloop
endfacet
facet normal -1.0 0.0 0.0
  outer loop
    vertex 271.361048 607.681515720656 19.565686232845707
    vertex 271.361048 528.3301807206556 11.5656862328457
    vertex 271.361048 528.3301807206556 19.565686232845707
  endloop
endfacet
facet normal -1.0 0.0 0.0
  outer loop
    vertex 271.361048 528.3301807206556 11.5656862328457
    vertex 271.361048 607.681515720656 19.565686232845707
    vertex 271.361048 607.681515720656 11.5656862328457
  endloop
endfacet
facet normal 1.0 0.0 0.0
  outer loop
    vertex 276.611048 613.3494682206563 11.5656862328457
    vertex 276.611048 522.6622282206558 19.565686232845707
    vertex 276.611048 522.6622282206558 11.5656862328457
  endloop
endfacet
facet normal 1.0 0.0 0.0
  outer loop
    vertex 276.611048 522.6622282206558 19.565686232845707
    vertex 276.611048 613.3494682206563 11.5656862328457
    vertex 276.611048 613.3494682206563 19.565686232845707
  endloop
endfacet
facet normal 1.0 0.0 0.0
  outer loop
    vertex 176.861048 607.681515720656 11.5656862328457
    vertex 176.861048 528.3301807206556 19.565686232845707
    vertex 176.861048 528.3301807206556 11.5656862328457
  endloop
endfacet
facet normal 1.0 0.0 0.0
  outer loop
    vertex 176.861048 528.3301807206556 19.565686232845707
    vertex 176.861048 607.681515720656 11.5656862328457
    vertex 176.861048 607.681515720656 19.565686232845707
  endloop
endfacet
facet normal 0.0 -1.0 0.0
  outer loop
    vertex 276.611048 522.6622282206558 19.565686232845707
    vertex 171.61104799999998 522.6622282206558 11.5656862328457
    vertex 276.611048 522.6622282206558 11.5656862328457
  endloop
endfacet
facet normal 0.0 -1.0 0.0
  outer loop
    vertex 171.61104799999998 522.6622282206558 11.5656862328457
    vertex 276.611048 522.6622282206558 19.565686232845707
    vertex 171.61104799999998 522.6622282206558 19.565686232845707
  endloop
endfacet
facet normal 0.0 1.0 0.0
  outer loop
    vertex 176.861048 528.3301807206556 19.565686232845707
    vertex 271.361048 528.3301807206556 11.5656862328457
    vertex 176.861048 528.3301807206556 11.5656862328457
  endloop
endfacet
facet normal 0.0 1.0 0.0
  outer loop
    vertex 271.361048 528.3301807206556 11.5656862328457
    vertex 176.861048 528.3301807206556 19.565686232845707
    vertex 271.361048 528.3301807206556 19.565686232845707
  endloop
endfacet
facet normal -1.0 0.0 0.0
  outer loop
    vertex 171.61104799999998 613.3494682206563 19.565686232845707
    vertex 171.61104799999998 522.6622282206558 11.5656862328457
    vertex 171.61104799999998 522.6622282206558 19.565686232845707
  endloop
endfacet
facet normal -1.0 0.0 0.0
  outer loop
    vertex 171.61104799999998 522.6622282206558 11.5656862328457
    vertex 171.61104799999998 613.3494682206563 19.565686232845707
    vertex 171.61104799999998 613.3494682206563 11.5656862328457
  endloop
endfacet
facet normal 0.0 1.0 0.0
  outer loop
    vertex 171.61104799999998 613.3494682206563 19.565686232845707
    vertex 276.611048 613.3494682206563 11.5656862328457
    vertex 171.61104799999998 613.3494682206563 11.5656862328457
  endloop
endfacet
facet normal 0.0 1.0 0.0
  outer loop
    vertex 276.611048 613.3494682206563 11.5656862328457
    vertex 171.61104799999998 613.3494682206563 19.565686232845707
    vertex 276.611048 613.3494682206563 19.565686232845707
  endloop
endfacet
endsolid Sentry3Dmodels
