solid Sentry3Dmodels
facet normal -0.6755025223096502 -0.7346612765259524 -0.06300119940571551
  outer loop
    vertex 78.41726411228836 583.6220269876172 27.507746559846574
    vertex 72.63264017789741 590.0046533063268 15.102580499999911
    vertex 81.2951244807921 582.9087615809863 4.9685968764021045
  endloop
endfacet
facet normal -0.7307835836047806 -0.6826092249111162 1.2614977278444819e-16
  outer loop
    vertex 78.41726411228836 583.6220269876172 27.507746559846574
    vertex 93.63264017789747 567.3328433063272 0.0
    vertex 93.63264017789747 567.3328433063272 27.507746559846428
  endloop
endfacet
facet normal 0.0 -1.0 0.0
  outer loop
    vertex 198.6326401778976 567.3328433063272 27.507746559846428
    vertex 93.63264017789747 567.3328433063272 0.0
    vertex 198.6326401778976 567.3328433063272 0.0
  endloop
endfacet
facet normal 0.0 -1.0 0.0
  outer loop
    vertex 93.63264017789747 567.3328433063272 0.0
    vertex 198.6326401778976 567.3328433063272 27.507746559846428
    vertex 93.63264017789747 567.3328433063272 27.507746559846428
  endloop
endfacet
facet normal -0.7938359320219814 -0.6025384898620104 -0.0822914410227479
  outer loop
    vertex 78.41726411228836 583.6220269876172 27.507746559846574
    vertex 81.2951244807921 582.9087615809863 4.9685968764021045
    vertex 93.63264017789747 567.3328433063272 0.0
  endloop
endfacet
facet normal 0.6755025223095459 0.7346612765260466 -0.06300119940573345
  outer loop
    vertex 214.0076473754376 601.9764557450256 27.507746559846453
    vertex 219.79227130982906 595.593829426317 15.102580500000036
    vertex 211.12978700693407 602.6897211516554 4.968596876401428
  endloop
endfacet
facet normal -0.7610521650886545 0.6483407493248853 0.021304337087035503
  outer loop
    vertex 79.88816303516634 604.2563137292125 4.968596876401382
    vertex 72.792271309829 595.593829426317 15.102580499999945
    vertex 78.57689524421998 601.9764557450256 27.50774655984662
  endloop
endfacet
facet normal 0.0 1.0 0.0
  outer loop
    vertex 93.79227130982905 618.2656394263169 27.507746559846428
    vertex 198.79227130982903 618.2656394263169 0.0
    vertex 93.79227130982905 618.2656394263169 0.0
  endloop
endfacet
facet normal 0.0 1.0 0.0
  outer loop
    vertex 198.79227130982903 618.2656394263169 0.0
    vertex 93.79227130982905 618.2656394263169 27.507746559846428
    vertex 198.79227130982903 618.2656394263169 27.507746559846428
  endloop
endfacet
facet normal 0.7938359320220338 0.6025384898619365 -0.08229144102278238
  outer loop
    vertex 198.79227130982903 618.2656394263169 0.0
    vertex 214.0076473754376 601.9764557450256 27.507746559846453
    vertex 211.12978700693407 602.6897211516554 4.968596876401428
  endloop
endfacet
facet normal -0.709587414511197 -0.7039429720536953 -0.030821960734599124
  outer loop
    vertex 80.43925955928316 681.3528009959006 27.50774655984712
    vertex 82.71911754346941 680.0415332049542 4.9685968764018185
    vertex 96.72844324057361 666.1374249302909 4.354563720714219e-13
  endloop
endfacet
facet normal 0.730783583604815 0.6826092249110792 0.0
  outer loop
    vertex 198.79227130982903 618.2656394263169 27.507746559846428
    vertex 214.0076473754376 601.9764557450256 27.507746559846453
    vertex 198.79227130982903 618.2656394263169 0.0
  endloop
endfacet
facet normal -0.6826092249111232 -0.730783583604774 -3.1537443196110167e-17
  outer loop
    vertex 80.43925955928316 681.3528009959006 27.50774655984712
    vertex 96.72844324057361 666.1374249302909 4.354563720714219e-13
    vertex 96.72844324057361 666.1374249302909 27.507746559846947
  endloop
endfacet
facet normal -0.7039429720537143 0.7095874145111775 0.030821960734612797
  outer loop
    vertex 78.57689524421998 601.9764557450256 27.50774655984662
    vertex 93.79227130982905 618.2656394263169 0.0
    vertex 79.88816303516634 604.2563137292125 4.968596876401382
  endloop
endfacet
facet normal -0.7307835836048042 0.6826092249110909 0.0
  outer loop
    vertex 93.79227130982905 618.2656394263169 0.0
    vertex 78.57689524421998 601.9764557450256 27.50774655984662
    vertex 93.79227130982905 618.2656394263169 27.507746559846428
  endloop
endfacet
facet normal 0.7307835836047943 -0.6826092249111013 0.0
  outer loop
    vertex 213.8480162435061 583.6220269876172 27.507746559846428
    vertex 198.6326401778976 567.3328433063272 27.507746559846428
    vertex 198.6326401778976 567.3328433063272 0.0
  endloop
endfacet
facet normal 0.675502522309622 -0.7346612765259791 -0.06300119940570638
  outer loop
    vertex 213.8480162435061 583.6220269876172 27.507746559846428
    vertex 210.97015587500255 582.9087615809863 4.968596876402217
    vertex 219.63264017789774 590.0046533063268 15.102580499999934
  endloop
endfacet
facet normal 0.7938359320219915 -0.6025384898619973 -0.08229144102274416
  outer loop
    vertex 213.8480162435061 583.6220269876172 27.507746559846428
    vertex 198.6326401778976 567.3328433063272 0.0
    vertex 210.97015587500255 582.9087615809863 4.968596876402217
  endloop
endfacet
facet normal 0.0 -0.3039046756275198 -0.9527024446970481
  outer loop
    vertex 211.12978700693407 602.6897211516554 4.968596876401428
    vertex 93.79227130982905 618.2656394263169 0.0
    vertex 198.79227130982903 618.2656394263169 0.0
  endloop
endfacet
facet normal 3.9769330730232625e-16 -0.7601375407242285 -0.649762202026035
  outer loop
    vertex 219.79227130982906 595.593829426317 15.102580500000036
    vertex 72.792271309829 595.593829426317 15.102580499999945
    vertex 79.88816303516634 604.2563137292125 4.968596876401382
  endloop
endfacet
facet normal 1.0862442143612247e-16 -0.8892053820944866 0.45750823867357643
  outer loop
    vertex 219.79227130982906 595.593829426317 15.102580500000036
    vertex 78.57689524421998 601.9764557450256 27.50774655984662
    vertex 72.792271309829 595.593829426317 15.102580499999945
  endloop
endfacet
facet normal 1.0862442143612247e-16 -0.8892053820944866 0.45750823867357643
  outer loop
    vertex 78.57689524421998 601.9764557450256 27.50774655984662
    vertex 219.79227130982906 595.593829426317 15.102580500000036
    vertex 214.0076473754376 601.9764557450256 27.507746559846453
  endloop
endfacet
facet normal 7.802979510858188e-16 6.57852035027982e-15 1.0
  outer loop
    vertex 214.0076473754376 601.9764557450256 27.507746559846453
    vertex 93.79227130982905 618.2656394263169 27.507746559846428
    vertex 78.57689524421998 601.9764557450256 27.50774655984662
  endloop
endfacet
facet normal 7.802979510858188e-16 6.57852035027982e-15 1.0
  outer loop
    vertex 93.79227130982905 618.2656394263169 27.507746559846428
    vertex 214.0076473754376 601.9764557450256 27.507746559846453
    vertex 198.79227130982903 618.2656394263169 27.507746559846428
  endloop
endfacet
facet normal -0.009824371750484737 -0.8230388178185819 -0.5679001550303536
  outer loop
    vertex 219.79227130982906 595.593829426317 15.102580500000036
    vertex 79.88816303516634 604.2563137292125 4.968596876401382
    vertex 211.12978700693407 602.6897211516554 4.968596876401428
  endloop
endfacet
facet normal -0.003948392604599731 -0.3307774241557227 -0.9437005382348498
  outer loop
    vertex 211.12978700693407 602.6897211516554 4.968596876401428
    vertex 79.88816303516634 604.2563137292125 4.968596876401382
    vertex 93.79227130982905 618.2656394263169 0.0
  endloop
endfacet
facet normal 9.474968123613653e-15 6.486781954226912e-15 1.0
  outer loop
    vertex 96.72844324057361 666.1374249302909 27.507746559846947
    vertex 203.70486692186535 681.3528009959006 27.507746559845852
    vertex 80.43925955928316 681.3528009959006 27.50774655984712
  endloop
endfacet
facet normal 9.474968123613653e-15 6.486781954226912e-15 1.0
  outer loop
    vertex 203.70486692186535 681.3528009959006 27.507746559845852
    vertex 96.72844324057361 666.1374249302909 27.507746559846947
    vertex 187.41568324057465 666.1374249302924 27.507746559846225
  endloop
endfacet
facet normal 6.714946597172562e-15 -2.885773502653076e-15 1.0
  outer loop
    vertex 205.02339735775143 641.8551608906936 27.50774655984632
    vertex 98.04697367646283 657.0705369563016 27.50774655984701
    vertex 81.7577899951714 641.8551608906926 27.507746559847163
  endloop
endfacet
facet normal 6.714946597172562e-15 -2.885773502653076e-15 1.0
  outer loop
    vertex 98.04697367646283 657.0705369563016 27.50774655984701
    vertex 205.02339735775143 641.8551608906936 27.50774655984632
    vertex 128.39059367646283 657.070536956302 27.507746559846936
  endloop
endfacet
facet normal 6.714946597172562e-15 -2.885773502653076e-15 1.0
  outer loop
    vertex 128.39059367646283 657.070536956302 27.507746559846936
    vertex 205.02339735775143 641.8551608906936 27.50774655984632
    vertex 143.39059367646246 657.0705369563018 27.50774655984686
  endloop
endfacet
facet normal 6.714946597172562e-15 -2.885773502653076e-15 1.0
  outer loop
    vertex 143.39059367646246 657.0705369563018 27.50774655984686
    vertex 205.02339735775143 641.8551608906936 27.50774655984632
    vertex 188.73421367646262 657.070536956302 27.507746559846435
  endloop
endfacet
facet normal -5.964534373943605e-15 -0.3735668350778607 -0.9276032663428426
  outer loop
    vertex 188.73421367646262 657.070536956302 -1.3238173619822522e-13
    vertex 82.47105540180085 644.7330212591966 4.968596876402304
    vertex 98.04697367646283 657.0705369563016 6.313116776615778e-13
  endloop
endfacet
facet normal 0.0 0.3039046756276053 -0.9527024446970209
  outer loop
    vertex 210.97015587500255 582.9087615809863 4.968596876402217
    vertex 198.6326401778976 567.3328433063272 0.0
    vertex 93.63264017789747 567.3328433063272 0.0
  endloop
endfacet
facet normal -1.4131259587782443e-14 0.37356683507789823 -0.9276032663428275
  outer loop
    vertex 202.9916015152357 678.4749406273974 4.9685968764015485
    vertex 187.41568324057465 666.1374249302924 -3.2823704178840033e-13
    vertex 96.72844324057361 666.1374249302909 4.354563720714219e-13
  endloop
endfacet
facet normal 2.673224933445202e-16 0.8191520442888565 -0.5735764363512394
  outer loop
    vertex 72.63264017789741 590.0046533063268 15.102580499999911
    vertex 210.97015587500255 582.9087615809863 4.968596876402217
    vertex 81.2951244807921 582.9087615809863 4.9685968764021045
  endloop
endfacet
facet normal 2.673224933445202e-16 0.8191520442888565 -0.5735764363512394
  outer loop
    vertex 210.97015587500255 582.9087615809863 4.968596876402217
    vertex 72.63264017789741 590.0046533063268 15.102580499999911
    vertex 219.63264017789774 590.0046533063268 15.102580499999934
  endloop
endfacet
facet normal -3.888702119128215e-15 -0.7601375407242716 -0.6497622020259844
  outer loop
    vertex 211.40602367646238 636.0705369563025 15.102580499999863
    vertex 82.47105540180085 644.7330212591966 4.968596876402304
    vertex 204.31013195112112 644.7330212591959 4.968596876402072
  endloop
endfacet
facet normal -3.888702119128215e-15 -0.7601375407242716 -0.6497622020259844
  outer loop
    vertex 82.47105540180085 644.7330212591966 4.968596876402304
    vertex 211.40602367646238 636.0705369563025 15.102580499999863
    vertex 75.3751636764629 636.070536956302 15.10258050000099
  endloop
endfacet
facet normal -4.336185209996764e-15 0.8191520442890022 -0.5735764363510312
  outer loop
    vertex 74.05663324057413 687.1374249302914 15.10258050000036
    vertex 210.0874932405762 687.1374249302913 15.102580499999204
    vertex 82.71911754346941 680.0415332049542 4.9685968764018185
  endloop
endfacet
facet normal 4.264293082042003e-15 0.9063077870366558 0.4226182617406867
  outer loop
    vertex 74.05663324057413 687.1374249302914 15.10258050000036
    vertex 203.70486692186535 681.3528009959006 27.507746559845852
    vertex 210.0874932405762 687.1374249302913 15.102580499999204
  endloop
endfacet
facet normal 4.264293082042003e-15 0.9063077870366558 0.4226182617406867
  outer loop
    vertex 203.70486692186535 681.3528009959006 27.507746559845852
    vertex 74.05663324057413 687.1374249302914 15.10258050000036
    vertex 80.43925955928316 681.3528009959006 27.50774655984712
  endloop
endfacet
facet normal 0.009856050790448335 0.7566815569673406 -0.6537093234827672
  outer loop
    vertex 210.0874932405762 687.1374249302913 15.102580499999204
    vertex 202.9916015152357 678.4749406273974 4.9685968764015485
    vertex 82.71911754346941 680.0415332049542 4.9685968764018185
  endloop
endfacet
facet normal 6.762582242743754e-16 -4.5010928712443825e-15 1.0
  outer loop
    vertex 93.63264017789747 567.3328433063272 27.507746559846428
    vertex 213.8480162435061 583.6220269876172 27.507746559846428
    vertex 78.41726411228836 583.6220269876172 27.507746559846574
  endloop
endfacet
facet normal 6.762582242743754e-16 -4.5010928712443825e-15 1.0
  outer loop
    vertex 213.8480162435061 583.6220269876172 27.507746559846428
    vertex 93.63264017789747 567.3328433063272 27.507746559846428
    vertex 198.6326401778976 567.3328433063272 27.507746559846428
  endloop
endfacet
facet normal 8.15975316144133e-15 -0.9063077870366495 0.4226182617407004
  outer loop
    vertex 205.02339735775143 641.8551608906936 27.50774655984632
    vertex 75.3751636764629 636.070536956302 15.10258050000099
    vertex 211.40602367646238 636.0705369563025 15.102580499999863
  endloop
endfacet
facet normal 8.15975316144133e-15 -0.9063077870366495 0.4226182617407004
  outer loop
    vertex 75.3751636764629 636.070536956302 15.10258050000099
    vertex 205.02339735775143 641.8551608906936 27.50774655984632
    vertex 81.7577899951714 641.8551608906926 27.507746559847163
  endloop
endfacet
facet normal -3.7134749819256575e-15 -0.37356683507787736 -0.927603266342836
  outer loop
    vertex 204.31013195112112 644.7330212591959 4.968596876402072
    vertex 82.47105540180085 644.7330212591966 4.968596876402304
    vertex 188.73421367646262 657.070536956302 -1.3238173619822522e-13
  endloop
endfacet
facet normal 0.004434655877407677 0.3404631718400128 -0.940247394278701
  outer loop
    vertex 202.9916015152357 678.4749406273974 4.9685968764015485
    vertex 96.72844324057361 666.1374249302909 4.354563720714219e-13
    vertex 82.71911754346941 680.0415332049542 4.9685968764018185
  endloop
endfacet
facet normal 1.8979715124548265e-16 0.8892053820944608 0.4575082386736267
  outer loop
    vertex 78.41726411228836 583.6220269876172 27.507746559846574
    vertex 219.63264017789774 590.0046533063268 15.102580499999934
    vertex 72.63264017789741 590.0046533063268 15.102580499999911
  endloop
endfacet
facet normal 1.8979715124548265e-16 0.8892053820944608 0.4575082386736267
  outer loop
    vertex 219.63264017789774 590.0046533063268 15.102580499999934
    vertex 78.41726411228836 583.6220269876172 27.507746559846574
    vertex 213.8480162435061 583.6220269876172 27.507746559846428
  endloop
endfacet
facet normal 8.295975512659469e-16 0.3039046756275996 -0.9527024446970228
  outer loop
    vertex 210.97015587500255 582.9087615809863 4.968596876402217
    vertex 93.63264017789747 567.3328433063272 0.0
    vertex 81.2951244807921 582.9087615809863 4.9685968764021045
  endloop
endfacet
facet normal 1.6915960464846418e-14 -1.0 -9.085625537311868e-33
  outer loop
    vertex 187.41568324057465 666.1374249302924 27.507746559846225
    vertex 96.72844324057361 666.1374249302909 4.354563720714219e-13
    vertex 187.41568324057465 666.1374249302924 -3.2823704178840033e-13
  endloop
endfacet
facet normal 1.6915960464846418e-14 -1.0 -9.085625537311868e-33
  outer loop
    vertex 96.72844324057361 666.1374249302909 4.354563720714219e-13
    vertex 187.41568324057465 666.1374249302924 27.507746559846225
    vertex 96.72844324057361 666.1374249302909 27.507746559846947
  endloop
endfacet
facet normal 0.6025384898620578 0.7938359320219491 0.08229144102271235
  outer loop
    vertex 205.02339735775143 641.8551608906936 27.50774655984632
    vertex 204.31013195112112 644.7330212591959 4.968596876402072
    vertex 188.73421367646262 657.070536956302 -1.3238173619822522e-13
  endloop
endfacet
facet normal -0.6826092249110836 0.730783583604811 -3.1537443196108225e-17
  outer loop
    vertex 81.7577899951714 641.8551608906926 27.507746559847163
    vertex 98.04697367646283 657.0705369563016 27.50774655984701
    vertex 98.04697367646283 657.0705369563016 6.313116776615778e-13
  endloop
endfacet
facet normal 0.6025384898619444 -0.7938359320220287 0.08229144102277489
  outer loop
    vertex 203.70486692186535 681.3528009959006 27.507746559845852
    vertex 187.41568324057465 666.1374249302924 -3.2823704178840033e-13
    vertex 202.9916015152357 678.4749406273974 4.9685968764015485
  endloop
endfacet
facet normal -0.6483407493248703 -0.7610521650886675 -0.021304337087018205
  outer loop
    vertex 80.43925955928316 681.3528009959006 27.50774655984712
    vertex 74.05663324057413 687.1374249302914 15.10258050000036
    vertex 82.71911754346941 680.0415332049542 4.9685968764018185
  endloop
endfacet
facet normal 0.6826092249111296 0.7307835836047679 -6.307488639223231e-17
  outer loop
    vertex 188.73421367646262 657.070536956302 27.507746559846435
    vertex 205.02339735775143 641.8551608906936 27.50774655984632
    vertex 188.73421367646262 657.070536956302 -1.3238173619822522e-13
  endloop
endfacet
facet normal 0.7346612765258973 -0.6755025223097066 0.06300119940575331
  outer loop
    vertex 210.0874932405762 687.1374249302913 15.102580499999204
    vertex 203.70486692186535 681.3528009959006 27.507746559845852
    vertex 202.9916015152357 678.4749406273974 4.9685968764015485
  endloop
endfacet
facet normal -0.7346612765260279 0.6755025223095641 0.06300119940575769
  outer loop
    vertex 82.47105540180085 644.7330212591966 4.968596876402304
    vertex 75.3751636764629 636.070536956302 15.10258050000099
    vertex 81.7577899951714 641.8551608906926 27.507746559847163
  endloop
endfacet
facet normal -0.6025384898619169 0.793835932022046 0.08229144102280682
  outer loop
    vertex 81.7577899951714 641.8551608906926 27.507746559847163
    vertex 98.04697367646283 657.0705369563016 6.313116776615778e-13
    vertex 82.47105540180085 644.7330212591966 4.968596876402304
  endloop
endfacet
facet normal 0.6826092249110809 -0.7307835836048135 -3.1537443196110826e-17
  outer loop
    vertex 187.41568324057465 666.1374249302924 27.507746559846225
    vertex 187.41568324057465 666.1374249302924 -3.2823704178840033e-13
    vertex 203.70486692186535 681.3528009959006 27.507746559845852
  endloop
endfacet
facet normal 0.7346612765258701 0.6755025223097403 0.06300119940571028
  outer loop
    vertex 204.31013195112112 644.7330212591959 4.968596876402072
    vertex 205.02339735775143 641.8551608906936 27.50774655984632
    vertex 211.40602367646238 636.0705369563025 15.102580499999863
  endloop
endfacet
facet normal -4.59301402249492e-15 1.0 -3.086512302299608e-15
  outer loop
    vertex 98.04697367646283 657.0705369563016 6.313116776615778e-13
    vertex 188.73421367646262 657.070536956302 27.507746559846435
    vertex 188.73421367646262 657.070536956302 -1.3238173619822522e-13
  endloop
endfacet
facet normal -4.59301402249492e-15 1.0 -3.086512302299608e-15
  outer loop
    vertex 188.73421367646262 657.070536956302 27.507746559846435
    vertex 98.04697367646283 657.0705369563016 6.313116776615778e-13
    vertex 98.04697367646283 657.0705369563016 27.50774655984701
  endloop
endfacet
facet normal -4.59301402249492e-15 1.0 -3.086512302299608e-15
  outer loop
    vertex 188.73421367646262 657.070536956302 27.507746559846435
    vertex 98.04697367646283 657.0705369563016 27.50774655984701
    vertex 143.39059367646246 657.0705369563018 27.50774655984686
  endloop
endfacet
facet normal -4.59301402249492e-15 1.0 -3.086512302299608e-15
  outer loop
    vertex 143.39059367646246 657.0705369563018 27.50774655984686
    vertex 98.04697367646283 657.0705369563016 27.50774655984701
    vertex 128.39059367646283 657.070536956302 27.507746559846936
  endloop
endfacet
endsolid Sentry3Dmodels
