solid Gun_Platform
facet normal 2.2097130242147492e-18 8.474378901409075e-19 -1.0
  outer loop
    vertex 3.8022307292168263 93.16058059688707 0.0
    vertex 0.953386842989908 57.03807886424923 0.0
    vertex 0.0 75.28685843699724 0.0
  endloop
endfacet
facet normal 2.2097130242147492e-18 8.474378901409075e-19 -1.0
  outer loop
    vertex 0.953386842989908 57.03807886424923 0.0
    vertex 3.8022307292168263 93.16058059688707 0.0
    vertex 6.597419520383105 39.6578660489915 0.0
  endloop
endfacet
facet normal 2.2097130242147492e-18 8.474378901409075e-19 -1.0
  outer loop
    vertex 6.597419520383105 39.6578660489915 0.0
    vertex 3.8022307292168263 93.16058059688707 0.0
    vertex 12.100963289927737 109.44118071644446 0.0
  endloop
endfacet
facet normal 2.2097130242147492e-18 8.474378901409075e-19 -1.0
  outer loop
    vertex 6.597419520383105 39.6578660489915 0.0
    vertex 12.100963289927737 109.44118071644446 0.0
    vertex 16.547466532420263 24.330652772424155 0.0
  endloop
endfacet
facet normal 2.2097130242147492e-18 8.474378901409075e-19 -1.0
  outer loop
    vertex 16.547466532420263 24.330652772424155 0.0
    vertex 12.100963289927737 109.44118071644446 0.0
    vertex 24.330652772424063 123.01916280248523 0.0
  endloop
endfacet
facet normal 2.2097130242147492e-18 8.474378901409075e-19 -1.0
  outer loop
    vertex 16.547466532420263 24.330652772424155 0.0
    vertex 24.330652772424063 123.01916280248523 0.0
    vertex 30.125448618461032 12.100963289927737 0.0
  endloop
endfacet
facet normal 2.2097130242147492e-18 8.474378901409075e-19 -1.0
  outer loop
    vertex 30.125448618461032 12.100963289927737 0.0
    vertex 24.330652772424063 123.01916280248523 0.0
    vertex 39.6578660489915 132.9692098145224 0.0
  endloop
endfacet
facet normal 2.2097130242147492e-18 8.474378901409075e-19 -1.0
  outer loop
    vertex 30.125448618461032 12.100963289927737 0.0
    vertex 39.6578660489915 132.9692098145224 0.0
    vertex 46.40604873801838 3.8022307292168716 0.0
  endloop
endfacet
facet normal 2.2097130242147492e-18 8.474378901409075e-19 -1.0
  outer loop
    vertex 46.40604873801838 3.8022307292168716 0.0
    vertex 39.6578660489915 132.9692098145224 0.0
    vertex 57.03807886424919 138.61324249191577 0.0
  endloop
endfacet
facet normal 2.2097130242147492e-18 8.474378901409075e-19 -1.0
  outer loop
    vertex 46.40604873801838 3.8022307292168716 0.0
    vertex 57.03807886424919 138.61324249191577 0.0
    vertex 64.279770897908 0.0 0.0
  endloop
endfacet
facet normal 2.2097130242147492e-18 8.474378901409075e-19 -1.0
  outer loop
    vertex 64.279770897908 0.0 0.0
    vertex 57.03807886424919 138.61324249191577 0.0
    vertex 66.79520027828528 70.05009622088349 0.0
  endloop
endfacet
facet normal 2.2097130242147492e-18 8.474378901409075e-19 -1.0
  outer loop
    vertex 66.79520027828528 70.05009622088349 0.0
    vertex 57.03807886424919 138.61324249191577 0.0
    vertex 75.28685843699725 139.56662933490568 0.0
  endloop
endfacet
facet normal 2.2097130242147492e-18 8.474378901409075e-19 -1.0
  outer loop
    vertex 64.279770897908 0.0 0.0
    vertex 66.79520027828528 70.05009622088349 0.0
    vertex 66.7942703195249 69.52716259129271 0.0
  endloop
endfacet
facet normal 2.2097130242147492e-18 8.474378901409075e-19 -1.0
  outer loop
    vertex 66.79520027828528 70.05009622088349 0.0
    vertex 75.28685843699725 139.56662933490568 0.0
    vertex 66.88692258070171 70.56492382797123 0.0
  endloop
endfacet
facet normal 2.2097130242147492e-18 8.474378901409075e-19 -1.0
  outer loop
    vertex 66.88692258070171 70.56492382797123 0.0
    vertex 75.28685843699725 139.56662933490568 0.0
    vertex 67.06665029102889 71.05600263622995 0.0
  endloop
endfacet
facet normal 2.2097130242147492e-18 8.474378901409075e-19 -1.0
  outer loop
    vertex 67.06665029102889 71.05600263622995 0.0
    vertex 75.28685843699725 139.56662933490568 0.0
    vertex 67.32892247373525 71.50841146456848 0.0
  endloop
endfacet
facet normal 2.2097130242147492e-18 8.474378901409075e-19 -1.0
  outer loop
    vertex 67.32892247373525 71.50841146456848 0.0
    vertex 75.28685843699725 139.56662933490568 0.0
    vertex 67.66577012126541 71.90840409966785 0.0
  endloop
endfacet
facet normal 2.2097130242147492e-18 8.474378901409075e-19 -1.0
  outer loop
    vertex 67.66577012126541 71.90840409966785 0.0
    vertex 75.28685843699725 139.56662933490568 0.0
    vertex 68.0669582883022 72.24382696771647 0.0
  endloop
endfacet
facet normal 2.2097130242147492e-18 8.474378901409075e-19 -1.0
  outer loop
    vertex 68.0669582883022 72.24382696771647 0.0
    vertex 75.28685843699725 139.56662933490568 0.0
    vertex 68.49332215388696 72.48897833191748 0.0
  endloop
endfacet
facet normal 2.2097130242147492e-18 8.474378901409075e-19 -1.0
  outer loop
    vertex 68.49332215388696 72.48897833191748 0.0
    vertex 75.28685843699725 139.56662933490568 0.0
    vertex 68.52029707540119 72.50448841460089 -4.511946372076636e-14
  endloop
endfacet
facet normal 2.2097130242147492e-18 8.474378901409075e-19 -1.0
  outer loop
    vertex 68.52029707540119 72.50448841460089 -4.511946372076636e-14
    vertex 75.28685843699725 139.56662933490568 0.0
    vertex 69.01201201291693 72.68246837415846 0.0
  endloop
endfacet
facet normal 2.2097130242147492e-18 8.474378901409075e-19 -1.0
  outer loop
    vertex 69.01201201291693 72.68246837415846 0.0
    vertex 75.28685843699725 139.56662933490568 0.0
    vertex 69.52716259129278 72.77235901538046 0.0
  endloop
endfacet
facet normal 2.2097130242147492e-18 8.474378901409075e-19 -1.0
  outer loop
    vertex 69.52716259129278 72.77235901538046 0.0
    vertex 75.28685843699725 139.56662933490568 0.0
    vertex 70.05009622088367 72.77142905662005 0.0
  endloop
endfacet
facet normal 2.2097130242147492e-18 8.474378901409075e-19 -1.0
  outer loop
    vertex 70.05009622088367 72.77142905662005 0.0
    vertex 75.28685843699725 139.56662933490568 0.0
    vertex 70.5649238279711 72.67970675420364 0.0
  endloop
endfacet
facet normal 2.2097130242147492e-18 8.474378901409075e-19 -1.0
  outer loop
    vertex 70.5649238279711 72.67970675420364 0.0
    vertex 75.28685843699725 139.56662933490568 0.0
    vertex 71.05600263622975 72.49997904387651 0.0
  endloop
endfacet
facet normal 2.2097130242147492e-18 8.474378901409075e-19 -1.0
  outer loop
    vertex 71.05600263622975 72.49997904387651 0.0
    vertex 75.28685843699725 139.56662933490568 0.0
    vertex 71.50841146456844 72.23770686117007 0.0
  endloop
endfacet
facet normal 2.2097130242147492e-18 8.474378901409075e-19 -1.0
  outer loop
    vertex 71.50841146456844 72.23770686117007 0.0
    vertex 75.28685843699725 139.56662933490568 0.0
    vertex 71.90840409966785 71.90085921363995 0.0
  endloop
endfacet
facet normal 2.2097130242147492e-18 8.474378901409075e-19 -1.0
  outer loop
    vertex 71.90840409966785 71.90085921363995 0.0
    vertex 75.28685843699725 139.56662933490568 0.0
    vertex 72.24382696771642 71.49967104660325 0.0
  endloop
endfacet
facet normal 2.2097130242147492e-18 8.474378901409075e-19 -1.0
  outer loop
    vertex 72.24382696771642 71.49967104660325 0.0
    vertex 75.28685843699725 139.56662933490568 0.0
    vertex 72.50448841460077 71.04633225950425 0.0
  endloop
endfacet
facet normal 2.2097130242147492e-18 8.474378901409075e-19 -1.0
  outer loop
    vertex 72.50448841460077 71.04633225950425 0.0
    vertex 75.28685843699725 139.56662933490568 0.0
    vertex 72.68246837415839 70.5546173219885 0.0
  endloop
endfacet
facet normal 2.2097130242147492e-18 8.474378901409075e-19 -1.0
  outer loop
    vertex 72.68246837415839 70.5546173219885 0.0
    vertex 75.28685843699725 139.56662933490568 0.0
    vertex 72.72210077798837 70.32748960904898 0.0
  endloop
endfacet
facet normal 2.2097130242147492e-18 8.474378901409075e-19 -1.0
  outer loop
    vertex 72.72210077798837 70.32748960904898 0.0
    vertex 75.28685843699725 139.56662933490568 0.0
    vertex 72.77235901538035 70.03946674361272 0.0
  endloop
endfacet
facet normal 2.2097130242147492e-18 8.474378901409075e-19 -1.0
  outer loop
    vertex 64.279770897908 0.0 0.0
    vertex 66.88416096074685 69.01201201291694 0.0
    vertex 82.52855047065597 0.953386842989953 0.0
  endloop
endfacet
facet normal 2.2097130242147492e-18 8.474378901409075e-19 -1.0
  outer loop
    vertex 66.88416096074685 69.01201201291694 0.0
    vertex 64.279770897908 0.0 0.0
    vertex 66.7942703195249 69.52716259129271 0.0
  endloop
endfacet
facet normal 2.2097130242147492e-18 8.474378901409075e-19 -1.0
  outer loop
    vertex 66.88416096074685 69.01201201291694 0.0
    vertex 66.7942703195249 69.52716259129271 0.0
    vertex 66.84452855691697 69.23913972585633 0.0
  endloop
endfacet
facet normal 2.2097130242147492e-18 8.474378901409075e-19 -1.0
  outer loop
    vertex 82.52855047065597 0.953386842989953 0.0
    vertex 66.88416096074685 69.01201201291694 0.0
    vertex 67.06214092030447 68.52029707540107 0.0
  endloop
endfacet
facet normal 2.2097130242147492e-18 8.474378901409075e-19 -1.0
  outer loop
    vertex 82.52855047065597 0.953386842989953 0.0
    vertex 67.06214092030447 68.52029707540107 0.0
    vertex 67.32280236718893 68.06695828830213 0.0
  endloop
endfacet
facet normal 2.2097130242147492e-18 8.474378901409075e-19 -1.0
  outer loop
    vertex 82.52855047065597 0.953386842989953 0.0
    vertex 67.32280236718893 68.06695828830213 0.0
    vertex 67.6582252352375 67.66577012126548 0.0
  endloop
endfacet
facet normal 2.2097130242147492e-18 8.474378901409075e-19 -1.0
  outer loop
    vertex 82.52855047065597 0.953386842989953 0.0
    vertex 67.6582252352375 67.66577012126548 0.0
    vertex 68.05821787033689 67.32892247373536 0.0
  endloop
endfacet
facet normal 2.2097130242147492e-18 8.474378901409075e-19 -1.0
  outer loop
    vertex 82.52855047065597 0.953386842989953 0.0
    vertex 68.05821787033689 67.32892247373536 0.0
    vertex 68.51062669867541 67.06665029102899 -4.511946372076636e-14
  endloop
endfacet
facet normal 2.2097130242147492e-18 8.474378901409075e-19 -1.0
  outer loop
    vertex 82.52855047065597 0.953386842989953 0.0
    vertex 68.51062669867541 67.06665029102899 -4.511946372076636e-14
    vertex 69.00170550693414 66.88692258070175 -4.511946372076636e-14
  endloop
endfacet
facet normal 2.2097130242147492e-18 8.474378901409075e-19 -1.0
  outer loop
    vertex 82.52855047065597 0.953386842989953 0.0
    vertex 69.00170550693414 66.88692258070175 -4.511946372076636e-14
    vertex 69.51653311402202 66.79520027828532 0.0
  endloop
endfacet
facet normal 2.2097130242147492e-18 8.474378901409075e-19 -1.0
  outer loop
    vertex 82.52855047065597 0.953386842989953 0.0
    vertex 69.51653311402202 66.79520027828532 0.0
    vertex 70.03946674361283 66.79427031952491 0.0
  endloop
endfacet
facet normal 2.2097130242147492e-18 8.474378901409075e-19 -1.0
  outer loop
    vertex 82.52855047065597 0.953386842989953 0.0
    vertex 70.03946674361283 66.79427031952491 0.0
    vertex 70.55461732198842 66.88416096074691 0.0
  endloop
endfacet
facet normal 2.2097130242147492e-18 8.474378901409075e-19 -1.0
  outer loop
    vertex 82.52855047065597 0.953386842989953 0.0
    vertex 70.55461732198842 66.88416096074691 0.0
    vertex 71.04633225950424 67.06214092030461 -4.511946372076636e-14
  endloop
endfacet
facet normal 2.2097130242147492e-18 8.474378901409075e-19 -1.0
  outer loop
    vertex 82.52855047065597 0.953386842989953 0.0
    vertex 71.04633225950424 67.06214092030461 -4.511946372076636e-14
    vertex 71.49967104660323 67.32280236718896 0.0
  endloop
endfacet
facet normal 2.2097130242147492e-18 8.474378901409075e-19 -1.0
  outer loop
    vertex 82.52855047065597 0.953386842989953 0.0
    vertex 71.49967104660323 67.32280236718896 0.0
    vertex 71.90085921363992 67.65822523523751 0.0
  endloop
endfacet
facet normal 2.2097130242147492e-18 8.474378901409075e-19 -1.0
  outer loop
    vertex 82.52855047065597 0.953386842989953 0.0
    vertex 71.90085921363992 67.65822523523751 0.0
    vertex 72.23770686117 68.05821787033692 0.0
  endloop
endfacet
facet normal 2.2097130242147492e-18 8.474378901409075e-19 -1.0
  outer loop
    vertex 82.52855047065597 0.953386842989953 0.0
    vertex 72.23770686117 68.05821787033692 0.0
    vertex 72.49997904387635 68.51062669867552 0.0
  endloop
endfacet
facet normal 2.2097130242147492e-18 8.474378901409075e-19 -1.0
  outer loop
    vertex 82.52855047065597 0.953386842989953 0.0
    vertex 72.49997904387635 68.51062669867552 0.0
    vertex 72.67970675420355 69.00170550693424 0.0
  endloop
endfacet
facet normal 2.2097130242147492e-18 8.474378901409075e-19 -1.0
  outer loop
    vertex 82.52855047065597 0.953386842989953 0.0
    vertex 72.67970675420355 69.00170550693424 0.0
    vertex 72.77142905661997 69.51653311402198 0.0
  endloop
endfacet
facet normal 2.2097130242147492e-18 8.474378901409075e-19 -1.0
  outer loop
    vertex 82.52855047065597 0.953386842989953 0.0
    vertex 72.77142905661997 69.51653311402198 0.0
    vertex 72.77235901538035 70.03946674361272 0.0
  endloop
endfacet
facet normal 2.2097130242147492e-18 8.474378901409075e-19 -1.0
  outer loop
    vertex 82.52855047065597 0.953386842989953 0.0
    vertex 72.77235901538035 70.03946674361272 0.0
    vertex 75.28685843699725 139.56662933490568 0.0
  endloop
endfacet
facet normal 2.2097130242147492e-18 8.474378901409075e-19 -1.0
  outer loop
    vertex 82.52855047065597 0.953386842989953 0.0
    vertex 75.28685843699725 139.56662933490568 0.0
    vertex 93.16058059688687 135.76439860568877 0.0
  endloop
endfacet
facet normal 2.2097130242147492e-18 8.474378901409075e-19 -1.0
  outer loop
    vertex 82.52855047065597 0.953386842989953 0.0
    vertex 93.16058059688687 135.76439860568877 0.0
    vertex 99.90876328591365 6.59741952038315 0.0
  endloop
endfacet
facet normal 2.2097130242147492e-18 8.474378901409075e-19 -1.0
  outer loop
    vertex 99.90876328591365 6.59741952038315 0.0
    vertex 93.16058059688687 135.76439860568877 0.0
    vertex 109.44118071644404 127.46566604497785 0.0
  endloop
endfacet
facet normal 2.2097130242147492e-18 8.474378901409075e-19 -1.0
  outer loop
    vertex 99.90876328591365 6.59741952038315 0.0
    vertex 109.44118071644404 127.46566604497785 0.0
    vertex 115.23597656248081 16.547466532420263 0.0
  endloop
endfacet
facet normal 2.2097130242147492e-18 8.474378901409075e-19 -1.0
  outer loop
    vertex 115.23597656248081 16.547466532420263 0.0
    vertex 109.44118071644404 127.46566604497785 0.0
    vertex 123.01916280248489 115.23597656248126 0.0
  endloop
endfacet
facet normal 2.2097130242147492e-18 8.474378901409075e-19 -1.0
  outer loop
    vertex 115.23597656248081 16.547466532420263 0.0
    vertex 123.01916280248489 115.23597656248126 0.0
    vertex 127.46566604497751 30.12544861846112 0.0
  endloop
endfacet
facet normal 2.2097130242147492e-18 8.474378901409075e-19 -1.0
  outer loop
    vertex 127.46566604497751 30.12544861846112 0.0
    vertex 123.01916280248489 115.23597656248126 0.0
    vertex 132.96920981452178 99.90876328591399 0.0
  endloop
endfacet
facet normal 2.2097130242147492e-18 8.474378901409075e-19 -1.0
  outer loop
    vertex 127.46566604497751 30.12544861846112 0.0
    vertex 132.96920981452178 99.90876328591399 0.0
    vertex 135.76439860568797 46.40604873801838 0.0
  endloop
endfacet
facet normal 2.2097130242147492e-18 8.474378901409075e-19 -1.0
  outer loop
    vertex 135.76439860568797 46.40604873801838 0.0
    vertex 132.96920981452178 99.90876328591399 0.0
    vertex 138.61324249191497 82.52855047065609 0.0
  endloop
endfacet
facet normal 2.2097130242147492e-18 8.474378901409075e-19 -1.0
  outer loop
    vertex 135.76439860568797 46.40604873801838 0.0
    vertex 138.61324249191497 82.52855047065609 0.0
    vertex 139.56662933490497 64.279770897908 0.0
  endloop
endfacet
facet normal -0.9511070164564998 -0.30886152762559427 0.0
  outer loop
    vertex 0.953386842989908 57.03807886424923 4.999999999999991
    vertex 6.597419520383105 39.6578660489915 0.0
    vertex 6.597419520383105 39.6578660489915 4.999999999999991
  endloop
endfacet
facet normal -0.9511070164564998 -0.30886152762559427 0.0
  outer loop
    vertex 6.597419520383105 39.6578660489915 0.0
    vertex 0.953386842989908 57.03807886424923 4.999999999999991
    vertex 0.953386842989908 57.03807886424923 0.0
  endloop
endfacet
facet normal -0.9781136017817509 0.20807157905281237 0.0
  outer loop
    vertex 3.8022307292168263 93.16058059688707 4.999999999999991
    vertex 0.0 75.28685843699724 0.0
    vertex 0.0 75.28685843699724 4.999999999999991
  endloop
endfacet
facet normal -0.9781136017817509 0.20807157905281237 0.0
  outer loop
    vertex 0.0 75.28685843699724 0.0
    vertex 3.8022307292168263 93.16058059688707 4.999999999999991
    vertex 3.8022307292168263 93.16058059688707 0.0
  endloop
endfacet
facet normal -0.998638076409037 -0.052172716491076306 -5.3105721348331495e-31
  outer loop
    vertex 0.0 75.28685843699724 4.999999999999991
    vertex 0.953386842989908 57.03807886424923 0.0
    vertex 0.953386842989908 57.03807886424923 4.999999999999991
  endloop
endfacet
facet normal -0.998638076409037 -0.052172716491076306 -5.3105721348331495e-31
  outer loop
    vertex 0.953386842989908 57.03807886424923 0.0
    vertex 0.0 75.28685843699724 4.999999999999991
    vertex 0.0 75.28685843699724 0.0
  endloop
endfacet
facet normal 0.0 0.0 1.0
  outer loop
    vertex 82.52855047065597 0.953386842989953 4.999999999999991
    vertex 66.10673032933698 14.583319547453113 4.999999999999991
    vertex 64.279770897908 0.0 4.999999999999991
  endloop
endfacet
facet normal 0.0 0.0 1.0
  outer loop
    vertex 66.10673032933698 14.583319547453113 4.999999999999991
    vertex 82.52855047065597 0.953386842989953 4.999999999999991
    vertex 106.60673568933697 14.58331954745203 4.999999999999991
  endloop
endfacet
facet normal 0.0 0.0 1.0
  outer loop
    vertex 106.60673568933697 14.58331954745203 4.999999999999991
    vertex 82.52855047065597 0.953386842989953 4.999999999999991
    vertex 99.90876328591365 6.59741952038315 4.999999999999991
  endloop
endfacet
facet normal 0.0 0.0 1.0
  outer loop
    vertex 106.60673568933697 14.58331954745203 4.999999999999991
    vertex 99.90876328591365 6.59741952038315 4.999999999999991
    vertex 115.23597656248081 16.547466532420263 4.999999999999991
  endloop
endfacet
facet normal 0.0 0.0 1.0
  outer loop
    vertex 106.60673568933697 14.58331954745203 4.999999999999991
    vertex 115.23597656248081 16.547466532420263 4.999999999999991
    vertex 106.60673568933797 51.08331766745205 4.999999999999991
  endloop
endfacet
facet normal 0.0 0.0 1.0
  outer loop
    vertex 106.60673568933797 51.08331766745205 4.999999999999991
    vertex 115.23597656248081 16.547466532420263 4.999999999999991
    vertex 109.44118071644404 127.46566604497785 4.999999999999991
  endloop
endfacet
facet normal 0.0 0.0 1.0
  outer loop
    vertex 109.44118071644404 127.46566604497785 4.999999999999991
    vertex 115.23597656248081 16.547466532420263 4.999999999999991
    vertex 123.01916280248489 115.23597656248126 4.999999999999991
  endloop
endfacet
facet normal 0.0 0.0 1.0
  outer loop
    vertex 123.01916280248489 115.23597656248126 4.999999999999991
    vertex 115.23597656248081 16.547466532420263 4.999999999999991
    vertex 127.46566604497751 30.12544861846112 4.999999999999991
  endloop
endfacet
facet normal 0.0 0.0 1.0
  outer loop
    vertex 123.01916280248489 115.23597656248126 4.999999999999991
    vertex 127.46566604497751 30.12544861846112 4.999999999999991
    vertex 132.96920981452178 99.90876328591399 4.999999999999991
  endloop
endfacet
facet normal 0.0 0.0 1.0
  outer loop
    vertex 132.96920981452178 99.90876328591399 4.999999999999991
    vertex 127.46566604497751 30.12544861846112 4.999999999999991
    vertex 135.76439860568797 46.40604873801838 4.999999999999991
  endloop
endfacet
facet normal 0.0 0.0 1.0
  outer loop
    vertex 132.96920981452178 99.90876328591399 4.999999999999991
    vertex 135.76439860568797 46.40604873801838 4.999999999999991
    vertex 138.61324249191497 82.52855047065609 4.999999999999991
  endloop
endfacet
facet normal 0.0 0.0 1.0
  outer loop
    vertex 138.61324249191497 82.52855047065609 4.999999999999991
    vertex 135.76439860568797 46.40604873801838 4.999999999999991
    vertex 139.56662933490497 64.279770897908 4.999999999999991
  endloop
endfacet
facet normal 0.0 0.0 1.0
  outer loop
    vertex 66.10673032933798 51.08331766745313 4.999999999999991
    vertex 66.88416096074685 69.01201201291686 4.999999999999991
    vertex 66.7942703195249 69.52716259129271 4.999999999999991
  endloop
endfacet
facet normal 0.0 0.0 1.0
  outer loop
    vertex 66.88416096074685 69.01201201291686 4.999999999999991
    vertex 66.10673032933798 51.08331766745313 4.999999999999991
    vertex 67.06214092030447 68.52029707540112 4.999999999999991
  endloop
endfacet
facet normal 0.0 0.0 1.0
  outer loop
    vertex 67.06214092030447 68.52029707540112 4.999999999999991
    vertex 66.10673032933798 51.08331766745313 4.999999999999991
    vertex 67.32280236718893 68.06695828830213 4.999999999999991
  endloop
endfacet
facet normal 0.0 0.0 1.0
  outer loop
    vertex 67.32280236718893 68.06695828830213 4.999999999999991
    vertex 66.10673032933798 51.08331766745313 4.999999999999991
    vertex 67.6582252352375 67.6657701212654 4.999999999999991
  endloop
endfacet
facet normal 0.0 0.0 1.0
  outer loop
    vertex 67.6582252352375 67.6657701212654 4.999999999999991
    vertex 66.10673032933798 51.08331766745313 4.999999999999991
    vertex 68.0582178703368 67.32892247373532 4.999999999999991
  endloop
endfacet
facet normal 0.0 0.0 1.0
  outer loop
    vertex 68.0582178703368 67.32892247373532 4.999999999999991
    vertex 66.10673032933798 51.08331766745313 4.999999999999991
    vertex 68.51062669867541 67.06665029102896 4.999999999999991
  endloop
endfacet
facet normal 0.0 0.0 1.0
  outer loop
    vertex 68.51062669867541 67.06665029102896 4.999999999999991
    vertex 66.10673032933798 51.08331766745313 4.999999999999991
    vertex 106.60673568933797 51.08331766745205 4.999999999999991
  endloop
endfacet
facet normal 0.0 0.0 1.0
  outer loop
    vertex 66.7942703195249 69.52716259129271 4.999999999999991
    vertex 66.88416096074685 69.01201201291686 4.999999999999991
    vertex 66.84452855691697 69.23913972585635 4.999999999999991
  endloop
endfacet
facet normal 0.0 0.0 1.0
  outer loop
    vertex 68.51062669867541 67.06665029102896 4.999999999999991
    vertex 106.60673568933797 51.08331766745205 4.999999999999991
    vertex 69.00170550693414 66.88692258070175 4.999999999999991
  endloop
endfacet
facet normal 0.0 0.0 1.0
  outer loop
    vertex 69.00170550693414 66.88692258070175 4.999999999999991
    vertex 106.60673568933797 51.08331766745205 4.999999999999991
    vertex 69.51653311402185 66.79520027828532 4.999999999999991
  endloop
endfacet
facet normal 0.0 0.0 1.0
  outer loop
    vertex 69.51653311402185 66.79520027828532 4.999999999999991
    vertex 106.60673568933797 51.08331766745205 4.999999999999991
    vertex 70.03946674361265 66.79427031952491 4.999999999999991
  endloop
endfacet
facet normal 0.0 0.0 1.0
  outer loop
    vertex 70.03946674361265 66.79427031952491 4.999999999999991
    vertex 106.60673568933797 51.08331766745205 4.999999999999991
    vertex 70.55461732198842 66.8841609607469 4.999999999999991
  endloop
endfacet
facet normal 0.0 0.0 1.0
  outer loop
    vertex 70.55461732198842 66.8841609607469 4.999999999999991
    vertex 106.60673568933797 51.08331766745205 4.999999999999991
    vertex 71.04633225950414 67.06214092030456 4.999999999999991
  endloop
endfacet
facet normal 0.0 0.0 1.0
  outer loop
    vertex 71.04633225950414 67.06214092030456 4.999999999999991
    vertex 106.60673568933797 51.08331766745205 4.999999999999991
    vertex 71.07330718101838 67.07765100298795 4.999999999999991
  endloop
endfacet
facet normal 0.0 0.0 1.0
  outer loop
    vertex 71.07330718101838 67.07765100298795 4.999999999999991
    vertex 106.60673568933797 51.08331766745205 4.999999999999991
    vertex 71.49967104660314 67.32280236718896 4.999999999999991
  endloop
endfacet
facet normal 0.0 0.0 1.0
  outer loop
    vertex 71.49967104660314 67.32280236718896 4.999999999999991
    vertex 106.60673568933797 51.08331766745205 4.999999999999991
    vertex 71.90085921363992 67.65822523523757 4.999999999999991
  endloop
endfacet
facet normal 0.0 0.0 1.0
  outer loop
    vertex 71.90085921363992 67.65822523523757 4.999999999999991
    vertex 106.60673568933797 51.08331766745205 4.999999999999991
    vertex 72.23770686117 68.05821787033689 4.999999999999991
  endloop
endfacet
facet normal 0.0 0.0 1.0
  outer loop
    vertex 72.23770686117 68.05821787033689 4.999999999999991
    vertex 106.60673568933797 51.08331766745205 4.999999999999991
    vertex 72.49997904387635 68.51062669867548 4.999999999999991
  endloop
endfacet
facet normal 0.0 0.0 1.0
  outer loop
    vertex 72.49997904387635 68.51062669867548 4.999999999999991
    vertex 106.60673568933797 51.08331766745205 4.999999999999991
    vertex 72.67970675420355 69.0017055069342 4.999999999999991
  endloop
endfacet
facet normal 0.0 0.0 1.0
  outer loop
    vertex 72.67970675420355 69.0017055069342 4.999999999999991
    vertex 106.60673568933797 51.08331766745205 4.999999999999991
    vertex 72.77142905661997 69.51653311402194 4.999999999999991
  endloop
endfacet
facet normal 0.0 0.0 1.0
  outer loop
    vertex 72.77142905661997 69.51653311402194 4.999999999999991
    vertex 106.60673568933797 51.08331766745205 4.999999999999991
    vertex 72.77235901538035 70.03946674361268 4.999999999999991
  endloop
endfacet
facet normal 0.0 0.0 1.0
  outer loop
    vertex 72.77235901538035 70.03946674361268 4.999999999999991
    vertex 106.60673568933797 51.08331766745205 4.999999999999991
    vertex 75.28685843699725 139.56662933490568 4.999999999999991
  endloop
endfacet
facet normal 0.0 0.0 1.0
  outer loop
    vertex 75.28685843699725 139.56662933490568 4.999999999999991
    vertex 106.60673568933797 51.08331766745205 4.999999999999991
    vertex 93.16058059688687 135.76439860568877 4.999999999999991
  endloop
endfacet
facet normal 0.0 0.0 1.0
  outer loop
    vertex 93.16058059688687 135.76439860568877 4.999999999999991
    vertex 106.60673568933797 51.08331766745205 4.999999999999991
    vertex 109.44118071644404 127.46566604497785 4.999999999999991
  endloop
endfacet
facet normal 0.0 0.0 1.0
  outer loop
    vertex 0.953386842989908 57.03807886424923 4.999999999999991
    vertex 3.8022307292168263 93.16058059688707 4.999999999999991
    vertex 0.0 75.28685843699724 4.999999999999991
  endloop
endfacet
facet normal 0.0 0.0 1.0
  outer loop
    vertex 3.8022307292168263 93.16058059688707 4.999999999999991
    vertex 0.953386842989908 57.03807886424923 4.999999999999991
    vertex 6.597419520383105 39.6578660489915 4.999999999999991
  endloop
endfacet
facet normal 0.0 0.0 1.0
  outer loop
    vertex 3.8022307292168263 93.16058059688707 4.999999999999991
    vertex 6.597419520383105 39.6578660489915 4.999999999999991
    vertex 12.100963289927737 109.44118071644446 4.999999999999991
  endloop
endfacet
facet normal 0.0 0.0 1.0
  outer loop
    vertex 12.100963289927737 109.44118071644446 4.999999999999991
    vertex 6.597419520383105 39.6578660489915 4.999999999999991
    vertex 16.547466532420263 24.330652772424155 4.999999999999991
  endloop
endfacet
facet normal 0.0 0.0 1.0
  outer loop
    vertex 12.100963289927737 109.44118071644446 4.999999999999991
    vertex 16.547466532420263 24.330652772424155 4.999999999999991
    vertex 24.330652772424063 123.01916280248523 4.999999999999991
  endloop
endfacet
facet normal 0.0 0.0 1.0
  outer loop
    vertex 24.330652772424063 123.01916280248523 4.999999999999991
    vertex 16.547466532420263 24.330652772424155 4.999999999999991
    vertex 30.125448618461032 12.100963289927737 4.999999999999991
  endloop
endfacet
facet normal 0.0 0.0 1.0
  outer loop
    vertex 24.330652772424063 123.01916280248523 4.999999999999991
    vertex 30.125448618461032 12.100963289927737 4.999999999999991
    vertex 39.6578660489915 132.9692098145224 4.999999999999991
  endloop
endfacet
facet normal 0.0 0.0 1.0
  outer loop
    vertex 39.6578660489915 132.9692098145224 4.999999999999991
    vertex 30.125448618461032 12.100963289927737 4.999999999999991
    vertex 46.40604873801838 3.8022307292168716 4.999999999999991
  endloop
endfacet
facet normal 0.0 0.0 1.0
  outer loop
    vertex 39.6578660489915 132.9692098145224 4.999999999999991
    vertex 46.40604873801838 3.8022307292168716 4.999999999999991
    vertex 57.03807886424919 138.61324249191577 4.999999999999991
  endloop
endfacet
facet normal 0.0 0.0 1.0
  outer loop
    vertex 57.03807886424919 138.61324249191577 4.999999999999991
    vertex 46.40604873801838 3.8022307292168716 4.999999999999991
    vertex 64.279770897908 0.0 4.999999999999991
  endloop
endfacet
facet normal 0.0 0.0 1.0
  outer loop
    vertex 57.03807886424919 138.61324249191577 4.999999999999991
    vertex 64.279770897908 0.0 4.999999999999991
    vertex 66.10673032933798 51.08331766745313 4.999999999999991
  endloop
endfacet
facet normal 0.0 0.0 1.0
  outer loop
    vertex 57.03807886424919 138.61324249191577 4.999999999999991
    vertex 66.10673032933798 51.08331766745313 4.999999999999991
    vertex 66.79520027828528 70.05009622088345 4.999999999999991
  endloop
endfacet
facet normal 0.0 0.0 1.0
  outer loop
    vertex 57.03807886424919 138.61324249191577 4.999999999999991
    vertex 66.79520027828528 70.05009622088345 4.999999999999991
    vertex 75.28685843699725 139.56662933490568 4.999999999999991
  endloop
endfacet
facet normal 0.0 0.0 1.0
  outer loop
    vertex 66.10673032933798 51.08331766745313 4.999999999999991
    vertex 64.279770897908 0.0 4.999999999999991
    vertex 66.10673032933698 14.583319547453113 4.999999999999991
  endloop
endfacet
facet normal 0.0 0.0 1.0
  outer loop
    vertex 66.79520027828528 70.05009622088345 4.999999999999991
    vertex 66.10673032933798 51.08331766745313 4.999999999999991
    vertex 66.7942703195249 69.52716259129271 4.999999999999991
  endloop
endfacet
facet normal 0.0 0.0 1.0
  outer loop
    vertex 75.28685843699725 139.56662933490568 4.999999999999991
    vertex 66.79520027828528 70.05009622088345 4.999999999999991
    vertex 66.88692258070171 70.56492382797119 4.999999999999991
  endloop
endfacet
facet normal 0.0 0.0 1.0
  outer loop
    vertex 75.28685843699725 139.56662933490568 4.999999999999991
    vertex 66.88692258070171 70.56492382797119 4.999999999999991
    vertex 67.06665029102889 71.0560026362299 4.999999999999991
  endloop
endfacet
facet normal 0.0 0.0 1.0
  outer loop
    vertex 75.28685843699725 139.56662933490568 4.999999999999991
    vertex 67.06665029102889 71.0560026362299 4.999999999999991
    vertex 67.32892247373525 71.50841146456848 4.999999999999991
  endloop
endfacet
facet normal 0.0 0.0 1.0
  outer loop
    vertex 75.28685843699725 139.56662933490568 4.999999999999991
    vertex 67.32892247373525 71.50841146456848 4.999999999999991
    vertex 67.66577012126533 71.90840409966782 4.999999999999991
  endloop
endfacet
facet normal 0.0 0.0 1.0
  outer loop
    vertex 75.28685843699725 139.56662933490568 4.999999999999991
    vertex 67.66577012126533 71.90840409966782 4.999999999999991
    vertex 68.0669582883021 72.24382696771643 4.999999999999991
  endloop
endfacet
facet normal 0.0 0.0 1.0
  outer loop
    vertex 75.28685843699725 139.56662933490568 4.999999999999991
    vertex 68.0669582883021 72.24382696771643 4.999999999999991
    vertex 68.49332215388687 72.48897833191744 4.999999999999991
  endloop
endfacet
facet normal 0.0 0.0 1.0
  outer loop
    vertex 75.28685843699725 139.56662933490568 4.999999999999991
    vertex 68.49332215388687 72.48897833191744 4.999999999999991
    vertex 68.5202970754011 72.50448841460081 4.999999999999991
  endloop
endfacet
facet normal 0.0 0.0 1.0
  outer loop
    vertex 75.28685843699725 139.56662933490568 4.999999999999991
    vertex 68.5202970754011 72.50448841460081 4.999999999999991
    vertex 69.01201201291683 72.68246837415849 4.999999999999991
  endloop
endfacet
facet normal 0.0 0.0 1.0
  outer loop
    vertex 75.28685843699725 139.56662933490568 4.999999999999991
    vertex 69.01201201291683 72.68246837415849 4.999999999999991
    vertex 69.5271625912926 72.77235901538046 4.999999999999991
  endloop
endfacet
facet normal 0.0 0.0 1.0
  outer loop
    vertex 75.28685843699725 139.56662933490568 4.999999999999991
    vertex 69.5271625912926 72.77235901538046 4.999999999999991
    vertex 70.0500962208834 72.77142905662005 4.999999999999991
  endloop
endfacet
facet normal 0.0 0.0 1.0
  outer loop
    vertex 75.28685843699725 139.56662933490568 4.999999999999991
    vertex 70.0500962208834 72.77142905662005 4.999999999999991
    vertex 70.5649238279711 72.67970675420364 4.999999999999991
  endloop
endfacet
facet normal 0.0 0.0 1.0
  outer loop
    vertex 75.28685843699725 139.56662933490568 4.999999999999991
    vertex 70.5649238279711 72.67970675420364 4.999999999999991
    vertex 71.05600263622983 72.49997904387642 4.999999999999991
  endloop
endfacet
facet normal 0.0 0.0 1.0
  outer loop
    vertex 75.28685843699725 139.56662933490568 4.999999999999991
    vertex 71.05600263622983 72.49997904387642 4.999999999999991
    vertex 71.50841146456844 72.23770686117007 4.999999999999991
  endloop
endfacet
facet normal 0.0 0.0 1.0
  outer loop
    vertex 75.28685843699725 139.56662933490568 4.999999999999991
    vertex 71.50841146456844 72.23770686117007 4.999999999999991
    vertex 71.90840409966775 71.90085921363999 4.999999999999991
  endloop
endfacet
facet normal 0.0 0.0 1.0
  outer loop
    vertex 75.28685843699725 139.56662933490568 4.999999999999991
    vertex 71.90840409966775 71.90085921363999 4.999999999999991
    vertex 72.24382696771632 71.49967104660325 4.999999999999991
  endloop
endfacet
facet normal 0.0 0.0 1.0
  outer loop
    vertex 75.28685843699725 139.56662933490568 4.999999999999991
    vertex 72.24382696771632 71.49967104660325 4.999999999999991
    vertex 72.50448841460077 71.04633225950425 4.999999999999991
  endloop
endfacet
facet normal 0.0 0.0 1.0
  outer loop
    vertex 75.28685843699725 139.56662933490568 4.999999999999991
    vertex 72.50448841460077 71.04633225950425 4.999999999999991
    vertex 72.68246837415839 70.5546173219885 4.999999999999991
  endloop
endfacet
facet normal 0.0 0.0 1.0
  outer loop
    vertex 75.28685843699725 139.56662933490568 4.999999999999991
    vertex 72.68246837415839 70.5546173219885 4.999999999999991
    vertex 72.72210077798837 70.32748960904902 4.999999999999991
  endloop
endfacet
facet normal 0.0 0.0 1.0
  outer loop
    vertex 75.28685843699725 139.56662933490568 4.999999999999991
    vertex 72.72210077798837 70.32748960904902 4.999999999999991
    vertex 72.77235901538035 70.03946674361268 4.999999999999991
  endloop
endfacet
facet normal 0.9781136017817483 -0.2080715790528243 0.0
  outer loop
    vertex 139.56662933490497 64.279770897908 0.0
    vertex 135.76439860568797 46.40604873801838 4.999999999999991
    vertex 135.76439860568797 46.40604873801838 0.0
  endloop
endfacet
facet normal 0.9781136017817483 -0.2080715790528243 0.0
  outer loop
    vertex 135.76439860568797 46.40604873801838 4.999999999999991
    vertex 139.56662933490497 64.279770897908 0.0
    vertex 139.56662933490497 64.279770897908 4.999999999999991
  endloop
endfacet
facet normal 0.838759585111117 0.5445019360702285 5.542392659488687e-30
  outer loop
    vertex 123.01916280248489 115.23597656248126 0.0
    vertex 132.96920981452178 99.90876328591399 4.999999999999991
    vertex 132.96920981452178 99.90876328591399 0.0
  endloop
endfacet
facet normal 0.838759585111117 0.5445019360702285 5.542392659488687e-30
  outer loop
    vertex 132.96920981452178 99.90876328591399 4.999999999999991
    vertex 123.01916280248489 115.23597656248126 0.0
    vertex 123.01916280248489 115.23597656248126 4.999999999999991
  endloop
endfacet
facet normal -0.7430354374036844 0.6692520741561548 0.0
  outer loop
    vertex 24.330652772424063 123.01916280248523 4.999999999999991
    vertex 12.100963289927737 109.44118071644446 0.0
    vertex 12.100963289927737 109.44118071644446 4.999999999999991
  endloop
endfacet
facet normal -0.7430354374036844 0.6692520741561548 0.0
  outer loop
    vertex 12.100963289927737 109.44118071644446 0.0
    vertex 24.330652772424063 123.01916280248523 4.999999999999991
    vertex 24.330652772424063 123.01916280248523 0.0
  endloop
endfacet
facet normal -0.6692520741561576 -0.743035437403682 0.0
  outer loop
    vertex 30.125448618461032 12.100963289927737 4.999999999999991
    vertex 16.547466532420263 24.330652772424155 0.0
    vertex 30.125448618461032 12.100963289927737 0.0
  endloop
endfacet
facet normal -0.6692520741561576 -0.743035437403682 0.0
  outer loop
    vertex 16.547466532420263 24.330652772424155 0.0
    vertex 30.125448618461032 12.100963289927737 4.999999999999991
    vertex 16.547466532420263 24.330652772424155 4.999999999999991
  endloop
endfacet
facet normal -0.308861527625604 0.9511070164564965 0.0
  outer loop
    vertex 39.6578660489915 132.9692098145224 4.999999999999991
    vertex 57.03807886424919 138.61324249191577 0.0
    vertex 39.6578660489915 132.9692098145224 0.0
  endloop
endfacet
facet normal -0.308861527625604 0.9511070164564965 0.0
  outer loop
    vertex 57.03807886424919 138.61324249191577 0.0
    vertex 39.6578660489915 132.9692098145224 4.999999999999991
    vertex 57.03807886424919 138.61324249191577 4.999999999999991
  endloop
endfacet
facet normal 0.9986380764090368 0.05217271649108099 5.310572134833626e-31
  outer loop
    vertex 138.61324249191497 82.52855047065609 0.0
    vertex 139.56662933490497 64.279770897908 4.999999999999991
    vertex 139.56662933490497 64.279770897908 0.0
  endloop
endfacet
facet normal 0.9986380764090368 0.05217271649108099 5.310572134833626e-31
  outer loop
    vertex 139.56662933490497 64.279770897908 4.999999999999991
    vertex 138.61324249191497 82.52855047065609 0.0
    vertex 138.61324249191497 82.52855047065609 4.999999999999991
  endloop
endfacet
facet normal -0.86691320771893 -0.49845911595884695 -7.822454331080542e-15
  outer loop
    vertex 72.24382696771632 71.49967104660325 4.999999999999991
    vertex 72.50448841460077 71.04633225950425 0.0
    vertex 72.50448841460077 71.04633225950425 4.999999999999991
  endloop
endfacet
facet normal -0.86691320771893 -0.49845911595884695 -7.822454331080542e-15
  outer loop
    vertex 72.50448841460077 71.04633225950425 0.0
    vertex 72.24382696771632 71.49967104660325 4.999999999999991
    vertex 72.24382696771642 71.49967104660325 0.0
  endloop
endfacet
facet normal -0.20807157905281723 -0.9781136017817498 0.0
  outer loop
    vertex 64.279770897908 0.0 4.999999999999991
    vertex 46.40604873801838 3.8022307292168716 0.0
    vertex 64.279770897908 0.0 0.0
  endloop
endfacet
facet normal -0.20807157905281723 -0.9781136017817498 0.0
  outer loop
    vertex 46.40604873801838 3.8022307292168716 0.0
    vertex 64.279770897908 0.0 4.999999999999991
    vertex 46.40604873801838 3.8022307292168716 4.999999999999991
  endloop
endfacet
facet normal -0.838759585111112 -0.544501936070236 0.0
  outer loop
    vertex 6.597419520383105 39.6578660489915 4.999999999999991
    vertex 16.547466532420263 24.330652772424155 0.0
    vertex 16.547466532420263 24.330652772424155 4.999999999999991
  endloop
endfacet
facet normal -0.838759585111112 -0.544501936070236 0.0
  outer loop
    vertex 16.547466532420263 24.330652772424155 0.0
    vertex 6.597419520383105 39.6578660489915 4.999999999999991
    vertex 6.597419520383105 39.6578660489915 0.0
  endloop
endfacet
facet normal -0.3436907017658179 -0.939082904497638 -5.373741197888477e-15
  outer loop
    vertex 71.05600263622983 72.49997904387642 4.999999999999991
    vertex 70.5649238279711 72.67970675420364 0.0
    vertex 71.05600263622975 72.49997904387651 0.0
  endloop
endfacet
facet normal -0.3436907017658179 -0.939082904497638 -5.373741197888477e-15
  outer loop
    vertex 70.5649238279711 72.67970675420364 0.0
    vertex 71.05600263622983 72.49997904387642 4.999999999999991
    vertex 70.5649238279711 72.67970675420364 4.999999999999991
  endloop
endfacet
facet normal -0.17539923269316138 -0.9844973891131709 -4.748552529047279e-15
  outer loop
    vertex 70.5649238279711 72.67970675420364 4.999999999999991
    vertex 70.05009622088367 72.77142905662005 0.0
    vertex 70.5649238279711 72.67970675420364 0.0
  endloop
endfacet
facet normal -0.17539923269316138 -0.9844973891131709 -4.748552529047279e-15
  outer loop
    vertex 70.05009622088367 72.77142905662005 0.0
    vertex 70.5649238279711 72.67970675420364 4.999999999999991
    vertex 70.0500962208834 72.77142905662005 4.999999999999991
  endloop
endfacet
facet normal 0.45413614033880495 0.8909323016021887 0.0
  outer loop
    vertex 93.16058059688687 135.76439860568877 4.999999999999991
    vertex 109.44118071644404 127.46566604497785 0.0
    vertex 93.16058059688687 135.76439860568877 0.0
  endloop
endfacet
facet normal 0.45413614033880495 0.8909323016021887 0.0
  outer loop
    vertex 109.44118071644404 127.46566604497785 0.0
    vertex 93.16058059688687 135.76439860568877 4.999999999999991
    vertex 109.44118071644404 127.46566604497785 4.999999999999991
  endloop
endfacet
facet normal 0.20807157905281973 0.9781136017817493 -3.725893481013409e-17
  outer loop
    vertex 75.28685843699725 139.56662933490568 4.999999999999991
    vertex 93.16058059688687 135.76439860568877 0.0
    vertex 75.28685843699725 139.56662933490568 0.0
  endloop
endfacet
facet normal 0.20807157905281973 0.9781136017817493 -3.725893481013409e-17
  outer loop
    vertex 93.16058059688687 135.76439860568877 0.0
    vertex 75.28685843699725 139.56662933490568 4.999999999999991
    vertex 93.16058059688687 135.76439860568877 4.999999999999991
  endloop
endfacet
facet normal 0.5445019360702378 -0.8387595851111109 0.0
  outer loop
    vertex 115.23597656248081 16.547466532420263 4.999999999999991
    vertex 99.90876328591365 6.59741952038315 0.0
    vertex 115.23597656248081 16.547466532420263 0.0
  endloop
endfacet
facet normal 0.5445019360702378 -0.8387595851111109 0.0
  outer loop
    vertex 99.90876328591365 6.59741952038315 0.0
    vertex 115.23597656248081 16.547466532420263 4.999999999999991
    vertex 99.90876328591365 6.59741952038315 4.999999999999991
  endloop
endfacet
facet normal -0.052172716491076125 0.998638076409037 0.0
  outer loop
    vertex 57.03807886424919 138.61324249191577 4.999999999999991
    vertex 75.28685843699725 139.56662933490568 0.0
    vertex 57.03807886424919 138.61324249191577 0.0
  endloop
endfacet
facet normal -0.052172716491076125 0.998638076409037 0.0
  outer loop
    vertex 75.28685843699725 139.56662933490568 0.0
    vertex 57.03807886424919 138.61324249191577 4.999999999999991
    vertex 75.28685843699725 139.56662933490568 4.999999999999991
  endloop
endfacet
facet normal -0.8909323016021905 0.4541361403388014 -8.132119208609166e-17
  outer loop
    vertex 12.100963289927737 109.44118071644446 4.999999999999991
    vertex 3.8022307292168263 93.16058059688707 0.0
    vertex 3.8022307292168263 93.16058059688707 4.999999999999991
  endloop
endfacet
facet normal -0.8909323016021905 0.4541361403388014 -8.132119208609166e-17
  outer loop
    vertex 3.8022307292168263 93.16058059688707 0.0
    vertex 12.100963289927737 109.44118071644446 4.999999999999991
    vertex 12.100963289927737 109.44118071644446 0.0
  endloop
endfacet
facet normal 0.9511070164565014 0.3088615276255892 0.0
  outer loop
    vertex 132.96920981452178 99.90876328591399 0.0
    vertex 138.61324249191497 82.52855047065609 4.999999999999991
    vertex 138.61324249191497 82.52855047065609 0.0
  endloop
endfacet
facet normal 0.9511070164565014 0.3088615276255892 0.0
  outer loop
    vertex 138.61324249191497 82.52855047065609 4.999999999999991
    vertex 132.96920981452178 99.90876328591399 0.0
    vertex 132.96920981452178 99.90876328591399 4.999999999999991
  endloop
endfacet
facet normal -0.5445019360702338 0.8387595851111134 0.0
  outer loop
    vertex 24.330652772424063 123.01916280248523 4.999999999999991
    vertex 39.6578660489915 132.9692098145224 0.0
    vertex 24.330652772424063 123.01916280248523 0.0
  endloop
endfacet
facet normal -0.5445019360702338 0.8387595851111134 0.0
  outer loop
    vertex 39.6578660489915 132.9692098145224 0.0
    vertex 24.330652772424063 123.01916280248523 4.999999999999991
    vertex 39.6578660489915 132.9692098145224 4.999999999999991
  endloop
endfacet
facet normal 0.6692520741561605 0.7430354374036793 0.0
  outer loop
    vertex 109.44118071644404 127.46566604497785 4.999999999999991
    vertex 123.01916280248489 115.23597656248126 0.0
    vertex 109.44118071644404 127.46566604497785 0.0
  endloop
endfacet
facet normal 0.6692520741561605 0.7430354374036793 0.0
  outer loop
    vertex 123.01916280248489 115.23597656248126 0.0
    vertex 109.44118071644404 127.46566604497785 4.999999999999991
    vertex 123.01916280248489 115.23597656248126 4.999999999999991
  endloop
endfacet
facet normal -0.45413614033880007 -0.8909323016021913 0.0
  outer loop
    vertex 46.40604873801838 3.8022307292168716 4.999999999999991
    vertex 30.125448618461032 12.100963289927737 0.0
    vertex 46.40604873801838 3.8022307292168716 0.0
  endloop
endfacet
facet normal -0.45413614033880007 -0.8909323016021913 0.0
  outer loop
    vertex 30.125448618461032 12.100963289927737 0.0
    vertex 46.40604873801838 3.8022307292168716 4.999999999999991
    vertex 30.125448618461032 12.100963289927737 4.999999999999991
  endloop
endfacet
facet normal 0.05217271649107888 -0.998638076409037 2.6552860674167057e-31
  outer loop
    vertex 82.52855047065597 0.953386842989953 4.999999999999991
    vertex 64.279770897908 0.0 0.0
    vertex 82.52855047065597 0.953386842989953 0.0
  endloop
endfacet
facet normal 0.05217271649107888 -0.998638076409037 2.6552860674167057e-31
  outer loop
    vertex 64.279770897908 0.0 0.0
    vertex 82.52855047065597 0.953386842989953 4.999999999999991
    vertex 64.279770897908 0.0 4.999999999999991
  endloop
endfacet
facet normal 0.7430354374036768 -0.6692520741561633 0.0
  outer loop
    vertex 127.46566604497751 30.12544861846112 0.0
    vertex 115.23597656248081 16.547466532420263 4.999999999999991
    vertex 115.23597656248081 16.547466532420263 0.0
  endloop
endfacet
facet normal 0.7430354374036768 -0.6692520741561633 0.0
  outer loop
    vertex 115.23597656248081 16.547466532420263 4.999999999999991
    vertex 127.46566604497751 30.12544861846112 0.0
    vertex 127.46566604497751 30.12544861846112 4.999999999999991
  endloop
endfacet
facet normal 0.308861527625595 -0.9511070164564994 0.0
  outer loop
    vertex 99.90876328591365 6.59741952038315 4.999999999999991
    vertex 82.52855047065597 0.953386842989953 0.0
    vertex 99.90876328591365 6.59741952038315 0.0
  endloop
endfacet
facet normal 0.308861527625595 -0.9511070164564994 0.0
  outer loop
    vertex 82.52855047065597 0.953386842989953 0.0
    vertex 99.90876328591365 6.59741952038315 4.999999999999991
    vertex 82.52855047065597 0.953386842989953 4.999999999999991
  endloop
endfacet
facet normal 0.8909323016022002 -0.4541361403387824 -1.8137296936496175e-29
  outer loop
    vertex 135.76439860568797 46.40604873801838 0.0
    vertex 127.46566604497751 30.12544861846112 4.999999999999991
    vertex 127.46566604497751 30.12544861846112 0.0
  endloop
endfacet
facet normal 0.8909323016022002 -0.4541361403387824 -1.8137296936496175e-29
  outer loop
    vertex 127.46566604497751 30.12544861846112 4.999999999999991
    vertex 135.76439860568797 46.40604873801838 0.0
    vertex 135.76439860568797 46.40604873801838 4.999999999999991
  endloop
endfacet
facet normal 0.0 0.0 1.0
  outer loop
    vertex 106.60673568933697 14.58331954745203 2.9999999999999947
    vertex 66.10673032933798 51.08331766745313 2.9999999999999947
    vertex 66.10673032933698 14.583319547453113 2.9999999999999947
  endloop
endfacet
facet normal 0.0 0.0 1.0
  outer loop
    vertex 66.10673032933798 51.08331766745313 2.9999999999999947
    vertex 106.60673568933697 14.58331954745203 2.9999999999999947
    vertex 106.60673568933797 51.08331766745205 2.9999999999999947
  endloop
endfacet
facet normal -0.17189657347513304 0.9851150024375368 1.0391197618669317e-15
  outer loop
    vertex 70.03946674361265 66.79427031952491 4.999999999999991
    vertex 70.55461732198842 66.88416096074691 0.0
    vertex 70.03946674361283 66.79427031952491 0.0
  endloop
endfacet
facet normal -0.17189657347513304 0.9851150024375368 1.0391197618669317e-15
  outer loop
    vertex 70.55461732198842 66.88416096074691 0.0
    vertex 70.03946674361265 66.79427031952491 4.999999999999991
    vertex 70.55461732198842 66.8841609607469 4.999999999999991
  endloop
endfacet
facet normal -1.0 2.719529460230173e-14 0.0
  outer loop
    vertex 106.60673568933797 51.08331766745205 4.999999999999991
    vertex 106.60673568933697 14.58331954745203 2.9999999999999947
    vertex 106.60673568933697 14.58331954745203 4.999999999999991
  endloop
endfacet
facet normal -1.0 2.719529460230173e-14 0.0
  outer loop
    vertex 106.60673568933697 14.58331954745203 2.9999999999999947
    vertex 106.60673568933797 51.08331766745205 4.999999999999991
    vertex 106.60673568933797 51.08331766745205 2.9999999999999947
  endloop
endfacet
facet normal 0.5015393027814804 0.8651348610277281 1.0382519968705004e-14
  outer loop
    vertex 68.05821787033689 67.32892247373536 0.0
    vertex 68.51062669867541 67.06665029102896 4.999999999999991
    vertex 68.51062669867541 67.06665029102899 -4.511946372076636e-14
  endloop
endfacet
facet normal 0.5015393027814804 0.8651348610277281 1.0382519968705004e-14
  outer loop
    vertex 68.51062669867541 67.06665029102896 4.999999999999991
    vertex 68.05821787033689 67.32892247373536 0.0
    vertex 68.0582178703368 67.32892247373532 4.999999999999991
  endloop
endfacet
facet normal 0.17189657347508766 -0.9851150024375448 7.340143422581618e-15
  outer loop
    vertex 69.5271625912926 72.77235901538046 4.999999999999991
    vertex 69.01201201291693 72.68246837415846 0.0
    vertex 69.52716259129278 72.77235901538046 0.0
  endloop
endfacet
facet normal 0.17189657347508766 -0.9851150024375448 7.340143422581618e-15
  outer loop
    vertex 69.01201201291693 72.68246837415846 0.0
    vertex 69.5271625912926 72.77235901538046 4.999999999999991
    vertex 69.01201201291683 72.68246837415849 4.999999999999991
  endloop
endfacet
facet normal -0.9844973891131816 0.1753992326931018 1.584159524985305e-15
  outer loop
    vertex 72.77142905661997 69.51653311402194 4.999999999999991
    vertex 72.67970675420355 69.00170550693424 0.0
    vertex 72.67970675420355 69.0017055069342 4.999999999999991
  endloop
endfacet
facet normal -0.9844973891131816 0.1753992326931018 1.584159524985305e-15
  outer loop
    vertex 72.67970675420355 69.00170550693424 0.0
    vertex 72.77142905661997 69.51653311402194 4.999999999999991
    vertex 72.77142905661997 69.51653311402198 0.0
  endloop
endfacet
facet normal 1.0 -2.719529460230173e-14 0.0
  outer loop
    vertex 66.10673032933798 51.08331766745313 2.9999999999999947
    vertex 66.10673032933698 14.583319547453113 4.999999999999991
    vertex 66.10673032933698 14.583319547453113 2.9999999999999947
  endloop
endfacet
facet normal 1.0 -2.719529460230173e-14 0.0
  outer loop
    vertex 66.10673032933698 14.583319547453113 4.999999999999991
    vertex 66.10673032933798 51.08331766745313 2.9999999999999947
    vertex 66.10673032933798 51.08331766745313 4.999999999999991
  endloop
endfacet
facet normal -0.999998418740273 0.001778346691156418 1.6051606033872142e-17
  outer loop
    vertex 72.77235901538035 70.03946674361268 4.999999999999991
    vertex 72.77142905661997 69.51653311402198 0.0
    vertex 72.77142905661997 69.51653311402194 4.999999999999991
  endloop
endfacet
facet normal -0.999998418740273 0.001778346691156418 1.6051606033872142e-17
  outer loop
    vertex 72.77142905661997 69.51653311402198 0.0
    vertex 72.77235901538035 70.03946674361268 4.999999999999991
    vertex 72.77235901538035 70.03946674361272 0.0
  endloop
endfacet
facet normal 0.9390829044976291 -0.34369070176584204 -3.1012387337535032e-15
  outer loop
    vertex 66.88692258070171 70.56492382797123 0.0
    vertex 67.06665029102889 71.0560026362299 4.999999999999991
    vertex 66.88692258070171 70.56492382797119 4.999999999999991
  endloop
endfacet
facet normal 0.9390829044976291 -0.34369070176584204 -3.1012387337535032e-15
  outer loop
    vertex 67.06665029102889 71.0560026362299 4.999999999999991
    vertex 66.88692258070171 70.56492382797123 0.0
    vertex 67.06665029102889 71.05600263622995 0.0
  endloop
endfacet
facet normal 0.9844973891131816 -0.1753992326931018 -1.5841595249856257e-15
  outer loop
    vertex 66.79520027828528 70.05009622088349 0.0
    vertex 66.88692258070171 70.56492382797119 4.999999999999991
    vertex 66.79520027828528 70.05009622088345 4.999999999999991
  endloop
endfacet
facet normal 0.9844973891131816 -0.1753992326931018 -1.5841595249856257e-15
  outer loop
    vertex 66.88692258070171 70.56492382797119 4.999999999999991
    vertex 66.79520027828528 70.05009622088349 0.0
    vertex 66.88692258070171 70.56492382797123 0.0
  endloop
endfacet
facet normal 0.49845911595881925 -0.8669132077189461 1.1732616639272016e-15
  outer loop
    vertex 68.49332215388687 72.48897833191744 4.999999999999991
    vertex 68.0669582883022 72.24382696771647 0.0
    vertex 68.49332215388696 72.48897833191748 0.0
  endloop
endfacet
facet normal 0.49845911595881925 -0.8669132077189461 1.1732616639272016e-15
  outer loop
    vertex 68.0669582883022 72.24382696771647 0.0
    vertex 68.49332215388687 72.48897833191744 4.999999999999991
    vertex 68.0669582883021 72.24382696771643 4.999999999999991
  endloop
endfacet
facet normal 0.7649001325849036 -0.6441488858731319 5.45145226266109e-15
  outer loop
    vertex 67.66577012126541 71.90840409966785 0.0
    vertex 67.32892247373525 71.50841146456848 4.999999999999991
    vertex 67.32892247373525 71.50841146456848 0.0
  endloop
endfacet
facet normal 0.7649001325849036 -0.6441488858731319 5.45145226266109e-15
  outer loop
    vertex 67.32892247373525 71.50841146456848 4.999999999999991
    vertex 67.66577012126541 71.90840409966785 0.0
    vertex 67.66577012126533 71.90840409966782 4.999999999999991
  endloop
endfacet
facet normal -0.9390829044976291 0.34369070176584204 3.1022003581667367e-15
  outer loop
    vertex 72.67970675420355 69.0017055069342 4.999999999999991
    vertex 72.49997904387635 68.51062669867552 0.0
    vertex 72.49997904387635 68.51062669867548 4.999999999999991
  endloop
endfacet
facet normal -0.9390829044976291 0.34369070176584204 3.1022003581667367e-15
  outer loop
    vertex 72.49997904387635 68.51062669867552 0.0
    vertex 72.67970675420355 69.0017055069342 4.999999999999991
    vertex 72.67970675420355 69.00170550693424 0.0
  endloop
endfacet
facet normal 2.6737456444089542e-14 1.0 0.0
  outer loop
    vertex 66.10673032933698 14.583319547453113 4.999999999999991
    vertex 106.60673568933697 14.58331954745203 2.9999999999999947
    vertex 66.10673032933698 14.583319547453113 2.9999999999999947
  endloop
endfacet
facet normal 2.6737456444089542e-14 1.0 0.0
  outer loop
    vertex 106.60673568933697 14.58331954745203 2.9999999999999947
    vertex 66.10673032933698 14.583319547453113 4.999999999999991
    vertex 106.60673568933697 14.58331954745203 4.999999999999991
  endloop
endfacet
facet normal 0.8651348610277375 -0.5015393027814643 -2.261061365831831e-15
  outer loop
    vertex 67.06665029102889 71.05600263622995 0.0
    vertex 67.32892247373525 71.50841146456848 4.999999999999991
    vertex 67.06665029102889 71.0560026362299 4.999999999999991
  endloop
endfacet
facet normal 0.8651348610277375 -0.5015393027814643 -2.261061365831831e-15
  outer loop
    vertex 67.32892247373525 71.50841146456848 4.999999999999991
    vertex 67.06665029102889 71.05600263622995 0.0
    vertex 67.32892247373525 71.50841146456848 0.0
  endloop
endfacet
facet normal 0.9851150024375409 0.17189657347510967 -3.8813110810401315e-16
  outer loop
    vertex 66.7942703195249 69.52716259129271 0.0
    vertex 66.84452855691697 69.23913972585635 4.999999999999991
    vertex 66.84452855691697 69.23913972585633 0.0
  endloop
endfacet
facet normal 0.9851150024375409 0.17189657347510967 -3.8813110810401315e-16
  outer loop
    vertex 66.84452855691697 69.23913972585635 4.999999999999991
    vertex 66.7942703195249 69.52716259129271 0.0
    vertex 66.7942703195249 69.52716259129271 4.999999999999991
  endloop
endfacet
facet normal -0.8651348610277538 0.5015393027814362 3.395538615659345e-15
  outer loop
    vertex 72.49997904387635 68.51062669867548 4.999999999999991
    vertex 72.23770686117 68.05821787033692 0.0
    vertex 72.23770686117 68.05821787033689 4.999999999999991
  endloop
endfacet
facet normal -0.8651348610277538 0.5015393027814362 3.395538615659345e-15
  outer loop
    vertex 72.23770686117 68.05821787033692 0.0
    vertex 72.49997904387635 68.51062669867548 4.999999999999991
    vertex 72.49997904387635 68.51062669867552 0.0
  endloop
endfacet
facet normal 0.999998418740273 -0.0017783466911563408 -8.020827317607221e-18
  outer loop
    vertex 66.79520027828528 70.05009622088349 0.0
    vertex 66.7942703195249 69.52716259129271 4.999999999999991
    vertex 66.7942703195249 69.52716259129271 0.0
  endloop
endfacet
facet normal 0.999998418740273 -0.0017783466911563408 -8.020827317607221e-18
  outer loop
    vertex 66.7942703195249 69.52716259129271 4.999999999999991
    vertex 66.79520027828528 70.05009622088349 0.0
    vertex 66.79520027828528 70.05009622088345 4.999999999999991
  endloop
endfacet
facet normal 0.001778346691199328 0.9999984187402727 6.41865213397642e-17
  outer loop
    vertex 69.51653311402185 66.79520027828532 4.999999999999991
    vertex 70.03946674361283 66.79427031952491 0.0
    vertex 69.51653311402202 66.79520027828532 0.0
  endloop
endfacet
facet normal 0.001778346691199328 0.9999984187402727 6.41865213397642e-17
  outer loop
    vertex 70.03946674361283 66.79427031952491 0.0
    vertex 69.51653311402185 66.79520027828532 4.999999999999991
    vertex 70.03946674361265 66.79427031952491 4.999999999999991
  endloop
endfacet
facet normal 0.866913207718882 0.49845911595893044 -2.2481862023168145e-15
  outer loop
    vertex 67.06214092030447 68.52029707540107 0.0
    vertex 67.32280236718893 68.06695828830213 4.999999999999991
    vertex 67.32280236718893 68.06695828830213 0.0
  endloop
endfacet
facet normal 0.866913207718882 0.49845911595893044 -2.2481862023168145e-15
  outer loop
    vertex 67.32280236718893 68.06695828830213 4.999999999999991
    vertex 67.06214092030447 68.52029707540107 0.0
    vertex 67.06214092030447 68.52029707540112 4.999999999999991
  endloop
endfacet
facet normal -0.6414243006716301 0.7671863310225947 -9.250156390960656e-15
  outer loop
    vertex 71.49967104660314 67.32280236718896 4.999999999999991
    vertex 71.90085921363992 67.65822523523751 0.0
    vertex 71.49967104660323 67.32280236718896 0.0
  endloop
endfacet
facet normal -0.6414243006716301 0.7671863310225947 -9.250156390960656e-15
  outer loop
    vertex 71.90085921363992 67.65822523523751 0.0
    vertex 71.49967104660314 67.32280236718896 4.999999999999991
    vertex 71.90085921363992 67.65822523523757 4.999999999999991
  endloop
endfacet
facet normal 0.6414243006716258 -0.7671863310225984 6.38490118997335e-15
  outer loop
    vertex 68.0669582883021 72.24382696771643 4.999999999999991
    vertex 67.66577012126541 71.90840409966785 0.0
    vertex 68.0669582883022 72.24382696771647 0.0
  endloop
endfacet
facet normal 0.6414243006716258 -0.7671863310225984 6.38490118997335e-15
  outer loop
    vertex 67.66577012126541 71.90840409966785 0.0
    vertex 68.0669582883021 72.24382696771643 4.999999999999991
    vertex 67.66577012126533 71.90840409966782 4.999999999999991
  endloop
endfacet
facet normal 0.3436907017658851 0.9390829044976132 2.1177596728887968e-15
  outer loop
    vertex 68.51062669867541 67.06665029102896 4.999999999999991
    vertex 69.00170550693414 66.88692258070175 -4.511946372076636e-14
    vertex 68.51062669867541 67.06665029102899 -4.511946372076636e-14
  endloop
endfacet
facet normal 0.3436907017658851 0.9390829044976132 2.1177596728887968e-15
  outer loop
    vertex 69.00170550693414 66.88692258070175 -4.511946372076636e-14
    vertex 68.51062669867541 67.06665029102896 4.999999999999991
    vertex 69.00170550693414 66.88692258070175 4.999999999999991
  endloop
endfacet
facet normal 0.6441488858730962 0.7649001325849337 1.616637895027508e-14
  outer loop
    vertex 67.6582252352375 67.6657701212654 4.999999999999991
    vertex 68.05821787033689 67.32892247373536 0.0
    vertex 67.6582252352375 67.66577012126548 0.0
  endloop
endfacet
facet normal 0.6441488858730962 0.7649001325849337 1.616637895027508e-14
  outer loop
    vertex 68.05821787033689 67.32892247373536 0.0
    vertex 67.6582252352375 67.6657701212654 4.999999999999991
    vertex 68.0582178703368 67.32892247373532 4.999999999999991
  endloop
endfacet
facet normal -2.6737456444089542e-14 -1.0 -0.0
  outer loop
    vertex 106.60673568933797 51.08331766745205 4.999999999999991
    vertex 66.10673032933798 51.08331766745313 2.9999999999999947
    vertex 106.60673568933797 51.08331766745205 2.9999999999999947
  endloop
endfacet
facet normal -2.6737456444089542e-14 -1.0 -0.0
  outer loop
    vertex 66.10673032933798 51.08331766745313 2.9999999999999947
    vertex 106.60673568933797 51.08331766745205 4.999999999999991
    vertex 66.10673032933798 51.08331766745313 4.999999999999991
  endloop
endfacet
facet normal 0.17539923269308685 0.9844973891131843 3.1651685884694197e-15
  outer loop
    vertex 69.00170550693414 66.88692258070175 4.999999999999991
    vertex 69.51653311402202 66.79520027828532 0.0
    vertex 69.00170550693414 66.88692258070175 -4.511946372076636e-14
  endloop
endfacet
facet normal 0.17539923269308685 0.9844973891131843 3.1651685884694197e-15
  outer loop
    vertex 69.51653311402202 66.79520027828532 0.0
    vertex 69.00170550693414 66.88692258070175 4.999999999999991
    vertex 69.51653311402185 66.79520027828532 4.999999999999991
  endloop
endfacet
facet normal 0.49845911595892234 -0.8669132077188868 5.84203427276476e-17
  outer loop
    vertex 68.5202970754011 72.50448841460081 4.999999999999991
    vertex 68.49332215388696 72.48897833191748 0.0
    vertex 68.52029707540119 72.50448841460089 -4.511946372076636e-14
  endloop
endfacet
facet normal 0.49845911595892234 -0.8669132077188868 5.84203427276476e-17
  outer loop
    vertex 68.49332215388696 72.48897833191748 0.0
    vertex 68.5202970754011 72.50448841460081 4.999999999999991
    vertex 68.49332215388687 72.48897833191744 4.999999999999991
  endloop
endfacet
facet normal 0.9402993652780486 0.3403485032399865 1.5360166033412029e-15
  outer loop
    vertex 66.88416096074685 69.01201201291694 0.0
    vertex 67.06214092030447 68.52029707540112 4.999999999999991
    vertex 67.06214092030447 68.52029707540107 0.0
  endloop
endfacet
facet normal 0.9402993652780486 0.3403485032399865 1.5360166033412029e-15
  outer loop
    vertex 67.06214092030447 68.52029707540112 4.999999999999991
    vertex 66.88416096074685 69.01201201291694 0.0
    vertex 66.88416096074685 69.01201201291686 4.999999999999991
  endloop
endfacet
facet normal -0.5015393027814541 -0.8651348610277435 -3.2832676521643865e-15
  outer loop
    vertex 71.50841146456844 72.23770686117007 4.999999999999991
    vertex 71.05600263622975 72.49997904387651 0.0
    vertex 71.50841146456844 72.23770686117007 0.0
  endloop
endfacet
facet normal -0.5015393027814541 -0.8651348610277435 -3.2832676521643865e-15
  outer loop
    vertex 71.05600263622975 72.49997904387651 0.0
    vertex 71.50841146456844 72.23770686117007 4.999999999999991
    vertex 71.05600263622983 72.49997904387642 4.999999999999991
  endloop
endfacet
facet normal -0.0017783466911991746 -0.9999984187402727 -8.023812737393522e-17
  outer loop
    vertex 70.0500962208834 72.77142905662005 4.999999999999991
    vertex 69.52716259129278 72.77235901538046 0.0
    vertex 70.05009622088367 72.77142905662005 0.0
  endloop
endfacet
facet normal -0.0017783466911991746 -0.9999984187402727 -8.023812737393522e-17
  outer loop
    vertex 69.52716259129278 72.77235901538046 0.0
    vertex 70.0500962208834 72.77142905662005 4.999999999999991
    vertex 69.5271625912926 72.77235901538046 4.999999999999991
  endloop
endfacet
facet normal -0.7671863310225981 -0.641424300671626 -1.0950376500062118e-14
  outer loop
    vertex 71.90840409966775 71.90085921363999 4.999999999999991
    vertex 72.24382696771642 71.49967104660325 0.0
    vertex 72.24382696771632 71.49967104660325 4.999999999999991
  endloop
endfacet
facet normal -0.7671863310225981 -0.641424300671626 -1.0950376500062118e-14
  outer loop
    vertex 72.24382696771642 71.49967104660325 0.0
    vertex 71.90840409966775 71.90085921363999 4.999999999999991
    vertex 71.90840409966785 71.90085921363995 0.0
  endloop
endfacet
facet normal -0.7649001325849639 0.6441488858730602 -1.4526433473603064e-15
  outer loop
    vertex 71.90085921363992 67.65822523523757 4.999999999999991
    vertex 72.23770686117 68.05821787033692 0.0
    vertex 71.90085921363992 67.65822523523751 0.0
  endloop
endfacet
facet normal -0.7649001325849639 0.6441488858730602 -1.4526433473603064e-15
  outer loop
    vertex 72.23770686117 68.05821787033692 0.0
    vertex 71.90085921363992 67.65822523523757 4.999999999999991
    vertex 72.23770686117 68.05821787033689 4.999999999999991
  endloop
endfacet
facet normal -0.9851150024375874 -0.17189657347484283 0.0
  outer loop
    vertex 72.72210077798837 70.32748960904902 4.999999999999991
    vertex 72.77235901538035 70.03946674361272 0.0
    vertex 72.77235901538035 70.03946674361268 4.999999999999991
  endloop
endfacet
facet normal -0.9851150024375874 -0.17189657347484283 0.0
  outer loop
    vertex 72.77235901538035 70.03946674361272 0.0
    vertex 72.72210077798837 70.32748960904902 4.999999999999991
    vertex 72.72210077798837 70.32748960904898 0.0
  endloop
endfacet
facet normal -0.3403485032400957 0.9402993652780091 3.291608530825184e-15
  outer loop
    vertex 70.55461732198842 66.88416096074691 0.0
    vertex 71.04633225950414 67.06214092030456 4.999999999999991
    vertex 71.04633225950424 67.06214092030461 -4.511946372076636e-14
  endloop
endfacet
facet normal -0.3403485032400957 0.9402993652780091 3.291608530825184e-15
  outer loop
    vertex 71.04633225950414 67.06214092030456 4.999999999999991
    vertex 70.55461732198842 66.88416096074691 0.0
    vertex 70.55461732198842 66.8841609607469 4.999999999999991
  endloop
endfacet
facet normal 0.9851150024375748 0.17189657347491602 1.1637759492907465e-15
  outer loop
    vertex 66.88416096074685 69.01201201291694 0.0
    vertex 66.84452855691697 69.23913972585635 4.999999999999991
    vertex 66.88416096074685 69.01201201291686 4.999999999999991
  endloop
endfacet
facet normal 0.9851150024375748 0.17189657347491602 1.1637759492907465e-15
  outer loop
    vertex 66.84452855691697 69.23913972585635 4.999999999999991
    vertex 66.88416096074685 69.01201201291694 0.0
    vertex 66.84452855691697 69.23913972585633 0.0
  endloop
endfacet
facet normal 0.7671863310225804 0.6414243006716471 5.78779081247526e-15
  outer loop
    vertex 67.6582252352375 67.66577012126548 0.0
    vertex 67.32280236718893 68.06695828830213 4.999999999999991
    vertex 67.6582252352375 67.6657701212654 4.999999999999991
  endloop
endfacet
facet normal 0.7671863310225804 0.6414243006716471 5.78779081247526e-15
  outer loop
    vertex 67.32280236718893 68.06695828830213 4.999999999999991
    vertex 67.6582252352375 67.66577012126548 0.0
    vertex 67.32280236718893 68.06695828830213 0.0
  endloop
endfacet
facet normal 0.34034850324002786 -0.9402993652780335 1.900657920601284e-15
  outer loop
    vertex 69.01201201291693 72.68246837415846 0.0
    vertex 68.5202970754011 72.50448841460081 4.999999999999991
    vertex 68.52029707540119 72.50448841460089 -4.511946372076636e-14
  endloop
endfacet
facet normal 0.34034850324002786 -0.9402993652780335 1.900657920601284e-15
  outer loop
    vertex 68.5202970754011 72.50448841460081 4.999999999999991
    vertex 69.01201201291693 72.68246837415846 0.0
    vertex 69.01201201291683 72.68246837415849 4.999999999999991
  endloop
endfacet
facet normal -0.9402993652780386 -0.3403485032400141 -9.522731576683133e-19
  outer loop
    vertex 72.50448841460077 71.04633225950425 4.999999999999991
    vertex 72.68246837415839 70.5546173219885 0.0
    vertex 72.68246837415839 70.5546173219885 4.999999999999991
  endloop
endfacet
facet normal -0.9402993652780386 -0.3403485032400141 -9.522731576683133e-19
  outer loop
    vertex 72.68246837415839 70.5546173219885 0.0
    vertex 72.50448841460077 71.04633225950425 4.999999999999991
    vertex 72.50448841460077 71.04633225950425 0.0
  endloop
endfacet
facet normal -0.6441488858730962 -0.7649001325849337 -2.3603278714619326e-15
  outer loop
    vertex 71.90840409966775 71.90085921363999 4.999999999999991
    vertex 71.50841146456844 72.23770686117007 0.0
    vertex 71.90840409966785 71.90085921363995 0.0
  endloop
endfacet
facet normal -0.6441488858730962 -0.7649001325849337 -2.3603278714619326e-15
  outer loop
    vertex 71.50841146456844 72.23770686117007 0.0
    vertex 71.90840409966775 71.90085921363999 4.999999999999991
    vertex 71.50841146456844 72.23770686117007 4.999999999999991
  endloop
endfacet
facet normal -0.9851150024375157 -0.1718965734752544 7.75540782921941e-16
  outer loop
    vertex 72.72210077798837 70.32748960904902 4.999999999999991
    vertex 72.68246837415839 70.5546173219885 0.0
    vertex 72.72210077798837 70.32748960904898 0.0
  endloop
endfacet
facet normal -0.9851150024375157 -0.1718965734752544 7.75540782921941e-16
  outer loop
    vertex 72.68246837415839 70.5546173219885 0.0
    vertex 72.72210077798837 70.32748960904902 4.999999999999991
    vertex 72.68246837415839 70.5546173219885 4.999999999999991
  endloop
endfacet
facet normal -0.49845911595880077 0.8669132077189567 -6.779402450807991e-15
  outer loop
    vertex 71.04633225950414 67.06214092030456 4.999999999999991
    vertex 71.49967104660323 67.32280236718896 0.0
    vertex 71.04633225950424 67.06214092030461 -4.511946372076636e-14
  endloop
endfacet
facet normal -0.49845911595880077 0.8669132077189567 -6.779402450807991e-15
  outer loop
    vertex 71.49967104660323 67.32280236718896 0.0
    vertex 71.04633225950414 67.06214092030456 4.999999999999991
    vertex 71.49967104660314 67.32280236718896 4.999999999999991
  endloop
endfacet
facet normal -0.49845911595880077 0.8669132077189567 -6.779402450807991e-15
  outer loop
    vertex 71.49967104660314 67.32280236718896 4.999999999999991
    vertex 71.04633225950414 67.06214092030456 4.999999999999991
    vertex 71.07330718101838 67.07765100298795 4.999999999999991
  endloop
endfacet
endsolid Gun_Platform
