solid Gun_Platform_WithWheels
facet normal -0.0 -0.0 1.0
  outer loop
    vertex 145.44266363500648 73.64027382391424 33.633205
    vertex 147.38147860255765 84.03723492174409 33.633205
    vertex 144.9232668945415 83.58204792877216 33.633205
  endloop
endfacet
facet normal -0.0 -0.0 1.0
  outer loop
    vertex 147.38147860255765 84.03723492174409 33.633205
    vertex 145.44266363500648 73.64027382391424 33.633205
    vertex 145.96206037547145 63.69849971905634 33.633205
  endloop
endfacet
facet normal -0.0 -0.0 1.0
  outer loop
    vertex 147.38147860255765 84.03723492174409 33.633205
    vertex 145.96206037547145 63.69849971905634 33.633205
    vertex 148.4543216135944 63.50194458443005 33.633205
  endloop
endfacet
facet normal 0.9986380764090372 0.05217271649107552 1.3579939888459465e-15
  outer loop
    vertex 148.26932597310886 67.04294652919533 5.046164266133459
    vertex 148.4543216135944 63.50194458443005 33.633205
    vertex 148.4543216135944 63.50194458443005 7.57922552957388
  endloop
endfacet
facet normal 0.9986380764090372 0.05217271649107552 1.3579939888459465e-15
  outer loop
    vertex 148.4543216135944 63.50194458443005 33.633205
    vertex 148.26932597310886 67.04294652919533 5.046164266133459
    vertex 147.38147860255765 84.03723492174409 33.633205
  endloop
endfacet
facet normal 0.9986380764090372 0.05217271649107552 1.3579939888459465e-15
  outer loop
    vertex 147.38147860255765 84.03723492174409 33.633205
    vertex 148.26932597310886 67.04294652919533 5.046164266133459
    vertex 147.91790010807608 73.76958975308706 3.633205000000009
  endloop
endfacet
facet normal 0.9986380764090372 0.05217271649107552 1.3579939888459465e-15
  outer loop
    vertex 147.38147860255765 84.03723492174409 33.633205
    vertex 147.91790010807608 73.76958975308706 3.633205000000009
    vertex 147.56647424304327 80.4962329769788 5.046164266133454
  endloop
endfacet
facet normal 0.9986380764090372 0.05217271649107552 1.3579939888459465e-15
  outer loop
    vertex 147.38147860255765 84.03723492174409 33.633205
    vertex 147.56647424304327 80.4962329769788 5.046164266133454
    vertex 147.38147860255768 84.03723492174409 7.57922552957387
  endloop
endfacet
facet normal -0.07862205385052957 -0.9969044952493316 5.221694480234926e-19
  outer loop
    vertex 148.4543216135944 63.50194458443005 7.57922552957388
    vertex 145.96206037547145 63.69849971905634 33.633205
    vertex 145.96206037547145 63.69849971905634 7.37864805492422
  endloop
endfacet
facet normal -0.07862205385052957 -0.9969044952493316 5.221694480234926e-19
  outer loop
    vertex 145.96206037547145 63.69849971905634 33.633205
    vertex 148.4543216135944 63.50194458443005 7.57922552957388
    vertex 148.4543216135944 63.50194458443005 33.633205
  endloop
endfacet
facet normal -0.9986380764090372 -0.05217271649107493 8.698202826101743e-16
  outer loop
    vertex 145.44266363500648 73.64027382391424 33.633205
    vertex 145.96206037547145 63.69849971905634 7.37864805492422
    vertex 145.96206037547145 63.69849971905634 33.633205
  endloop
endfacet
facet normal -0.9986380764090372 -0.05217271649107493 8.698202826101743e-16
  outer loop
    vertex 145.96206037547145 63.69849971905634 7.37864805492422
    vertex 145.44266363500648 73.64027382391424 33.633205
    vertex 145.79436990778467 66.90826331477574 5.0587509922911975
  endloop
endfacet
facet normal -0.9986380764090372 -0.05217271649107493 8.698202826101743e-16
  outer loop
    vertex 145.79436990778467 66.90826331477574 5.0587509922911975
    vertex 145.44266363500648 73.64027382391424 33.633205
    vertex 145.64172378343775 69.8300631028937 12.295540228154977
  endloop
endfacet
facet normal -0.9986380764090372 -0.05217271649107493 8.698202826101743e-16
  outer loop
    vertex 145.79436990778467 66.90826331477574 5.0587509922911975
    vertex 145.64172378343775 69.8300631028937 12.295540228154977
    vertex 145.64874586514628 69.69565342209854 11.273205000000013
  endloop
endfacet
facet normal -0.9986380764090372 -0.05217271649107493 8.698202826101743e-16
  outer loop
    vertex 145.64172378343775 69.8300631028937 12.295540228154977
    vertex 145.44266363500648 73.64027382391424 33.633205
    vertex 145.6211360815761 70.22413234765548 13.248205000000015
  endloop
endfacet
facet normal -0.9986380764090372 -0.05217271649107493 8.698202826101743e-16
  outer loop
    vertex 145.6211360815761 70.22413234765548 13.248205000000015
    vertex 145.44266363500648 73.64027382391424 33.633205
    vertex 145.58838577742043 70.85100598858355 14.066276785686899
  endloop
endfacet
facet normal -0.9986380764090372 -0.05217271649107493 8.698202826101743e-16
  outer loop
    vertex 145.58838577742043 70.85100598858355 14.066276785686899
    vertex 145.44266363500648 73.64027382391424 33.633205
    vertex 145.54570475007642 71.6679636230064 14.694005344948565
  endloop
endfacet
facet normal -0.9986380764090372 -0.05217271649107493 8.698202826101743e-16
  outer loop
    vertex 145.54570475007642 71.6679636230064 14.694005344948565
    vertex 145.44266363500648 73.64027382391424 33.633205
    vertex 145.49600164102392 72.6193309382244 15.088612013841814
  endloop
endfacet
facet normal -0.9986380764090372 -0.05217271649107493 8.698202826101743e-16
  outer loop
    vertex 145.49600164102392 72.6193309382244 15.088612013841814
    vertex 145.44266363500648 73.64027382391424 33.633205
    vertex 145.44266363500657 73.64027382391424 15.223205000000018
  endloop
endfacet
facet normal -0.9986380764090372 -0.05217271649107493 8.698202826101743e-16
  outer loop
    vertex 145.44266363500657 73.64027382391424 15.223205000000018
    vertex 145.44266363500648 73.64027382391424 33.633205
    vertex 144.9232668945415 83.58204792877216 33.633205
  endloop
endfacet
facet normal -0.9986380764090372 -0.05217271649107493 8.698202826101743e-16
  outer loop
    vertex 145.44266363500657 73.64027382391424 15.223205000000018
    vertex 144.9232668945415 83.58204792877216 33.633205
    vertex 145.38932562898918 74.66121670960412 15.088612013841814
  endloop
endfacet
facet normal -0.9986380764090372 -0.05217271649107493 8.698202826101743e-16
  outer loop
    vertex 145.38932562898918 74.66121670960412 15.088612013841814
    vertex 144.9232668945415 83.58204792877216 33.633205
    vertex 145.33962251993668 75.61258402482211 14.694005344948565
  endloop
endfacet
facet normal -0.9986380764090372 -0.05217271649107493 8.698202826101743e-16
  outer loop
    vertex 145.33962251993668 75.61258402482211 14.694005344948565
    vertex 144.9232668945415 83.58204792877216 33.633205
    vertex 145.2969414925927 76.42954165924493 14.066276785686899
  endloop
endfacet
facet normal -0.9986380764090372 -0.05217271649107493 8.698202826101743e-16
  outer loop
    vertex 145.2969414925927 76.42954165924493 14.066276785686899
    vertex 144.9232668945415 83.58204792877216 33.633205
    vertex 145.26419118843697 77.05641530017303 13.248205000000015
  endloop
endfacet
facet normal -0.9986380764090372 -0.05217271649107493 8.698202826101743e-16
  outer loop
    vertex 145.26419118843697 77.05641530017303 13.248205000000015
    vertex 144.9232668945415 83.58204792877216 33.633205
    vertex 145.2436034865753 77.4504845449348 12.295540228154977
  endloop
endfacet
facet normal -0.9986380764090372 -0.05217271649107493 8.698202826101743e-16
  outer loop
    vertex 145.2436034865753 77.4504845449348 12.295540228154977
    vertex 144.9232668945415 83.58204792877216 33.633205
    vertex 145.23658140486677 77.58489422572995 11.273205000000013
  endloop
endfacet
facet normal -0.9986380764090372 -0.05217271649107493 8.698202826101743e-16
  outer loop
    vertex 145.23658140486677 77.58489422572995 11.273205000000013
    vertex 144.9232668945415 83.58204792877216 33.633205
    vertex 145.09095736222824 80.37228433305276 5.058750992291201
  endloop
endfacet
facet normal -0.9986380764090372 -0.05217271649107493 8.698202826101743e-16
  outer loop
    vertex 145.09095736222824 80.37228433305276 5.058750992291201
    vertex 144.9232668945415 83.58204792877216 33.633205
    vertex 144.9232668945415 83.58204792877216 7.37864805492421
  endloop
endfacet
facet normal -0.9986380764090372 -0.05217271649107493 8.698202826101743e-16
  outer loop
    vertex 145.79436990778467 66.90826331477574 5.0587509922911975
    vertex 145.62113608157608 70.22413234765548 9.298205000000012
    vertex 145.44266363500648 73.64027382391424 3.633205000000009
  endloop
endfacet
facet normal -0.9986380764090372 -0.05217271649107493 8.698202826101743e-16
  outer loop
    vertex 145.62113608157608 70.22413234765548 9.298205000000012
    vertex 145.79436990778467 66.90826331477574 5.0587509922911975
    vertex 145.64172378343775 69.8300631028937 10.250869771845048
  endloop
endfacet
facet normal -0.9986380764090372 -0.05217271649107493 8.698202826101743e-16
  outer loop
    vertex 145.64172378343775 69.8300631028937 10.250869771845048
    vertex 145.79436990778467 66.90826331477574 5.0587509922911975
    vertex 145.64874586514628 69.69565342209854 11.273205000000013
  endloop
endfacet
facet normal -0.9986380764090372 -0.05217271649107493 8.698202826101743e-16
  outer loop
    vertex 145.44266363500648 73.64027382391424 3.633205000000009
    vertex 145.62113608157608 70.22413234765548 9.298205000000012
    vertex 145.58838577742034 70.85100598858355 8.480133214313128
  endloop
endfacet
facet normal -0.9986380764090372 -0.05217271649107493 8.698202826101743e-16
  outer loop
    vertex 145.44266363500648 73.64027382391424 3.633205000000009
    vertex 145.58838577742034 70.85100598858355 8.480133214313128
    vertex 145.54570475007634 71.6679636230064 7.852404655051462
  endloop
endfacet
facet normal -0.9986380764090372 -0.05217271649107493 8.698202826101743e-16
  outer loop
    vertex 145.44266363500648 73.64027382391424 3.633205000000009
    vertex 145.54570475007634 71.6679636230064 7.852404655051462
    vertex 145.49600164102384 72.6193309382244 7.457797986158209
  endloop
endfacet
facet normal -0.9986380764090372 -0.05217271649107493 8.698202826101743e-16
  outer loop
    vertex 145.44266363500648 73.64027382391424 3.633205000000009
    vertex 145.49600164102384 72.6193309382244 7.457797986158209
    vertex 145.44266363500648 73.64027382391424 7.323205000000009
  endloop
endfacet
facet normal -0.9986380764090372 -0.05217271649107493 8.698202826101743e-16
  outer loop
    vertex 145.44266363500648 73.64027382391424 3.633205000000009
    vertex 145.44266363500648 73.64027382391424 7.323205000000009
    vertex 145.3893256289891 74.6612167096041 7.457797986158209
  endloop
endfacet
facet normal -0.9986380764090372 -0.05217271649107493 8.698202826101743e-16
  outer loop
    vertex 145.44266363500648 73.64027382391424 3.633205000000009
    vertex 145.3893256289891 74.6612167096041 7.457797986158209
    vertex 145.09095736222824 80.37228433305276 5.058750992291201
  endloop
endfacet
facet normal -0.9986380764090372 -0.05217271649107493 8.698202826101743e-16
  outer loop
    vertex 145.09095736222824 80.37228433305276 5.058750992291201
    vertex 145.3893256289891 74.6612167096041 7.457797986158209
    vertex 145.3396225199366 75.61258402482208 7.852404655051462
  endloop
endfacet
facet normal -0.9986380764090372 -0.05217271649107493 8.698202826101743e-16
  outer loop
    vertex 145.09095736222824 80.37228433305276 5.058750992291201
    vertex 145.3396225199366 75.61258402482208 7.852404655051462
    vertex 145.2969414925926 76.42954165924493 8.480133214313128
  endloop
endfacet
facet normal -0.9986380764090372 -0.05217271649107493 8.698202826101743e-16
  outer loop
    vertex 145.09095736222824 80.37228433305276 5.058750992291201
    vertex 145.2969414925926 76.42954165924493 8.480133214313128
    vertex 145.2641911884369 77.05641530017301 9.298205000000012
  endloop
endfacet
facet normal -0.9986380764090372 -0.05217271649107493 8.698202826101743e-16
  outer loop
    vertex 145.09095736222824 80.37228433305276 5.058750992291201
    vertex 145.2641911884369 77.05641530017301 9.298205000000012
    vertex 145.2436034865753 77.4504845449348 10.250869771845048
  endloop
endfacet
facet normal -0.9986380764090372 -0.05217271649107493 8.698202826101743e-16
  outer loop
    vertex 145.09095736222824 80.37228433305276 5.058750992291201
    vertex 145.2436034865753 77.4504845449348 10.250869771845048
    vertex 145.23658140486677 77.58489422572995 11.273205000000013
  endloop
endfacet
facet normal -0.9986380764090372 -0.05217271649107648 1.2564637055261308e-14
  outer loop
    vertex 137.65261917216543 69.4126813709651 12.295540228155067
    vertex 137.65261917216543 69.4126813709651 10.250869771845139
    vertex 137.65964125387396 69.27827169016993 11.273205000000104
  endloop
endfacet
facet normal -0.9986380764090372 -0.05217271649107648 1.2564637055261308e-14
  outer loop
    vertex 137.65261917216543 69.4126813709651 10.250869771845139
    vertex 137.65261917216543 69.4126813709651 12.295540228155067
    vertex 137.63203147030382 69.80675061572687 13.248205000000105
  endloop
endfacet
facet normal -0.9986380764090372 -0.05217271649107648 1.2564637055261308e-14
  outer loop
    vertex 137.65261917216543 69.4126813709651 10.250869771845139
    vertex 137.63203147030382 69.80675061572687 13.248205000000105
    vertex 137.63203147030376 69.80675061572687 9.2982050000001
  endloop
endfacet
facet normal -0.9986380764090372 -0.05217271649107648 1.2564637055261308e-14
  outer loop
    vertex 137.63203147030376 69.80675061572687 9.2982050000001
    vertex 137.63203147030382 69.80675061572687 13.248205000000105
    vertex 137.5992811661481 70.43362425665495 14.06627678568699
  endloop
endfacet
facet normal -0.9986380764090372 -0.05217271649107648 1.2564637055261308e-14
  outer loop
    vertex 137.63203147030376 69.80675061572687 9.2982050000001
    vertex 137.5992811661481 70.43362425665495 14.06627678568699
    vertex 137.59928116614802 70.43362425665495 8.480133214313218
  endloop
endfacet
facet normal -0.9986380764090372 -0.05217271649107648 1.2564637055261308e-14
  outer loop
    vertex 137.59928116614802 70.43362425665495 8.480133214313218
    vertex 137.5992811661481 70.43362425665495 14.06627678568699
    vertex 137.55660013880413 71.2505818910778 14.694005344948653
  endloop
endfacet
facet normal -0.9986380764090372 -0.05217271649107648 1.2564637055261308e-14
  outer loop
    vertex 137.59928116614802 70.43362425665495 8.480133214313218
    vertex 137.55660013880413 71.2505818910778 14.694005344948653
    vertex 137.55660013880404 71.2505818910778 7.8524046550515525
  endloop
endfacet
facet normal -0.9986380764090372 -0.05217271649107648 1.2564637055261308e-14
  outer loop
    vertex 137.55660013880404 71.2505818910778 7.8524046550515525
    vertex 137.55660013880413 71.2505818910778 14.694005344948653
    vertex 137.50689702975163 72.2019492062958 15.088612013841905
  endloop
endfacet
facet normal -0.9986380764090372 -0.05217271649107648 1.2564637055261308e-14
  outer loop
    vertex 137.55660013880404 71.2505818910778 7.8524046550515525
    vertex 137.50689702975163 72.2019492062958 15.088612013841905
    vertex 137.5068970297515 72.2019492062958 7.457797986158298
  endloop
endfacet
facet normal -0.9986380764090372 -0.05217271649107648 1.2564637055261308e-14
  outer loop
    vertex 137.5068970297515 72.2019492062958 7.457797986158298
    vertex 137.50689702975163 72.2019492062958 15.088612013841905
    vertex 137.45355902373424 73.22289209198564 15.223205000000107
  endloop
endfacet
facet normal -0.9986380764090372 -0.05217271649107648 1.2564637055261308e-14
  outer loop
    vertex 137.5068970297515 72.2019492062958 7.457797986158298
    vertex 137.45355902373424 73.22289209198564 15.223205000000107
    vertex 137.45355902373416 73.22289209198564 7.323205000000099
  endloop
endfacet
facet normal -0.9986380764090372 -0.05217271649107648 1.2564637055261308e-14
  outer loop
    vertex 137.45355902373416 73.22289209198564 7.323205000000099
    vertex 137.45355902373424 73.22289209198564 15.223205000000107
    vertex 137.4002210177169 74.24383497767552 15.088612013841905
  endloop
endfacet
facet normal -0.9986380764090372 -0.05217271649107648 1.2564637055261308e-14
  outer loop
    vertex 137.45355902373416 73.22289209198564 7.323205000000099
    vertex 137.4002210177169 74.24383497767552 15.088612013841905
    vertex 137.40022101771677 74.24383497767549 7.457797986158298
  endloop
endfacet
facet normal -0.9986380764090372 -0.05217271649107648 1.2564637055261308e-14
  outer loop
    vertex 137.40022101771677 74.24383497767549 7.457797986158298
    vertex 137.4002210177169 74.24383497767552 15.088612013841905
    vertex 137.35051790866427 75.19520229289348 7.8524046550515525
  endloop
endfacet
facet normal -0.9986380764090372 -0.05217271649107648 1.2564637055261308e-14
  outer loop
    vertex 137.35051790866427 75.19520229289348 7.8524046550515525
    vertex 137.4002210177169 74.24383497767552 15.088612013841905
    vertex 137.35051790866436 75.1952022928935 14.694005344948653
  endloop
endfacet
facet normal -0.9986380764090372 -0.05217271649107648 1.2564637055261308e-14
  outer loop
    vertex 137.35051790866427 75.19520229289348 7.8524046550515525
    vertex 137.35051790866436 75.1952022928935 14.694005344948653
    vertex 137.3078368813203 76.01215992731633 8.480133214313218
  endloop
endfacet
facet normal -0.9986380764090372 -0.05217271649107648 1.2564637055261308e-14
  outer loop
    vertex 137.3078368813203 76.01215992731633 8.480133214313218
    vertex 137.35051790866436 75.1952022928935 14.694005344948653
    vertex 137.30783688132038 76.01215992731633 14.06627678568699
  endloop
endfacet
facet normal -0.9986380764090372 -0.05217271649107648 1.2564637055261308e-14
  outer loop
    vertex 137.3078368813203 76.01215992731633 8.480133214313218
    vertex 137.30783688132038 76.01215992731633 14.06627678568699
    vertex 137.27508657716464 76.63903356824443 13.248205000000105
  endloop
endfacet
facet normal -0.9986380764090372 -0.05217271649107648 1.2564637055261308e-14
  outer loop
    vertex 137.3078368813203 76.01215992731633 8.480133214313218
    vertex 137.27508657716464 76.63903356824443 13.248205000000105
    vertex 137.2750865771646 76.6390335682444 9.2982050000001
  endloop
endfacet
facet normal -0.9986380764090372 -0.05217271649107648 1.2564637055261308e-14
  outer loop
    vertex 137.2750865771646 76.6390335682444 9.2982050000001
    vertex 137.27508657716464 76.63903356824443 13.248205000000105
    vertex 137.25449887530297 77.03310281300618 10.250869771845139
  endloop
endfacet
facet normal -0.9986380764090372 -0.05217271649107648 1.2564637055261308e-14
  outer loop
    vertex 137.25449887530297 77.03310281300618 10.250869771845139
    vertex 137.27508657716464 76.63903356824443 13.248205000000105
    vertex 137.25449887530297 77.03310281300618 12.295540228155067
  endloop
endfacet
facet normal -0.9986380764090372 -0.05217271649107648 1.2564637055261308e-14
  outer loop
    vertex 137.25449887530297 77.03310281300618 10.250869771845139
    vertex 137.25449887530297 77.03310281300618 12.295540228155067
    vertex 137.24747679359444 77.16751249380134 11.273205000000104
  endloop
endfacet
facet normal -0.006809906021346228 0.13034842551964815 0.9914448613738079
  outer loop
    vertex 137.45355902373424 73.22289209198564 15.223205000000107
    vertex 145.38932562898918 74.66121670960412 15.088612013841814
    vertex 137.4002210177169 74.24383497767552 15.088612013841905
  endloop
endfacet
facet normal -0.006809906021346228 0.13034842551964815 0.9914448613738079
  outer loop
    vertex 145.38932562898918 74.66121670960412 15.088612013841814
    vertex 137.45355902373424 73.22289209198564 15.223205000000107
    vertex 145.44266363500657 73.64027382391424 15.223205000000018
  endloop
endfacet
facet normal -0.01996563422260358 0.3821622467706516 0.9238795325112994
  outer loop
    vertex 137.4002210177169 74.24383497767552 15.088612013841905
    vertex 145.33962251993668 75.61258402482211 14.694005344948565
    vertex 137.35051790866436 75.1952022928935 14.694005344948653
  endloop
endfacet
facet normal -0.01996563422260358 0.3821622467706516 0.9238795325112994
  outer loop
    vertex 145.33962251993668 75.61258402482211 14.694005344948565
    vertex 137.4002210177169 74.24383497767552 15.088612013841905
    vertex 145.38932562898918 74.66121670960412 15.088612013841814
  endloop
endfacet
facet normal 0.03176073744638247 -0.6079323424572746 0.7933533402912433
  outer loop
    vertex 137.5992811661481 70.43362425665495 14.06627678568699
    vertex 145.54570475007642 71.6679636230064 14.694005344948565
    vertex 137.55660013880413 71.2505818910778 14.694005344948653
  endloop
endfacet
facet normal 0.03176073744638247 -0.6079323424572746 0.7933533402912433
  outer loop
    vertex 145.54570475007642 71.6679636230064 14.694005344948565
    vertex 137.5992811661481 70.43362425665495 14.06627678568699
    vertex 145.58838577742043 70.85100598858355 14.066276785686899
  endloop
endfacet
facet normal -0.03176073744636516 0.6079323424572861 0.7933533402912349
  outer loop
    vertex 137.35051790866436 75.1952022928935 14.694005344948653
    vertex 145.2969414925927 76.42954165924493 14.066276785686899
    vertex 137.30783688132038 76.01215992731633 14.06627678568699
  endloop
endfacet
facet normal -0.03176073744636516 0.6079323424572861 0.7933533402912349
  outer loop
    vertex 145.2969414925927 76.42954165924493 14.066276785686899
    vertex 137.35051790866436 75.1952022928935 14.694005344948653
    vertex 145.33962251993668 75.61258402482211 14.694005344948565
  endloop
endfacet
facet normal -0.04820130492162306 0.9226212791807488 -0.38268343236509655
  outer loop
    vertex 137.2750865771646 76.6390335682444 9.2982050000001
    vertex 145.2436034865753 77.4504845449348 10.250869771845048
    vertex 145.2641911884369 77.05641530017301 9.298205000000012
  endloop
endfacet
facet normal -0.04820130492162306 0.9226212791807488 -0.38268343236509655
  outer loop
    vertex 145.2436034865753 77.4504845449348 10.250869771845048
    vertex 137.2750865771646 76.6390335682444 9.2982050000001
    vertex 137.25449887530297 77.03310281300618 10.250869771845139
  endloop
endfacet
facet normal -0.04139139890025584 0.7922728536611273 0.6087614290087159
  outer loop
    vertex 137.27508657716464 76.63903356824443 13.248205000000105
    vertex 145.2969414925927 76.42954165924493 14.066276785686899
    vertex 145.26419118843697 77.05641530017303 13.248205000000015
  endloop
endfacet
facet normal -0.04139139890025584 0.7922728536611273 0.6087614290087159
  outer loop
    vertex 145.2969414925927 76.42954165924493 14.066276785686899
    vertex 137.27508657716464 76.63903356824443 13.248205000000105
    vertex 137.30783688132038 76.01215992731633 14.06627678568699
  endloop
endfacet
facet normal 0.04139139890027017 -0.7922728536611383 0.6087614290087008
  outer loop
    vertex 145.58838577742043 70.85100598858355 14.066276785686899
    vertex 137.63203147030382 69.80675061572687 13.248205000000105
    vertex 145.6211360815761 70.22413234765548 13.248205000000015
  endloop
endfacet
facet normal 0.04139139890027017 -0.7922728536611383 0.6087614290087008
  outer loop
    vertex 137.63203147030382 69.80675061572687 13.248205000000105
    vertex 145.58838577742043 70.85100598858355 14.066276785686899
    vertex 137.5992811661481 70.43362425665495 14.06627678568699
  endloop
endfacet
facet normal -0.04820130492161482 0.9226212791807564 0.38268343236507985
  outer loop
    vertex 137.25449887530297 77.03310281300618 12.295540228155067
    vertex 145.26419118843697 77.05641530017303 13.248205000000015
    vertex 145.2436034865753 77.4504845449348 12.295540228154977
  endloop
endfacet
facet normal -0.04820130492161482 0.9226212791807564 0.38268343236507985
  outer loop
    vertex 145.26419118843697 77.05641530017303 13.248205000000015
    vertex 137.25449887530297 77.03310281300618 12.295540228155067
    vertex 137.27508657716464 76.63903356824443 13.248205000000105
  endloop
endfacet
facet normal -0.019965634222624522 0.3821622467706528 -0.9238795325112983
  outer loop
    vertex 145.3396225199366 75.61258402482208 7.852404655051462
    vertex 137.40022101771677 74.24383497767549 7.457797986158298
    vertex 137.35051790866427 75.19520229289348 7.8524046550515525
  endloop
endfacet
facet normal -0.019965634222624522 0.3821622467706528 -0.9238795325112983
  outer loop
    vertex 137.40022101771677 74.24383497767549 7.457797986158298
    vertex 145.3396225199366 75.61258402482208 7.852404655051462
    vertex 145.3893256289891 74.6612167096041 7.457797986158209
  endloop
endfacet
facet normal -0.04139139890027017 0.7922728536611383 -0.6087614290087008
  outer loop
    vertex 137.3078368813203 76.01215992731633 8.480133214313218
    vertex 145.2641911884369 77.05641530017301 9.298205000000012
    vertex 145.2969414925926 76.42954165924493 8.480133214313128
  endloop
endfacet
facet normal -0.04139139890027017 0.7922728536611383 -0.6087614290087008
  outer loop
    vertex 145.2641911884369 77.05641530017301 9.298205000000012
    vertex 137.3078368813203 76.01215992731633 8.480133214313218
    vertex 137.2750865771646 76.6390335682444 9.2982050000001
  endloop
endfacet
facet normal -0.03176073744638248 0.6079323424572746 -0.7933533402912433
  outer loop
    vertex 145.2969414925926 76.42954165924493 8.480133214313128
    vertex 137.35051790866427 75.19520229289348 7.8524046550515525
    vertex 137.3078368813203 76.01215992731633 8.480133214313218
  endloop
endfacet
facet normal -0.03176073744638248 0.6079323424572746 -0.7933533402912433
  outer loop
    vertex 137.35051790866427 75.19520229289348 7.8524046550515525
    vertex 145.2969414925926 76.42954165924493 8.480133214313128
    vertex 145.3396225199366 75.61258402482208 7.852404655051462
  endloop
endfacet
facet normal 0.0068099060213462365 -0.13034842551964834 -0.9914448613738079
  outer loop
    vertex 145.44266363500648 73.64027382391424 7.323205000000009
    vertex 137.5068970297515 72.2019492062958 7.457797986158298
    vertex 137.45355902373416 73.22289209198564 7.323205000000099
  endloop
endfacet
facet normal 0.0068099060213462365 -0.13034842551964834 -0.9914448613738079
  outer loop
    vertex 137.5068970297515 72.2019492062958 7.457797986158298
    vertex 145.44266363500648 73.64027382391424 7.323205000000009
    vertex 145.49600164102384 72.6193309382244 7.457797986158209
  endloop
endfacet
facet normal 0.05172637166898814 -0.9900945892279658 -0.1305261922200578
  outer loop
    vertex 145.64874586514628 69.69565342209854 11.273205000000013
    vertex 137.65261917216543 69.4126813709651 10.250869771845139
    vertex 145.64172378343775 69.8300631028937 10.250869771845048
  endloop
endfacet
facet normal 0.05172637166898814 -0.9900945892279658 -0.1305261922200578
  outer loop
    vertex 137.65261917216543 69.4126813709651 10.250869771845139
    vertex 145.64874586514628 69.69565342209854 11.273205000000013
    vertex 137.65964125387396 69.27827169016993 11.273205000000104
  endloop
endfacet
facet normal 0.01996563422260371 -0.38216224677065397 -0.9238795325112983
  outer loop
    vertex 145.49600164102384 72.6193309382244 7.457797986158209
    vertex 137.55660013880404 71.2505818910778 7.8524046550515525
    vertex 137.5068970297515 72.2019492062958 7.457797986158298
  endloop
endfacet
facet normal 0.01996563422260371 -0.38216224677065397 -0.9238795325112983
  outer loop
    vertex 137.55660013880404 71.2505818910778 7.8524046550515525
    vertex 145.49600164102384 72.6193309382244 7.457797986158209
    vertex 145.54570475007634 71.6679636230064 7.852404655051462
  endloop
endfacet
facet normal -0.05172637166898813 0.9900945892279658 0.13052619222005782
  outer loop
    vertex 137.24747679359444 77.16751249380134 11.273205000000104
    vertex 145.2436034865753 77.4504845449348 12.295540228154977
    vertex 145.23658140486677 77.58489422572995 11.273205000000013
  endloop
endfacet
facet normal -0.05172637166898813 0.9900945892279658 0.13052619222005782
  outer loop
    vertex 145.2436034865753 77.4504845449348 12.295540228154977
    vertex 137.24747679359444 77.16751249380134 11.273205000000104
    vertex 137.25449887530297 77.03310281300618 12.295540228155067
  endloop
endfacet
facet normal 0.051726371668991064 -0.9900945892279656 0.13052619222005776
  outer loop
    vertex 145.64172378343775 69.8300631028937 12.295540228154977
    vertex 137.65964125387396 69.27827169016993 11.273205000000104
    vertex 145.64874586514628 69.69565342209854 11.273205000000013
  endloop
endfacet
facet normal 0.051726371668991064 -0.9900945892279656 0.13052619222005776
  outer loop
    vertex 137.65964125387396 69.27827169016993 11.273205000000104
    vertex 145.64172378343775 69.8300631028937 12.295540228154977
    vertex 137.65261917216543 69.4126813709651 12.295540228155067
  endloop
endfacet
facet normal -0.05172637166899107 0.9900945892279656 -0.1305261922200578
  outer loop
    vertex 137.25449887530297 77.03310281300618 10.250869771845139
    vertex 145.23658140486677 77.58489422572995 11.273205000000013
    vertex 145.2436034865753 77.4504845449348 10.250869771845048
  endloop
endfacet
facet normal -0.05172637166899107 0.9900945892279656 -0.1305261922200578
  outer loop
    vertex 145.23658140486677 77.58489422572995 11.273205000000013
    vertex 137.25449887530297 77.03310281300618 10.250869771845139
    vertex 137.24747679359444 77.16751249380134 11.273205000000104
  endloop
endfacet
facet normal 0.03176073744636461 -0.6079323424572757 -0.7933533402912432
  outer loop
    vertex 145.54570475007634 71.6679636230064 7.852404655051462
    vertex 137.59928116614802 70.43362425665495 8.480133214313218
    vertex 137.55660013880404 71.2505818910778 7.8524046550515525
  endloop
endfacet
facet normal 0.03176073744636461 -0.6079323424572757 -0.7933533402912432
  outer loop
    vertex 137.59928116614802 70.43362425665495 8.480133214313218
    vertex 145.54570475007634 71.6679636230064 7.852404655051462
    vertex 145.58838577742034 70.85100598858355 8.480133214313128
  endloop
endfacet
facet normal 0.04139139890025639 -0.792272853661138 -0.6087614290087022
  outer loop
    vertex 145.62113608157608 70.22413234765548 9.298205000000012
    vertex 137.59928116614802 70.43362425665495 8.480133214313218
    vertex 145.58838577742034 70.85100598858355 8.480133214313128
  endloop
endfacet
facet normal 0.04139139890025639 -0.792272853661138 -0.6087614290087022
  outer loop
    vertex 137.59928116614802 70.43362425665495 8.480133214313218
    vertex 145.62113608157608 70.22413234765548 9.298205000000012
    vertex 137.63203147030376 69.80675061572687 9.2982050000001
  endloop
endfacet
facet normal 0.04820130492161441 -0.9226212791807487 -0.38268343236509866
  outer loop
    vertex 145.64172378343775 69.8300631028937 10.250869771845048
    vertex 137.63203147030376 69.80675061572687 9.2982050000001
    vertex 145.62113608157608 70.22413234765548 9.298205000000012
  endloop
endfacet
facet normal 0.04820130492161441 -0.9226212791807487 -0.38268343236509866
  outer loop
    vertex 137.63203147030376 69.80675061572687 9.2982050000001
    vertex 145.64172378343775 69.8300631028937 10.250869771845048
    vertex 137.65261917216543 69.4126813709651 10.250869771845139
  endloop
endfacet
facet normal 0.04820130492162306 -0.9226212791807488 0.3826834323650966
  outer loop
    vertex 145.6211360815761 70.22413234765548 13.248205000000015
    vertex 137.65261917216543 69.4126813709651 12.295540228155067
    vertex 145.64172378343775 69.8300631028937 12.295540228154977
  endloop
endfacet
facet normal 0.04820130492162306 -0.9226212791807488 0.3826834323650966
  outer loop
    vertex 137.65261917216543 69.4126813709651 12.295540228155067
    vertex 145.6211360815761 70.22413234765548 13.248205000000015
    vertex 137.63203147030382 69.80675061572687 13.248205000000105
  endloop
endfacet
facet normal -0.006809906021368573 0.13034842551964718 -0.9914448613738079
  outer loop
    vertex 145.3893256289891 74.6612167096041 7.457797986158209
    vertex 137.45355902373416 73.22289209198564 7.323205000000099
    vertex 137.40022101771677 74.24383497767549 7.457797986158298
  endloop
endfacet
facet normal -0.006809906021368573 0.13034842551964718 -0.9914448613738079
  outer loop
    vertex 137.45355902373416 73.22289209198564 7.323205000000099
    vertex 145.3893256289891 74.6612167096041 7.457797986158209
    vertex 145.44266363500648 73.64027382391424 7.323205000000009
  endloop
endfacet
facet normal 0.019965634222624404 -0.3821622467706506 0.9238795325112994
  outer loop
    vertex 137.55660013880413 71.2505818910778 14.694005344948653
    vertex 145.49600164102392 72.6193309382244 15.088612013841814
    vertex 137.50689702975163 72.2019492062958 15.088612013841905
  endloop
endfacet
facet normal 0.019965634222624404 -0.3821622467706506 0.9238795325112994
  outer loop
    vertex 145.49600164102392 72.6193309382244 15.088612013841814
    vertex 137.55660013880413 71.2505818910778 14.694005344948653
    vertex 145.54570475007642 71.6679636230064 14.694005344948565
  endloop
endfacet
facet normal 0.006809906021368713 -0.1303484255196499 0.9914448613738077
  outer loop
    vertex 137.50689702975163 72.2019492062958 15.088612013841905
    vertex 145.44266363500657 73.64027382391424 15.223205000000018
    vertex 137.45355902373424 73.22289209198564 15.223205000000107
  endloop
endfacet
facet normal 0.006809906021368713 -0.1303484255196499 0.9914448613738077
  outer loop
    vertex 145.44266363500657 73.64027382391424 15.223205000000018
    vertex 137.50689702975163 72.2019492062958 15.088612013841905
    vertex 145.49600164102392 72.6193309382244 15.088612013841814
  endloop
endfacet
facet normal -0.18207479718879407 0.9832846832065775 7.652744607120569e-19
  outer loop
    vertex 144.9232668945415 83.58204792877216 33.633205
    vertex 147.38147860255768 84.03723492174409 7.57922552957387
    vertex 144.9232668945415 83.58204792877216 7.37864805492421
  endloop
endfacet
facet normal -0.18207479718879407 0.9832846832065775 7.652744607120569e-19
  outer loop
    vertex 147.38147860255768 84.03723492174409 7.57922552957387
    vertex 144.9232668945415 83.58204792877216 33.633205
    vertex 147.38147860255765 84.03723492174409 33.633205
  endloop
endfacet
facet normal 0.008494592016309747 -0.20593378662897344 -0.9785290580412668
  outer loop
    vertex 147.91790010807608 73.76958975308706 3.633205000000009
    vertex 145.79436990778467 66.90826331477574 5.0587509922911975
    vertex 145.44266363500648 73.64027382391424 3.633205000000009
  endloop
endfacet
facet normal 0.008494592016309747 -0.20593378662897344 -0.9785290580412668
  outer loop
    vertex 145.79436990778467 66.90826331477574 5.0587509922911975
    vertex 147.91790010807608 73.76958975308706 3.633205000000009
    vertex 148.26932597310886 67.04294652919533 5.046164266133459
  endloop
endfacet
facet normal -0.03735169816889825 0.5819114890580275 -0.812393912794876
  outer loop
    vertex 147.38147860255768 84.03723492174409 7.57922552957387
    vertex 145.09095736222824 80.37228433305276 5.058750992291201
    vertex 144.9232668945415 83.58204792877216 7.37864805492421
  endloop
endfacet
facet normal -0.03735169816889825 0.5819114890580275 -0.812393912794876
  outer loop
    vertex 145.09095736222824 80.37228433305276 5.058750992291201
    vertex 147.38147860255768 84.03723492174409 7.57922552957387
    vertex 147.56647424304327 80.4962329769788 5.046164266133454
  endloop
endfacet
facet normal -0.013010637189325895 0.2056978509581441 -0.9785290580412668
  outer loop
    vertex 147.56647424304327 80.4962329769788 5.046164266133454
    vertex 145.44266363500648 73.64027382391424 3.633205000000009
    vertex 145.09095736222824 80.37228433305276 5.058750992291201
  endloop
endfacet
facet normal -0.013010637189325895 0.2056978509581441 -0.9785290580412668
  outer loop
    vertex 145.44266363500648 73.64027382391424 3.633205000000009
    vertex 147.56647424304327 80.4962329769788 5.046164266133454
    vertex 147.91790010807608 73.76958975308706 3.633205000000009
  endloop
endfacet
facet normal 0.023488754450761387 -0.5826357428687169 -0.8123939127948772
  outer loop
    vertex 148.26932597310886 67.04294652919533 5.046164266133459
    vertex 145.96206037547145 63.69849971905634 7.37864805492422
    vertex 145.79436990778467 66.90826331477574 5.0587509922911975
  endloop
endfacet
facet normal 0.023488754450761387 -0.5826357428687169 -0.8123939127948772
  outer loop
    vertex 145.96206037547145 63.69849971905634 7.37864805492422
    vertex 148.26932597310886 67.04294652919533 5.046164266133459
    vertex 148.4543216135944 63.50194458443005 7.57922552957388
  endloop
endfacet
endsolid Gun_Platform_WithWheels
