solid Sentry_Leg
facet normal 0.09071834578593006 0.9025707080931462 -0.4208756332102168
  outer loop
    vertex 31.432633402763035 93.9914310703762 72.80595899999997
    vertex 34.03239298602499 67.4449334954266 16.437180784391217
    vertex 31.432633402761113 67.44493349542675 15.876811235230745
  endloop
endfacet
facet normal 0.09071834578593006 0.9025707080931462 -0.4208756332102168
  outer loop
    vertex 34.03239298602499 67.4449334954266 16.437180784391217
    vertex 31.432633402763035 93.9914310703762 72.80595899999997
    vertex 34.03239298602682 93.73012645820558 72.80595899999997
  endloop
endfacet
facet normal 0.17012463485061424 -0.893096133607062 0.4164575665695871
  outer loop
    vertex 34.8060173030778 72.4316002765102 72.80595899999997
    vertex 32.233548230790305 47.37590904983252 20.12472000000004
    vertex 34.806017303075976 47.86593508971641 20.124720000000032
  endloop
endfacet
facet normal 0.17012463485061424 -0.893096133607062 0.4164575665695871
  outer loop
    vertex 32.233548230790305 47.37590904983252 20.12472000000004
    vertex 34.8060173030778 72.4316002765102 72.80595899999997
    vertex 32.23354823079212 71.94157423662627 72.80595899999997
  endloop
endfacet
facet normal 1.0 -7.518398053301163e-14 -1.3442298219719686e-27
  outer loop
    vertex 62.02017081677343 67.44493349542448 4.024944000000006
    vertex 62.020170816768896 7.070773495424981 20.124720000000128
    vertex 62.020170816768896 7.070773495424124 4.024944000000006
  endloop
endfacet
facet normal 1.0 -7.518398053301163e-14 -1.3442298219719686e-27
  outer loop
    vertex 62.020170816768896 7.070773495424981 20.124720000000128
    vertex 62.02017081677343 67.44493349542448 4.024944000000006
    vertex 62.020170816770914 33.90373349542353 13.416480000000103
  endloop
endfacet
facet normal 1.0 -7.518398053301163e-14 -1.3442298219719686e-27
  outer loop
    vertex 62.020170816770914 33.90373349542353 13.416480000000103
    vertex 62.02017081677343 67.44493349542448 4.024944000000006
    vertex 62.02017081677142 40.61197349542345 13.416480000000103
  endloop
endfacet
facet normal 1.0 -7.518398053301163e-14 -1.3442298219719686e-27
  outer loop
    vertex 62.02017081677142 40.61197349542345 13.416480000000103
    vertex 62.02017081677343 67.44493349542448 4.024944000000006
    vertex 62.02017081677142 40.61197349542345 20.124720000000128
  endloop
endfacet
facet normal 1.0 -7.518398053301163e-14 -1.3442298219719686e-27
  outer loop
    vertex 62.02017081677142 40.61197349542345 20.124720000000128
    vertex 62.02017081677343 67.44493349542448 4.024944000000006
    vertex 62.02017081677343 67.44493349542375 20.124720000000128
  endloop
endfacet
facet normal 1.0 -7.518398053301163e-14 -1.3442298219719686e-27
  outer loop
    vertex 62.020170816770914 33.90373349542353 20.124720000000128
    vertex 62.020170816768896 7.070773495424981 20.124720000000128
    vertex 62.020170816770914 33.90373349542353 13.416480000000103
  endloop
endfacet
facet normal 6.91824053491291e-14 1.0 3.309232863332827e-16
  outer loop
    vertex 1.6460108167792142 67.4449334954282 20.124720000000128
    vertex 62.02017081677343 67.44493349542448 4.024944000000006
    vertex 1.6460108167750633 67.4449334954282 4.024944000000006
  endloop
endfacet
facet normal 6.91824053491291e-14 1.0 3.309232863332827e-16
  outer loop
    vertex 62.02017081677343 67.44493349542448 4.024944000000006
    vertex 1.6460108167792142 67.4449334954282 20.124720000000128
    vertex 31.432633402761113 67.44493349542675 15.876811235230745
  endloop
endfacet
facet normal 6.91824053491291e-14 1.0 3.309232863332827e-16
  outer loop
    vertex 31.432633402761113 67.44493349542675 15.876811235230745
    vertex 1.6460108167792142 67.4449334954282 20.124720000000128
    vertex 28.860164330475254 67.44493349542695 16.92767546899276
  endloop
endfacet
facet normal 6.91824053491291e-14 1.0 3.309232863332827e-16
  outer loop
    vertex 28.860164330475254 67.44493349542695 16.92767546899276
    vertex 1.6460108167792142 67.4449334954282 20.124720000000128
    vertex 26.49029528523749 67.44493349542711 19.51815882478025
  endloop
endfacet
facet normal 6.91824053491291e-14 1.0 3.309232863332827e-16
  outer loop
    vertex 26.49029528523749 67.44493349542711 19.51815882478025
    vertex 1.6460108167792142 67.4449334954282 20.124720000000128
    vertex 26.1825679803526 67.44493349542715 20.124720000000128
  endloop
endfacet
facet normal 6.91824053491291e-14 1.0 3.309232863332827e-16
  outer loop
    vertex 31.432633402761113 67.44493349542675 15.876811235230745
    vertex 62.02017081677343 67.44493349542375 20.124720000000128
    vertex 62.02017081677343 67.44493349542448 4.024944000000006
  endloop
endfacet
facet normal 6.91824053491291e-14 1.0 3.309232863332827e-16
  outer loop
    vertex 62.02017081677343 67.44493349542375 20.124720000000128
    vertex 31.432633402761113 67.44493349542675 15.876811235230745
    vertex 34.03239298602499 67.4449334954266 16.437180784391217
  endloop
endfacet
facet normal 6.91824053491291e-14 1.0 3.309232863332827e-16
  outer loop
    vertex 62.02017081677343 67.44493349542375 20.124720000000128
    vertex 34.03239298602499 67.4449334954266 16.437180784391217
    vertex 36.4822737609732 67.4449334954264 18.570595857752046
  endloop
endfacet
facet normal 6.91824053491291e-14 1.0 3.309232863332827e-16
  outer loop
    vertex 62.02017081677343 67.44493349542375 20.124720000000128
    vertex 36.4822737609732 67.4449334954264 18.570595857752046
    vertex 37.413178664503576 67.44493349542553 20.12472000000004
  endloop
endfacet
facet normal -0.09071834578586023 -0.9025707080931521 0.42087563321021976
  outer loop
    vertex 32.23354823079212 71.94157423662627 72.80595899999997
    vertex 29.633788647526607 47.637213662002885 20.12472000000004
    vertex 32.233548230790305 47.37590904983252 20.12472000000004
  endloop
endfacet
facet normal -0.09071834578586023 -0.9025707080931521 0.42087563321021976
  outer loop
    vertex 29.633788647526607 47.637213662002885 20.12472000000004
    vertex 32.23354823079212 71.94157423662627 72.80595899999997
    vertex 29.633788647528245 72.20287884879667 72.80595899999997
  endloop
endfacet
facet normal -0.7683386472230449 -0.5800764373265587 0.27049408504066913
  outer loop
    vertex 25.050861232140853 74.85826172718588 72.80595899999997
    vertex 23.38001232972874 52.505714851676565 20.12472000000004
    vertex 25.050861232139038 50.29259654039205 20.12472000000004
  endloop
endfacet
facet normal -0.7683386472230449 -0.5800764373265587 0.27049408504066913
  outer loop
    vertex 23.38001232972874 52.505714851676565 20.12472000000004
    vertex 25.050861232140853 74.85826172718588 72.80595899999997
    vertex 23.380012329730466 77.0713800384704 72.80595899999997
  endloop
endfacet
facet normal -0.7683386472230449 -0.5800764373265587 0.27049408504066913
  outer loop
    vertex 23.380012329730466 77.0713800384704 72.80595899999997
    vertex 25.050861232140853 74.85826172718588 72.80595899999997
    vertex 23.422047705741356 77.01570219696286 72.80595899999997
  endloop
endfacet
facet normal -0.5765026868459674 -0.7405397903140009 0.3453193753919352
  outer loop
    vertex 27.183907872580043 73.19770663552819 72.80595899999997
    vertex 25.050861232139038 50.29259654039205 20.12472000000004
    vertex 27.183907872578402 48.63204144873441 20.12472000000004
  endloop
endfacet
facet normal -0.5765026868459674 -0.7405397903140009 0.3453193753919352
  outer loop
    vertex 25.050861232139038 50.29259654039205 20.12472000000004
    vertex 27.183907872580043 73.19770663552819 72.80595899999997
    vertex 25.050861232140853 74.85826172718588 72.80595899999997
  endloop
endfacet
facet normal 0.0 0.0 -1.0
  outer loop
    vertex 5.670954816779071 63.41998949542784 0.0
    vertex 57.99522681676959 11.09571749542539 0.0
    vertex 5.670954816775134 11.095717495429282 0.0
  endloop
endfacet
facet normal 0.0 0.0 -1.0
  outer loop
    vertex 57.99522681676959 11.09571749542539 0.0
    vertex 5.670954816779071 63.41998949542784 0.0
    vertex 57.995226816773425 63.419989495423955 0.0
  endloop
endfacet
facet normal 1.0 -7.451678163405973e-14 0.0
  outer loop
    vertex 59.00146281677229 40.6119734954237 13.416480000000103
    vertex 59.00146281677179 33.90373349542378 17.10601199999999
    vertex 59.00146281677179 33.90373349542378 13.416480000000103
  endloop
endfacet
facet normal 1.0 -7.451678163405973e-14 0.0
  outer loop
    vertex 59.00146281677179 33.90373349542378 17.10601199999999
    vertex 59.00146281677229 40.6119734954237 13.416480000000103
    vertex 59.00146281677229 40.6119734954237 17.10601199999999
  endloop
endfacet
facet normal 0.6400435322564624 -0.6963512990595372 0.3247139435176227
  outer loop
    vertex 39.18165270746481 50.91747510168505 20.12472000000004
    vertex 37.175886348315665 73.63956250363668 72.80595899999997
    vertex 37.175886348313846 49.073897316842896 20.124720000000032
  endloop
endfacet
facet normal 0.6400435322564624 -0.6963512990595372 0.3247139435176227
  outer loop
    vertex 37.175886348315665 73.63956250363668 72.80595899999997
    vertex 39.18165270746481 50.91747510168505 20.12472000000004
    vertex 39.18165270746654 75.48314028847884 72.80595899999997
  endloop
endfacet
facet normal 0.9958765896123136 -0.08221874321294449 0.038339229604042006
  outer loop
    vertex 41.825069292512005 58.84269333481566 20.12472000000004
    vertex 41.58824688771479 80.53984120282527 72.80595899999997
    vertex 41.58824688771297 55.97417601603144 20.12472000000004
  endloop
endfacet
facet normal 0.9958765896123136 -0.08221874321294449 0.038339229604042006
  outer loop
    vertex 41.58824688771479 80.53984120282527 72.80595899999997
    vertex 41.825069292512005 58.84269333481566 20.12472000000004
    vertex 41.82506929251374 83.40835852160959 72.80595899999997
  endloop
endfacet
facet normal -0.34537902107615864 -0.8505365803913301 0.39661172097745306
  outer loop
    vertex 29.633788647528245 72.20287884879667 72.80595899999997
    vertex 27.183907872578402 48.63204144873441 20.12472000000004
    vertex 29.633788647526607 47.637213662002885 20.12472000000004
  endloop
endfacet
facet normal -0.34537902107615864 -0.8505365803913301 0.39661172097745306
  outer loop
    vertex 27.183907872578402 48.63204144873441 20.12472000000004
    vertex 29.633788647528245 72.20287884879667 72.80595899999997
    vertex 27.183907872580043 73.19770663552819 72.80595899999997
  endloop
endfacet
facet normal 0.817095252745561 -0.5224888743360998 0.243640563403681
  outer loop
    vertex 40.68662671783768 53.2710316648629 20.12472000000004
    vertex 39.18165270746654 75.48314028847884 72.80595899999997
    vertex 39.18165270746481 50.91747510168505 20.12472000000004
  endloop
endfacet
facet normal 0.817095252745561 -0.5224888743360998 0.243640563403681
  outer loop
    vertex 39.18165270746654 75.48314028847884 72.80595899999997
    vertex 40.68662671783768 53.2710316648629 20.12472000000004
    vertex 40.6866267178395 77.83669685165674 72.80595899999997
  endloop
endfacet
facet normal 0.817095252745561 -0.5224888743360998 0.243640563403681
  outer loop
    vertex 39.18165270746654 75.48314028847884 72.80595899999997
    vertex 40.6866267178395 77.83669685165674 72.80595899999997
    vertex 40.16164438374118 77.01570219696274 72.80595899999999
  endloop
endfacet
facet normal -0.6400435322565771 0.6963512990594513 -0.3247139435175809
  outer loop
    vertex 24.484528926088974 90.44986501852308 72.80595899999997
    vertex 26.1825679803526 67.44493349542715 20.124720000000128
    vertex 24.484528926086888 65.88419983172929 20.12472000000004
  endloop
endfacet
facet normal -0.6400435322565771 0.6963512990594513 -0.3247139435175809
  outer loop
    vertex 26.1825679803526 67.44493349542715 20.124720000000128
    vertex 26.490295285239313 92.29344280336542 72.80595899999997
    vertex 26.49029528523749 67.44493349542711 19.51815882478025
  endloop
endfacet
facet normal -0.6400435322565771 0.6963512990594513 -0.3247139435175809
  outer loop
    vertex 26.490295285239313 92.29344280336542 72.80595899999997
    vertex 26.1825679803526 67.44493349542715 20.124720000000128
    vertex 24.484528926088974 90.44986501852308 72.80595899999997
  endloop
endfacet
facet normal -0.41937390276629555 0.822758533526794 -0.3836586049959067
  outer loop
    vertex 26.49029528523749 67.44493349542711 19.51815882478025
    vertex 28.860164330477172 93.501405030492 72.80595899999999
    vertex 28.860164330475254 67.44493349542695 16.92767546899276
  endloop
endfacet
facet normal -0.41937390276629555 0.822758533526794 -0.3836586049959067
  outer loop
    vertex 28.860164330477172 93.501405030492 72.80595899999999
    vertex 26.49029528523749 67.44493349542711 19.51815882478025
    vertex 26.490295285239313 92.29344280336542 72.80595899999997
  endloop
endfacet
facet normal -0.17012463485070237 0.893096133607048 -0.4164575665695811
  outer loop
    vertex 28.860164330475254 67.44493349542695 16.92767546899276
    vertex 31.432633402763035 93.9914310703762 72.80595899999997
    vertex 31.432633402761113 67.44493349542675 15.876811235230745
  endloop
endfacet
facet normal -0.17012463485070237 0.893096133607048 -0.4164575665695811
  outer loop
    vertex 31.432633402763035 93.9914310703762 72.80595899999997
    vertex 28.860164330475254 67.44493349542695 16.92767546899276
    vertex 28.860164330477172 93.501405030492 72.80595899999999
  endloop
endfacet
facet normal 0.419373902766265 -0.822758533526807 0.38365860499591226
  outer loop
    vertex 37.175886348315665 73.63956250363668 72.80595899999997
    vertex 34.806017303075976 47.86593508971641 20.124720000000032
    vertex 37.175886348313846 49.073897316842896 20.124720000000032
  endloop
endfacet
facet normal 0.419373902766265 -0.822758533526807 0.38365860499591226
  outer loop
    vertex 34.806017303075976 47.86593508971641 20.124720000000032
    vertex 37.175886348315665 73.63956250363668 72.80595899999997
    vertex 34.8060173030778 72.4316002765102 72.80595899999997
  endloop
endfacet
facet normal 1.0 -5.707558261519488e-14 -2.1298925170003294e-13
  outer loop
    vertex 57.995226816773425 63.419989495423955 0.0
    vertex 57.99522681677131 11.09571749542539 4.024944000000006
    vertex 57.99522681676959 11.09571749542539 0.0
  endloop
endfacet
facet normal 1.0 -5.707558261519488e-14 -2.1298925170003294e-13
  outer loop
    vertex 57.99522681677131 11.09571749542539 4.024944000000006
    vertex 57.995226816773425 63.419989495423955 0.0
    vertex 57.995226816773425 63.41998949542486 4.024944000000006
  endloop
endfacet
facet normal -1.0 7.518398053301297e-14 -1.0313163766528178e-12
  outer loop
    vertex 5.67095481677492 63.41998949542784 4.024944000000006
    vertex 5.670954816775134 11.095717495429282 0.0
    vertex 5.670954816770983 11.095717495429282 4.024944000000006
  endloop
endfacet
facet normal -1.0 7.518398053301297e-14 -1.0313163766528178e-12
  outer loop
    vertex 5.670954816775134 11.095717495429282 0.0
    vertex 5.67095481677492 63.41998949542784 4.024944000000006
    vertex 5.670954816779071 63.41998949542784 0.0
  endloop
endfacet
facet normal -1.0 7.518398053301214e-14 2.4783571842044475e-13
  outer loop
    vertex 1.6460108167792142 67.4449334954282 20.124720000000128
    vertex 1.6460108167772065 40.61197349542798 13.416480000000103
    vertex 1.6460108167772065 40.61197349542798 20.124720000000128
  endloop
endfacet
facet normal -1.0 7.518398053301214e-14 2.4783571842044475e-13
  outer loop
    vertex 1.646010816776699 33.903733495428064 20.124720000000128
    vertex 1.6460108167705287 7.070773495429471 4.024944000000006
    vertex 1.6460108167746799 7.070773495429471 20.124720000000128
  endloop
endfacet
facet normal -1.0 7.518398053301214e-14 2.4783571842044475e-13
  outer loop
    vertex 1.6460108167705287 7.070773495429471 4.024944000000006
    vertex 1.646010816776699 33.903733495428064 20.124720000000128
    vertex 1.646010816776699 33.903733495428064 13.416480000000103
  endloop
endfacet
facet normal -1.0 7.518398053301214e-14 2.4783571842044475e-13
  outer loop
    vertex 1.6460108167705287 7.070773495429471 4.024944000000006
    vertex 1.646010816776699 33.903733495428064 13.416480000000103
    vertex 1.6460108167750633 67.4449334954282 4.024944000000006
  endloop
endfacet
facet normal -1.0 7.518398053301214e-14 2.4783571842044475e-13
  outer loop
    vertex 1.6460108167750633 67.4449334954282 4.024944000000006
    vertex 1.646010816776699 33.903733495428064 13.416480000000103
    vertex 1.6460108167772065 40.61197349542798 13.416480000000103
  endloop
endfacet
facet normal -1.0 7.518398053301214e-14 2.4783571842044475e-13
  outer loop
    vertex 1.6460108167750633 67.4449334954282 4.024944000000006
    vertex 1.6460108167772065 40.61197349542798 13.416480000000103
    vertex 1.6460108167792142 67.4449334954282 20.124720000000128
  endloop
endfacet
facet normal -8.153629154863108e-14 -1.0 2.6623656462514133e-14
  outer loop
    vertex 62.020170816768896 7.070773495424981 20.124720000000128
    vertex 1.6460108167705287 7.070773495429471 4.024944000000006
    vertex 62.020170816768896 7.070773495424124 4.024944000000006
  endloop
endfacet
facet normal -8.153629154863108e-14 -1.0 2.6623656462514133e-14
  outer loop
    vertex 1.6460108167705287 7.070773495429471 4.024944000000006
    vertex 62.020170816768896 7.070773495424981 20.124720000000128
    vertex 1.6460108167746799 7.070773495429471 20.124720000000128
  endloop
endfacet
facet normal 0.0 0.0 1.0
  outer loop
    vertex 62.020170816768896 7.070773495424981 20.124720000000128
    vertex 1.646010816776699 33.903733495428064 20.124720000000128
    vertex 1.6460108167746799 7.070773495429471 20.124720000000128
  endloop
endfacet
facet normal 0.0 0.0 1.0
  outer loop
    vertex 1.646010816776699 33.903733495428064 20.124720000000128
    vertex 62.020170816768896 7.070773495424981 20.124720000000128
    vertex 62.020170816770914 33.90373349542353 20.124720000000128
  endloop
endfacet
facet normal -0.938463282073658 0.31301969628044635 -0.14596348152889077
  outer loop
    vertex 22.077934745840725 85.39316410417692 72.80595899999997
    vertex 22.979554915714107 63.530643268551636 20.12472000000004
    vertex 22.077934745838903 60.82749891738308 20.12472000000004
  endloop
endfacet
facet normal -0.938463282073658 0.31301969628044635 -0.14596348152889077
  outer loop
    vertex 22.979554915714107 63.530643268551636 20.12472000000004
    vertex 22.077934745840725 85.39316410417692 72.80595899999997
    vertex 22.97955491571602 88.09630845534532 72.80595899999997
  endloop
endfacet
facet normal 0.3453790210761813 0.8505365803913224 -0.3966117209774501
  outer loop
    vertex 34.03239298602682 93.73012645820558 72.80595899999997
    vertex 36.4822737609732 67.4449334954264 18.570595857752046
    vertex 34.03239298602499 67.4449334954266 16.437180784391217
  endloop
endfacet
facet normal 0.3453790210761813 0.8505365803913224 -0.3966117209774501
  outer loop
    vertex 36.4822737609732 67.4449334954264 18.570595857752046
    vertex 34.03239298602682 93.73012645820558 72.80595899999997
    vertex 36.48227376097493 92.73529867147408 72.80595899999997
  endloop
endfacet
facet normal 0.9854225533327896 0.15418528133194648 -0.07189777745990415
  outer loop
    vertex 41.380954876714135 61.681098906389884 20.12472000000004
    vertex 41.82506929251374 83.40835852160959 72.80595899999997
    vertex 41.825069292512005 58.84269333481566 20.12472000000004
  endloop
endfacet
facet normal 0.9854225533327896 0.15418528133194648 -0.07189777745990415
  outer loop
    vertex 41.82506929251374 83.40835852160959 72.80595899999997
    vertex 41.380954876714135 61.681098906389884 20.12472000000004
    vertex 41.380954876716046 86.24676409318386 72.80595899999997
  endloop
endfacet
facet normal 0.9384632820736577 -0.31301969628044685 0.14596348152889219
  outer loop
    vertex 41.58824688771297 55.97417601603144 20.12472000000004
    vertex 40.6866267178395 77.83669685165674 72.80595899999997
    vertex 40.68662671783768 53.2710316648629 20.12472000000004
  endloop
endfacet
facet normal 0.9384632820736577 -0.31301969628044685 0.14596348152889219
  outer loop
    vertex 40.6866267178395 77.83669685165674 72.80595899999997
    vertex 41.58824688771297 55.97417601603144 20.12472000000004
    vertex 41.58824688771479 80.53984120282527 72.80595899999997
  endloop
endfacet
facet normal 0.7683386472230531 0.5800764373265498 -0.27049408504066424
  outer loop
    vertex 38.61532040141275 66.50907839302252 20.12472000000004
    vertex 40.28616930382478 88.8616252685318 72.80595899999996
    vertex 40.28616930382314 64.29596008173787 20.12472000000004
  endloop
endfacet
facet normal 0.7683386472230531 0.5800764373265498 -0.27049408504066424
  outer loop
    vertex 40.28616930382478 88.8616252685318 72.80595899999996
    vertex 38.61532040141275 66.50907839302252 20.12472000000004
    vertex 38.61532040141448 91.07474357981636 72.80595899999997
  endloop
endfacet
facet normal 0.5765026868459329 0.740539790314023 -0.3453193753919456
  outer loop
    vertex 36.48227376097493 92.73529867147408 72.80595899999997
    vertex 37.413178664503576 67.44493349542553 20.12472000000004
    vertex 36.4822737609732 67.4449334954264 18.570595857752046
  endloop
endfacet
facet normal 0.5765026868459329 0.740539790314023 -0.3453193753919456
  outer loop
    vertex 37.413178664503576 67.44493349542553 20.12472000000004
    vertex 36.48227376097493 92.73529867147408 72.80595899999997
    vertex 38.61532040141275 66.50907839302252 20.12472000000004
  endloop
endfacet
facet normal 0.5765026868459329 0.740539790314023 -0.3453193753919456
  outer loop
    vertex 38.61532040141275 66.50907839302252 20.12472000000004
    vertex 36.48227376097493 92.73529867147408 72.80595899999997
    vertex 38.61532040141448 91.07474357981636 72.80595899999997
  endloop
endfacet
facet normal 1.2155297806380175e-16 -1.2806676359951713e-16 1.0
  outer loop
    vertex 1.6460108167772065 40.61197349542798 20.124720000000128
    vertex 27.183907872578402 48.63204144873441 20.12472000000004
    vertex 1.6460108167792142 67.4449334954282 20.124720000000128
  endloop
endfacet
facet normal 1.2155297806380175e-16 -1.2806676359951713e-16 1.0
  outer loop
    vertex 27.183907872578402 48.63204144873441 20.12472000000004
    vertex 1.6460108167772065 40.61197349542798 20.124720000000128
    vertex 29.633788647526607 47.637213662002885 20.12472000000004
  endloop
endfacet
facet normal 1.2155297806380175e-16 -1.2806676359951713e-16 1.0
  outer loop
    vertex 29.633788647526607 47.637213662002885 20.12472000000004
    vertex 1.6460108167772065 40.61197349542798 20.124720000000128
    vertex 62.02017081677142 40.61197349542345 20.124720000000128
  endloop
endfacet
facet normal 1.2155297806380175e-16 -1.2806676359951713e-16 1.0
  outer loop
    vertex 1.6460108167792142 67.4449334954282 20.124720000000128
    vertex 27.183907872578402 48.63204144873441 20.12472000000004
    vertex 25.050861232139038 50.29259654039205 20.12472000000004
  endloop
endfacet
facet normal 1.2155297806380175e-16 -1.2806676359951713e-16 1.0
  outer loop
    vertex 1.6460108167792142 67.4449334954282 20.124720000000128
    vertex 25.050861232139038 50.29259654039205 20.12472000000004
    vertex 23.38001232972874 52.505714851676565 20.12472000000004
  endloop
endfacet
facet normal 1.2155297806380175e-16 -1.2806676359951713e-16 1.0
  outer loop
    vertex 1.6460108167792142 67.4449334954282 20.124720000000128
    vertex 23.38001232972874 52.505714851676565 20.12472000000004
    vertex 22.285226756837734 55.12057602702446 20.12472000000004
  endloop
endfacet
facet normal 1.2155297806380175e-16 -1.2806676359951713e-16 1.0
  outer loop
    vertex 1.6460108167792142 67.4449334954282 20.124720000000128
    vertex 22.285226756837734 55.12057602702446 20.12472000000004
    vertex 21.841112341040134 57.95898159859846 20.12472000000004
  endloop
endfacet
facet normal 1.2155297806380175e-16 -1.2806676359951713e-16 1.0
  outer loop
    vertex 29.633788647526607 47.637213662002885 20.12472000000004
    vertex 62.02017081677142 40.61197349542345 20.124720000000128
    vertex 32.233548230790305 47.37590904983252 20.12472000000004
  endloop
endfacet
facet normal 1.2155297806380175e-16 -1.2806676359951713e-16 1.0
  outer loop
    vertex 32.233548230790305 47.37590904983252 20.12472000000004
    vertex 62.02017081677142 40.61197349542345 20.124720000000128
    vertex 34.806017303075976 47.86593508971641 20.124720000000032
  endloop
endfacet
facet normal 1.2155297806380175e-16 -1.2806676359951713e-16 1.0
  outer loop
    vertex 34.806017303075976 47.86593508971641 20.124720000000032
    vertex 62.02017081677142 40.61197349542345 20.124720000000128
    vertex 37.175886348313846 49.073897316842896 20.124720000000032
  endloop
endfacet
facet normal 1.2155297806380175e-16 -1.2806676359951713e-16 1.0
  outer loop
    vertex 37.175886348313846 49.073897316842896 20.124720000000032
    vertex 62.02017081677142 40.61197349542345 20.124720000000128
    vertex 39.18165270746481 50.91747510168505 20.12472000000004
  endloop
endfacet
facet normal 1.2155297806380175e-16 -1.2806676359951713e-16 1.0
  outer loop
    vertex 39.18165270746481 50.91747510168505 20.12472000000004
    vertex 62.02017081677142 40.61197349542345 20.124720000000128
    vertex 40.68662671783768 53.2710316648629 20.12472000000004
  endloop
endfacet
facet normal 1.2155297806380175e-16 -1.2806676359951713e-16 1.0
  outer loop
    vertex 40.68662671783768 53.2710316648629 20.12472000000004
    vertex 62.02017081677142 40.61197349542345 20.124720000000128
    vertex 41.58824688771297 55.97417601603144 20.12472000000004
  endloop
endfacet
facet normal 1.2155297806380175e-16 -1.2806676359951713e-16 1.0
  outer loop
    vertex 41.58824688771297 55.97417601603144 20.12472000000004
    vertex 62.02017081677142 40.61197349542345 20.124720000000128
    vertex 41.825069292512005 58.84269333481566 20.12472000000004
  endloop
endfacet
facet normal 1.2155297806380175e-16 -1.2806676359951713e-16 1.0
  outer loop
    vertex 38.61532040141275 66.50907839302252 20.12472000000004
    vertex 62.02017081677343 67.44493349542375 20.124720000000128
    vertex 37.413178664503576 67.44493349542553 20.12472000000004
  endloop
endfacet
facet normal 1.2155297806380175e-16 -1.2806676359951713e-16 1.0
  outer loop
    vertex 62.02017081677343 67.44493349542375 20.124720000000128
    vertex 38.61532040141275 66.50907839302252 20.12472000000004
    vertex 40.28616930382314 64.29596008173787 20.12472000000004
  endloop
endfacet
facet normal 1.2155297806380175e-16 -1.2806676359951713e-16 1.0
  outer loop
    vertex 62.02017081677343 67.44493349542375 20.124720000000128
    vertex 40.28616930382314 64.29596008173787 20.12472000000004
    vertex 41.380954876714135 61.681098906389884 20.12472000000004
  endloop
endfacet
facet normal 1.2155297806380175e-16 -1.2806676359951713e-16 1.0
  outer loop
    vertex 62.02017081677343 67.44493349542375 20.124720000000128
    vertex 41.380954876714135 61.681098906389884 20.12472000000004
    vertex 41.825069292512005 58.84269333481566 20.12472000000004
  endloop
endfacet
facet normal 1.2155297806380175e-16 -1.2806676359951713e-16 1.0
  outer loop
    vertex 62.02017081677343 67.44493349542375 20.124720000000128
    vertex 41.825069292512005 58.84269333481566 20.12472000000004
    vertex 62.02017081677142 40.61197349542345 20.124720000000128
  endloop
endfacet
facet normal 1.2155297806380175e-16 -1.2806676359951713e-16 1.0
  outer loop
    vertex 1.6460108167792142 67.4449334954282 20.124720000000128
    vertex 24.484528926086888 65.88419983172929 20.12472000000004
    vertex 26.1825679803526 67.44493349542715 20.124720000000128
  endloop
endfacet
facet normal 1.2155297806380175e-16 -1.2806676359951713e-16 1.0
  outer loop
    vertex 24.484528926086888 65.88419983172929 20.12472000000004
    vertex 1.6460108167792142 67.4449334954282 20.124720000000128
    vertex 22.979554915714107 63.530643268551636 20.12472000000004
  endloop
endfacet
facet normal 1.2155297806380175e-16 -1.2806676359951713e-16 1.0
  outer loop
    vertex 22.979554915714107 63.530643268551636 20.12472000000004
    vertex 1.6460108167792142 67.4449334954282 20.124720000000128
    vertex 22.077934745838903 60.82749891738308 20.12472000000004
  endloop
endfacet
facet normal 1.2155297806380175e-16 -1.2806676359951713e-16 1.0
  outer loop
    vertex 22.077934745838903 60.82749891738308 20.12472000000004
    vertex 1.6460108167792142 67.4449334954282 20.124720000000128
    vertex 21.841112341040134 57.95898159859846 20.12472000000004
  endloop
endfacet
facet normal -0.9078135985314154 -0.3800818337570402 0.17723506980653614
  outer loop
    vertex 23.380012329730466 77.0713800384704 72.80595899999997
    vertex 22.285226756837734 55.12057602702446 20.12472000000004
    vertex 23.38001232972874 52.505714851676565 20.12472000000004
  endloop
endfacet
facet normal -0.9078135985314154 -0.3800818337570402 0.17723506980653614
  outer loop
    vertex 22.285226756837734 55.12057602702446 20.12472000000004
    vertex 23.380012329730466 77.0713800384704 72.80595899999997
    vertex 22.285226756839645 79.68624121381866 72.80595899999997
  endloop
endfacet
facet normal -0.8170952527455484 0.5224888743361176 -0.24364056340368528
  outer loop
    vertex 22.97955491571602 88.09630845534532 72.80595899999997
    vertex 24.484528926086888 65.88419983172929 20.12472000000004
    vertex 22.979554915714107 63.530643268551636 20.12472000000004
  endloop
endfacet
facet normal -0.8170952527455484 0.5224888743361176 -0.24364056340368528
  outer loop
    vertex 24.484528926086888 65.88419983172929 20.12472000000004
    vertex 22.97955491571602 88.09630845534532 72.80595899999997
    vertex 24.484528926088974 90.44986501852308 72.80595899999997
  endloop
endfacet
facet normal -0.9958765896123224 0.08221874321285867 -0.03833922960400119
  outer loop
    vertex 21.841112341041956 82.52464678539248 72.80595899999997
    vertex 22.077934745838903 60.82749891738308 20.12472000000004
    vertex 21.841112341040134 57.95898159859846 20.12472000000004
  endloop
endfacet
facet normal -0.9958765896123224 0.08221874321285867 -0.03833922960400119
  outer loop
    vertex 22.077934745838903 60.82749891738308 20.12472000000004
    vertex 21.841112341041956 82.52464678539248 72.80595899999997
    vertex 22.077934745840725 85.39316410417692 72.80595899999997
  endloop
endfacet
facet normal 0.907813598531377 0.38008183375711596 -0.17723506980657022
  outer loop
    vertex 40.28616930382314 64.29596008173787 20.12472000000004
    vertex 41.380954876716046 86.24676409318386 72.80595899999997
    vertex 41.380954876714135 61.681098906389884 20.12472000000004
  endloop
endfacet
facet normal 0.907813598531377 0.38008183375711596 -0.17723506980657022
  outer loop
    vertex 41.380954876716046 86.24676409318386 72.80595899999997
    vertex 40.28616930382314 64.29596008173787 20.12472000000004
    vertex 40.28616930382478 88.8616252685318 72.80595899999996
  endloop
endfacet
facet normal -0.9854225533327946 -0.15418528133192008 0.07189777745989318
  outer loop
    vertex 22.285226756839645 79.68624121381866 72.80595899999997
    vertex 21.841112341040134 57.95898159859846 20.12472000000004
    vertex 22.285226756837734 55.12057602702446 20.12472000000004
  endloop
endfacet
facet normal -0.9854225533327946 -0.15418528133192008 0.07189777745989318
  outer loop
    vertex 21.841112341040134 57.95898159859846 20.12472000000004
    vertex 22.285226756839645 79.68624121381866 72.80595899999997
    vertex 21.841112341041956 82.52464678539248 72.80595899999997
  endloop
endfacet
facet normal -7.451678163405973e-14 -1.0 0.0
  outer loop
    vertex 62.02017081677142 40.61197349542345 20.124720000000128
    vertex 59.00146281677229 40.6119734954237 13.416480000000103
    vertex 62.02017081677142 40.61197349542345 13.416480000000103
  endloop
endfacet
facet normal -7.451678163405973e-14 -1.0 0.0
  outer loop
    vertex 59.00146281677229 40.6119734954237 13.416480000000103
    vertex 62.02017081677142 40.61197349542345 20.124720000000128
    vertex 59.00146281677229 40.6119734954237 17.10601199999999
  endloop
endfacet
facet normal -7.451678163405973e-14 -1.0 0.0
  outer loop
    vertex 59.00146281677229 40.6119734954237 17.10601199999999
    vertex 62.02017081677142 40.61197349542345 20.124720000000128
    vertex 4.664718816776958 40.61197349542773 17.10601199999999
  endloop
endfacet
facet normal -7.451678163405973e-14 -1.0 0.0
  outer loop
    vertex 4.664718816776958 40.61197349542773 17.10601199999999
    vertex 1.6460108167772065 40.61197349542798 13.416480000000103
    vertex 4.664718816776958 40.61197349542773 13.416480000000103
  endloop
endfacet
facet normal -7.451678163405973e-14 -1.0 0.0
  outer loop
    vertex 1.6460108167772065 40.61197349542798 13.416480000000103
    vertex 4.664718816776958 40.61197349542773 17.10601199999999
    vertex 1.6460108167772065 40.61197349542798 20.124720000000128
  endloop
endfacet
facet normal -7.451678163405973e-14 -1.0 0.0
  outer loop
    vertex 1.6460108167772065 40.61197349542798 20.124720000000128
    vertex 4.664718816776958 40.61197349542773 17.10601199999999
    vertex 62.02017081677142 40.61197349542345 20.124720000000128
  endloop
endfacet
facet normal 6.56986292427296e-14 1.0 -1.120996061578852e-13
  outer loop
    vertex 5.67095481677492 63.41998949542784 4.024944000000006
    vertex 57.995226816773425 63.419989495423955 0.0
    vertex 5.670954816779071 63.41998949542784 0.0
  endloop
endfacet
facet normal 6.56986292427296e-14 1.0 -1.120996061578852e-13
  outer loop
    vertex 57.995226816773425 63.419989495423955 0.0
    vertex 5.67095481677492 63.41998949542784 4.024944000000006
    vertex 57.995226816773425 63.41998949542486 4.024944000000006
  endloop
endfacet
facet normal 0.0 0.0 1.0
  outer loop
    vertex 59.00146281677179 33.90373349542378 17.10601199999999
    vertex 4.664718816776958 40.61197349542773 17.10601199999999
    vertex 4.664718816776451 33.903733495427815 17.10601199999999
  endloop
endfacet
facet normal 0.0 0.0 1.0
  outer loop
    vertex 4.664718816776958 40.61197349542773 17.10601199999999
    vertex 59.00146281677179 33.90373349542378 17.10601199999999
    vertex 59.00146281677229 40.6119734954237 17.10601199999999
  endloop
endfacet
facet normal -7.432167587026125e-14 -1.0 -2.007274546138182e-26
  outer loop
    vertex 57.99522681677131 11.09571749542539 4.024944000000006
    vertex 5.670954816775134 11.095717495429282 0.0
    vertex 57.99522681676959 11.09571749542539 0.0
  endloop
endfacet
facet normal -7.432167587026125e-14 -1.0 -2.007274546138182e-26
  outer loop
    vertex 5.670954816775134 11.095717495429282 0.0
    vertex 57.99522681677131 11.09571749542539 4.024944000000006
    vertex 5.670954816770983 11.095717495429282 4.024944000000006
  endloop
endfacet
facet normal 0.0 0.0 1.0
  outer loop
    vertex 62.020170816770914 33.90373349542353 13.416480000000103
    vertex 59.00146281677229 40.6119734954237 13.416480000000103
    vertex 59.00146281677179 33.90373349542378 13.416480000000103
  endloop
endfacet
facet normal 0.0 0.0 1.0
  outer loop
    vertex 59.00146281677229 40.6119734954237 13.416480000000103
    vertex 62.020170816770914 33.90373349542353 13.416480000000103
    vertex 62.02017081677142 40.61197349542345 13.416480000000103
  endloop
endfacet
facet normal 0.0 0.0 1.0
  outer loop
    vertex 4.664718816776451 33.903733495427815 13.416480000000103
    vertex 1.6460108167772065 40.61197349542798 13.416480000000103
    vertex 1.646010816776699 33.903733495428064 13.416480000000103
  endloop
endfacet
facet normal 0.0 0.0 1.0
  outer loop
    vertex 1.6460108167772065 40.61197349542798 13.416480000000103
    vertex 4.664718816776451 33.903733495427815 13.416480000000103
    vertex 4.664718816776958 40.61197349542773 13.416480000000103
  endloop
endfacet
facet normal -0.0 -0.0 -1.0
  outer loop
    vertex 1.6460108167750633 67.4449334954282 4.024944000000006
    vertex 5.67095481677492 63.41998949542784 4.024944000000006
    vertex 5.670954816770983 11.095717495429282 4.024944000000006
  endloop
endfacet
facet normal -0.0 -0.0 -1.0
  outer loop
    vertex 5.67095481677492 63.41998949542784 4.024944000000006
    vertex 1.6460108167750633 67.4449334954282 4.024944000000006
    vertex 62.02017081677343 67.44493349542448 4.024944000000006
  endloop
endfacet
facet normal -0.0 -0.0 -1.0
  outer loop
    vertex 5.67095481677492 63.41998949542784 4.024944000000006
    vertex 62.02017081677343 67.44493349542448 4.024944000000006
    vertex 57.995226816773425 63.41998949542486 4.024944000000006
  endloop
endfacet
facet normal -0.0 -0.0 -1.0
  outer loop
    vertex 57.995226816773425 63.41998949542486 4.024944000000006
    vertex 62.02017081677343 67.44493349542448 4.024944000000006
    vertex 62.020170816768896 7.070773495424124 4.024944000000006
  endloop
endfacet
facet normal -0.0 -0.0 -1.0
  outer loop
    vertex 1.6460108167705287 7.070773495429471 4.024944000000006
    vertex 5.670954816770983 11.095717495429282 4.024944000000006
    vertex 62.020170816768896 7.070773495424124 4.024944000000006
  endloop
endfacet
facet normal -0.0 -0.0 -1.0
  outer loop
    vertex 5.670954816770983 11.095717495429282 4.024944000000006
    vertex 1.6460108167705287 7.070773495429471 4.024944000000006
    vertex 1.6460108167750633 67.4449334954282 4.024944000000006
  endloop
endfacet
facet normal -0.0 -0.0 -1.0
  outer loop
    vertex 62.020170816768896 7.070773495424124 4.024944000000006
    vertex 5.670954816770983 11.095717495429282 4.024944000000006
    vertex 57.99522681677131 11.09571749542539 4.024944000000006
  endloop
endfacet
facet normal -0.0 -0.0 -1.0
  outer loop
    vertex 62.020170816768896 7.070773495424124 4.024944000000006
    vertex 57.99522681677131 11.09571749542539 4.024944000000006
    vertex 57.995226816773425 63.41998949542486 4.024944000000006
  endloop
endfacet
facet normal 2.604278044589763e-17 6.2981641096999935e-18 1.0
  outer loop
    vertex 22.285226756839645 79.68624121381866 72.80595899999997
    vertex 22.077934745840725 85.39316410417692 72.80595899999997
    vertex 21.841112341041956 82.52464678539248 72.80595899999997
  endloop
endfacet
facet normal 2.604278044589763e-17 6.2981641096999935e-18 1.0
  outer loop
    vertex 22.077934745840725 85.39316410417692 72.80595899999997
    vertex 22.285226756839645 79.68624121381866 72.80595899999997
    vertex 22.97955491571602 88.09630845534532 72.80595899999997
  endloop
endfacet
facet normal 2.604278044589763e-17 6.2981641096999935e-18 1.0
  outer loop
    vertex 22.97955491571602 88.09630845534532 72.80595899999997
    vertex 22.285226756839645 79.68624121381866 72.80595899999997
    vertex 23.380012329730466 77.0713800384704 72.80595899999997
  endloop
endfacet
facet normal 2.604278044589763e-17 6.2981641096999935e-18 1.0
  outer loop
    vertex 22.97955491571602 88.09630845534532 72.80595899999997
    vertex 23.380012329730466 77.0713800384704 72.80595899999997
    vertex 24.484528926088974 90.44986501852308 72.80595899999997
  endloop
endfacet
facet normal 2.604278044589763e-17 6.2981641096999935e-18 1.0
  outer loop
    vertex 24.484528926088974 90.44986501852308 72.80595899999997
    vertex 23.380012329730466 77.0713800384704 72.80595899999997
    vertex 23.422047705741356 77.01570219696286 72.80595899999997
  endloop
endfacet
facet normal 2.604278044589763e-17 6.2981641096999935e-18 1.0
  outer loop
    vertex 24.484528926088974 90.44986501852308 72.80595899999997
    vertex 23.422047705741356 77.01570219696286 72.80595899999997
    vertex 25.050861232140853 74.85826172718588 72.80595899999997
  endloop
endfacet
facet normal 2.604278044589763e-17 6.2981641096999935e-18 1.0
  outer loop
    vertex 24.484528926088974 90.44986501852308 72.80595899999997
    vertex 25.050861232140853 74.85826172718588 72.80595899999997
    vertex 26.490295285239313 92.29344280336542 72.80595899999997
  endloop
endfacet
facet normal 2.604278044589763e-17 6.2981641096999935e-18 1.0
  outer loop
    vertex 26.490295285239313 92.29344280336542 72.80595899999997
    vertex 25.050861232140853 74.85826172718588 72.80595899999997
    vertex 27.183907872580043 73.19770663552819 72.80595899999997
  endloop
endfacet
facet normal 2.604278044589763e-17 6.2981641096999935e-18 1.0
  outer loop
    vertex 26.490295285239313 92.29344280336542 72.80595899999997
    vertex 27.183907872580043 73.19770663552819 72.80595899999997
    vertex 28.860164330477172 93.501405030492 72.80595899999999
  endloop
endfacet
facet normal 2.604278044589763e-17 6.2981641096999935e-18 1.0
  outer loop
    vertex 28.860164330477172 93.501405030492 72.80595899999999
    vertex 27.183907872580043 73.19770663552819 72.80595899999997
    vertex 29.633788647528245 72.20287884879667 72.80595899999997
  endloop
endfacet
facet normal 2.604278044589763e-17 6.2981641096999935e-18 1.0
  outer loop
    vertex 28.860164330477172 93.501405030492 72.80595899999999
    vertex 29.633788647528245 72.20287884879667 72.80595899999997
    vertex 31.432633402763035 93.9914310703762 72.80595899999997
  endloop
endfacet
facet normal 2.604278044589763e-17 6.2981641096999935e-18 1.0
  outer loop
    vertex 31.432633402763035 93.9914310703762 72.80595899999997
    vertex 29.633788647528245 72.20287884879667 72.80595899999997
    vertex 32.23354823079212 71.94157423662627 72.80595899999997
  endloop
endfacet
facet normal 2.604278044589763e-17 6.2981641096999935e-18 1.0
  outer loop
    vertex 31.432633402763035 93.9914310703762 72.80595899999997
    vertex 32.23354823079212 71.94157423662627 72.80595899999997
    vertex 34.03239298602682 93.73012645820558 72.80595899999997
  endloop
endfacet
facet normal 2.604278044589763e-17 6.2981641096999935e-18 1.0
  outer loop
    vertex 34.03239298602682 93.73012645820558 72.80595899999997
    vertex 32.23354823079212 71.94157423662627 72.80595899999997
    vertex 34.8060173030778 72.4316002765102 72.80595899999997
  endloop
endfacet
facet normal 2.604278044589763e-17 6.2981641096999935e-18 1.0
  outer loop
    vertex 34.03239298602682 93.73012645820558 72.80595899999997
    vertex 34.8060173030778 72.4316002765102 72.80595899999997
    vertex 36.48227376097493 92.73529867147408 72.80595899999997
  endloop
endfacet
facet normal 2.604278044589763e-17 6.2981641096999935e-18 1.0
  outer loop
    vertex 36.48227376097493 92.73529867147408 72.80595899999997
    vertex 34.8060173030778 72.4316002765102 72.80595899999997
    vertex 37.175886348315665 73.63956250363668 72.80595899999997
  endloop
endfacet
facet normal 2.604278044589763e-17 6.2981641096999935e-18 1.0
  outer loop
    vertex 36.48227376097493 92.73529867147408 72.80595899999997
    vertex 37.175886348315665 73.63956250363668 72.80595899999997
    vertex 38.61532040141448 91.07474357981636 72.80595899999997
  endloop
endfacet
facet normal 2.604278044589763e-17 6.2981641096999935e-18 1.0
  outer loop
    vertex 38.61532040141448 91.07474357981636 72.80595899999997
    vertex 37.175886348315665 73.63956250363668 72.80595899999997
    vertex 39.18165270746654 75.48314028847884 72.80595899999997
  endloop
endfacet
facet normal 2.604278044589763e-17 6.2981641096999935e-18 1.0
  outer loop
    vertex 38.61532040141448 91.07474357981636 72.80595899999997
    vertex 39.18165270746654 75.48314028847884 72.80595899999997
    vertex 40.28616930382478 88.8616252685318 72.80595899999996
  endloop
endfacet
facet normal 2.604278044589763e-17 6.2981641096999935e-18 1.0
  outer loop
    vertex 40.28616930382478 88.8616252685318 72.80595899999996
    vertex 39.18165270746654 75.48314028847884 72.80595899999997
    vertex 40.16164438374118 77.01570219696274 72.80595899999999
  endloop
endfacet
facet normal 2.604278044589763e-17 6.2981641096999935e-18 1.0
  outer loop
    vertex 40.28616930382478 88.8616252685318 72.80595899999996
    vertex 40.16164438374118 77.01570219696274 72.80595899999999
    vertex 40.6866267178395 77.83669685165674 72.80595899999997
  endloop
endfacet
facet normal 2.604278044589763e-17 6.2981641096999935e-18 1.0
  outer loop
    vertex 40.28616930382478 88.8616252685318 72.80595899999996
    vertex 40.6866267178395 77.83669685165674 72.80595899999997
    vertex 41.380954876716046 86.24676409318386 72.80595899999997
  endloop
endfacet
facet normal 2.604278044589763e-17 6.2981641096999935e-18 1.0
  outer loop
    vertex 41.380954876716046 86.24676409318386 72.80595899999997
    vertex 40.6866267178395 77.83669685165674 72.80595899999997
    vertex 41.58824688771479 80.53984120282527 72.80595899999997
  endloop
endfacet
facet normal 2.604278044589763e-17 6.2981641096999935e-18 1.0
  outer loop
    vertex 41.380954876716046 86.24676409318386 72.80595899999997
    vertex 41.58824688771479 80.53984120282527 72.80595899999997
    vertex 41.82506929251374 83.40835852160959 72.80595899999997
  endloop
endfacet
facet normal -1.0 7.451678163405973e-14 0.0
  outer loop
    vertex 4.664718816776958 40.61197349542773 17.10601199999999
    vertex 4.664718816776451 33.903733495427815 13.416480000000103
    vertex 4.664718816776451 33.903733495427815 17.10601199999999
  endloop
endfacet
facet normal -1.0 7.451678163405973e-14 0.0
  outer loop
    vertex 4.664718816776451 33.903733495427815 13.416480000000103
    vertex 4.664718816776958 40.61197349542773 17.10601199999999
    vertex 4.664718816776958 40.61197349542773 13.416480000000103
  endloop
endfacet
facet normal 7.451678163405973e-14 1.0 0.0
  outer loop
    vertex 1.646010816776699 33.903733495428064 20.124720000000128
    vertex 4.664718816776451 33.903733495427815 13.416480000000103
    vertex 1.646010816776699 33.903733495428064 13.416480000000103
  endloop
endfacet
facet normal 7.451678163405973e-14 1.0 0.0
  outer loop
    vertex 4.664718816776451 33.903733495427815 13.416480000000103
    vertex 1.646010816776699 33.903733495428064 20.124720000000128
    vertex 4.664718816776451 33.903733495427815 17.10601199999999
  endloop
endfacet
facet normal 7.451678163405973e-14 1.0 0.0
  outer loop
    vertex 4.664718816776451 33.903733495427815 17.10601199999999
    vertex 1.646010816776699 33.903733495428064 20.124720000000128
    vertex 59.00146281677179 33.90373349542378 17.10601199999999
  endloop
endfacet
facet normal 7.451678163405973e-14 1.0 0.0
  outer loop
    vertex 59.00146281677179 33.90373349542378 17.10601199999999
    vertex 62.020170816770914 33.90373349542353 13.416480000000103
    vertex 59.00146281677179 33.90373349542378 13.416480000000103
  endloop
endfacet
facet normal 7.451678163405973e-14 1.0 0.0
  outer loop
    vertex 62.020170816770914 33.90373349542353 13.416480000000103
    vertex 59.00146281677179 33.90373349542378 17.10601199999999
    vertex 62.020170816770914 33.90373349542353 20.124720000000128
  endloop
endfacet
facet normal 7.451678163405973e-14 1.0 0.0
  outer loop
    vertex 62.020170816770914 33.90373349542353 20.124720000000128
    vertex 59.00146281677179 33.90373349542378 17.10601199999999
    vertex 1.646010816776699 33.903733495428064 20.124720000000128
  endloop
endfacet
endsolid Sentry_Leg
