solid Servo_Tower_Yaxis
facet normal -3.1659300543363025e-14 -1.0 5.202043617083663e-15
  outer loop
    vertex 7.499985000000275 4.700000760001127 96.51966275055483
    vertex 2.7071678232459813e-13 4.700000760001307 96.51966275055601
    vertex 7.499985000000275 4.700000760000856 87.58152868240042
  endloop
endfacet
facet normal -3.1659300543363025e-14 -1.0 5.202043617083663e-15
  outer loop
    vertex 2.7071678232459813e-13 4.700000760001307 96.51966275055601
    vertex 7.499985000000275 4.700000760001127 96.51966275055483
    vertex 7.499985000000004 4.700000760001127 117.01966239055595
  endloop
endfacet
facet normal -3.1659300543363025e-14 -1.0 5.202043617083663e-15
  outer loop
    vertex 2.7071678232459813e-13 4.700000760001307 96.51966275055601
    vertex 7.499985000000004 4.700000760001127 117.01966239055595
    vertex 0.0 4.700000760001307 117.01966239055713
  endloop
endfacet
facet normal 1.5641445372756504e-13 3.609564316789916e-14 1.0
  outer loop
    vertex 7.499985000000365 24.99999572000108 96.51966275055474
    vertex 3.6095570976613087e-13 27.4999907200013 96.51966275055582
    vertex 3.6095570976613087e-13 24.999995720001284 96.51966275055591
  endloop
endfacet
facet normal 1.5641445372756504e-13 3.609564316789916e-14 1.0
  outer loop
    vertex 3.6095570976613087e-13 27.4999907200013 96.51966275055582
    vertex 7.499985000000365 24.99999572000108 96.51966275055474
    vertex 7.499985000000365 27.499990720001097 96.51966275055464
  endloop
endfacet
facet normal 2.6737456444089574e-14 1.0 1.3304516721764968e-29
  outer loop
    vertex 7.499985000000726 36.4999981200011 96.51966275055429
    vertex 47.99999036000071 36.49999812000002 3.451717000000003
    vertex 7.499985000000726 36.4999981200011 3.451717000000003
  endloop
endfacet
facet normal 2.6737456444089574e-14 1.0 1.3304516721764968e-29
  outer loop
    vertex 47.99999036000071 36.49999812000002 3.451717000000003
    vertex 7.499985000000726 36.4999981200011 96.51966275055429
    vertex 47.99999036000062 36.49999812000002 96.51966275054797
  endloop
endfacet
facet normal 1.5659351461756318e-13 2.5098039091998017e-14 1.0
  outer loop
    vertex 47.999990360000346 6.620363720000046 96.51966275054846
    vertex 47.99999036000026 25.083416349469505 96.51966275054833
    vertex 47.99999035999972 0.0 96.51966275054914
  endloop
endfacet
facet normal 1.5659351461756318e-13 2.5098039091998017e-14 1.0
  outer loop
    vertex 47.99999035999972 0.0 96.51966275054914
    vertex 7.499985000000275 4.700000760001127 96.51966275055483
    vertex 7.499984999999733 1.0828671292983925e-12 96.51966275055551
  endloop
endfacet
facet normal 1.5659351461756318e-13 2.5098039091998017e-14 1.0
  outer loop
    vertex 7.499985000000275 4.700000760001127 96.51966275055483
    vertex 47.99999035999972 0.0 96.51966275054914
    vertex 7.499985000000365 24.99999572000108 96.51966275055474
  endloop
endfacet
facet normal 1.5659351461756318e-13 2.5098039091998017e-14 1.0
  outer loop
    vertex 7.499985000000365 24.99999572000108 96.51966275055474
    vertex 47.99999035999972 0.0 96.51966275054914
    vertex 7.499985000000365 27.499990720001097 96.51966275055464
  endloop
endfacet
facet normal 1.5659351461756318e-13 2.5098039091998017e-14 1.0
  outer loop
    vertex 7.499985000000365 27.499990720001097 96.51966275055464
    vertex 47.99999035999972 0.0 96.51966275054914
    vertex 7.499985000000726 36.4999981200011 96.51966275055429
  endloop
endfacet
facet normal 1.5659351461756318e-13 2.5098039091998017e-14 1.0
  outer loop
    vertex 7.499985000000726 36.4999981200011 96.51966275055429
    vertex 47.99999035999972 0.0 96.51966275054914
    vertex 47.99999036000026 25.083416349469505 96.51966275054833
  endloop
endfacet
facet normal 1.5659351461756318e-13 2.5098039091998017e-14 1.0
  outer loop
    vertex 7.499985000000726 36.4999981200011 96.51966275055429
    vertex 47.99999036000026 25.083416349469505 96.51966275054833
    vertex 47.99999036000062 36.49999812000002 96.51966275054797
  endloop
endfacet
facet normal 1.5659351461756318e-13 2.5098039091998017e-14 1.0
  outer loop
    vertex 47.99999036000062 36.49999812000002 96.51966275054797
    vertex 47.99999036000026 25.083416349469505 96.51966275054833
    vertex 47.99999036000044 27.499990719999722 96.51966275054833
  endloop
endfacet
facet normal 2.7071732375919812e-14 1.0 -3.028784086928469e-14
  outer loop
    vertex 3.6095570976613087e-13 27.4999907200013 96.51966275055582
    vertex 7.499985000000365 27.499990720001097 96.51966275055464
    vertex 7.499985000000455 27.499990720000827 87.58152868240015
  endloop
endfacet
facet normal 2.7071732375924548e-14 1.0 3.577792599832928e-28
  outer loop
    vertex 3.6095570976613087e-13 24.999995720001284 96.51966275055591
    vertex 7.499985000000095 24.99999572000108 117.01966239055587
    vertex 7.499985000000365 24.99999572000108 96.51966275055474
  endloop
endfacet
facet normal 2.7071732375924548e-14 1.0 3.577792599832928e-28
  outer loop
    vertex 7.499985000000095 24.99999572000108 117.01966239055587
    vertex 3.6095570976613087e-13 24.999995720001284 96.51966275055591
    vertex 9.023892744153272e-14 24.999995720001284 117.01966239055703
  endloop
endfacet
facet normal -0.7660444431190812 -1.2946752673565052e-15 -0.6427876096864165
  outer loop
    vertex 2.7071678232459813e-13 4.700000760001307 96.51966275055601
    vertex 7.499985000000455 27.499990720000827 87.58152868240015
    vertex 7.499985000000275 4.700000760000856 87.58152868240042
  endloop
endfacet
facet normal -0.7660444431190812 -1.2946752673565052e-15 -0.6427876096864165
  outer loop
    vertex 7.499985000000455 27.499990720000827 87.58152868240015
    vertex 2.7071678232459813e-13 4.700000760001307 96.51966275055601
    vertex 3.6095570976613087e-13 24.999995720001284 96.51966275055591
  endloop
endfacet
facet normal -0.7660444431190812 -1.2946752673565052e-15 -0.6427876096864165
  outer loop
    vertex 7.499985000000455 27.499990720000827 87.58152868240015
    vertex 3.6095570976613087e-13 24.999995720001284 96.51966275055591
    vertex 3.6095570976613087e-13 27.4999907200013 96.51966275055582
  endloop
endfacet
facet normal 1.5644137874815697e-13 4.898582484779598e-15 1.0
  outer loop
    vertex 47.9999903600017 6.620363720000046 117.0261517505487
    vertex 55.49999060000178 24.999995719999795 117.02615175054744
    vertex 47.99999036000161 25.083416349469505 117.02615175054862
  endloop
endfacet
facet normal 1.5644137874815697e-13 4.898582484779598e-15 1.0
  outer loop
    vertex 55.49999060000178 24.999995719999795 117.02615175054744
    vertex 47.9999903600017 6.620363720000046 117.0261517505487
    vertex 55.499990600001695 6.620363719999865 117.02615175054754
  endloop
endfacet
facet normal 1.0 -4.90972438629568e-15 -6.600758967675907e-14
  outer loop
    vertex 55.49999060000043 24.999995719999795 96.51966275054716
    vertex 55.499990600001695 6.620363719999865 117.02615175054754
    vertex 55.49999060000034 6.620363719999865 96.5196627505473
  endloop
endfacet
facet normal 1.0 -4.90972438629568e-15 -6.600758967675907e-14
  outer loop
    vertex 55.499990600001695 6.620363719999865 117.02615175054754
    vertex 55.49999060000043 24.999995719999795 96.51966275054716
    vertex 55.49999060000178 24.999995719999795 117.02615175054744
  endloop
endfacet
facet normal -1.0 -4.887541039529518e-15 6.600758967675907e-14
  outer loop
    vertex 47.99999036000161 25.083416349469505 117.02615175054862
    vertex 47.999990360000346 6.620363720000046 96.51966275054846
    vertex 47.9999903600017 6.620363720000046 117.0261517505487
  endloop
endfacet
facet normal -1.0 -4.887541039529518e-15 6.600758967675907e-14
  outer loop
    vertex 47.999990360000346 6.620363720000046 96.51966275054846
    vertex 47.99999036000161 25.083416349469505 117.02615175054862
    vertex 47.99999036000026 25.083416349469505 96.51966275054833
  endloop
endfacet
facet normal -1.2031856607184966e-14 1.0 1.2072777893666222e-28
  outer loop
    vertex 47.99999036000044 27.499990719999722 96.51966275054833
    vertex 55.49999060000043 27.49999071999981 96.51966275054707
    vertex 47.999990360000346 27.499990719999722 87.54976310518087
  endloop
endfacet
facet normal 0.7671651518151921 -9.50621446891628e-15 -0.6414496315692865
  outer loop
    vertex 47.999990360000346 27.499990719999722 87.54976310518087
    vertex 55.49999060000034 6.620363719999865 96.5196627505473
    vertex 47.99999036000017 6.620363719999775 87.54976310518096
  endloop
endfacet
facet normal 0.7671651518151921 -9.50621446891628e-15 -0.6414496315692865
  outer loop
    vertex 55.49999060000034 6.620363719999865 96.5196627505473
    vertex 47.999990360000346 27.499990719999722 87.54976310518087
    vertex 55.49999060000043 24.999995719999795 96.51966275054716
  endloop
endfacet
facet normal 0.7671651518151921 -9.50621446891628e-15 -0.6414496315692865
  outer loop
    vertex 55.49999060000043 24.999995719999795 96.51966275054716
    vertex 47.999990360000346 27.499990719999722 87.54976310518087
    vertex 55.49999060000043 27.49999071999981 96.51966275054707
  endloop
endfacet
facet normal 0.011122062275157066 0.9999381479525359 -7.338436963083621e-16
  outer loop
    vertex 47.99999036000026 25.083416349469505 96.51966275054833
    vertex 55.49999060000178 24.999995719999795 117.02615175054744
    vertex 55.49999060000043 24.999995719999795 96.51966275054716
  endloop
endfacet
facet normal 0.011122062275157066 0.9999381479525359 -7.338436963083621e-16
  outer loop
    vertex 55.49999060000178 24.999995719999795 117.02615175054744
    vertex 47.99999036000026 25.083416349469505 96.51966275054833
    vertex 47.99999036000161 25.083416349469505 117.02615175054862
  endloop
endfacet
facet normal -1.6476631228082003e-14 -1.0 5.202449267100641e-15
  outer loop
    vertex 55.49999060000034 6.620363719999865 96.5196627505473
    vertex 47.999990360000346 6.620363720000046 96.51966275054846
    vertex 47.99999036000017 6.620363719999775 87.54976310518096
  endloop
endfacet
facet normal -1.6476631228082003e-14 -1.0 5.202449267100641e-15
  outer loop
    vertex 47.999990360000346 6.620363720000046 96.51966275054846
    vertex 55.49999060000034 6.620363719999865 96.5196627505473
    vertex 55.499990600001695 6.620363719999865 117.02615175054754
  endloop
endfacet
facet normal -1.6476631228082003e-14 -1.0 5.202449267100641e-15
  outer loop
    vertex 47.999990360000346 6.620363720000046 96.51966275054846
    vertex 55.499990600001695 6.620363719999865 117.02615175054754
    vertex 47.9999903600017 6.620363720000046 117.0261517505487
  endloop
endfacet
facet normal 1.0 -2.0341392542173302e-14 -6.145053217733331e-16
  outer loop
    vertex 47.99999036000071 36.49999812000002 3.451717000000003
    vertex 47.99999035999972 0.0 96.51966275054914
    vertex 47.99999035999972 0.0 3.451717000000003
  endloop
endfacet
facet normal 1.0 -2.0341392542173302e-14 -6.145053217733331e-16
  outer loop
    vertex 47.99999035999972 0.0 96.51966275054914
    vertex 47.99999036000071 36.49999812000002 3.451717000000003
    vertex 47.99999036000017 6.620363719999775 87.54976310518096
  endloop
endfacet
facet normal 1.0 -2.0341392542173302e-14 -6.145053217733331e-16
  outer loop
    vertex 47.99999036000017 6.620363719999775 87.54976310518096
    vertex 47.99999036000071 36.49999812000002 3.451717000000003
    vertex 47.999990360000346 27.499990719999722 87.54976310518087
  endloop
endfacet
facet normal 1.0 -2.0341392542173302e-14 -6.145053217733331e-16
  outer loop
    vertex 47.999990360000346 27.499990719999722 87.54976310518087
    vertex 47.99999036000071 36.49999812000002 3.451717000000003
    vertex 47.99999036000044 27.499990719999722 96.51966275054833
  endloop
endfacet
facet normal 1.0 -2.0341392542173302e-14 -6.145053217733331e-16
  outer loop
    vertex 47.99999036000044 27.499990719999722 96.51966275054833
    vertex 47.99999036000071 36.49999812000002 3.451717000000003
    vertex 47.99999036000062 36.49999812000002 96.51966275054797
  endloop
endfacet
facet normal 1.0 -2.0341392542173302e-14 -6.145053217733331e-16
  outer loop
    vertex 47.999990360000346 6.620363720000046 96.51966275054846
    vertex 47.99999035999972 0.0 96.51966275054914
    vertex 47.99999036000017 6.620363719999775 87.54976310518096
  endloop
endfacet
facet normal 1.6253383995105834e-13 1.86600888852023e-14 1.0
  outer loop
    vertex 55.49999060000043 24.999995719999795 96.51966275054716
    vertex 47.99999036000044 27.499990719999722 96.51966275054833
    vertex 47.99999036000026 25.083416349469505 96.51966275054833
  endloop
endfacet
facet normal 1.6253383995105834e-13 1.86600888852023e-14 1.0
  outer loop
    vertex 47.99999036000044 27.499990719999722 96.51966275054833
    vertex 55.49999060000043 24.999995719999795 96.51966275054716
    vertex 55.49999060000043 27.49999071999981 96.51966275054707
  endloop
endfacet
facet normal 1.5641445372756418e-13 4.445268465304031e-15 1.0
  outer loop
    vertex 7.499985000000004 4.700000760001127 117.01966239055595
    vertex 9.023892744153272e-14 24.999995720001284 117.01966239055703
    vertex 0.0 4.700000760001307 117.01966239055713
  endloop
endfacet
facet normal 1.5641445372756418e-13 4.445268465304031e-15 1.0
  outer loop
    vertex 9.023892744153272e-14 24.999995720001284 117.01966239055703
    vertex 7.499985000000004 4.700000760001127 117.01966239055595
    vertex 7.499985000000095 24.99999572000108 117.01966239055587
  endloop
endfacet
facet normal -1.0 4.4452684653046644e-15 -1.3205696930665087e-14
  outer loop
    vertex 9.023892744153272e-14 24.999995720001284 117.01966239055703
    vertex 2.7071678232459813e-13 4.700000760001307 96.51966275055601
    vertex 0.0 4.700000760001307 117.01966239055713
  endloop
endfacet
facet normal -1.0 4.4452684653046644e-15 -1.3205696930665087e-14
  outer loop
    vertex 2.7071678232459813e-13 4.700000760001307 96.51966275055601
    vertex 9.023892744153272e-14 24.999995720001284 117.01966239055703
    vertex 3.6095570976613087e-13 24.999995720001284 96.51966275055591
  endloop
endfacet
facet normal 0.0 0.0 -1.0
  outer loop
    vertex 7.499985000000726 36.4999981200011 3.451717000000003
    vertex 47.99999035999972 0.0 3.451717000000003
    vertex 7.499984999999733 1.0828671292983925e-12 3.451717000000003
  endloop
endfacet
facet normal 0.0 0.0 -1.0
  outer loop
    vertex 47.99999035999972 0.0 3.451717000000003
    vertex 7.499985000000726 36.4999981200011 3.451717000000003
    vertex 47.99999036000071 36.49999812000002 3.451717000000003
  endloop
endfacet
facet normal 1.0 -4.44526846530467e-15 1.3205696930665085e-14
  outer loop
    vertex 7.499985000000365 24.99999572000108 96.51966275055474
    vertex 7.499985000000004 4.700000760001127 117.01966239055595
    vertex 7.499985000000275 4.700000760001127 96.51966275055483
  endloop
endfacet
facet normal 1.0 -4.44526846530467e-15 1.3205696930665085e-14
  outer loop
    vertex 7.499985000000004 4.700000760001127 117.01966239055595
    vertex 7.499985000000365 24.99999572000108 96.51966275055474
    vertex 7.499985000000095 24.99999572000108 117.01966239055587
  endloop
endfacet
facet normal -1.0 2.0964394968069536e-14 1.048697535346775e-15
  outer loop
    vertex 7.499985000000275 4.700000760001127 96.51966275055483
    vertex 7.499984999999733 1.0828671292983925e-12 3.451717000000003
    vertex 7.499984999999733 1.0828671292983925e-12 96.51966275055551
  endloop
endfacet
facet normal -1.0 2.0964394968069536e-14 1.048697535346775e-15
  outer loop
    vertex 7.499984999999733 1.0828671292983925e-12 3.451717000000003
    vertex 7.499985000000275 4.700000760001127 96.51966275055483
    vertex 7.499985000000275 4.700000760000856 87.58152868240042
  endloop
endfacet
facet normal -1.0 2.0964394968069536e-14 1.048697535346775e-15
  outer loop
    vertex 7.499985000000275 4.700000760000856 87.58152868240042
    vertex 7.499985000000726 36.4999981200011 3.451717000000003
    vertex 7.499984999999733 1.0828671292983925e-12 3.451717000000003
  endloop
endfacet
facet normal -1.0 2.0964394968069536e-14 1.048697535346775e-15
  outer loop
    vertex 7.499985000000726 36.4999981200011 3.451717000000003
    vertex 7.499985000000275 4.700000760000856 87.58152868240042
    vertex 7.499985000000455 27.499990720000827 87.58152868240015
  endloop
endfacet
facet normal -1.0 2.0964394968069536e-14 1.048697535346775e-15
  outer loop
    vertex 7.499985000000726 36.4999981200011 3.451717000000003
    vertex 7.499985000000455 27.499990720000827 87.58152868240015
    vertex 7.499985000000365 27.499990720001097 96.51966275055464
  endloop
endfacet
facet normal -1.0 2.0964394968069536e-14 1.048697535346775e-15
  outer loop
    vertex 7.499985000000726 36.4999981200011 3.451717000000003
    vertex 7.499985000000365 27.499990720001097 96.51966275055464
    vertex 7.499985000000726 36.4999981200011 96.51966275055429
  endloop
endfacet
facet normal -2.6737456444089542e-14 -1.0 1.2888514876842336e-31
  outer loop
    vertex 47.99999035999972 0.0 96.51966275054914
    vertex 7.499984999999733 1.0828671292983925e-12 3.451717000000003
    vertex 47.99999035999972 0.0 3.451717000000003
  endloop
endfacet
facet normal -2.6737456444089542e-14 -1.0 1.2888514876842336e-31
  outer loop
    vertex 7.499984999999733 1.0828671292983925e-12 3.451717000000003
    vertex 47.99999035999972 0.0 96.51966275054914
    vertex 7.499984999999733 1.0828671292983925e-12 96.51966275055551
  endloop
endfacet
endsolid Servo_Tower_Yaxis
