solid Sentry3Dmodels
facet normal -1.1808956861550007e-16 -3.204739507720675e-17 -1.0
  outer loop
    vertex 510.00111122632336 811.037578481048 1.000000000000011
    vertex 510.4864650630843 805.5872879997366 1.000000000000011
    vertex 509.8864265855992 808.3156811337099 1.000000000000011
  endloop
endfacet
facet normal -1.1808956861550007e-16 -3.204739507720675e-17 -1.0
  outer loop
    vertex 510.4864650630843 805.5872879997366 1.000000000000011
    vertex 510.00111122632336 811.037578481048 1.000000000000011
    vertex 510.8227034165165 813.5674872356782 1.000000000000011
  endloop
endfacet
facet normal -1.1808956861550007e-16 -3.204739507720675e-17 -1.0
  outer loop
    vertex 510.4864650630843 805.5872879997366 1.000000000000011
    vertex 510.8227034165165 813.5674872356782 1.000000000000011
    vertex 511.76033502814846 803.038334562326 1.0000000000000224
  endloop
endfacet
facet normal -1.1808956861550007e-16 -3.204739507720675e-17 -1.0
  outer loop
    vertex 511.76033502814846 803.038334562326 1.0000000000000224
    vertex 510.8227034165165 813.5674872356782 1.000000000000011
    vertex 512.2952130061627 815.7329982968448 1.000000000000011
  endloop
endfacet
facet normal -1.1808956861550007e-16 -3.204739507720675e-17 -1.0
  outer loop
    vertex 511.76033502814846 803.038334562326 1.0000000000000224
    vertex 512.2952130061627 815.7329982968448 1.000000000000011
    vertex 513.6212243478421 800.8425277858926 1.0000000000000224
  endloop
endfacet
facet normal -1.1808956861550007e-16 -3.204739507720675e-17 -1.0
  outer loop
    vertex 513.6212243478421 800.8425277858926 1.0000000000000224
    vertex 512.2952130061627 815.7329982968448 1.000000000000011
    vertex 514.3182909001639 817.386535664404 1.000000000000011
  endloop
endfacet
facet normal -1.1808956861550007e-16 -3.204739507720675e-17 -1.0
  outer loop
    vertex 513.6212243478421 800.8425277858926 1.0000000000000224
    vertex 514.3182909001639 817.386535664404 1.000000000000011
    vertex 515.9423164902933 799.1495082735082 1.000000000000011
  endloop
endfacet
facet normal -1.1808956861550007e-16 -3.204739507720675e-17 -1.0
  outer loop
    vertex 515.9423164902933 799.1495082735082 1.000000000000011
    vertex 514.3182909001639 817.386535664404 1.000000000000011
    vertex 516.7540676833389 818.4154134993578 1.000000000000011
  endloop
endfacet
facet normal -1.1808956861550007e-16 -3.204739507720675e-17 -1.0
  outer loop
    vertex 515.9423164902933 799.1495082735082 1.000000000000011
    vertex 516.7540676833389 818.4154134993578 1.000000000000011
    vertex 518.5654328617796 798.0746525070949 0.9999999999999999
  endloop
endfacet
facet normal -1.1808956861550007e-16 -3.204739507720675e-17 -1.0
  outer loop
    vertex 518.5654328617796 798.0746525070949 0.9999999999999999
    vertex 516.7540676833389 818.4154134993578 1.000000000000011
    vertex 519.4365491932255 818.7495154775547 1.000000000000011
  endloop
endfacet
facet normal -1.1808956861550007e-16 -3.204739507720675e-17 -1.0
  outer loop
    vertex 518.5654328617796 798.0746525070949 0.9999999999999999
    vertex 519.4365491932255 818.7495154775547 1.000000000000011
    vertex 521.3118124164896 797.6912101308501 1.000000000000011
  endloop
endfacet
facet normal -1.1808956861550007e-16 -3.204739507720675e-17 -1.0
  outer loop
    vertex 521.3118124164896 797.6912101308501 1.000000000000011
    vertex 519.4365491932255 818.7495154775547 1.000000000000011
    vertex 522.1829287479355 818.3660731013103 1.000000000000011
  endloop
endfacet
facet normal -1.1808956861550007e-16 -3.204739507720675e-17 -1.0
  outer loop
    vertex 521.3118124164896 797.6912101308501 1.000000000000011
    vertex 522.1829287479355 818.3660731013103 1.000000000000011
    vertex 523.9942939263764 798.025312109047 1.000000000000011
  endloop
endfacet
facet normal -1.1808956861550007e-16 -3.204739507720675e-17 -1.0
  outer loop
    vertex 523.9942939263764 798.025312109047 1.000000000000011
    vertex 522.1829287479355 818.3660731013103 1.000000000000011
    vertex 524.806045119422 817.2912173348969 1.000000000000011
  endloop
endfacet
facet normal -1.1808956861550007e-16 -3.204739507720675e-17 -1.0
  outer loop
    vertex 523.9942939263764 798.025312109047 1.000000000000011
    vertex 524.806045119422 817.2912173348969 1.000000000000011
    vertex 526.4300707095513 799.0541899440009 1.000000000000011
  endloop
endfacet
facet normal -1.1808956861550007e-16 -3.204739507720675e-17 -1.0
  outer loop
    vertex 526.4300707095513 799.0541899440009 1.000000000000011
    vertex 524.806045119422 817.2912173348969 1.000000000000011
    vertex 527.1271372618734 815.5981978225125 1.000000000000011
  endloop
endfacet
facet normal -1.1808956861550007e-16 -3.204739507720675e-17 -1.0
  outer loop
    vertex 526.4300707095513 799.0541899440009 1.000000000000011
    vertex 527.1271372618734 815.5981978225125 1.000000000000011
    vertex 528.453148603553 800.7077273115607 1.000000000000011
  endloop
endfacet
facet normal -1.1808956861550007e-16 -3.204739507720675e-17 -1.0
  outer loop
    vertex 528.453148603553 800.7077273115607 1.000000000000011
    vertex 527.1271372618734 815.5981978225125 1.000000000000011
    vertex 528.9880265815669 813.4023910460791 1.000000000000011
  endloop
endfacet
facet normal -1.1808956861550007e-16 -3.204739507720675e-17 -1.0
  outer loop
    vertex 528.453148603553 800.7077273115607 1.000000000000011
    vertex 528.9880265815669 813.4023910460791 1.000000000000011
    vertex 529.9256581931986 802.8732383727266 1.000000000000011
  endloop
endfacet
facet normal -1.1808956861550007e-16 -3.204739507720675e-17 -1.0
  outer loop
    vertex 529.9256581931986 802.8732383727266 1.000000000000011
    vertex 528.9880265815669 813.4023910460791 1.000000000000011
    vertex 530.261896546631 810.8534376086685 1.000000000000011
  endloop
endfacet
facet normal -1.1808956861550007e-16 -3.204739507720675e-17 -1.0
  outer loop
    vertex 529.9256581931986 802.8732383727266 1.000000000000011
    vertex 530.261896546631 810.8534376086685 1.000000000000011
    vertex 530.7472503833917 805.403147127357 1.000000000000011
  endloop
endfacet
facet normal -1.1808956861550007e-16 -3.204739507720675e-17 -1.0
  outer loop
    vertex 530.7472503833917 805.403147127357 1.000000000000011
    vertex 530.261896546631 810.8534376086685 1.000000000000011
    vertex 530.8619350241161 808.1250444746954 1.000000000000011
  endloop
endfacet
facet normal 0.12359464420495385 -0.992332788898891 1.720644271655995e-17
  outer loop
    vertex 519.4365491932255 818.7495154775547 1.000000000000011
    vertex 516.7540676833389 818.4154134993578 1.127986593019159e-14
    vertex 519.4365491932255 818.7495154775547 1.127986593019159e-14
  endloop
endfacet
facet normal 0.12359464420495385 -0.992332788898891 1.720644271655995e-17
  outer loop
    vertex 516.7540676833389 818.4154134993578 1.127986593019159e-14
    vertex 519.4365491932255 818.7495154775547 1.000000000000011
    vertex 516.7540676833389 818.4154134993578 1.000000000000011
  endloop
endfacet
facet normal -0.1382761954967823 -0.9903937064415018 4.8068514668317516e-17
  outer loop
    vertex 522.1829287479355 818.3660731013103 1.000000000000011
    vertex 519.4365491932255 818.7495154775547 1.127986593019159e-14
    vertex 522.1829287479355 818.3660731013103 1.127986593019159e-14
  endloop
endfacet
facet normal -0.1382761954967823 -0.9903937064415018 4.8068514668317516e-17
  outer loop
    vertex 519.4365491932255 818.7495154775547 1.127986593019159e-14
    vertex 522.1829287479355 818.3660731013103 1.000000000000011
    vertex 519.4365491932255 818.7495154775547 1.000000000000011
  endloop
endfacet
facet normal -0.3791654492920664 -0.9253288939956136 7.442986498303458e-17
  outer loop
    vertex 524.806045119422 817.2912173348969 1.000000000000011
    vertex 522.1829287479355 818.3660731013103 1.127986593019159e-14
    vertex 524.806045119422 817.2912173348969 1.127986593019159e-14
  endloop
endfacet
facet normal -0.3791654492920664 -0.9253288939956136 7.442986498303458e-17
  outer loop
    vertex 522.1829287479355 818.3660731013103 1.127986593019159e-14
    vertex 524.806045119422 817.2912173348969 1.000000000000011
    vertex 522.1829287479355 818.3660731013103 1.000000000000011
  endloop
endfacet
facet normal 0.0 0.0 1.0
  outer loop
    vertex 541.9938063610732 787.8486624830687 4.000000000000169
    vertex 436.99380636107327 878.535902483069 4.000000000000169
    vertex 436.99380636107327 787.8486624830687 4.000000000000169
  endloop
endfacet
facet normal 0.0 0.0 1.0
  outer loop
    vertex 436.99380636107327 878.535902483069 4.000000000000169
    vertex 541.9938063610732 787.8486624830687 4.000000000000169
    vertex 541.9938063610732 878.535902483069 4.000000000000169
  endloop
endfacet
facet normal 0.0 -1.0 0.0
  outer loop
    vertex 541.9938063610732 787.8486624830687 4.000000000000169
    vertex 436.99380636107327 787.8486624830687 0.0
    vertex 541.9938063610732 787.8486624830687 0.0
  endloop
endfacet
facet normal 0.0 -1.0 0.0
  outer loop
    vertex 436.99380636107327 787.8486624830687 0.0
    vertex 541.9938063610732 787.8486624830687 4.000000000000169
    vertex 436.99380636107327 787.8486624830687 4.000000000000169
  endloop
endfacet
facet normal 1.0 0.0 0.0
  outer loop
    vertex 541.9938063610732 878.535902483069 0.0
    vertex 541.9938063610732 787.8486624830687 4.000000000000169
    vertex 541.9938063610732 787.8486624830687 0.0
  endloop
endfacet
facet normal 1.0 0.0 0.0
  outer loop
    vertex 541.9938063610732 787.8486624830687 4.000000000000169
    vertex 541.9938063610732 878.535902483069 0.0
    vertex 541.9938063610732 878.535902483069 4.000000000000169
  endloop
endfacet
facet normal 0.0 0.0 -1.0
  outer loop
    vertex 436.99380636107327 878.535902483069 0.0
    vertex 449.52504118598347 812.9965326696292 1.127986593019159e-14
    vertex 436.99380636107327 787.8486624830687 0.0
  endloop
endfacet
facet normal 0.0 0.0 -1.0
  outer loop
    vertex 449.52504118598347 812.9965326696292 1.127986593019159e-14
    vertex 436.99380636107327 878.535902483069 0.0
    vertex 478.8637673620074 863.6270135243952 1.127986593019159e-14
  endloop
endfacet
facet normal 0.0 0.0 -1.0
  outer loop
    vertex 478.8637673620074 863.6270135243952 1.127986593019159e-14
    vertex 436.99380636107327 878.535902483069 0.0
    vertex 480.3687413723803 865.980570087573 1.127986593019159e-14
  endloop
endfacet
facet normal 0.0 0.0 -1.0
  outer loop
    vertex 480.3687413723803 865.980570087573 1.127986593019159e-14
    vertex 436.99380636107327 878.535902483069 0.0
    vertex 482.3745077315312 867.8241478724153 1.127986593019159e-14
  endloop
endfacet
facet normal 0.0 0.0 -1.0
  outer loop
    vertex 482.3745077315312 867.8241478724153 1.127986593019159e-14
    vertex 436.99380636107327 878.535902483069 0.0
    vertex 484.74437677676906 869.0321100995417 1.127986593019159e-14
  endloop
endfacet
facet normal 0.0 0.0 -1.0
  outer loop
    vertex 484.74437677676906 869.0321100995417 1.127986593019159e-14
    vertex 436.99380636107327 878.535902483069 0.0
    vertex 487.31684584905474 869.5221361394257 1.127986593019159e-14
  endloop
endfacet
facet normal 0.0 0.0 -1.0
  outer loop
    vertex 487.31684584905474 869.5221361394257 1.127986593019159e-14
    vertex 436.99380636107327 878.535902483069 0.0
    vertex 541.9938063610732 878.535902483069 0.0
  endloop
endfacet
facet normal 0.0 0.0 -1.0
  outer loop
    vertex 436.99380636107327 787.8486624830687 0.0
    vertex 449.52504118598347 812.9965326696292 1.127986593019159e-14
    vertex 448.4501854195699 810.3734162981426 1.127986593019159e-14
  endloop
endfacet
facet normal 0.0 0.0 -1.0
  outer loop
    vertex 436.99380636107327 787.8486624830687 0.0
    vertex 448.4501854195699 810.3734162981426 1.127986593019159e-14
    vertex 448.0667430433253 807.6270367434327 1.127986593019159e-14
  endloop
endfacet
facet normal 0.0 0.0 -1.0
  outer loop
    vertex 449.52504118598347 812.9965326696292 1.127986593019159e-14
    vertex 478.8637673620074 863.6270135243952 1.127986593019159e-14
    vertex 451.21806069836776 815.3176248120801 0.0
  endloop
endfacet
facet normal 0.0 0.0 -1.0
  outer loop
    vertex 451.21806069836776 815.3176248120801 0.0
    vertex 478.8637673620074 863.6270135243952 1.127986593019159e-14
    vertex 453.41386747480124 817.1785141317738 0.0
  endloop
endfacet
facet normal 0.0 0.0 -1.0
  outer loop
    vertex 453.41386747480124 817.1785141317738 0.0
    vertex 478.8637673620074 863.6270135243952 1.127986593019159e-14
    vertex 455.9628209122119 818.452384096838 1.127986593019159e-14
  endloop
endfacet
facet normal 0.0 0.0 -1.0
  outer loop
    vertex 455.9628209122119 818.452384096838 1.127986593019159e-14
    vertex 478.8637673620074 863.6270135243952 1.127986593019159e-14
    vertex 458.69121404618517 819.0524225743229 1.127986593019159e-14
  endloop
endfacet
facet normal 0.0 0.0 -1.0
  outer loop
    vertex 458.69121404618517 819.0524225743229 1.127986593019159e-14
    vertex 478.8637673620074 863.6270135243952 1.127986593019159e-14
    vertex 461.41311139352314 818.9377379335989 1.127986593019159e-14
  endloop
endfacet
facet normal 0.0 0.0 -1.0
  outer loop
    vertex 461.41311139352314 818.9377379335989 1.127986593019159e-14
    vertex 478.8637673620074 863.6270135243952 1.127986593019159e-14
    vertex 477.96214719213214 860.9238691732266 1.127986593019159e-14
  endloop
endfacet
facet normal 0.0 0.0 -1.0
  outer loop
    vertex 461.41311139352314 818.9377379335989 1.127986593019159e-14
    vertex 477.96214719213214 860.9238691732266 1.127986593019159e-14
    vertex 463.9430201481535 818.1161457434057 1.127986593019159e-14
  endloop
endfacet
facet normal 0.0 0.0 -1.0
  outer loop
    vertex 463.9430201481535 818.1161457434057 1.127986593019159e-14
    vertex 477.96214719213214 860.9238691732266 1.127986593019159e-14
    vertex 466.108531209319 816.6436361537606 1.127986593019159e-14
  endloop
endfacet
facet normal 0.0 0.0 -1.0
  outer loop
    vertex 466.108531209319 816.6436361537606 1.127986593019159e-14
    vertex 477.96214719213214 860.9238691732266 1.127986593019159e-14
    vertex 467.76206857687913 814.6205582597585 1.127986593019159e-14
  endloop
endfacet
facet normal 0.0 0.0 -1.0
  outer loop
    vertex 467.76206857687913 814.6205582597585 1.127986593019159e-14
    vertex 477.96214719213214 860.9238691732266 1.127986593019159e-14
    vertex 468.7909464118331 812.1847814765835 1.127986593019159e-14
  endloop
endfacet
facet normal 0.0 0.0 -1.0
  outer loop
    vertex 468.7909464118331 812.1847814765835 1.127986593019159e-14
    vertex 477.96214719213214 860.9238691732266 1.127986593019159e-14
    vertex 469.12504839003003 809.5022999666966 1.127986593019159e-14
  endloop
endfacet
facet normal 0.0 0.0 -1.0
  outer loop
    vertex 469.12504839003003 809.5022999666966 1.127986593019159e-14
    vertex 477.96214719213214 860.9238691732266 1.127986593019159e-14
    vertex 477.7253247873332 858.0553518544423 1.127986593019159e-14
  endloop
endfacet
facet normal 0.0 0.0 -1.0
  outer loop
    vertex 478.8637673620074 863.6270135243952 1.127986593019159e-14
    vertex 480.3687413723803 865.980570087573 1.127986593019159e-14
    vertex 479.3887496961057 864.4480081790891 2.255973186038318e-14
  endloop
endfacet
facet normal 0.0 0.0 -1.0
  outer loop
    vertex 487.31684584905474 869.5221361394257 1.127986593019159e-14
    vertex 541.9938063610732 878.535902483069 0.0
    vertex 489.9166054323186 869.2608315272554 1.127986593019159e-14
  endloop
endfacet
facet normal 0.0 0.0 -1.0
  outer loop
    vertex 489.9166054323186 869.2608315272554 1.127986593019159e-14
    vertex 541.9938063610732 878.535902483069 0.0
    vertex 492.3664862072668 868.2660037405237 1.127986593019159e-14
  endloop
endfacet
facet normal 0.0 0.0 -1.0
  outer loop
    vertex 492.3664862072668 868.2660037405237 1.127986593019159e-14
    vertex 541.9938063610732 878.535902483069 0.0
    vertex 494.499532847706 866.6054486488662 1.127986593019159e-14
  endloop
endfacet
facet normal 0.0 0.0 -1.0
  outer loop
    vertex 494.499532847706 866.6054486488662 1.127986593019159e-14
    vertex 541.9938063610732 878.535902483069 0.0
    vertex 496.12834637410555 864.4480081790891 1.127986593019159e-14
  endloop
endfacet
facet normal 0.0 0.0 -1.0
  outer loop
    vertex 496.12834637410555 864.4480081790891 1.127986593019159e-14
    vertex 541.9938063610732 878.535902483069 0.0
    vertex 496.1703817501164 864.3923303375815 1.127986593019159e-14
  endloop
endfacet
facet normal 0.0 0.0 -1.0
  outer loop
    vertex 496.1703817501164 864.3923303375815 1.127986593019159e-14
    vertex 541.9938063610732 878.535902483069 0.0
    vertex 497.2651673230073 861.7774691622334 1.127986593019159e-14
  endloop
endfacet
facet normal 0.0 0.0 -1.0
  outer loop
    vertex 497.2651673230073 861.7774691622334 1.127986593019159e-14
    vertex 541.9938063610732 878.535902483069 0.0
    vertex 497.709281738805 858.9390635906595 1.127986593019159e-14
  endloop
endfacet
facet normal 0.0 0.0 -1.0
  outer loop
    vertex 497.709281738805 858.9390635906595 1.127986593019159e-14
    vertex 541.9938063610732 878.535902483069 0.0
    vertex 510.8227034165165 813.5674872356782 1.127986593019159e-14
  endloop
endfacet
facet normal 0.0 0.0 -1.0
  outer loop
    vertex 497.709281738805 858.9390635906595 1.127986593019159e-14
    vertex 510.8227034165165 813.5674872356782 1.127986593019159e-14
    vertex 510.00111122632336 811.037578481048 1.127986593019159e-14
  endloop
endfacet
facet normal 0.0 0.0 -1.0
  outer loop
    vertex 497.709281738805 858.9390635906595 1.127986593019159e-14
    vertex 510.00111122632336 811.037578481048 1.127986593019159e-14
    vertex 509.8864265855992 808.3156811337099 1.127986593019159e-14
  endloop
endfacet
facet normal 0.0 0.0 -1.0
  outer loop
    vertex 510.8227034165165 813.5674872356782 1.127986593019159e-14
    vertex 541.9938063610732 878.535902483069 0.0
    vertex 512.2952130061627 815.7329982968448 1.127986593019159e-14
  endloop
endfacet
facet normal 0.0 0.0 -1.0
  outer loop
    vertex 512.2952130061627 815.7329982968448 1.127986593019159e-14
    vertex 541.9938063610732 878.535902483069 0.0
    vertex 514.3182909001639 817.386535664404 1.127986593019159e-14
  endloop
endfacet
facet normal 0.0 0.0 -1.0
  outer loop
    vertex 514.3182909001639 817.386535664404 1.127986593019159e-14
    vertex 541.9938063610732 878.535902483069 0.0
    vertex 516.7540676833389 818.4154134993578 1.127986593019159e-14
  endloop
endfacet
facet normal 0.0 0.0 -1.0
  outer loop
    vertex 516.7540676833389 818.4154134993578 1.127986593019159e-14
    vertex 541.9938063610732 878.535902483069 0.0
    vertex 519.4365491932255 818.7495154775547 1.127986593019159e-14
  endloop
endfacet
facet normal 0.0 0.0 -1.0
  outer loop
    vertex 519.4365491932255 818.7495154775547 1.127986593019159e-14
    vertex 541.9938063610732 878.535902483069 0.0
    vertex 522.1829287479355 818.3660731013103 1.127986593019159e-14
  endloop
endfacet
facet normal 0.0 0.0 -1.0
  outer loop
    vertex 522.1829287479355 818.3660731013103 1.127986593019159e-14
    vertex 541.9938063610732 878.535902483069 0.0
    vertex 524.806045119422 817.2912173348969 1.127986593019159e-14
  endloop
endfacet
facet normal 0.0 0.0 -1.0
  outer loop
    vertex 524.806045119422 817.2912173348969 1.127986593019159e-14
    vertex 541.9938063610732 878.535902483069 0.0
    vertex 527.1271372618734 815.5981978225125 1.127986593019159e-14
  endloop
endfacet
facet normal 0.0 0.0 -1.0
  outer loop
    vertex 527.1271372618734 815.5981978225125 1.127986593019159e-14
    vertex 541.9938063610732 878.535902483069 0.0
    vertex 528.9880265815669 813.4023910460791 1.127986593019159e-14
  endloop
endfacet
facet normal 0.0 0.0 -1.0
  outer loop
    vertex 528.9880265815669 813.4023910460791 1.127986593019159e-14
    vertex 541.9938063610732 878.535902483069 0.0
    vertex 530.261896546631 810.8534376086685 1.127986593019159e-14
  endloop
endfacet
facet normal 0.0 0.0 -1.0
  outer loop
    vertex 530.261896546631 810.8534376086685 1.127986593019159e-14
    vertex 541.9938063610732 878.535902483069 0.0
    vertex 530.8619350241161 808.1250444746954 1.127986593019159e-14
  endloop
endfacet
facet normal 0.0 0.0 -1.0
  outer loop
    vertex 436.99380636107327 787.8486624830687 0.0
    vertex 455.7786800398323 798.1915987765304 1.127986593019159e-14
    vertex 541.9938063610732 787.8486624830687 0.0
  endloop
endfacet
facet normal 0.0 0.0 -1.0
  outer loop
    vertex 455.7786800398323 798.1915987765304 1.127986593019159e-14
    vertex 436.99380636107327 787.8486624830687 0.0
    vertex 453.24877128520194 799.0131909667236 1.127986593019159e-14
  endloop
endfacet
facet normal 0.0 0.0 -1.0
  outer loop
    vertex 453.24877128520194 799.0131909667236 1.127986593019159e-14
    vertex 436.99380636107327 787.8486624830687 0.0
    vertex 451.083260224036 800.4857005563696 1.127986593019159e-14
  endloop
endfacet
facet normal 0.0 0.0 -1.0
  outer loop
    vertex 451.083260224036 800.4857005563696 1.127986593019159e-14
    vertex 436.99380636107327 787.8486624830687 0.0
    vertex 449.42972285647625 802.5087784503711 1.127986593019159e-14
  endloop
endfacet
facet normal 0.0 0.0 -1.0
  outer loop
    vertex 449.42972285647625 802.5087784503711 1.127986593019159e-14
    vertex 436.99380636107327 787.8486624830687 0.0
    vertex 448.40084502152223 804.944555233546 1.127986593019159e-14
  endloop
endfacet
facet normal 0.0 0.0 -1.0
  outer loop
    vertex 448.40084502152223 804.944555233546 1.127986593019159e-14
    vertex 436.99380636107327 787.8486624830687 0.0
    vertex 448.0667430433253 807.6270367434327 1.127986593019159e-14
  endloop
endfacet
facet normal 0.0 0.0 -1.0
  outer loop
    vertex 541.9938063610732 787.8486624830687 0.0
    vertex 455.7786800398323 798.1915987765304 1.127986593019159e-14
    vertex 458.5005773871706 798.0769141358061 1.127986593019159e-14
  endloop
endfacet
facet normal 0.0 0.0 -1.0
  outer loop
    vertex 541.9938063610732 787.8486624830687 0.0
    vertex 458.5005773871706 798.0769141358061 1.127986593019159e-14
    vertex 461.2289705211436 798.6769526132912 0.0
  endloop
endfacet
facet normal 0.0 0.0 -1.0
  outer loop
    vertex 541.9938063610732 787.8486624830687 0.0
    vertex 461.2289705211436 798.6769526132912 0.0
    vertex 463.7779239585542 799.9508225783553 0.0
  endloop
endfacet
facet normal 0.0 0.0 -1.0
  outer loop
    vertex 541.9938063610732 787.8486624830687 0.0
    vertex 463.7779239585542 799.9508225783553 0.0
    vertex 465.9737307349878 801.8117118980489 1.127986593019159e-14
  endloop
endfacet
facet normal 0.0 0.0 -1.0
  outer loop
    vertex 541.9938063610732 787.8486624830687 0.0
    vertex 465.9737307349878 801.8117118980489 1.127986593019159e-14
    vertex 467.6667502473721 804.1328040405002 1.127986593019159e-14
  endloop
endfacet
facet normal 0.0 0.0 -1.0
  outer loop
    vertex 541.9938063610732 787.8486624830687 0.0
    vertex 467.6667502473721 804.1328040405002 1.127986593019159e-14
    vertex 468.74160601378543 806.7559204119865 1.127986593019159e-14
  endloop
endfacet
facet normal 0.0 0.0 -1.0
  outer loop
    vertex 541.9938063610732 787.8486624830687 0.0
    vertex 468.74160601378543 806.7559204119865 1.127986593019159e-14
    vertex 469.12504839003003 809.5022999666966 1.127986593019159e-14
  endloop
endfacet
facet normal 0.0 0.0 -1.0
  outer loop
    vertex 541.9938063610732 787.8486624830687 0.0
    vertex 469.12504839003003 809.5022999666966 1.127986593019159e-14
    vertex 515.9423164902933 799.1495082735082 1.127986593019159e-14
  endloop
endfacet
facet normal 0.0 0.0 -1.0
  outer loop
    vertex 515.9423164902933 799.1495082735082 1.127986593019159e-14
    vertex 469.12504839003003 809.5022999666966 1.127986593019159e-14
    vertex 513.6212243478421 800.8425277858926 2.255973186038318e-14
  endloop
endfacet
facet normal 0.0 0.0 -1.0
  outer loop
    vertex 513.6212243478421 800.8425277858926 2.255973186038318e-14
    vertex 469.12504839003003 809.5022999666966 1.127986593019159e-14
    vertex 511.76033502814846 803.038334562326 2.255973186038318e-14
  endloop
endfacet
facet normal 0.0 0.0 -1.0
  outer loop
    vertex 511.76033502814846 803.038334562326 2.255973186038318e-14
    vertex 469.12504839003003 809.5022999666966 1.127986593019159e-14
    vertex 479.2642247760222 852.6020851075201 0.0
  endloop
endfacet
facet normal 0.0 0.0 -1.0
  outer loop
    vertex 479.2642247760222 852.6020851075201 0.0
    vertex 469.12504839003003 809.5022999666966 1.127986593019159e-14
    vertex 478.16943920313093 855.216946282868 1.127986593019159e-14
  endloop
endfacet
facet normal 0.0 0.0 -1.0
  outer loop
    vertex 478.16943920313093 855.216946282868 1.127986593019159e-14
    vertex 469.12504839003003 809.5022999666966 1.127986593019159e-14
    vertex 477.7253247873332 858.0553518544423 1.127986593019159e-14
  endloop
endfacet
facet normal 0.0 0.0 -1.0
  outer loop
    vertex 511.76033502814846 803.038334562326 2.255973186038318e-14
    vertex 479.2642247760222 852.6020851075201 0.0
    vertex 480.93507367843256 850.3889667962356 1.127986593019159e-14
  endloop
endfacet
facet normal 0.0 0.0 -1.0
  outer loop
    vertex 511.76033502814846 803.038334562326 2.255973186038318e-14
    vertex 480.93507367843256 850.3889667962356 1.127986593019159e-14
    vertex 483.0681203188721 848.7284117045779 1.127986593019159e-14
  endloop
endfacet
facet normal 0.0 0.0 -1.0
  outer loop
    vertex 511.76033502814846 803.038334562326 2.255973186038318e-14
    vertex 483.0681203188721 848.7284117045779 1.127986593019159e-14
    vertex 485.5180010938202 847.7335839178463 1.127986593019159e-14
  endloop
endfacet
facet normal 0.0 0.0 -1.0
  outer loop
    vertex 511.76033502814846 803.038334562326 2.255973186038318e-14
    vertex 485.5180010938202 847.7335839178463 1.127986593019159e-14
    vertex 488.117760677084 847.4722793056758 1.127986593019159e-14
  endloop
endfacet
facet normal 0.0 0.0 -1.0
  outer loop
    vertex 511.76033502814846 803.038334562326 2.255973186038318e-14
    vertex 488.117760677084 847.4722793056758 1.127986593019159e-14
    vertex 510.4864650630843 805.5872879997366 1.127986593019159e-14
  endloop
endfacet
facet normal 0.0 0.0 -1.0
  outer loop
    vertex 510.4864650630843 805.5872879997366 1.127986593019159e-14
    vertex 488.117760677084 847.4722793056758 1.127986593019159e-14
    vertex 490.69022974936985 847.96230534556 2.255973186038318e-14
  endloop
endfacet
facet normal 0.0 0.0 -1.0
  outer loop
    vertex 510.4864650630843 805.5872879997366 1.127986593019159e-14
    vertex 490.69022974936985 847.96230534556 2.255973186038318e-14
    vertex 493.0600987946077 849.1702675726865 1.127986593019159e-14
  endloop
endfacet
facet normal 0.0 0.0 -1.0
  outer loop
    vertex 510.4864650630843 805.5872879997366 1.127986593019159e-14
    vertex 493.0600987946077 849.1702675726865 1.127986593019159e-14
    vertex 495.065865153758 851.013845357529 1.127986593019159e-14
  endloop
endfacet
facet normal 0.0 0.0 -1.0
  outer loop
    vertex 510.4864650630843 805.5872879997366 1.127986593019159e-14
    vertex 495.065865153758 851.013845357529 1.127986593019159e-14
    vertex 496.570839164131 853.3674019207067 1.127986593019159e-14
  endloop
endfacet
facet normal 0.0 0.0 -1.0
  outer loop
    vertex 510.4864650630843 805.5872879997366 1.127986593019159e-14
    vertex 496.570839164131 853.3674019207067 1.127986593019159e-14
    vertex 497.47245933400626 856.0705462718752 1.127986593019159e-14
  endloop
endfacet
facet normal 0.0 0.0 -1.0
  outer loop
    vertex 510.4864650630843 805.5872879997366 1.127986593019159e-14
    vertex 497.47245933400626 856.0705462718752 1.127986593019159e-14
    vertex 497.709281738805 858.9390635906595 1.127986593019159e-14
  endloop
endfacet
facet normal 0.0 0.0 -1.0
  outer loop
    vertex 510.4864650630843 805.5872879997366 1.127986593019159e-14
    vertex 497.709281738805 858.9390635906595 1.127986593019159e-14
    vertex 509.8864265855992 808.3156811337099 1.127986593019159e-14
  endloop
endfacet
facet normal 0.0 0.0 -1.0
  outer loop
    vertex 541.9938063610732 787.8486624830687 0.0
    vertex 515.9423164902933 799.1495082735082 1.127986593019159e-14
    vertex 518.5654328617796 798.0746525070949 0.0
  endloop
endfacet
facet normal 0.0 0.0 -1.0
  outer loop
    vertex 541.9938063610732 787.8486624830687 0.0
    vertex 518.5654328617796 798.0746525070949 0.0
    vertex 521.3118124164896 797.6912101308501 1.127986593019159e-14
  endloop
endfacet
facet normal 0.0 0.0 -1.0
  outer loop
    vertex 541.9938063610732 787.8486624830687 0.0
    vertex 521.3118124164896 797.6912101308501 1.127986593019159e-14
    vertex 523.9942939263764 798.025312109047 1.127986593019159e-14
  endloop
endfacet
facet normal 0.0 0.0 -1.0
  outer loop
    vertex 541.9938063610732 787.8486624830687 0.0
    vertex 523.9942939263764 798.025312109047 1.127986593019159e-14
    vertex 526.4300707095513 799.0541899440009 1.127986593019159e-14
  endloop
endfacet
facet normal 0.0 0.0 -1.0
  outer loop
    vertex 541.9938063610732 787.8486624830687 0.0
    vertex 526.4300707095513 799.0541899440009 1.127986593019159e-14
    vertex 528.453148603553 800.7077273115607 1.127986593019159e-14
  endloop
endfacet
facet normal 0.0 0.0 -1.0
  outer loop
    vertex 541.9938063610732 787.8486624830687 0.0
    vertex 528.453148603553 800.7077273115607 1.127986593019159e-14
    vertex 529.9256581931986 802.8732383727266 1.127986593019159e-14
  endloop
endfacet
facet normal 0.0 0.0 -1.0
  outer loop
    vertex 541.9938063610732 787.8486624830687 0.0
    vertex 529.9256581931986 802.8732383727266 1.127986593019159e-14
    vertex 530.7472503833917 805.403147127357 1.127986593019159e-14
  endloop
endfacet
facet normal 0.0 0.0 -1.0
  outer loop
    vertex 541.9938063610732 787.8486624830687 0.0
    vertex 530.7472503833917 805.403147127357 1.127986593019159e-14
    vertex 530.8619350241161 808.1250444746954 1.127986593019159e-14
  endloop
endfacet
facet normal 0.0 0.0 -1.0
  outer loop
    vertex 541.9938063610732 787.8486624830687 0.0
    vertex 530.8619350241161 808.1250444746954 1.127986593019159e-14
    vertex 541.9938063610732 878.535902483069 0.0
  endloop
endfacet
facet normal -1.0 0.0 0.0
  outer loop
    vertex 436.99380636107327 878.535902483069 4.000000000000169
    vertex 436.99380636107327 787.8486624830687 0.0
    vertex 436.99380636107327 787.8486624830687 4.000000000000169
  endloop
endfacet
facet normal -1.0 0.0 0.0
  outer loop
    vertex 436.99380636107327 787.8486624830687 0.0
    vertex 436.99380636107327 878.535902483069 4.000000000000169
    vertex 436.99380636107327 878.535902483069 0.0
  endloop
endfacet
facet normal 0.0 1.0 0.0
  outer loop
    vertex 436.99380636107327 878.535902483069 4.000000000000169
    vertex 541.9938063610732 878.535902483069 0.0
    vertex 436.99380636107327 878.535902483069 0.0
  endloop
endfacet
facet normal 0.0 1.0 0.0
  outer loop
    vertex 541.9938063610732 878.535902483069 0.0
    vertex 436.99380636107327 878.535902483069 4.000000000000169
    vertex 541.9938063610732 878.535902483069 4.000000000000169
  endloop
endfacet
facet normal -0.5892986131161734 -0.8079153078011053 9.54816000666265e-17
  outer loop
    vertex 527.1271372618734 815.5981978225125 1.000000000000011
    vertex 524.806045119422 817.2912173348969 1.127986593019159e-14
    vertex 527.1271372618734 815.5981978225125 1.127986593019159e-14
  endloop
endfacet
facet normal -0.5892986131161734 -0.8079153078011053 9.54816000666265e-17
  outer loop
    vertex 524.806045119422 817.2912173348969 1.127986593019159e-14
    vertex 527.1271372618734 815.5981978225125 1.000000000000011
    vertex 524.806045119422 817.2912173348969 1.000000000000011
  endloop
endfacet
facet normal 2.604278044589764e-17 6.298164109700485e-18 -1.0
  outer loop
    vertex 477.96214719213214 860.9238691732266 1.000000000000011
    vertex 478.16943920313093 855.216946282868 1.000000000000011
    vertex 477.7253247873332 858.0553518544423 1.000000000000011
  endloop
endfacet
facet normal 2.604278044589764e-17 6.298164109700485e-18 -1.0
  outer loop
    vertex 478.16943920313093 855.216946282868 1.000000000000011
    vertex 477.96214719213214 860.9238691732266 1.000000000000011
    vertex 478.8637673620074 863.6270135243952 1.000000000000011
  endloop
endfacet
facet normal 2.604278044589764e-17 6.298164109700485e-18 -1.0
  outer loop
    vertex 478.16943920313093 855.216946282868 1.000000000000011
    vertex 478.8637673620074 863.6270135243952 1.000000000000011
    vertex 479.2642247760222 852.6020851075201 0.9999999999999999
  endloop
endfacet
facet normal 2.604278044589764e-17 6.298164109700485e-18 -1.0
  outer loop
    vertex 479.2642247760222 852.6020851075201 0.9999999999999999
    vertex 478.8637673620074 863.6270135243952 1.000000000000011
    vertex 479.3887496961057 864.4480081790891 1.0000000000000224
  endloop
endfacet
facet normal 2.604278044589764e-17 6.298164109700485e-18 -1.0
  outer loop
    vertex 479.2642247760222 852.6020851075201 0.9999999999999999
    vertex 479.3887496961057 864.4480081790891 1.0000000000000224
    vertex 480.93507367843256 850.3889667962356 1.000000000000011
  endloop
endfacet
facet normal 2.604278044589764e-17 6.298164109700485e-18 -1.0
  outer loop
    vertex 480.93507367843256 850.3889667962356 1.000000000000011
    vertex 479.3887496961057 864.4480081790891 1.0000000000000224
    vertex 480.3687413723803 865.980570087573 1.000000000000011
  endloop
endfacet
facet normal 2.604278044589764e-17 6.298164109700485e-18 -1.0
  outer loop
    vertex 480.93507367843256 850.3889667962356 1.000000000000011
    vertex 480.3687413723803 865.980570087573 1.000000000000011
    vertex 482.3745077315312 867.8241478724153 1.000000000000011
  endloop
endfacet
facet normal 2.604278044589764e-17 6.298164109700485e-18 -1.0
  outer loop
    vertex 480.93507367843256 850.3889667962356 1.000000000000011
    vertex 482.3745077315312 867.8241478724153 1.000000000000011
    vertex 483.0681203188721 848.7284117045779 1.000000000000011
  endloop
endfacet
facet normal 2.604278044589764e-17 6.298164109700485e-18 -1.0
  outer loop
    vertex 483.0681203188721 848.7284117045779 1.000000000000011
    vertex 482.3745077315312 867.8241478724153 1.000000000000011
    vertex 484.74437677676906 869.0321100995417 1.000000000000011
  endloop
endfacet
facet normal 2.604278044589764e-17 6.298164109700485e-18 -1.0
  outer loop
    vertex 483.0681203188721 848.7284117045779 1.000000000000011
    vertex 484.74437677676906 869.0321100995417 1.000000000000011
    vertex 485.5180010938202 847.7335839178463 1.000000000000011
  endloop
endfacet
facet normal 2.604278044589764e-17 6.298164109700485e-18 -1.0
  outer loop
    vertex 485.5180010938202 847.7335839178463 1.000000000000011
    vertex 484.74437677676906 869.0321100995417 1.000000000000011
    vertex 487.31684584905474 869.5221361394257 1.000000000000011
  endloop
endfacet
facet normal 2.604278044589764e-17 6.298164109700485e-18 -1.0
  outer loop
    vertex 485.5180010938202 847.7335839178463 1.000000000000011
    vertex 487.31684584905474 869.5221361394257 1.000000000000011
    vertex 488.117760677084 847.4722793056758 1.000000000000011
  endloop
endfacet
facet normal 2.604278044589764e-17 6.298164109700485e-18 -1.0
  outer loop
    vertex 488.117760677084 847.4722793056758 1.000000000000011
    vertex 487.31684584905474 869.5221361394257 1.000000000000011
    vertex 489.9166054323186 869.2608315272554 1.000000000000011
  endloop
endfacet
facet normal 2.604278044589764e-17 6.298164109700485e-18 -1.0
  outer loop
    vertex 488.117760677084 847.4722793056758 1.000000000000011
    vertex 489.9166054323186 869.2608315272554 1.000000000000011
    vertex 490.69022974936985 847.96230534556 1.0000000000000224
  endloop
endfacet
facet normal 2.604278044589764e-17 6.298164109700485e-18 -1.0
  outer loop
    vertex 490.69022974936985 847.96230534556 1.0000000000000224
    vertex 489.9166054323186 869.2608315272554 1.000000000000011
    vertex 492.3664862072668 868.2660037405237 1.000000000000011
  endloop
endfacet
facet normal 2.604278044589764e-17 6.298164109700485e-18 -1.0
  outer loop
    vertex 490.69022974936985 847.96230534556 1.0000000000000224
    vertex 492.3664862072668 868.2660037405237 1.000000000000011
    vertex 493.0600987946077 849.1702675726865 1.000000000000011
  endloop
endfacet
facet normal 2.604278044589764e-17 6.298164109700485e-18 -1.0
  outer loop
    vertex 493.0600987946077 849.1702675726865 1.000000000000011
    vertex 492.3664862072668 868.2660037405237 1.000000000000011
    vertex 494.499532847706 866.6054486488662 1.000000000000011
  endloop
endfacet
facet normal 2.604278044589764e-17 6.298164109700485e-18 -1.0
  outer loop
    vertex 493.0600987946077 849.1702675726865 1.000000000000011
    vertex 494.499532847706 866.6054486488662 1.000000000000011
    vertex 495.065865153758 851.013845357529 1.000000000000011
  endloop
endfacet
facet normal 2.604278044589764e-17 6.298164109700485e-18 -1.0
  outer loop
    vertex 495.065865153758 851.013845357529 1.000000000000011
    vertex 494.499532847706 866.6054486488662 1.000000000000011
    vertex 496.12834637410555 864.4480081790891 1.000000000000011
  endloop
endfacet
facet normal 2.604278044589764e-17 6.298164109700485e-18 -1.0
  outer loop
    vertex 495.065865153758 851.013845357529 1.000000000000011
    vertex 496.12834637410555 864.4480081790891 1.000000000000011
    vertex 496.570839164131 853.3674019207067 1.000000000000011
  endloop
endfacet
facet normal 2.604278044589764e-17 6.298164109700485e-18 -1.0
  outer loop
    vertex 496.570839164131 853.3674019207067 1.000000000000011
    vertex 496.12834637410555 864.4480081790891 1.000000000000011
    vertex 496.1703817501164 864.3923303375815 1.000000000000011
  endloop
endfacet
facet normal 2.604278044589764e-17 6.298164109700485e-18 -1.0
  outer loop
    vertex 496.570839164131 853.3674019207067 1.000000000000011
    vertex 496.1703817501164 864.3923303375815 1.000000000000011
    vertex 497.2651673230073 861.7774691622334 1.000000000000011
  endloop
endfacet
facet normal 2.604278044589764e-17 6.298164109700485e-18 -1.0
  outer loop
    vertex 496.570839164131 853.3674019207067 1.000000000000011
    vertex 497.2651673230073 861.7774691622334 1.000000000000011
    vertex 497.47245933400626 856.0705462718752 1.000000000000011
  endloop
endfacet
facet normal 2.604278044589764e-17 6.298164109700485e-18 -1.0
  outer loop
    vertex 497.47245933400626 856.0705462718752 1.000000000000011
    vertex 497.2651673230073 861.7774691622334 1.000000000000011
    vertex 497.709281738805 858.9390635906595 1.000000000000011
  endloop
endfacet
facet normal 0.6142906331885144 0.7890798552598172 2.096759051418496e-17
  outer loop
    vertex 480.93507367843256 850.3889667962356 1.000000000000011
    vertex 483.0681203188721 848.7284117045779 1.127986593019159e-14
    vertex 480.93507367843256 850.3889667962356 1.127986593019159e-14
  endloop
endfacet
facet normal 0.6142906331885144 0.7890798552598172 2.096759051418496e-17
  outer loop
    vertex 483.0681203188721 848.7284117045779 1.127986593019159e-14
    vertex 480.93507367843256 850.3889667962356 1.000000000000011
    vertex 483.0681203188721 848.7284117045779 1.000000000000011
  endloop
endfacet
facet normal 0.9486230551502658 -0.3164084373675518 2.2711989686960292e-17
  outer loop
    vertex 478.8637673620074 863.6270135243952 1.127986593019159e-14
    vertex 477.96214719213214 860.9238691732266 1.000000000000011
    vertex 477.96214719213214 860.9238691732266 1.127986593019159e-14
  endloop
endfacet
facet normal 0.9486230551502658 -0.3164084373675518 2.2711989686960292e-17
  outer loop
    vertex 477.96214719213214 860.9238691732266 1.000000000000011
    vertex 478.8637673620074 863.6270135243952 1.127986593019159e-14
    vertex 478.8637673620074 863.6270135243952 1.000000000000011
  endloop
endfacet
facet normal 0.8424829743811385 -0.5387229695102205 1.8547633459574256e-17
  outer loop
    vertex 479.3887496961057 864.4480081790891 2.255973186038318e-14
    vertex 478.8637673620074 863.6270135243952 1.000000000000011
    vertex 478.8637673620074 863.6270135243952 1.127986593019159e-14
  endloop
endfacet
facet normal 0.8424829743811385 -0.5387229695102205 1.8547633459574256e-17
  outer loop
    vertex 478.8637673620074 863.6270135243952 1.000000000000011
    vertex 479.3887496961057 864.4480081790891 2.255973186038318e-14
    vertex 479.3887496961057 864.4480081790891 1.0000000000000224
  endloop
endfacet
facet normal 0.6767130759874597 -0.7362468422937993 1.2986486624794338e-17
  outer loop
    vertex 482.3745077315312 867.8241478724153 1.000000000000011
    vertex 480.3687413723803 865.980570087573 1.127986593019159e-14
    vertex 482.3745077315312 867.8241478724153 1.127986593019159e-14
  endloop
endfacet
facet normal 0.6767130759874597 -0.7362468422937993 1.2986486624794338e-17
  outer loop
    vertex 480.3687413723803 865.980570087573 1.127986593019159e-14
    vertex 482.3745077315312 867.8241478724153 1.000000000000011
    vertex 480.3687413723803 865.980570087573 1.000000000000011
  endloop
endfacet
facet normal 0.8424829743811661 -0.5387229695101775 1.854763345957525e-17
  outer loop
    vertex 480.3687413723803 865.980570087573 1.127986593019159e-14
    vertex 479.3887496961057 864.4480081790891 1.0000000000000224
    vertex 479.3887496961057 864.4480081790891 2.255973186038318e-14
  endloop
endfacet
facet normal 0.8424829743811661 -0.5387229695101775 1.854763345957525e-17
  outer loop
    vertex 479.3887496961057 864.4480081790891 1.0000000000000224
    vertex 480.3687413723803 865.980570087573 1.127986593019159e-14
    vertex 480.3687413723803 865.980570087573 1.000000000000011
  endloop
endfacet
facet normal 0.18712387426768234 -0.982336325134652 -1.313689412879124e-18
  outer loop
    vertex 487.31684584905474 869.5221361394257 1.000000000000011
    vertex 484.74437677676906 869.0321100995417 1.127986593019159e-14
    vertex 487.31684584905474 869.5221361394257 1.127986593019159e-14
  endloop
endfacet
facet normal 0.18712387426768234 -0.982336325134652 -1.313689412879124e-18
  outer loop
    vertex 484.74437677676906 869.0321100995417 1.127986593019159e-14
    vertex 487.31684584905474 869.5221361394257 1.000000000000011
    vertex 484.74437677676906 869.0321100995417 1.000000000000011
  endloop
endfacet
facet normal -0.10000717740999311 -0.9949867157236253 -8.87105458690168e-18
  outer loop
    vertex 489.9166054323186 869.2608315272554 1.000000000000011
    vertex 487.31684584905474 869.5221361394257 1.127986593019159e-14
    vertex 489.9166054323186 869.2608315272554 1.127986593019159e-14
  endloop
endfacet
facet normal -0.10000717740999311 -0.9949867157236253 -8.87105458690168e-18
  outer loop
    vertex 487.31684584905474 869.5221361394257 1.127986593019159e-14
    vertex 489.9166054323186 869.2608315272554 1.000000000000011
    vertex 487.31684584905474 869.5221361394257 1.000000000000011
  endloop
endfacet
facet normal -0.6142906331885376 -0.7890798552597991 -2.0967590514185446e-17
  outer loop
    vertex 494.499532847706 866.6054486488662 1.000000000000011
    vertex 492.3664862072668 868.2660037405237 1.127986593019159e-14
    vertex 494.499532847706 866.6054486488662 1.127986593019159e-14
  endloop
endfacet
facet normal -0.6142906331885376 -0.7890798552597991 -2.0967590514185446e-17
  outer loop
    vertex 492.3664862072668 868.2660037405237 1.127986593019159e-14
    vertex 494.499532847706 866.6054486488662 1.000000000000011
    vertex 492.3664862072668 868.2660037405237 1.000000000000011
  endloop
endfacet
facet normal 0.4541258864246467 -0.8909375282695352 6.215429990423274e-18
  outer loop
    vertex 484.74437677676906 869.0321100995417 1.000000000000011
    vertex 482.3745077315312 867.8241478724153 1.127986593019159e-14
    vertex 484.74437677676906 869.0321100995417 1.127986593019159e-14
  endloop
endfacet
facet normal 0.4541258864246467 -0.8909375282695352 6.215429990423274e-18
  outer loop
    vertex 482.3745077315312 867.8241478724153 1.127986593019159e-14
    vertex 484.74437677676906 869.0321100995417 1.000000000000011
    vertex 482.3745077315312 867.8241478724153 1.000000000000011
  endloop
endfacet
facet normal -0.7980901413818339 -0.6025380703566576 -2.4579369977490994e-17
  outer loop
    vertex 494.499532847706 866.6054486488662 1.000000000000011
    vertex 496.12834637410555 864.4480081790891 1.127986593019159e-14
    vertex 496.12834637410555 864.4480081790891 1.000000000000011
  endloop
endfacet
facet normal -0.7980901413818339 -0.6025380703566576 -2.4579369977490994e-17
  outer loop
    vertex 496.12834637410555 864.4480081790891 1.127986593019159e-14
    vertex 494.499532847706 866.6054486488662 1.000000000000011
    vertex 494.499532847706 866.6054486488662 1.127986593019159e-14
  endloop
endfacet
facet normal -0.7980901413821259 -0.6025380703562708 -2.4579369977496158e-17
  outer loop
    vertex 496.12834637410555 864.4480081790891 1.000000000000011
    vertex 496.1703817501164 864.3923303375815 1.127986593019159e-14
    vertex 496.1703817501164 864.3923303375815 1.000000000000011
  endloop
endfacet
facet normal -0.7980901413821259 -0.6025380703562708 -2.4579369977496158e-17
  outer loop
    vertex 496.1703817501164 864.3923303375815 1.127986593019159e-14
    vertex 496.12834637410555 864.4480081790891 1.000000000000011
    vertex 496.12834637410555 864.4480081790891 1.127986593019159e-14
  endloop
endfacet
facet normal -0.3762354192654854 -0.9265241007605384 -1.5633617258083825e-17
  outer loop
    vertex 492.3664862072668 868.2660037405237 1.000000000000011
    vertex 489.9166054323186 869.2608315272554 1.127986593019159e-14
    vertex 492.3664862072668 868.2660037405237 1.127986593019159e-14
  endloop
endfacet
facet normal -0.3762354192654854 -0.9265241007605384 -1.5633617258083825e-17
  outer loop
    vertex 489.9166054323186 869.2608315272554 1.127986593019159e-14
    vertex 492.3664862072668 868.2660037405237 1.000000000000011
    vertex 489.9166054323186 869.2608315272554 1.000000000000011
  endloop
endfacet
facet normal 0.9966093152545034 -0.08227923643271057 2.5436269453635362e-17
  outer loop
    vertex 477.96214719213214 860.9238691732266 1.127986593019159e-14
    vertex 477.7253247873332 858.0553518544423 1.000000000000011
    vertex 477.7253247873332 858.0553518544423 1.127986593019159e-14
  endloop
endfacet
facet normal 0.9966093152545034 -0.08227923643271057 2.5436269453635362e-17
  outer loop
    vertex 477.7253247873332 858.0553518544423 1.000000000000011
    vertex 477.96214719213214 860.9238691732266 1.127986593019159e-14
    vertex 477.96214719213214 860.9238691732266 1.000000000000011
  endloop
endfacet
facet normal 0.987979438248862 0.15458534729224208 2.670333548157798e-17
  outer loop
    vertex 477.7253247873332 858.0553518544423 1.127986593019159e-14
    vertex 478.16943920313093 855.216946282868 1.000000000000011
    vertex 478.16943920313093 855.216946282868 1.127986593019159e-14
  endloop
endfacet
facet normal 0.987979438248862 0.15458534729224208 2.670333548157798e-17
  outer loop
    vertex 478.16943920313093 855.216946282868 1.000000000000011
    vertex 477.7253247873332 858.0553518544423 1.127986593019159e-14
    vertex 477.7253247873332 858.0553518544423 1.000000000000011
  endloop
endfacet
facet normal 0.7980901413818332 0.6025380703566583 2.4579369977490978e-17
  outer loop
    vertex 479.2642247760222 852.6020851075201 0.0
    vertex 480.93507367843256 850.3889667962356 1.000000000000011
    vertex 480.93507367843256 850.3889667962356 1.127986593019159e-14
  endloop
endfacet
facet normal 0.7980901413818332 0.6025380703566583 2.4579369977490978e-17
  outer loop
    vertex 480.93507367843256 850.3889667962356 1.000000000000011
    vertex 479.2642247760222 852.6020851075201 0.0
    vertex 479.2642247760222 852.6020851075201 0.9999999999999999
  endloop
endfacet
facet normal 0.9224167961582042 0.3861958753860976 2.645462310362751e-17
  outer loop
    vertex 478.16943920313093 855.216946282868 1.127986593019159e-14
    vertex 479.2642247760222 852.6020851075201 0.9999999999999999
    vertex 479.2642247760222 852.6020851075201 0.0
  endloop
endfacet
facet normal 0.9224167961582042 0.3861958753860976 2.645462310362751e-17
  outer loop
    vertex 479.2642247760222 852.6020851075201 0.9999999999999999
    vertex 478.16943920313093 855.216946282868 1.127986593019159e-14
    vertex 478.16943920313093 855.216946282868 1.000000000000011
  endloop
endfacet
facet normal -0.9224167961582703 -0.3861958753859395 -2.645462310362824e-17
  outer loop
    vertex 496.1703817501164 864.3923303375815 1.000000000000011
    vertex 497.2651673230073 861.7774691622334 1.127986593019159e-14
    vertex 497.2651673230073 861.7774691622334 1.000000000000011
  endloop
endfacet
facet normal -0.9224167961582703 -0.3861958753859395 -2.645462310362824e-17
  outer loop
    vertex 497.2651673230073 861.7774691622334 1.127986593019159e-14
    vertex 496.1703817501164 864.3923303375815 1.000000000000011
    vertex 496.1703817501164 864.3923303375815 1.127986593019159e-14
  endloop
endfacet
facet normal -0.8424829743811565 0.5387229695101925 -1.8547633459574903e-17
  outer loop
    vertex 496.570839164131 853.3674019207067 1.000000000000011
    vertex 495.065865153758 851.013845357529 1.127986593019159e-14
    vertex 495.065865153758 851.013845357529 1.000000000000011
  endloop
endfacet
facet normal -0.8424829743811565 0.5387229695101925 -1.8547633459574903e-17
  outer loop
    vertex 495.065865153758 851.013845357529 1.127986593019159e-14
    vertex 496.570839164131 853.3674019207067 1.000000000000011
    vertex 496.570839164131 853.3674019207067 1.127986593019159e-14
  endloop
endfacet
facet normal -0.4541258864246467 0.8909375282695352 -6.215429990423274e-18
  outer loop
    vertex 490.69022974936985 847.96230534556 2.255973186038318e-14
    vertex 493.0600987946077 849.1702675726865 1.000000000000011
    vertex 493.0600987946077 849.1702675726865 1.127986593019159e-14
  endloop
endfacet
facet normal -0.4541258864246467 0.8909375282695352 -6.215429990423274e-18
  outer loop
    vertex 493.0600987946077 849.1702675726865 1.000000000000011
    vertex 490.69022974936985 847.96230534556 2.255973186038318e-14
    vertex 490.69022974936985 847.96230534556 1.0000000000000224
  endloop
endfacet
facet normal 0.10000717741006493 0.9949867157236181 8.871054586903506e-18
  outer loop
    vertex 485.5180010938202 847.7335839178463 1.000000000000011
    vertex 488.117760677084 847.4722793056758 1.127986593019159e-14
    vertex 485.5180010938202 847.7335839178463 1.127986593019159e-14
  endloop
endfacet
facet normal 0.10000717741006493 0.9949867157236181 8.871054586903506e-18
  outer loop
    vertex 488.117760677084 847.4722793056758 1.127986593019159e-14
    vertex 485.5180010938202 847.7335839178463 1.000000000000011
    vertex 488.117760677084 847.4722793056758 1.000000000000011
  endloop
endfacet
facet normal 0.37623541926549736 0.9265241007605336 1.5633617258084103e-17
  outer loop
    vertex 483.0681203188721 848.7284117045779 1.000000000000011
    vertex 485.5180010938202 847.7335839178463 1.127986593019159e-14
    vertex 483.0681203188721 848.7284117045779 1.127986593019159e-14
  endloop
endfacet
facet normal 0.37623541926549736 0.9265241007605336 1.5633617258084103e-17
  outer loop
    vertex 485.5180010938202 847.7335839178463 1.127986593019159e-14
    vertex 483.0681203188721 848.7284117045779 1.000000000000011
    vertex 485.5180010938202 847.7335839178463 1.000000000000011
  endloop
endfacet
facet normal -0.8269332373252303 0.5623001164919088 7.96319352843798e-17
  outer loop
    vertex 529.9256581931986 802.8732383727266 1.000000000000011
    vertex 528.453148603553 800.7077273115607 1.127986593019159e-14
    vertex 528.453148603553 800.7077273115607 1.000000000000011
  endloop
endfacet
facet normal -0.8269332373252303 0.5623001164919088 7.96319352843798e-17
  outer loop
    vertex 528.453148603553 800.7077273115607 1.127986593019159e-14
    vertex 529.9256581931986 802.8732383727266 1.000000000000011
    vertex 529.9256581931986 802.8732383727266 1.127986593019159e-14
  endloop
endfacet
facet normal -0.6767130759875946 0.7362468422936753 -1.2986486624798639e-17
  outer loop
    vertex 493.0600987946077 849.1702675726865 1.000000000000011
    vertex 495.065865153758 851.013845357529 1.127986593019159e-14
    vertex 493.0600987946077 849.1702675726865 1.127986593019159e-14
  endloop
endfacet
facet normal -0.6767130759875946 0.7362468422936753 -1.2986486624798639e-17
  outer loop
    vertex 495.065865153758 851.013845357529 1.127986593019159e-14
    vertex 493.0600987946077 849.1702675726865 1.000000000000011
    vertex 495.065865153758 851.013845357529 1.000000000000011
  endloop
endfacet
facet normal -0.9991135397614709 0.042096729864727324 1.16635796374904e-16
  outer loop
    vertex 530.8619350241161 808.1250444746954 1.000000000000011
    vertex 530.7472503833917 805.403147127357 1.127986593019159e-14
    vertex 530.7472503833917 805.403147127357 1.000000000000011
  endloop
endfacet
facet normal -0.9991135397614709 0.042096729864727324 1.16635796374904e-16
  outer loop
    vertex 530.7472503833917 805.403147127357 1.127986593019159e-14
    vertex 530.8619350241161 808.1250444746954 1.000000000000011
    vertex 530.8619350241161 808.1250444746954 1.127986593019159e-14
  endloop
endfacet
facet normal 0.7628894110424469 0.646528998977856 -1.1080885171044982e-16
  outer loop
    vertex 511.76033502814846 803.038334562326 2.255973186038318e-14
    vertex 513.6212243478421 800.8425277858926 1.0000000000000224
    vertex 513.6212243478421 800.8425277858926 2.255973186038318e-14
  endloop
endfacet
facet normal 0.7628894110424469 0.646528998977856 -1.1080885171044982e-16
  outer loop
    vertex 513.6212243478421 800.8425277858926 1.0000000000000224
    vertex 511.76033502814846 803.038334562326 2.255973186038318e-14
    vertex 511.76033502814846 803.038334562326 1.0000000000000224
  endloop
endfacet
facet normal 0.6328461005647671 -0.7742776071926457 -4.9918942638557704e-17
  outer loop
    vertex 514.3182909001639 817.386535664404 1.000000000000011
    vertex 512.2952130061627 815.7329982968448 1.127986593019159e-14
    vertex 514.3182909001639 817.386535664404 1.127986593019159e-14
  endloop
endfacet
facet normal 0.6328461005647671 -0.7742776071926457 -4.9918942638557704e-17
  outer loop
    vertex 512.2952130061627 815.7329982968448 1.127986593019159e-14
    vertex 514.3182909001639 817.386535664404 1.000000000000011
    vertex 512.2952130061627 815.7329982968448 1.000000000000011
  endloop
endfacet
facet normal -0.9966093152545085 0.08227923643264827 -2.5436269453635883e-17
  outer loop
    vertex 497.709281738805 858.9390635906595 1.000000000000011
    vertex 497.47245933400626 856.0705462718752 1.127986593019159e-14
    vertex 497.47245933400626 856.0705462718752 1.000000000000011
  endloop
endfacet
facet normal -0.9966093152545085 0.08227923643264827 -2.5436269453635883e-17
  outer loop
    vertex 497.47245933400626 856.0705462718752 1.127986593019159e-14
    vertex 497.709281738805 858.9390635906595 1.000000000000011
    vertex 497.709281738805 858.9390635906595 1.127986593019159e-14
  endloop
endfacet
facet normal -0.1871238742678027 0.9823363251346291 1.3136894128758463e-18
  outer loop
    vertex 488.117760677084 847.4722793056758 1.000000000000011
    vertex 490.69022974936985 847.96230534556 2.255973186038318e-14
    vertex 488.117760677084 847.4722793056758 1.127986593019159e-14
  endloop
endfacet
facet normal -0.1871238742678027 0.9823363251346291 1.3136894128758463e-18
  outer loop
    vertex 490.69022974936985 847.96230534556 2.255973186038318e-14
    vertex 488.117760677084 847.4722793056758 1.000000000000011
    vertex 490.69022974936985 847.96230534556 1.0000000000000224
  endloop
endfacet
facet normal -0.9766600891407196 -0.21479075929760477 1.2221685293274697e-16
  outer loop
    vertex 530.261896546631 810.8534376086685 1.000000000000011
    vertex 530.8619350241161 808.1250444746954 1.127986593019159e-14
    vertex 530.8619350241161 808.1250444746954 1.000000000000011
  endloop
endfacet
facet normal -0.9766600891407196 -0.21479075929760477 1.2221685293274697e-16
  outer loop
    vertex 530.8619350241161 808.1250444746954 1.127986593019159e-14
    vertex 530.261896546631 810.8534376086685 1.000000000000011
    vertex 530.261896546631 810.8534376086685 1.127986593019159e-14
  endloop
endfacet
facet normal -0.3891128582954267 0.9211900908657037 1.6428426795669947e-17
  outer loop
    vertex 523.9942939263764 798.025312109047 1.000000000000011
    vertex 526.4300707095513 799.0541899440009 1.127986593019159e-14
    vertex 523.9942939263764 798.025312109047 1.127986593019159e-14
  endloop
endfacet
facet normal -0.3891128582954267 0.9211900908657037 1.6428426795669947e-17
  outer loop
    vertex 526.4300707095513 799.0541899440009 1.127986593019159e-14
    vertex 523.9942939263764 798.025312109047 1.000000000000011
    vertex 526.4300707095513 799.0541899440009 1.000000000000011
  endloop
endfacet
facet normal 0.8945123467738677 0.4470432433994591 -1.19959148589583e-16
  outer loop
    vertex 510.4864650630843 805.5872879997366 1.127986593019159e-14
    vertex 511.76033502814846 803.038334562326 1.0000000000000224
    vertex 511.76033502814846 803.038334562326 2.255973186038318e-14
  endloop
endfacet
facet normal 0.8945123467738677 0.4470432433994591 -1.19959148589583e-16
  outer loop
    vertex 511.76033502814846 803.038334562326 1.0000000000000224
    vertex 510.4864650630843 805.5872879997366 1.127986593019159e-14
    vertex 510.4864650630843 805.5872879997366 1.000000000000011
  endloop
endfacet
facet normal -0.9486230551502594 0.3164084373675708 -2.271198968696001e-17
  outer loop
    vertex 497.47245933400626 856.0705462718752 1.000000000000011
    vertex 496.570839164131 853.3674019207067 1.127986593019159e-14
    vertex 496.570839164131 853.3674019207067 1.000000000000011
  endloop
endfacet
facet normal -0.9486230551502594 0.3164084373675708 -2.271198968696001e-17
  outer loop
    vertex 496.570839164131 853.3674019207067 1.127986593019159e-14
    vertex 497.47245933400626 856.0705462718752 1.000000000000011
    vertex 497.47245933400626 856.0705462718752 1.127986593019159e-14
  endloop
endfacet
facet normal 0.38911285829541437 -0.9211900908657087 -1.6428426795668332e-17
  outer loop
    vertex 516.7540676833389 818.4154134993578 1.000000000000011
    vertex 514.3182909001639 817.386535664404 1.127986593019159e-14
    vertex 516.7540676833389 818.4154134993578 1.127986593019159e-14
  endloop
endfacet
facet normal 0.38911285829541437 -0.9211900908657087 -1.6428426795668332e-17
  outer loop
    vertex 514.3182909001639 817.386535664404 1.127986593019159e-14
    vertex 516.7540676833389 818.4154134993578 1.000000000000011
    vertex 514.3182909001639 817.386535664404 1.000000000000011
  endloop
endfacet
facet normal 0.21479075929752284 -0.9766600891407377 -1.415963893471718e-17
  outer loop
    vertex 458.69121404618517 819.0524225743229 1.000000000000011
    vertex 455.9628209122119 818.452384096838 1.127986593019159e-14
    vertex 458.69121404618517 819.0524225743229 1.127986593019159e-14
  endloop
endfacet
facet normal 0.21479075929752284 -0.9766600891407377 -1.415963893471718e-17
  outer loop
    vertex 455.9628209122119 818.452384096838 1.127986593019159e-14
    vertex 458.69121404618517 819.0524225743229 1.000000000000011
    vertex 455.9628209122119 818.452384096838 1.000000000000011
  endloop
endfacet
facet normal 0.9991135397614749 -0.042096729864633704 -1.1663579637490747e-16
  outer loop
    vertex 510.00111122632336 811.037578481048 1.127986593019159e-14
    vertex 509.8864265855992 808.3156811337099 1.000000000000011
    vertex 509.8864265855992 808.3156811337099 1.127986593019159e-14
  endloop
endfacet
facet normal 0.9991135397614749 -0.042096729864633704 -1.1663579637490747e-16
  outer loop
    vertex 509.8864265855992 808.3156811337099 1.000000000000011
    vertex 510.00111122632336 811.037578481048 1.127986593019159e-14
    vertex 510.00111122632336 811.037578481048 1.000000000000011
  endloop
endfacet
facet normal -0.0420967298646351 -0.9991135397614749 -2.4430832173595943e-17
  outer loop
    vertex 461.41311139352314 818.9377379335989 1.000000000000011
    vertex 458.69121404618517 819.0524225743229 1.127986593019159e-14
    vertex 461.41311139352314 818.9377379335989 1.127986593019159e-14
  endloop
endfacet
facet normal -0.0420967298646351 -0.9991135397614749 -2.4430832173595943e-17
  outer loop
    vertex 458.69121404618517 819.0524225743229 1.127986593019159e-14
    vertex 461.41311139352314 818.9377379335989 1.000000000000011
    vertex 458.69121404618517 819.0524225743229 1.000000000000011
  endloop
endfacet
facet normal -0.3088724740496088 -0.9511034616562353 -3.346740581272533e-17
  outer loop
    vertex 463.9430201481535 818.1161457434057 1.000000000000011
    vertex 461.41311139352314 818.9377379335989 1.127986593019159e-14
    vertex 463.9430201481535 818.1161457434057 1.127986593019159e-14
  endloop
endfacet
facet normal -0.3088724740496088 -0.9511034616562353 -3.346740581272533e-17
  outer loop
    vertex 461.41311139352314 818.9377379335989 1.127986593019159e-14
    vertex 463.9430201481535 818.1161457434057 1.000000000000011
    vertex 461.41311139352314 818.9377379335989 1.000000000000011
  endloop
endfacet
facet normal -0.6328461005647935 0.7742776071926241 4.991894263856152e-17
  outer loop
    vertex 526.4300707095513 799.0541899440009 1.000000000000011
    vertex 528.453148603553 800.7077273115607 1.127986593019159e-14
    vertex 526.4300707095513 799.0541899440009 1.127986593019159e-14
  endloop
endfacet
facet normal -0.6328461005647935 0.7742776071926241 4.991894263856152e-17
  outer loop
    vertex 528.453148603553 800.7077273115607 1.127986593019159e-14
    vertex 526.4300707095513 799.0541899440009 1.000000000000011
    vertex 528.453148603553 800.7077273115607 1.000000000000011
  endloop
endfacet
facet normal -0.12359464420494977 0.9923327888988915 -1.7206442716560453e-17
  outer loop
    vertex 521.3118124164896 797.6912101308501 1.000000000000011
    vertex 523.9942939263764 798.025312109047 1.127986593019159e-14
    vertex 521.3118124164896 797.6912101308501 1.127986593019159e-14
  endloop
endfacet
facet normal -0.12359464420494977 0.9923327888988915 -1.7206442716560453e-17
  outer loop
    vertex 523.9942939263764 798.025312109047 1.127986593019159e-14
    vertex 521.3118124164896 797.6912101308501 1.000000000000011
    vertex 523.9942939263764 798.025312109047 1.000000000000011
  endloop
endfacet
facet normal 0.13827619549690998 0.990393706441484 -4.806851466833202e-17
  outer loop
    vertex 518.5654328617796 798.0746525070949 0.9999999999999999
    vertex 521.3118124164896 797.6912101308501 1.127986593019159e-14
    vertex 518.5654328617796 798.0746525070949 0.0
  endloop
endfacet
facet normal 0.13827619549690998 0.990393706441484 -4.806851466833202e-17
  outer loop
    vertex 521.3118124164896 797.6912101308501 1.127986593019159e-14
    vertex 518.5654328617796 798.0746525070949 0.9999999999999999
    vertex 521.3118124164896 797.6912101308501 1.000000000000011
  endloop
endfacet
facet normal -0.7628894110424623 -0.6465289989778377 1.1080885171045104e-16
  outer loop
    vertex 527.1271372618734 815.5981978225125 1.000000000000011
    vertex 528.9880265815669 813.4023910460791 1.127986593019159e-14
    vertex 528.9880265815669 813.4023910460791 1.000000000000011
  endloop
endfacet
facet normal -0.7628894110424623 -0.6465289989778377 1.1080885171045104e-16
  outer loop
    vertex 528.9880265815669 813.4023910460791 1.127986593019159e-14
    vertex 527.1271372618734 815.5981978225125 1.000000000000011
    vertex 527.1271372618734 815.5981978225125 1.127986593019159e-14
  endloop
endfacet
facet normal -0.987979438248859 -0.15458534729226128 -2.6703335481578026e-17
  outer loop
    vertex 497.2651673230073 861.7774691622334 1.000000000000011
    vertex 497.709281738805 858.9390635906595 1.127986593019159e-14
    vertex 497.709281738805 858.9390635906595 1.000000000000011
  endloop
endfacet
facet normal -0.987979438248859 -0.15458534729226128 -2.6703335481578026e-17
  outer loop
    vertex 497.709281738805 858.9390635906595 1.127986593019159e-14
    vertex 497.2651673230073 861.7774691622334 1.000000000000011
    vertex 497.2651673230073 861.7774691622334 1.127986593019159e-14
  endloop
endfacet
facet normal 0.9766600891407228 0.21479075929759125 -1.2221685293274692e-16
  outer loop
    vertex 509.8864265855992 808.3156811337099 1.127986593019159e-14
    vertex 510.4864650630843 805.5872879997366 1.000000000000011
    vertex 510.4864650630843 805.5872879997366 1.127986593019159e-14
  endloop
endfacet
facet normal 0.9766600891407228 0.21479075929759125 -1.2221685293274692e-16
  outer loop
    vertex 510.4864650630843 805.5872879997366 1.000000000000011
    vertex 509.8864265855992 808.3156811337099 1.127986593019159e-14
    vertex 509.8864265855992 808.3156811337099 1.000000000000011
  endloop
endfacet
facet normal 0.951103461656232 -0.3088724740496188 -1.0241683929135084e-16
  outer loop
    vertex 510.8227034165165 813.5674872356782 1.127986593019159e-14
    vertex 510.00111122632336 811.037578481048 1.000000000000011
    vertex 510.00111122632336 811.037578481048 1.127986593019159e-14
  endloop
endfacet
facet normal 0.951103461656232 -0.3088724740496188 -1.0241683929135084e-16
  outer loop
    vertex 510.00111122632336 811.037578481048 1.000000000000011
    vertex 510.8227034165165 813.5674872356782 1.127986593019159e-14
    vertex 510.8227034165165 813.5674872356782 1.000000000000011
  endloop
endfacet
facet normal -0.9511034616562453 0.3088724740495782 1.024168392913537e-16
  outer loop
    vertex 530.7472503833917 805.403147127357 1.000000000000011
    vertex 529.9256581931986 802.8732383727266 1.127986593019159e-14
    vertex 529.9256581931986 802.8732383727266 1.000000000000011
  endloop
endfacet
facet normal -0.9511034616562453 0.3088724740495782 1.024168392913537e-16
  outer loop
    vertex 529.9256581931986 802.8732383727266 1.127986593019159e-14
    vertex 530.7472503833917 805.403147127357 1.000000000000011
    vertex 530.7472503833917 805.403147127357 1.127986593019159e-14
  endloop
endfacet
facet normal 0.3791654492920888 0.9253288939956046 -7.442986498303695e-17
  outer loop
    vertex 515.9423164902933 799.1495082735082 1.127986593019159e-14
    vertex 518.5654328617796 798.0746525070949 0.9999999999999999
    vertex 518.5654328617796 798.0746525070949 0.0
  endloop
endfacet
facet normal 0.3791654492920888 0.9253288939956046 -7.442986498303695e-17
  outer loop
    vertex 518.5654328617796 798.0746525070949 0.9999999999999999
    vertex 515.9423164902933 799.1495082735082 1.127986593019159e-14
    vertex 515.9423164902933 799.1495082735082 1.000000000000011
  endloop
endfacet
facet normal 0.8269332373251944 -0.5623001164919615 -7.963193528437389e-17
  outer loop
    vertex 512.2952130061627 815.7329982968448 1.127986593019159e-14
    vertex 510.8227034165165 813.5674872356782 1.000000000000011
    vertex 510.8227034165165 813.5674872356782 1.127986593019159e-14
  endloop
endfacet
facet normal 0.8269332373251944 -0.5623001164919615 -7.963193528437389e-17
  outer loop
    vertex 510.8227034165165 813.5674872356782 1.000000000000011
    vertex 512.2952130061627 815.7329982968448 1.127986593019159e-14
    vertex 512.2952130061627 815.7329982968448 1.000000000000011
  endloop
endfacet
facet normal -0.894512346773874 -0.44704324339944645 1.1995914858958335e-16
  outer loop
    vertex 528.9880265815669 813.4023910460791 1.000000000000011
    vertex 530.261896546631 810.8534376086685 1.127986593019159e-14
    vertex 530.261896546631 810.8534376086685 1.000000000000011
  endloop
endfacet
facet normal -0.894512346773874 -0.44704324339944645 1.1995914858958335e-16
  outer loop
    vertex 530.261896546631 810.8534376086685 1.127986593019159e-14
    vertex 528.9880265815669 813.4023910460791 1.000000000000011
    vertex 528.9880265815669 813.4023910460791 1.127986593019159e-14
  endloop
endfacet
facet normal 0.5892986131161623 0.8079153078011135 -9.548160006662546e-17
  outer loop
    vertex 513.6212243478421 800.8425277858926 2.255973186038318e-14
    vertex 515.9423164902933 799.1495082735082 1.000000000000011
    vertex 515.9423164902933 799.1495082735082 1.127986593019159e-14
  endloop
endfacet
facet normal 0.5892986131161623 0.8079153078011135 -9.548160006662546e-17
  outer loop
    vertex 515.9423164902933 799.1495082735082 1.000000000000011
    vertex 513.6212243478421 800.8425277858926 2.255973186038318e-14
    vertex 513.6212243478421 800.8425277858926 1.0000000000000224
  endloop
endfacet
facet normal 0.44704324339949714 -0.8945123467738487 -3.4600924772009445e-18
  outer loop
    vertex 455.9628209122119 818.452384096838 1.127986593019159e-14
    vertex 453.41386747480124 817.1785141317738 0.9999999999999999
    vertex 453.41386747480124 817.1785141317738 0.0
  endloop
endfacet
facet normal 0.44704324339949714 -0.8945123467738487 -3.4600924772009445e-18
  outer loop
    vertex 453.41386747480124 817.1785141317738 0.9999999999999999
    vertex 455.9628209122119 818.452384096838 1.127986593019159e-14
    vertex 455.9628209122119 818.452384096838 1.000000000000011
  endloop
endfacet
facet normal 3.7985838832122176e-17 2.2852009975812464e-17 -1.0
  outer loop
    vertex 448.4501854195699 810.3734162981426 1.000000000000011
    vertex 448.40084502152223 804.944555233546 1.000000000000011
    vertex 448.0667430433253 807.6270367434327 1.000000000000011
  endloop
endfacet
facet normal 3.7985838832122176e-17 2.2852009975812464e-17 -1.0
  outer loop
    vertex 448.40084502152223 804.944555233546 1.000000000000011
    vertex 448.4501854195699 810.3734162981426 1.000000000000011
    vertex 449.42972285647625 802.5087784503711 1.000000000000011
  endloop
endfacet
facet normal 3.7985838832122176e-17 2.2852009975812464e-17 -1.0
  outer loop
    vertex 449.42972285647625 802.5087784503711 1.000000000000011
    vertex 448.4501854195699 810.3734162981426 1.000000000000011
    vertex 449.52504118598347 812.9965326696292 1.000000000000011
  endloop
endfacet
facet normal 3.7985838832122176e-17 2.2852009975812464e-17 -1.0
  outer loop
    vertex 449.42972285647625 802.5087784503711 1.000000000000011
    vertex 449.52504118598347 812.9965326696292 1.000000000000011
    vertex 451.083260224036 800.4857005563696 1.000000000000011
  endloop
endfacet
facet normal 3.7985838832122176e-17 2.2852009975812464e-17 -1.0
  outer loop
    vertex 451.083260224036 800.4857005563696 1.000000000000011
    vertex 449.52504118598347 812.9965326696292 1.000000000000011
    vertex 451.21806069836776 815.3176248120801 0.9999999999999999
  endloop
endfacet
facet normal 3.7985838832122176e-17 2.2852009975812464e-17 -1.0
  outer loop
    vertex 451.083260224036 800.4857005563696 1.000000000000011
    vertex 451.21806069836776 815.3176248120801 0.9999999999999999
    vertex 453.24877128520194 799.0131909667236 1.000000000000011
  endloop
endfacet
facet normal 3.7985838832122176e-17 2.2852009975812464e-17 -1.0
  outer loop
    vertex 453.24877128520194 799.0131909667236 1.000000000000011
    vertex 451.21806069836776 815.3176248120801 0.9999999999999999
    vertex 453.41386747480124 817.1785141317738 0.9999999999999999
  endloop
endfacet
facet normal 3.7985838832122176e-17 2.2852009975812464e-17 -1.0
  outer loop
    vertex 453.24877128520194 799.0131909667236 1.000000000000011
    vertex 453.41386747480124 817.1785141317738 0.9999999999999999
    vertex 455.7786800398323 798.1915987765304 1.000000000000011
  endloop
endfacet
facet normal 3.7985838832122176e-17 2.2852009975812464e-17 -1.0
  outer loop
    vertex 455.7786800398323 798.1915987765304 1.000000000000011
    vertex 453.41386747480124 817.1785141317738 0.9999999999999999
    vertex 455.9628209122119 818.452384096838 1.000000000000011
  endloop
endfacet
facet normal 3.7985838832122176e-17 2.2852009975812464e-17 -1.0
  outer loop
    vertex 455.7786800398323 798.1915987765304 1.000000000000011
    vertex 455.9628209122119 818.452384096838 1.000000000000011
    vertex 458.5005773871706 798.0769141358061 1.000000000000011
  endloop
endfacet
facet normal 3.7985838832122176e-17 2.2852009975812464e-17 -1.0
  outer loop
    vertex 458.5005773871706 798.0769141358061 1.000000000000011
    vertex 455.9628209122119 818.452384096838 1.000000000000011
    vertex 458.69121404618517 819.0524225743229 1.000000000000011
  endloop
endfacet
facet normal 3.7985838832122176e-17 2.2852009975812464e-17 -1.0
  outer loop
    vertex 458.5005773871706 798.0769141358061 1.000000000000011
    vertex 458.69121404618517 819.0524225743229 1.000000000000011
    vertex 461.2289705211436 798.6769526132912 0.9999999999999999
  endloop
endfacet
facet normal 3.7985838832122176e-17 2.2852009975812464e-17 -1.0
  outer loop
    vertex 461.2289705211436 798.6769526132912 0.9999999999999999
    vertex 458.69121404618517 819.0524225743229 1.000000000000011
    vertex 461.41311139352314 818.9377379335989 1.000000000000011
  endloop
endfacet
facet normal 3.7985838832122176e-17 2.2852009975812464e-17 -1.0
  outer loop
    vertex 461.2289705211436 798.6769526132912 0.9999999999999999
    vertex 461.41311139352314 818.9377379335989 1.000000000000011
    vertex 463.7779239585542 799.9508225783553 0.9999999999999999
  endloop
endfacet
facet normal 3.7985838832122176e-17 2.2852009975812464e-17 -1.0
  outer loop
    vertex 463.7779239585542 799.9508225783553 0.9999999999999999
    vertex 461.41311139352314 818.9377379335989 1.000000000000011
    vertex 463.9430201481535 818.1161457434057 1.000000000000011
  endloop
endfacet
facet normal 3.7985838832122176e-17 2.2852009975812464e-17 -1.0
  outer loop
    vertex 463.7779239585542 799.9508225783553 0.9999999999999999
    vertex 463.9430201481535 818.1161457434057 1.000000000000011
    vertex 465.9737307349878 801.8117118980489 1.000000000000011
  endloop
endfacet
facet normal 3.7985838832122176e-17 2.2852009975812464e-17 -1.0
  outer loop
    vertex 465.9737307349878 801.8117118980489 1.000000000000011
    vertex 463.9430201481535 818.1161457434057 1.000000000000011
    vertex 466.108531209319 816.6436361537606 1.000000000000011
  endloop
endfacet
facet normal 3.7985838832122176e-17 2.2852009975812464e-17 -1.0
  outer loop
    vertex 465.9737307349878 801.8117118980489 1.000000000000011
    vertex 466.108531209319 816.6436361537606 1.000000000000011
    vertex 467.6667502473721 804.1328040405002 1.000000000000011
  endloop
endfacet
facet normal 3.7985838832122176e-17 2.2852009975812464e-17 -1.0
  outer loop
    vertex 467.6667502473721 804.1328040405002 1.000000000000011
    vertex 466.108531209319 816.6436361537606 1.000000000000011
    vertex 467.76206857687913 814.6205582597585 1.000000000000011
  endloop
endfacet
facet normal 3.7985838832122176e-17 2.2852009975812464e-17 -1.0
  outer loop
    vertex 467.6667502473721 804.1328040405002 1.000000000000011
    vertex 467.76206857687913 814.6205582597585 1.000000000000011
    vertex 468.74160601378543 806.7559204119865 1.000000000000011
  endloop
endfacet
facet normal 3.7985838832122176e-17 2.2852009975812464e-17 -1.0
  outer loop
    vertex 468.74160601378543 806.7559204119865 1.000000000000011
    vertex 467.76206857687913 814.6205582597585 1.000000000000011
    vertex 468.7909464118331 812.1847814765835 1.000000000000011
  endloop
endfacet
facet normal 3.7985838832122176e-17 2.2852009975812464e-17 -1.0
  outer loop
    vertex 468.74160601378543 806.7559204119865 1.000000000000011
    vertex 468.7909464118331 812.1847814765835 1.000000000000011
    vertex 469.12504839003003 809.5022999666966 1.000000000000011
  endloop
endfacet
facet normal 0.042096729864695655 0.9991135397614722 2.443083217359818e-17
  outer loop
    vertex 455.7786800398323 798.1915987765304 1.000000000000011
    vertex 458.5005773871706 798.0769141358061 1.127986593019159e-14
    vertex 455.7786800398323 798.1915987765304 1.127986593019159e-14
  endloop
endfacet
facet normal 0.042096729864695655 0.9991135397614722 2.443083217359818e-17
  outer loop
    vertex 458.5005773871706 798.0769141358061 1.127986593019159e-14
    vertex 455.7786800398323 798.1915987765304 1.000000000000011
    vertex 458.5005773871706 798.0769141358061 1.000000000000011
  endloop
endfacet
facet normal 0.6465289989778589 -0.7628894110424447 7.12538992388259e-18
  outer loop
    vertex 453.41386747480124 817.1785141317738 0.9999999999999999
    vertex 451.21806069836776 815.3176248120801 0.0
    vertex 453.41386747480124 817.1785141317738 0.0
  endloop
endfacet
facet normal 0.6465289989778589 -0.7628894110424447 7.12538992388259e-18
  outer loop
    vertex 451.21806069836776 815.3176248120801 0.0
    vertex 453.41386747480124 817.1785141317738 0.9999999999999999
    vertex 451.21806069836776 815.3176248120801 0.9999999999999999
  endloop
endfacet
facet normal 0.3088724740496395 0.9511034616562253 3.3467405812726274e-17
  outer loop
    vertex 453.24877128520194 799.0131909667236 1.000000000000011
    vertex 455.7786800398323 798.1915987765304 1.127986593019159e-14
    vertex 453.24877128520194 799.0131909667236 1.127986593019159e-14
  endloop
endfacet
facet normal 0.3088724740496395 0.9511034616562253 3.3467405812726274e-17
  outer loop
    vertex 455.7786800398323 798.1915987765304 1.127986593019159e-14
    vertex 453.24877128520194 799.0131909667236 1.000000000000011
    vertex 455.7786800398323 798.1915987765304 1.000000000000011
  endloop
endfacet
facet normal -0.6465289989778068 0.7628894110424886 -7.125389923879607e-18
  outer loop
    vertex 463.7779239585542 799.9508225783553 0.9999999999999999
    vertex 465.9737307349878 801.8117118980489 1.127986593019159e-14
    vertex 463.7779239585542 799.9508225783553 0.0
  endloop
endfacet
facet normal -0.6465289989778068 0.7628894110424886 -7.125389923879607e-18
  outer loop
    vertex 465.9737307349878 801.8117118980489 1.127986593019159e-14
    vertex 463.7779239585542 799.9508225783553 0.9999999999999999
    vertex 465.9737307349878 801.8117118980489 1.000000000000011
  endloop
endfacet
facet normal -0.9211900908656895 -0.3891128582954601 -4.388418924485682e-17
  outer loop
    vertex 467.76206857687913 814.6205582597585 1.000000000000011
    vertex 468.7909464118331 812.1847814765835 1.127986593019159e-14
    vertex 468.7909464118331 812.1847814765835 1.000000000000011
  endloop
endfacet
facet normal -0.9211900908656895 -0.3891128582954601 -4.388418924485682e-17
  outer loop
    vertex 468.7909464118331 812.1847814765835 1.127986593019159e-14
    vertex 467.76206857687913 814.6205582597585 1.000000000000011
    vertex 467.76206857687913 814.6205582597585 1.127986593019159e-14
  endloop
endfacet
facet normal -0.9903937064414935 0.13827619549684167 -3.446104671432348e-17
  outer loop
    vertex 469.12504839003003 809.5022999666966 1.000000000000011
    vertex 468.74160601378543 806.7559204119865 1.127986593019159e-14
    vertex 468.74160601378543 806.7559204119865 1.000000000000011
  endloop
endfacet
facet normal -0.9903937064414935 0.13827619549684167 -3.446104671432348e-17
  outer loop
    vertex 468.74160601378543 806.7559204119865 1.127986593019159e-14
    vertex 469.12504839003003 809.5022999666966 1.000000000000011
    vertex 469.12504839003003 809.5022999666966 1.127986593019159e-14
  endloop
endfacet
facet normal -0.9253288939955998 0.37916544929209994 -2.6484701604316243e-17
  outer loop
    vertex 468.74160601378543 806.7559204119865 1.000000000000011
    vertex 467.6667502473721 804.1328040405002 1.127986593019159e-14
    vertex 467.6667502473721 804.1328040405002 1.000000000000011
  endloop
endfacet
facet normal -0.9253288939955998 0.37916544929209994 -2.6484701604316243e-17
  outer loop
    vertex 467.6667502473721 804.1328040405002 1.127986593019159e-14
    vertex 468.74160601378543 806.7559204119865 1.000000000000011
    vertex 468.74160601378543 806.7559204119865 1.127986593019159e-14
  endloop
endfacet
facet normal -0.21479075929761157 0.9766600891407182 1.4159638934713364e-17
  outer loop
    vertex 458.5005773871706 798.0769141358061 1.127986593019159e-14
    vertex 461.2289705211436 798.6769526132912 0.9999999999999999
    vertex 461.2289705211436 798.6769526132912 0.0
  endloop
endfacet
facet normal -0.21479075929761157 0.9766600891407182 1.4159638934713364e-17
  outer loop
    vertex 461.2289705211436 798.6769526132912 0.9999999999999999
    vertex 458.5005773871706 798.0769141358061 1.127986593019159e-14
    vertex 458.5005773871706 798.0769141358061 1.000000000000011
  endloop
endfacet
facet normal -0.5623001164918475 -0.826933237325272 -4.0256528189030856e-17
  outer loop
    vertex 466.108531209319 816.6436361537606 1.000000000000011
    vertex 463.9430201481535 818.1161457434057 1.127986593019159e-14
    vertex 466.108531209319 816.6436361537606 1.127986593019159e-14
  endloop
endfacet
facet normal -0.5623001164918475 -0.826933237325272 -4.0256528189030856e-17
  outer loop
    vertex 463.9430201481535 818.1161457434057 1.127986593019159e-14
    vertex 466.108531209319 816.6436361537606 1.000000000000011
    vertex 463.9430201481535 818.1161457434057 1.000000000000011
  endloop
endfacet
facet normal -0.8079153078011352 0.5892986131161324 -1.7222682886475992e-17
  outer loop
    vertex 467.6667502473721 804.1328040405002 1.000000000000011
    vertex 465.9737307349878 801.8117118980489 1.127986593019159e-14
    vertex 465.9737307349878 801.8117118980489 1.000000000000011
  endloop
endfacet
facet normal -0.8079153078011352 0.5892986131161324 -1.7222682886475992e-17
  outer loop
    vertex 465.9737307349878 801.8117118980489 1.127986593019159e-14
    vertex 467.6667502473721 804.1328040405002 1.000000000000011
    vertex 467.6667502473721 804.1328040405002 1.127986593019159e-14
  endloop
endfacet
facet normal 0.5623001164919795 0.8269332373251823 4.025652818903382e-17
  outer loop
    vertex 451.083260224036 800.4857005563696 1.000000000000011
    vertex 453.24877128520194 799.0131909667236 1.127986593019159e-14
    vertex 451.083260224036 800.4857005563696 1.127986593019159e-14
  endloop
endfacet
facet normal 0.5623001164919795 0.8269332373251823 4.025652818903382e-17
  outer loop
    vertex 453.24877128520194 799.0131909667236 1.127986593019159e-14
    vertex 451.083260224036 800.4857005563696 1.000000000000011
    vertex 453.24877128520194 799.0131909667236 1.000000000000011
  endloop
endfacet
facet normal 0.9211900908656844 0.3891128582954724 4.38841892448569e-17
  outer loop
    vertex 448.40084502152223 804.944555233546 1.127986593019159e-14
    vertex 449.42972285647625 802.5087784503711 1.000000000000011
    vertex 449.42972285647625 802.5087784503711 1.127986593019159e-14
  endloop
endfacet
facet normal 0.9211900908656844 0.3891128582954724 4.38841892448569e-17
  outer loop
    vertex 449.42972285647625 802.5087784503711 1.000000000000011
    vertex 448.40084502152223 804.944555233546 1.127986593019159e-14
    vertex 448.40084502152223 804.944555233546 1.000000000000011
  endloop
endfacet
facet normal 0.992332788898891 0.12359464420495385 4.051897942927219e-17
  outer loop
    vertex 448.0667430433253 807.6270367434327 1.127986593019159e-14
    vertex 448.40084502152223 804.944555233546 1.000000000000011
    vertex 448.40084502152223 804.944555233546 1.127986593019159e-14
  endloop
endfacet
facet normal 0.992332788898891 0.12359464420495385 4.051897942927219e-17
  outer loop
    vertex 448.40084502152223 804.944555233546 1.000000000000011
    vertex 448.0667430433253 807.6270367434327 1.127986593019159e-14
    vertex 448.0667430433253 807.6270367434327 1.000000000000011
  endloop
endfacet
facet normal -0.9923327888988921 -0.12359464420494568 -4.051897942927204e-17
  outer loop
    vertex 468.7909464118331 812.1847814765835 1.000000000000011
    vertex 469.12504839003003 809.5022999666966 1.127986593019159e-14
    vertex 469.12504839003003 809.5022999666966 1.000000000000011
  endloop
endfacet
facet normal -0.9923327888988921 -0.12359464420494568 -4.051897942927204e-17
  outer loop
    vertex 469.12504839003003 809.5022999666966 1.127986593019159e-14
    vertex 468.7909464118331 812.1847814765835 1.000000000000011
    vertex 468.7909464118331 812.1847814765835 1.127986593019159e-14
  endloop
endfacet
facet normal 0.7742776071925995 0.6328461005648236 4.387338980140066e-17
  outer loop
    vertex 449.42972285647625 802.5087784503711 1.127986593019159e-14
    vertex 451.083260224036 800.4857005563696 1.000000000000011
    vertex 451.083260224036 800.4857005563696 1.127986593019159e-14
  endloop
endfacet
facet normal 0.7742776071925995 0.6328461005648236 4.387338980140066e-17
  outer loop
    vertex 451.083260224036 800.4857005563696 1.000000000000011
    vertex 449.42972285647625 802.5087784503711 1.127986593019159e-14
    vertex 449.42972285647625 802.5087784503711 1.000000000000011
  endloop
endfacet
facet normal 0.990393706441493 -0.13827619549684617 3.4461046714323356e-17
  outer loop
    vertex 448.4501854195699 810.3734162981426 1.127986593019159e-14
    vertex 448.0667430433253 807.6270367434327 1.000000000000011
    vertex 448.0667430433253 807.6270367434327 1.127986593019159e-14
  endloop
endfacet
facet normal 0.990393706441493 -0.13827619549684617 3.4461046714323356e-17
  outer loop
    vertex 448.0667430433253 807.6270367434327 1.000000000000011
    vertex 448.4501854195699 810.3734162981426 1.127986593019159e-14
    vertex 448.4501854195699 810.3734162981426 1.000000000000011
  endloop
endfacet
facet normal -0.7742776071926285 -0.6328461005647879 -4.387338980140094e-17
  outer loop
    vertex 466.108531209319 816.6436361537606 1.000000000000011
    vertex 467.76206857687913 814.6205582597585 1.127986593019159e-14
    vertex 467.76206857687913 814.6205582597585 1.000000000000011
  endloop
endfacet
facet normal -0.7742776071926285 -0.6328461005647879 -4.387338980140094e-17
  outer loop
    vertex 467.76206857687913 814.6205582597585 1.127986593019159e-14
    vertex 466.108531209319 816.6436361537606 1.000000000000011
    vertex 466.108531209319 816.6436361537606 1.127986593019159e-14
  endloop
endfacet
facet normal -0.44704324339947177 0.8945123467738614 3.4600924772021987e-18
  outer loop
    vertex 461.2289705211436 798.6769526132912 0.9999999999999999
    vertex 463.7779239585542 799.9508225783553 0.0
    vertex 461.2289705211436 798.6769526132912 0.0
  endloop
endfacet
facet normal -0.44704324339947177 0.8945123467738614 3.4600924772021987e-18
  outer loop
    vertex 463.7779239585542 799.9508225783553 0.0
    vertex 461.2289705211436 798.6769526132912 0.9999999999999999
    vertex 463.7779239585542 799.9508225783553 0.9999999999999999
  endloop
endfacet
facet normal 0.9253288939955914 -0.379165449292121 2.6484701604315432e-17
  outer loop
    vertex 449.52504118598347 812.9965326696292 1.127986593019159e-14
    vertex 448.4501854195699 810.3734162981426 1.000000000000011
    vertex 448.4501854195699 810.3734162981426 1.127986593019159e-14
  endloop
endfacet
facet normal 0.9253288939955914 -0.379165449292121 2.6484701604315432e-17
  outer loop
    vertex 448.4501854195699 810.3734162981426 1.000000000000011
    vertex 449.52504118598347 812.9965326696292 1.127986593019159e-14
    vertex 449.52504118598347 812.9965326696292 1.000000000000011
  endloop
endfacet
facet normal 0.8079153078010807 -0.5892986131162072 1.7222682886472214e-17
  outer loop
    vertex 451.21806069836776 815.3176248120801 0.0
    vertex 449.52504118598347 812.9965326696292 1.000000000000011
    vertex 449.52504118598347 812.9965326696292 1.127986593019159e-14
  endloop
endfacet
facet normal 0.8079153078010807 -0.5892986131162072 1.7222682886472214e-17
  outer loop
    vertex 449.52504118598347 812.9965326696292 1.000000000000011
    vertex 451.21806069836776 815.3176248120801 0.0
    vertex 451.21806069836776 815.3176248120801 0.9999999999999999
  endloop
endfacet
endsolid Sentry3Dmodels
